<svg id="Layer_1" data-name="Layer 1" xmlns="http://www.w3.org/2000/svg" viewBox="0 0 2242 1194"><defs><style>.cls-1{fill:#ef4857;}.cls-1,.cls-2,.cls-3,.cls-4,.cls-5{stroke:#000;}.cls-1,.cls-2,.cls-3,.cls-4,.cls-5,.cls-6{stroke-linecap:square;stroke-linejoin:round;stroke-width:2px;}.cls-3{fill:#fff;}.cls-4{fill:#ffc916;}.cls-5{fill:#ffc815;}.cls-6{fill:none;stroke:#353535;}</style></defs><ellipse class="cls-1" cx="1178.2" cy="114" rx="53" ry="35"/><path class="cls-2" d="M1165,112.6a4,4,0,0,1,1.8-2.2,5.78,5.78,0,0,1,2.8-.8,3.8,3.8,0,0,1,2.6,1,6.44,6.44,0,0,1,1,4V122h-1v-7.2a6.84,6.84,0,0,0-.6-3.4,2,2,0,0,0-1.8-.8,5.39,5.39,0,0,0-3,1,4.28,4.28,0,0,0-1.4,3.6V122h-1v-7.2a6.84,6.84,0,0,0-.6-3.4,2.1,2.1,0,0,0-1.8-1,5.39,5.39,0,0,0-3,1,4.28,4.28,0,0,0-1.4,3.6v7h-1V110h1v2.2a4.72,4.72,0,0,1,1.6-1.8,5.81,5.81,0,0,1,2.8-.6,3.38,3.38,0,0,1,2,.6,12.27,12.27,0,0,1,1,2.2m17.6,2.6c-1.6,0-2.8.2-3.4.8a3.31,3.31,0,0,0-1,2.4,2.49,2.49,0,0,0,.8,2.2,3.38,3.38,0,0,0,2,.6,3.09,3.09,0,0,0,3.2-2,8.93,8.93,0,0,0,1-3.6v-.8h-2.6m3.6.4V122h-1v-3.2c-.6,1.6-1.2,2.6-2.2,3a4.56,4.56,0,0,1-2.2.6,3.47,3.47,0,0,1-3.8-3.8,3.6,3.6,0,0,1,1.4-3c.8-.8,2.4-1.2,4.4-1.2h2.4v-.2a3.8,3.8,0,0,0-1-2.6,4.14,4.14,0,0,0-3-1,7.11,7.11,0,0,0-2,.4c-.4.2-1,.6-1.8,1v-1a7.1,7.1,0,0,1,1.8-.8,10.32,10.32,0,0,1,2.2-.4,5.58,5.58,0,0,1,3.6,1.2q1.2.9,1.2,4.2m6,4v7.2h-1V110h1v2.8a7,7,0,0,1,1.4-2.2,3.84,3.84,0,0,1,2.4-.8,4.54,4.54,0,0,1,3.6,1.8,8.26,8.26,0,0,1,0,9.2,4.54,4.54,0,0,1-3.6,1.8,4.16,4.16,0,0,1-2.4-1,5.44,5.44,0,0,1-1.4-2.4m6.4,1q1.2-1.2,1.2-4.2t-1.2-4.2a3.42,3.42,0,0,0-5.2,0q-1.2,1.2-1.2,4.2t1.2,4.2a3.42,3.42,0,0,0,5.2,0"/><ellipse class="cls-3" cx="1208.2" cy="1115" rx="157.6" ry="35"/><path class="cls-2" d="M1113.89,1111.8c-.2,0-.4-.2-.6-.2h-1a3.6,3.6,0,0,0-3,1.4,6.18,6.18,0,0,0-1,3.8v6.4h-1v-12h1v2.2a5.39,5.39,0,0,1,1.4-1.6,4.78,4.78,0,0,1,2.8-1h1.4v1m2.4-.8h1v12h-1v-12m0-4.8h1v1.4h-1v-1.4m14.2,10.6a6.62,6.62,0,0,0-1-3.8,3.5,3.5,0,0,0-5.6,0,7.11,7.11,0,0,0-1,3.8,6.62,6.62,0,0,0,1,3.8,3.5,3.5,0,0,0,5.6,0,6.18,6.18,0,0,0,1-3.8m1,4.8c0,2.6-.4,4.2-1.4,5a5.58,5.58,0,0,1-3.6,1.2,6.17,6.17,0,0,1-2-.2,6.36,6.36,0,0,1-1.8-.6v-1.2a7.1,7.1,0,0,0,1.8.8,5.54,5.54,0,0,0,1.8.2,4.82,4.82,0,0,0,3-.8c.8-.6,1.2-1.8,1.2-4.2v-2a17.59,17.59,0,0,1-1.2,2,3.31,3.31,0,0,1-2.6,1,4.39,4.39,0,0,1-3.6-1.6,7.43,7.43,0,0,1-1.2-4.6,7.84,7.84,0,0,1,1.2-4.6,4.39,4.39,0,0,1,3.6-1.6,4.21,4.21,0,0,1,2.6,1,5.1,5.1,0,0,1,1.4,2v-2.6h1v10.8m13-5.8v7.2h-1v-7.2c0-1.6-.2-2.6-.8-3.2a3.31,3.31,0,0,0-2.4-1,4.91,4.91,0,0,0-3,1c-.8.8-1,1.8-1,3.6v6.8h-1v-16.8h1v7a3.11,3.11,0,0,1,1.2-1.6,4.15,4.15,0,0,1,3-.8,3.36,3.36,0,0,1,2.8,1.2c1,.8,1.2,2,1.2,3.8m6-8.2v3.4h4v.8h-4v7.2a4.3,4.3,0,0,0,.4,2,2.51,2.51,0,0,0,2.2,1.2h1.6v.8h-1.6a4,4,0,0,1-2.6-.8,4.35,4.35,0,0,1-1-3.2v-7.2h-1.4v-.8h1.4v-3.4h1m16.2,19.8v.8h-11.4v-.8h11.4m9.6-14.4a3.37,3.37,0,0,0-3-1.4,3.6,3.6,0,0,0-3,1.4c-.8,1-1,2.2-1,4a7.35,7.35,0,0,0,1,4,3.37,3.37,0,0,0,3,1.4,3.6,3.6,0,0,0,3-1.4,6.29,6.29,0,0,0,1-4,7.88,7.88,0,0,0-1-4m-3-2.4a4,4,0,0,1,3.6,1.8,7.86,7.86,0,0,1,1.4,4.6c0,2-.4,3.6-1.4,4.6a4.28,4.28,0,0,1-3.6,1.8,4,4,0,0,1-3.6-1.8,8.35,8.35,0,0,1-1.4-4.6,6.67,6.67,0,0,1,1.4-4.6,4,4,0,0,1,3.6-1.8m16,.8v1a5.2,5.2,0,0,0-1.4-.6,5.54,5.54,0,0,0-1.8-.2,4.54,4.54,0,0,0-2.6.6,2.11,2.11,0,0,0-.8,2,1.34,1.34,0,0,0,.8,1.4,4.64,4.64,0,0,0,2,.8l.6.2a6.4,6.4,0,0,1,2.6,1,2.78,2.78,0,0,1,1,2,3.46,3.46,0,0,1-1,2.6,5.3,5.3,0,0,1-3.4,1,5.57,5.57,0,0,1-2-.2l-1.8-.6v-1.2a3.59,3.59,0,0,0,1.6.8,8.2,8.2,0,0,0,2.2.2,3.39,3.39,0,0,0,2.6-.8,2.57,2.57,0,0,0,.8-2,1.56,1.56,0,0,0-.6-1.4,6.4,6.4,0,0,0-2.6-1l-.6-.2a6.67,6.67,0,0,1-2.4-1,2.78,2.78,0,0,1-1-2,3.36,3.36,0,0,1,1.2-2.8,4.82,4.82,0,0,1,3-.8,5,5,0,0,1,2,.2,8.91,8.91,0,0,0,1.6,1m5.4,10.8h3.6V1108l-4.4,1.8v-1l4.4-1.8h1v15.2h3.6v.8h-8.2v-.8m16.6-15.2h1.2l-5.6,18h-1.2l5.6-18m11.2,6a3.37,3.37,0,0,0-3-1.4,3.6,3.6,0,0,0-3,1.4c-.8,1-1,2.2-1,4a7.35,7.35,0,0,0,1,4,3.37,3.37,0,0,0,3,1.4,3.6,3.6,0,0,0,3-1.4,6.29,6.29,0,0,0,1-4,7.88,7.88,0,0,0-1-4m-3-2.4a4,4,0,0,1,3.6,1.8,7.86,7.86,0,0,1,1.4,4.6c0,2-.4,3.6-1.4,4.6a4.28,4.28,0,0,1-3.6,1.8,4,4,0,0,1-3.6-1.8,8.35,8.35,0,0,1-1.4-4.6,6.67,6.67,0,0,1,1.4-4.6,4.54,4.54,0,0,1,3.6-1.8m16,.8v1a5.2,5.2,0,0,0-1.4-.6,5.54,5.54,0,0,0-1.8-.2,4.54,4.54,0,0,0-2.6.6,2.11,2.11,0,0,0-.8,2,1.34,1.34,0,0,0,.8,1.4,4.64,4.64,0,0,0,2,.8l.6.2a6.4,6.4,0,0,1,2.6,1,2.78,2.78,0,0,1,1,2,3.46,3.46,0,0,1-1,2.6,5.3,5.3,0,0,1-3.4,1,5.57,5.57,0,0,1-2-.2l-1.8-.6v-1.2a3.59,3.59,0,0,0,1.6.8,8.2,8.2,0,0,0,2.2.2,3.39,3.39,0,0,0,2.6-.8,2.57,2.57,0,0,0,.8-2,1.56,1.56,0,0,0-.6-1.4,6.4,6.4,0,0,0-2.6-1l-.6-.2a6.67,6.67,0,0,1-2.4-1,2.78,2.78,0,0,1-1-2,3.36,3.36,0,0,1,1.2-2.8,4.82,4.82,0,0,1,3-.8,5,5,0,0,1,2,.2,8.91,8.91,0,0,0,1.6,1m5.4,10.8h3.6V1108l-4.4,1.8v-1l4.4-1.8h1v15.2h3.6v.8h-8.2v-.8m22,5.2v.8h-11.4v-.8h11.4m2.2-21.2h1V1123h-1v-16.8m6.2,4.8h1v12h-1v-12m0-4.8h1v1.4h-1v-1.4m14,7.6v-7.4h1v16.8h-1v-2.8a4.84,4.84,0,0,1-1.6,2.2,4.22,4.22,0,0,1-2.2,1,4.54,4.54,0,0,1-3.6-1.8,8.26,8.26,0,0,1,0-9.2,4.54,4.54,0,0,1,3.6-1.8,3.33,3.33,0,0,1,2.2.8,3.94,3.94,0,0,1,1.6,2.2m-6.4-1q-1.2,1.2-1.2,4.2t1.2,4.2a3.42,3.42,0,0,0,5.2,0q1.2-1.2,1.2-4.2t-1.2-4.2a3.42,3.42,0,0,0-5.2,0m17.2,3.4c-1.6,0-2.8.2-3.4.8a3.31,3.31,0,0,0-1,2.4,2.49,2.49,0,0,0,.8,2.2,3.38,3.38,0,0,0,2,.6,3.09,3.09,0,0,0,3.2-2,8.93,8.93,0,0,0,1-3.6v-.8h-2.6m3.6.4v6.8h-1v-3.2c-.6,1.6-1.2,2.6-2.2,3a4.56,4.56,0,0,1-2.2.6,3.47,3.47,0,0,1-3.8-3.8,3.6,3.6,0,0,1,1.4-3c.8-.8,2.4-1.2,4.4-1.2h2.4v-.2a3.8,3.8,0,0,0-1-2.6,4.14,4.14,0,0,0-3-1,7.11,7.11,0,0,0-2,.4,8.77,8.77,0,0,0-1.8,1v-1a7.1,7.1,0,0,1,1.8-.8,10.32,10.32,0,0,1,2.2-.4,5.58,5.58,0,0,1,3.6,1.2q1.2.9,1.2,4.2m11.6-4.4c-.2,0-.4-.2-.6-.2h-1a3.6,3.6,0,0,0-3,1.4,6.18,6.18,0,0,0-1,3.8v6.4h-1v-12h1v2.2a5.39,5.39,0,0,1,1.4-1.6,4.78,4.78,0,0,1,2.8-1h1.4v1"/><ellipse class="cls-3" cx="1328.2" cy="943.4" rx="117.2" ry="35"/><path class="cls-2" d="M1255.87,939.4h1l4,11,4-11h1l-4.4,12h-1.2l-4.4-12m23.4,5.6v.6h-9.2c0,2,.4,3.2,1.2,4a4.89,4.89,0,0,0,3.6,1.2,6.89,6.89,0,0,0,1.8-.2,9.75,9.75,0,0,0,2.2-.8v1a9.75,9.75,0,0,1-2.2.8,6.89,6.89,0,0,1-1.8.2,5.73,5.73,0,0,1-4.2-1.6,6.4,6.4,0,0,1-1.6-4.6c0-2.2.4-3.8,1.4-4.8a5.26,5.26,0,0,1,4-1.6,4.39,4.39,0,0,1,3.6,1.6,6.56,6.56,0,0,1,1.2,4.2m-1-.2c0-1.6-.4-3-1.2-3.6a3.46,3.46,0,0,0-2.6-1,4.91,4.91,0,0,0-3,1c-.8.6-1.2,1.8-1.4,3.6h8.2m5.2-10h1v16.8h-1V934.8m13.2,6.8a3.37,3.37,0,0,0-3-1.4,3.6,3.6,0,0,0-3,1.4c-.8,1-1,2.2-1,4a7.35,7.35,0,0,0,1,4,3.37,3.37,0,0,0,3,1.4,3.6,3.6,0,0,0,3-1.4,6.29,6.29,0,0,0,1-4,5,5,0,0,0-1-4m-2.8-2.4a4,4,0,0,1,3.6,1.8,7.86,7.86,0,0,1,1.4,4.6c0,2-.4,3.6-1.4,4.6a4.28,4.28,0,0,1-3.6,1.8,4,4,0,0,1-3.6-1.8,8.35,8.35,0,0,1-1.4-4.6,6.67,6.67,0,0,1,1.4-4.6,4,4,0,0,1,3.6-1.8m17.2,3v-7.4h1v16.8h-1v-2.8a4.84,4.84,0,0,1-1.6,2.2,4.22,4.22,0,0,1-2.2,1,4.54,4.54,0,0,1-3.6-1.8,8.26,8.26,0,0,1,0-9.2,4.54,4.54,0,0,1,3.6-1.8,3.33,3.33,0,0,1,2.2.8,6.93,6.93,0,0,1,1.6,2.2m-6.6-.8q-1.2,1.2-1.2,4.2t1.2,4.2a3.42,3.42,0,0,0,5.2,0q1.2-1.2,1.2-4.2t-1.2-4.2a3.52,3.52,0,0,0-2.6-1.2c-.8-.2-1.6.2-2.6,1.2m16.6,11.2a7,7,0,0,1-1.4,2.2,2.87,2.87,0,0,1-2,.8h-1.4v-.8h1.2a1.82,1.82,0,0,0,1.4-.6,2.88,2.88,0,0,0,1.2-2l.4-1-4.8-12h1l4.2,10.8,4.2-10.8h1l-5,13.4m18-8.4v7.2h-1v-7.2c0-1.6-.2-2.6-.8-3.2a2.87,2.87,0,0,0-2.2-1,4.91,4.91,0,0,0-3,1q-1.2.9-1.2,3.6v6.8h-1v-12h1v2.2a3.71,3.71,0,0,1,1.4-1.6,4.59,4.59,0,0,1,2.8-.8,3.36,3.36,0,0,1,2.8,1.2,5.09,5.09,0,0,1,1.2,3.8m14.2.8v.6h-9.2c0,2,.4,3.2,1.2,4a4.89,4.89,0,0,0,3.6,1.2,6.89,6.89,0,0,0,1.8-.2,9.75,9.75,0,0,0,2.2-.8v1a9.75,9.75,0,0,1-2.2.8,6.89,6.89,0,0,1-1.8.2,5.73,5.73,0,0,1-4.2-1.6,6.4,6.4,0,0,1-1.6-4.6c0-2.2.4-3.8,1.4-4.8a5.26,5.26,0,0,1,4-1.6,4.39,4.39,0,0,1,3.6,1.6,6.56,6.56,0,0,1,1.2,4.2m-1-.2c0-1.6-.4-3-1.2-3.6a3.46,3.46,0,0,0-2.6-1,4.91,4.91,0,0,0-3,1c-.8.6-1.2,1.8-1.4,3.6h8.2m13.8,11v.8h-11.4v-.8h11.4m2.4-21h1v16.8h-1V934.8m15.4,10.2v.6h-9.2c0,2,.4,3.2,1.2,4a4.89,4.89,0,0,0,3.6,1.2,6.89,6.89,0,0,0,1.8-.2,9.75,9.75,0,0,0,2.2-.8v1a9.75,9.75,0,0,1-2.2.8,6.89,6.89,0,0,1-1.8.2,5.73,5.73,0,0,1-4.2-1.6,6.4,6.4,0,0,1-1.6-4.6c0-2.2.4-3.8,1.4-4.8a5.26,5.26,0,0,1,4-1.6,4.39,4.39,0,0,1,3.6,1.6,6.56,6.56,0,0,1,1.2,4.2m-1-.2c0-1.6-.4-3-1.2-3.6a3.46,3.46,0,0,0-2.6-1,4.91,4.91,0,0,0-3,1c-.8.6-1.2,1.8-1.4,3.6h8.2m10.4-10v.8h-1.4a2,2,0,0,0-1.6.6,3.2,3.2,0,0,0-.8,2.2v1h3.2v.8h-3.2v11.2h-1V940.2h-1.8v-.8h1.8v-.8a4.14,4.14,0,0,1,1-3,3.31,3.31,0,0,1,2.4-1h1.4m3.6,1.4v3.4h4v.8h-4v7.2a4.3,4.3,0,0,0,.4,2,2.51,2.51,0,0,0,2.2,1.2h1.6v.8h-1.6a4,4,0,0,1-2.6-.8,4.35,4.35,0,0,1-1-3.2v-7.2h-1.4v-.8h1.4V936h1"/><ellipse class="cls-3" cx="1436.2" cy="876" rx="53.6" ry="35"/><path class="cls-2" d="M1411.82,867.2h1V884h-1V867.2m11,10c-1.6,0-2.8.2-3.4.8a3.31,3.31,0,0,0-1,2.4,2.49,2.49,0,0,0,.8,2.2,3.38,3.38,0,0,0,2,.6,3.09,3.09,0,0,0,3.2-2,8.93,8.93,0,0,0,1-3.6v-.8h-2.6m3.6.4V884h-1v-3.2c-.6,1.6-1.2,2.6-2.2,3a4.56,4.56,0,0,1-2.2.6,3.47,3.47,0,0,1-3.8-3.8,3.6,3.6,0,0,1,1.4-3,6.8,6.8,0,0,1,4.4-1.2h2.4v-.2a3.8,3.8,0,0,0-1-2.6,4.14,4.14,0,0,0-3-1,7.11,7.11,0,0,0-2,.4c-.4.2-1,.6-1.8,1v-1a7.1,7.1,0,0,1,1.8-.8,10.32,10.32,0,0,1,2.2-.4,5.58,5.58,0,0,1,3.6,1.2q1.2.9,1.2,4.2m11.8-4.8v1a5.2,5.2,0,0,0-1.4-.6,5.54,5.54,0,0,0-1.8-.2,4.54,4.54,0,0,0-2.6.6,2.11,2.11,0,0,0-.8,2,1.34,1.34,0,0,0,.8,1.4,4.64,4.64,0,0,0,2,.8l.6.2a6.4,6.4,0,0,1,2.6,1,2.78,2.78,0,0,1,1,2,3.46,3.46,0,0,1-1,2.6,5.3,5.3,0,0,1-3.4,1,5.57,5.57,0,0,1-2-.2l-1.8-.6v-1.2a3.59,3.59,0,0,0,1.6.8,8.2,8.2,0,0,0,2.2.2,3.39,3.39,0,0,0,2.6-.8,2.57,2.57,0,0,0,.8-2,1.56,1.56,0,0,0-.6-1.4,6.4,6.4,0,0,0-2.6-1l-.6-.2a6.67,6.67,0,0,1-2.4-1,2.78,2.78,0,0,1-1-2,3.36,3.36,0,0,1,1.2-2.8,4.82,4.82,0,0,1,3-.8,5,5,0,0,1,2,.2,8.91,8.91,0,0,0,1.6,1m14,5v.6H1443c0,2,.4,3.2,1.2,4a4.89,4.89,0,0,0,3.6,1.2,6.89,6.89,0,0,0,1.8-.2,9.75,9.75,0,0,0,2.2-.8v1a9.75,9.75,0,0,1-2.2.8,6.89,6.89,0,0,1-1.8.2,5.73,5.73,0,0,1-4.2-1.6,6.4,6.4,0,0,1-1.6-4.6c0-2.2.4-3.8,1.4-4.8a5.26,5.26,0,0,1,4-1.6,4.39,4.39,0,0,1,3.6,1.6,7.39,7.39,0,0,1,1.2,4.2m-1-.2c0-1.6-.4-3-1.2-3.6a3.46,3.46,0,0,0-2.6-1,4.91,4.91,0,0,0-3,1c-.8.6-1.2,1.8-1.4,3.6h8.2m11.8-4.4c-.2,0-.4-.2-.6-.2h-1a3.6,3.6,0,0,0-3,1.4,6.18,6.18,0,0,0-1,3.8V884h-1V872h1v2.2a5.39,5.39,0,0,1,1.4-1.6,4.78,4.78,0,0,1,2.8-1h1.4v1.2"/><ellipse class="cls-3" cx="513" cy="1118" rx="143.2" ry="35"/><path class="cls-2" d="M423.33,1109.2h1V1126h-1v-16.8m15.4,10.2v.6h-9.2c0,2,.4,3.2,1.2,4a4.89,4.89,0,0,0,3.6,1.2,6.89,6.89,0,0,0,1.8-.2,9.75,9.75,0,0,0,2.2-.8v1a5.93,5.93,0,0,1-2.2.8,6.89,6.89,0,0,1-1.8.2,5.73,5.73,0,0,1-4.2-1.6,6.4,6.4,0,0,1-1.6-4.6c0-2.2.4-3.8,1.4-4.8a5.26,5.26,0,0,1,4-1.6,4.39,4.39,0,0,1,3.6,1.6,7.39,7.39,0,0,1,1.2,4.2m-1-.2c0-1.6-.4-3-1.2-3.6a3.46,3.46,0,0,0-2.6-1,4.91,4.91,0,0,0-3,1c-.8.6-1.2,1.8-1.4,3.6h8.2m10.2-10v.8h-1.4a2,2,0,0,0-1.6.6,3.2,3.2,0,0,0-.8,2.2v1h3.2v.8h-3.2V1126h-1v-11.2h-1.8v-.8h1.8v-.8a4.14,4.14,0,0,1,1-3,3.31,3.31,0,0,1,2.4-1h1.4m3.6,1.4v3.4h4v.8h-4v7.2a4.3,4.3,0,0,0,.4,2,2.51,2.51,0,0,0,2.2,1.2h1.6v.8h-1.6a4,4,0,0,1-2.6-.8,4.35,4.35,0,0,1-1-3.2v-7.2h-1.4v-.8h1.4v-3.4h1m16.4,19.8v.8h-11.4v-.8h11.4m9.4-14.4a3.91,3.91,0,0,0-6,0c-.8,1-1,2.2-1,4a7.35,7.35,0,0,0,1,4,3.91,3.91,0,0,0,6,0,6.29,6.29,0,0,0,1-4,5.27,5.27,0,0,0-1-4m-2.8-2.4a4,4,0,0,1,3.6,1.8,7.86,7.86,0,0,1,1.4,4.6c0,2-.4,3.6-1.4,4.6a4.28,4.28,0,0,1-3.6,1.8,4,4,0,0,1-3.6-1.8,8.35,8.35,0,0,1-1.4-4.6,6.67,6.67,0,0,1,1.4-4.6,4,4,0,0,1,3.6-1.8m16,.8v1a5.2,5.2,0,0,0-1.4-.6,5.54,5.54,0,0,0-1.8-.2,4.54,4.54,0,0,0-2.6.6,2.11,2.11,0,0,0-.8,2,1.34,1.34,0,0,0,.8,1.4,4.64,4.64,0,0,0,2,.8l.6.2a6.4,6.4,0,0,1,2.6,1,2.78,2.78,0,0,1,1,2,3.46,3.46,0,0,1-1,2.6,5.3,5.3,0,0,1-3.4,1,5.57,5.57,0,0,1-2-.2,5.84,5.84,0,0,1-1.8-.4v-1.2a3.59,3.59,0,0,0,1.6.8,8.2,8.2,0,0,0,2.2.2,3.39,3.39,0,0,0,2.6-.8,2.57,2.57,0,0,0,.8-2,1.56,1.56,0,0,0-.6-1.4,6.4,6.4,0,0,0-2.6-1l-.6-.2a6.67,6.67,0,0,1-2.4-1,2.78,2.78,0,0,1-1-2,3.36,3.36,0,0,1,1.2-2.8,4.82,4.82,0,0,1,3-.8,5,5,0,0,1,2,.2,6,6,0,0,0,1.6.8m5.4,10.8h3.6V1111l-4.4,1.8v-1l4.4-1.8h1v15.2h3.6v.8h-8.2v-.8m16.6-15.2h1.2l-5.8,18h-1.2l5.8-18m11,6a3.37,3.37,0,0,0-3-1.4,3.6,3.6,0,0,0-3,1.4c-.8,1-1,2.2-1,4a7.35,7.35,0,0,0,1,4,3.37,3.37,0,0,0,3,1.4,3.6,3.6,0,0,0,3-1.4,6.29,6.29,0,0,0,1-4,5.27,5.27,0,0,0-1-4m-2.8-2.4a4,4,0,0,1,3.6,1.8,7.86,7.86,0,0,1,1.4,4.6c0,2-.4,3.6-1.4,4.6a4.28,4.28,0,0,1-3.6,1.8,4,4,0,0,1-3.6-1.8,8.35,8.35,0,0,1-1.4-4.6,6.67,6.67,0,0,1,1.4-4.6,4,4,0,0,1,3.6-1.8m16,.8v1a5.2,5.2,0,0,0-1.4-.6,5.54,5.54,0,0,0-1.8-.2,4.54,4.54,0,0,0-2.6.6,2.11,2.11,0,0,0-.8,2,1.34,1.34,0,0,0,.8,1.4,4.64,4.64,0,0,0,2,.8l.6.2a6.4,6.4,0,0,1,2.6,1,2.78,2.78,0,0,1,1,2,3.46,3.46,0,0,1-1,2.6,5.3,5.3,0,0,1-3.4,1,5.57,5.57,0,0,1-2-.2l-1.8-.6v-1.2a3.59,3.59,0,0,0,1.6.8,8.2,8.2,0,0,0,2.2.2,3.39,3.39,0,0,0,2.6-.8,2.57,2.57,0,0,0,.8-2,1.56,1.56,0,0,0-.6-1.4,6.4,6.4,0,0,0-2.6-1l-.6-.2a6.67,6.67,0,0,1-2.4-1,2.78,2.78,0,0,1-1-2,3.36,3.36,0,0,1,1.2-2.8,4.82,4.82,0,0,1,3-.8,5,5,0,0,1,2,.2,5,5,0,0,0,1.6,1m5.4,10.8h3.6V1111l-4.4,1.8v-1l4.4-1.8h1v15.2h3.6v.8h-8.2v-.8m21.8,5.2v.8h-11.4v-.8h11.4m2.4-16.4h1v12h-1v-12m0-4.8h1v1.4h-1v-1.4m14.8,7.4a4,4,0,0,1,1.8-2.2,5.78,5.78,0,0,1,2.8-.8,4.21,4.21,0,0,1,2.6,1,6.44,6.44,0,0,1,1,4v7.4h-1.4v-7.2a6.84,6.84,0,0,0-.6-3.4,2,2,0,0,0-1.8-.8,5.39,5.39,0,0,0-3,1,4.28,4.28,0,0,0-1.4,3.6v6.8h-1v-7.2a6.84,6.84,0,0,0-.6-3.4,2.1,2.1,0,0,0-1.8-1,5.39,5.39,0,0,0-3,1,4.28,4.28,0,0,0-1.4,3.6v7h-1v-12h1v2.2a4.72,4.72,0,0,1,1.6-1.8,5.81,5.81,0,0,1,2.8-.6,3.38,3.38,0,0,1,2,.6,3.81,3.81,0,0,1,1.4,2.2m12.6,4.6V1114h1v7.2c0,1.6.2,2.6.8,3.2a2.87,2.87,0,0,0,2.2,1,4.91,4.91,0,0,0,3-1q1.2-.9,1.2-3.6V1114h1v12h-1v-2.2a3.71,3.71,0,0,1-1.4,1.6,4.59,4.59,0,0,1-2.8.8,3.36,3.36,0,0,1-2.8-1.2,5.09,5.09,0,0,1-1.2-3.8"/><ellipse class="cls-1" cx="1436.2" cy="622" rx="87.4" ry="35"/><path class="cls-2" d="M1394.1,628.2q1.2-1.2,1.2-4.2t-1.2-4.2a3.42,3.42,0,0,0-5.2,0q-1.2,1.2-1.2,4.2t1.2,4.2a3.52,3.52,0,0,0,2.6,1.2,3.87,3.87,0,0,0,2.6-1.2m-6.6-7.4a7,7,0,0,1,1.4-2.2,3.84,3.84,0,0,1,2.4-.8,4.54,4.54,0,0,1,3.6,1.8,8.26,8.26,0,0,1,0,9.2,4.54,4.54,0,0,1-3.6,1.8,4.16,4.16,0,0,1-2.4-1,3.81,3.81,0,0,1-1.4-2.2V630h-1V613.2h1v7.6m17.8,2.4c-1.6,0-2.8.2-3.4.8a3.31,3.31,0,0,0-1,2.4,2.49,2.49,0,0,0,.8,2.2,3.38,3.38,0,0,0,2,.6,3.09,3.09,0,0,0,3.2-2,8.93,8.93,0,0,0,1-3.6v-.8h-2.6m3.8.4V630h-1v-3.2c-.6,1.6-1.2,2.6-2.2,3a4.56,4.56,0,0,1-2.2.6,3.47,3.47,0,0,1-3.8-3.8,3.6,3.6,0,0,1,1.4-3,6.8,6.8,0,0,1,4.4-1.2h2.4v-.2a3.8,3.8,0,0,0-1-2.6,4.14,4.14,0,0,0-3-1,7.11,7.11,0,0,0-2,.4c-.4.2-1,.6-1.8,1v-1a7.1,7.1,0,0,1,1.8-.8,10.32,10.32,0,0,1,2.2-.4,5.58,5.58,0,0,1,3.6,1.2q1.2.9,1.2,4.2m11.8-4.8v1a5.2,5.2,0,0,0-1.4-.6,5.54,5.54,0,0,0-1.8-.2,4.54,4.54,0,0,0-2.6.6,2.11,2.11,0,0,0-.8,2,1.34,1.34,0,0,0,.8,1.4,4.64,4.64,0,0,0,2,.8l.6.2a6.4,6.4,0,0,1,2.6,1,2.78,2.78,0,0,1,1,2,3.46,3.46,0,0,1-1,2.6,5.3,5.3,0,0,1-3.4,1,5.57,5.57,0,0,1-2-.2l-1.8-.6v-1.2a3.59,3.59,0,0,0,1.6.8,8.2,8.2,0,0,0,2.2.2,3.39,3.39,0,0,0,2.6-.8,2.57,2.57,0,0,0,.8-2,1.56,1.56,0,0,0-.6-1.4,6.4,6.4,0,0,0-2.6-1l-.6-.2a6.67,6.67,0,0,1-2.4-1,2.78,2.78,0,0,1-1-2,3.36,3.36,0,0,1,1.2-2.8,4.82,4.82,0,0,1,3-.8,5,5,0,0,1,2,.2,3.54,3.54,0,0,0,1.6,1m14,5v.6h-9.2c0,2,.4,3.2,1.2,4a4.89,4.89,0,0,0,3.6,1.2,6.89,6.89,0,0,0,1.8-.2,9.75,9.75,0,0,0,2.2-.8v1a9.75,9.75,0,0,1-2.2.8,6.89,6.89,0,0,1-1.8.2,5.73,5.73,0,0,1-4.2-1.6,6.4,6.4,0,0,1-1.6-4.6c0-2.2.4-3.8,1.4-4.8a5.26,5.26,0,0,1,4-1.6,4.39,4.39,0,0,1,3.6,1.6,7.39,7.39,0,0,1,1.2,4.2m-1-.2c0-1.6-.4-3-1.2-3.6a3.46,3.46,0,0,0-2.6-1,4.91,4.91,0,0,0-3,1c-.8.6-1.2,1.8-1.4,3.6h8.2m13.8,11.2v.8h-11.4v-.8h11.4m2.2-21.2h1V630h-1V613.2m6.2,4.8h1v12h-1V618m0-4.8h1v1.4h-1v-1.4m15.2,9.6V630h-1v-7.2c0-1.6-.2-2.6-.8-3.2a2.87,2.87,0,0,0-2.2-1,4.91,4.91,0,0,0-3,1q-1.2.9-1.2,3.6V630h-1V618h1v2.2a3.71,3.71,0,0,1,1.4-1.6,4.59,4.59,0,0,1,2.8-.8,3.36,3.36,0,0,1,2.8,1.2c.8.6,1.2,2,1.2,3.8m5.8-9.6h1v10.2l6-5.4h1.4l-6.2,5.6,6.4,6.4h-1.2l-6.2-6.2V630h-1V613.2"/><ellipse class="cls-4" cx="1675.2" cy="359.4" rx="106.8" ry="35"/><path class="cls-2" d="M1621.73,358a4,4,0,0,1,1.8-2.2,5.78,5.78,0,0,1,2.8-.8,3.8,3.8,0,0,1,2.6,1,6.44,6.44,0,0,1,1,4v7.2h-1V360a6.84,6.84,0,0,0-.6-3.4,2,2,0,0,0-1.8-.8,5.39,5.39,0,0,0-3,1,4.28,4.28,0,0,0-1.4,3.6v6.8h-1V360a6.84,6.84,0,0,0-.6-3.4,2.1,2.1,0,0,0-1.8-1,5.39,5.39,0,0,0-3,1,4.28,4.28,0,0,0-1.4,3.6V367h-1V355h1v2.2a4.72,4.72,0,0,1,1.6-1.8,5.81,5.81,0,0,1,2.8-.6,3.38,3.38,0,0,1,2,.6c.2.6.6,1.4,1,2.6m17.6,2.6c-1.6,0-2.8.2-3.4.8a3.31,3.31,0,0,0-1,2.4,2.49,2.49,0,0,0,.8,2.2,3.38,3.38,0,0,0,2,.6,3.09,3.09,0,0,0,3.2-2,8.93,8.93,0,0,0,1-3.6v-.8h-2.6m3.6.2v6.8h-1V364c-.6,1.6-1.2,2.6-2.2,3a4.56,4.56,0,0,1-2.2.6,3.47,3.47,0,0,1-3.8-3.8,3.6,3.6,0,0,1,1.4-3c.8-.8,2.4-1.2,4.4-1.2h2.4v-.2a3.8,3.8,0,0,0-1-2.6,4.14,4.14,0,0,0-3-1,7.11,7.11,0,0,0-2,.4c-.4.2-1,.6-1.8,1v-1a7.1,7.1,0,0,1,1.8-.8,10.32,10.32,0,0,1,2.2-.4,5.58,5.58,0,0,1,3.6,1.2q1.2,1.2,1.2,4.2m6,4.2v7.2h-1V355.2h1V358a7,7,0,0,1,1.4-2.2,3.84,3.84,0,0,1,2.4-.8,4.54,4.54,0,0,1,3.6,1.8,8.26,8.26,0,0,1,0,9.2,4.54,4.54,0,0,1-3.6,1.8,4.16,4.16,0,0,1-2.4-1,4.65,4.65,0,0,1-1.4-2.2m6.4,1q1.2-1.2,1.2-4.2t-1.2-4.2a3.42,3.42,0,0,0-5.2,0q-1.2,1.2-1.2,4.2t1.2,4.2a3.52,3.52,0,0,0,2.6,1.2,3.87,3.87,0,0,0,2.6-1.2m15.2,6v.8h-11.4v-.8h11.4m1-16.4h9.4v1.2l-8.6,10h8.6v.8h-9.6v-1l8.6-10h-8.4v-1m17.6,5.4c-1.6,0-2.8.2-3.4.8a3.31,3.31,0,0,0-1,2.4,2.49,2.49,0,0,0,.8,2.2,3.38,3.38,0,0,0,2,.6,3.09,3.09,0,0,0,3.2-2,8.93,8.93,0,0,0,1-3.6v-.8h-2.6m3.8.2v6.8h-1V364c-.6,1.6-1.2,2.6-2.2,3a4.56,4.56,0,0,1-2.2.6,3.47,3.47,0,0,1-3.8-3.8,3.6,3.6,0,0,1,1.4-3,6.8,6.8,0,0,1,4.4-1.2h2.4v-.2a3.8,3.8,0,0,0-1-2.6,4.14,4.14,0,0,0-3-1,7.11,7.11,0,0,0-2,.4c-.4.2-1,.6-1.8,1v-1a7.1,7.1,0,0,1,1.8-.8,10.32,10.32,0,0,1,2.2-.4,5.58,5.58,0,0,1,3.6,1.2q1.2,1.2,1.2,4.2m5-9.8h1v16.8h-1V350.6m10.8,10c-1.6,0-2.8.2-3.4.8a3.31,3.31,0,0,0-1,2.4,2.49,2.49,0,0,0,.8,2.2,3.38,3.38,0,0,0,2,.6,3.09,3.09,0,0,0,3.2-2,8.93,8.93,0,0,0,1-3.6v-.8h-2.6m3.8.2v6.8h-1V364c-.6,1.6-1.2,2.6-2.2,3a4.56,4.56,0,0,1-2.2.6,3.47,3.47,0,0,1-3.8-3.8,3.6,3.6,0,0,1,1.4-3c.8-.8,2.4-1.2,4.4-1.2h2.4v-.2a3.8,3.8,0,0,0-1-2.6,4.14,4.14,0,0,0-3-1,7.11,7.11,0,0,0-2,.4c-.4.2-1,.6-1.8,1v-1a7.1,7.1,0,0,1,1.8-.8,10.32,10.32,0,0,1,2.2-.4,5.58,5.58,0,0,1,3.6,1.2q1.2,1.2,1.2,4.2m13.6,11.2v.8h-11.4v-.8h11.4m6.8-19.8c-1.4,0-2.2.6-3,2a13.34,13.34,0,0,0-1,5.6,14,14,0,0,0,1,5.6,3.28,3.28,0,0,0,3,2,3,3,0,0,0,3-2,13.34,13.34,0,0,0,1-5.6,14,14,0,0,0-1-5.6,3.76,3.76,0,0,0-3-2m0-.8a3.81,3.81,0,0,1,3.6,2c1,1.2,1.4,3.4,1.4,6.4s-.4,5.2-1.4,6.4a4.28,4.28,0,0,1-3.6,1.8,4,4,0,0,1-3.6-1.8,12.1,12.1,0,0,1-1.4-6.4c0-3,.4-5.2,1.4-6.4a3.81,3.81,0,0,1,3.6-2"/><ellipse class="cls-3" cx="1909.8" cy="950.4" rx="122.4" ry="35"/><path class="cls-2" d="M1844,949v-7.4h1v16.8h-1v-2.8a4.84,4.84,0,0,1-1.6,2.2,4.22,4.22,0,0,1-2.2,1,4.54,4.54,0,0,1-3.6-1.8,6.67,6.67,0,0,1-1.4-4.6,7,7,0,0,1,1.4-4.6,4.54,4.54,0,0,1,3.6-1.8,3.33,3.33,0,0,1,2.2.8,4.52,4.52,0,0,1,1.6,2.2m-6.4-.8q-1.2,1.2-1.2,4.2t1.2,4.2a3.42,3.42,0,0,0,5.2,0q1.2-1.2,1.2-4.2t-1.2-4.2a3.52,3.52,0,0,0-2.6-1.2,3.87,3.87,0,0,0-2.6,1.2m12.4,5.4v-7.2h1v7.2c0,1.6.2,2.6.8,3.2a2.87,2.87,0,0,0,2.2,1,4.91,4.91,0,0,0,3-1q1.2-.9,1.2-3.6v-6.8h1v12h-1v-2.2a3.71,3.71,0,0,1-1.4,1.6,4.59,4.59,0,0,1-2.8.8,3.36,3.36,0,0,1-2.8-1.2c-1-.8-1.2-2-1.2-3.8m20.6-6.4c-.2,0-.4-.2-.6-.2h-1a3.6,3.6,0,0,0-3,1.4,6.18,6.18,0,0,0-1,3.8v6.4h-1v-12h1v2.2a5.39,5.39,0,0,1,1.4-1.6,4.78,4.78,0,0,1,2.8-1h1.4v1m9.6,1.2a3.37,3.37,0,0,0-3-1.4,3.6,3.6,0,0,0-3,1.4c-.8,1-1,2.2-1,4a7.35,7.35,0,0,0,1,4,3.37,3.37,0,0,0,3,1.4,3.6,3.6,0,0,0,3-1.4,6.29,6.29,0,0,0,1-4,7.35,7.35,0,0,0-1-4m-3-2.4a4,4,0,0,1,3.6,1.8,7.86,7.86,0,0,1,1.4,4.6c0,2-.4,3.6-1.4,4.6a4.28,4.28,0,0,1-3.6,1.8,4,4,0,0,1-3.6-1.8,8.35,8.35,0,0,1-1.4-4.6,6.67,6.67,0,0,1,1.4-4.6,4.28,4.28,0,0,1,3.6-1.8m18,16.8v.8h-11.4v-.8h11.4m10.2-10.6a6.62,6.62,0,0,0-1-3.8,3.5,3.5,0,0,0-5.6,0,7.11,7.11,0,0,0-1,3.8,6.62,6.62,0,0,0,1,3.8,3.5,3.5,0,0,0,5.6,0c.8-.8,1-2.2,1-3.8m1,4.6c0,2.6-.4,4.2-1.4,5a5.58,5.58,0,0,1-3.6,1.2,6.17,6.17,0,0,1-2-.2,6.36,6.36,0,0,1-1.8-.6V961a7.1,7.1,0,0,0,1.8.8,5.54,5.54,0,0,0,1.8.2,4.82,4.82,0,0,0,3-.8c.8-.6,1.2-1.8,1.2-4.2v-2a17.59,17.59,0,0,1-1.2,2,3.31,3.31,0,0,1-2.6,1,4.39,4.39,0,0,1-3.6-1.6,7.43,7.43,0,0,1-1.2-4.6,7.84,7.84,0,0,1,1.2-4.6,4.39,4.39,0,0,1,3.6-1.6,4.21,4.21,0,0,1,2.6,1,5.1,5.1,0,0,1,1.4,2V946h1v10.8m5-1.2v7.2h-1V946.2h1V949a7,7,0,0,1,1.4-2.2,3.84,3.84,0,0,1,2.4-.8,4.54,4.54,0,0,1,3.6,1.8,6.67,6.67,0,0,1,1.4,4.6,7,7,0,0,1-1.4,4.6,4.54,4.54,0,0,1-3.6,1.8,4.16,4.16,0,0,1-2.4-1,7,7,0,0,1-1.4-2.2m6.4,1q1.2-1.2,1.2-4.2t-1.2-4.2a3.42,3.42,0,0,0-5.2,0q-1.2,1.2-1.2,4.2t1.2,4.2a3.42,3.42,0,0,0,5.2,0m13.4-10v1a5.2,5.2,0,0,0-1.4-.6,5.54,5.54,0,0,0-1.8-.2,4.54,4.54,0,0,0-2.6.6,2.11,2.11,0,0,0-.8,2,1.34,1.34,0,0,0,.8,1.4,4.64,4.64,0,0,0,2,.8l.6.2a6.4,6.4,0,0,1,2.6,1,2.78,2.78,0,0,1,1,2,3.46,3.46,0,0,1-1,2.6,5.3,5.3,0,0,1-3.4,1,5.57,5.57,0,0,1-2-.2l-1.8-.6v-1.2a3.59,3.59,0,0,0,1.6.8,8.2,8.2,0,0,0,2.2.2,3.39,3.39,0,0,0,2.6-.8,2.57,2.57,0,0,0,.8-2,1.56,1.56,0,0,0-.6-1.4,6.4,6.4,0,0,0-2.6-1l-.6-.2a6.67,6.67,0,0,1-2.4-1,2.78,2.78,0,0,1-1-2,3.36,3.36,0,0,1,1.2-2.8,4.82,4.82,0,0,1,3-.8,5,5,0,0,1,2,.2,2.08,2.08,0,0,0,1.6,1m13.4,16.2v.8h-11.4v-.8h11.4m2.2-16.4h1v12h-1v-12m0-4.8h1V943h-1v-1.4m14.8,7.4a4,4,0,0,1,1.8-2.2,5.78,5.78,0,0,1,2.8-.8,3.8,3.8,0,0,1,2.6,1,6.44,6.44,0,0,1,1,4v7.2h-1V951a6.84,6.84,0,0,0-.6-3.4,2,2,0,0,0-1.8-.8,5.39,5.39,0,0,0-3,1,4.28,4.28,0,0,0-1.4,3.6v6.8h-1V951a6.84,6.84,0,0,0-.6-3.4,2.1,2.1,0,0,0-1.8-1,5.39,5.39,0,0,0-3,1,4.28,4.28,0,0,0-1.4,3.6V958h-1V946h1v2.2a4.72,4.72,0,0,1,1.6-1.8,5.81,5.81,0,0,1,2.8-.6,3.38,3.38,0,0,1,2,.6c.2.8.6,1.4,1,2.6m12.6,4.6v-7.2h1v7.2c0,1.6.2,2.6.8,3.2a2.87,2.87,0,0,0,2.2,1,4.91,4.91,0,0,0,3-1q1.2-.9,1.2-3.6v-6.8h1v12h-1v-2.2a3.71,3.71,0,0,1-1.4,1.6,4.59,4.59,0,0,1-2.8.8,3.36,3.36,0,0,1-2.8-1.2,5.09,5.09,0,0,1-1.2-3.8"/><ellipse class="cls-3" cx="879.6" cy="1121" rx="153.6" ry="35"/><path class="cls-2" d="M789.08,1117.8c-.2,0-.4-.2-.6-.2h-1a3.6,3.6,0,0,0-3,1.4,6.18,6.18,0,0,0-1,3.8v6.4h-1v-12h1v2.2a5.39,5.39,0,0,1,1.4-1.6,4.78,4.78,0,0,1,2.8-1h1.4v1m2.4-.8h1v12h-1v-12m0-4.8h1v1.4h-1v-1.4m14.2,10.6a6.62,6.62,0,0,0-1-3.8,3.5,3.5,0,0,0-5.6,0,7.11,7.11,0,0,0-1,3.8,6.62,6.62,0,0,0,1,3.8,3.5,3.5,0,0,0,5.6,0,6.18,6.18,0,0,0,1-3.8m.8,4.8c0,2.6-.4,4.2-1.4,5a5.58,5.58,0,0,1-3.6,1.2,6.17,6.17,0,0,1-2-.2,6.36,6.36,0,0,1-1.8-.6v-1.2a7.1,7.1,0,0,0,1.8.8,5.54,5.54,0,0,0,1.8.2,4.82,4.82,0,0,0,3-.8c.8-.6,1.2-1.8,1.2-4.2v-2a17.59,17.59,0,0,1-1.2,2,3.31,3.31,0,0,1-2.6,1,4.39,4.39,0,0,1-3.6-1.6,7.43,7.43,0,0,1-1.2-4.6,7.84,7.84,0,0,1,1.2-4.6,3.9,3.9,0,0,1,3.6-1.6,4.21,4.21,0,0,1,2.6,1,5.1,5.1,0,0,1,1.4,2v-2.6h1v10.8m13.2-5.8v7.2h-1v-7.2c0-1.6-.2-2.6-.8-3.2a3.31,3.31,0,0,0-2.4-1,4.91,4.91,0,0,0-3,1c-.8.8-1,1.8-1,3.6v6.8h-1v-16.8h1v7a3.11,3.11,0,0,1,1.2-1.6,4.15,4.15,0,0,1,3-.8,3.36,3.36,0,0,1,2.8,1.2,5.09,5.09,0,0,1,1.2,3.8m5.8-8.2v3.4h4v.8h-4v7.2a4.3,4.3,0,0,0,.4,2,2.51,2.51,0,0,0,2.2,1.2h1.6v.8h-1.6a4,4,0,0,1-2.6-.8,4.35,4.35,0,0,1-1-3.2v-7.2h-1.4v-.8h1.4v-3.4h1m16.4,19.8v.8h-11.4v-.8h11.4m9.4-14.4a3.91,3.91,0,0,0-6,0c-.8,1-1,2.2-1,4a7.35,7.35,0,0,0,1,4,3.91,3.91,0,0,0,6,0,8.5,8.5,0,0,0,0-8m-2.8-2.4a4,4,0,0,1,3.6,1.8,7.86,7.86,0,0,1,1.4,4.6c0,2-.4,3.6-1.4,4.6a4.28,4.28,0,0,1-3.6,1.8,4,4,0,0,1-3.6-1.8,8.35,8.35,0,0,1-1.4-4.6,6.67,6.67,0,0,1,1.4-4.6,4.28,4.28,0,0,1,3.6-1.8m16,.8v1a5.2,5.2,0,0,0-1.4-.6,5.54,5.54,0,0,0-1.8-.2,4.54,4.54,0,0,0-2.6.6,2.11,2.11,0,0,0-.8,2,1.34,1.34,0,0,0,.8,1.4,4.64,4.64,0,0,0,2,.8l.6.2a6.4,6.4,0,0,1,2.6,1,2.78,2.78,0,0,1,1,2,3.46,3.46,0,0,1-1,2.6,5.3,5.3,0,0,1-3.4,1,5.57,5.57,0,0,1-2-.2l-1.8-.6v-1.2a3.59,3.59,0,0,0,1.6.8,8.2,8.2,0,0,0,2.2.2,3.39,3.39,0,0,0,2.6-.8,2.57,2.57,0,0,0,.8-2,1.56,1.56,0,0,0-.6-1.4,6.4,6.4,0,0,0-2.6-1l-.6-.2a6.67,6.67,0,0,1-2.4-1,2.78,2.78,0,0,1-1-2,3.36,3.36,0,0,1,1.2-2.8,4.82,4.82,0,0,1,3-.8,5,5,0,0,1,2,.2,3.54,3.54,0,0,0,1.6,1m5.4,10.8h3.6V1114l-4.4,1.8v-1l4.4-1.8h1v15.2h3.6v.8h-8.2v-.8m16.6-15.2h1.2l-5.6,18h-1.2l5.6-18m11,6a3.91,3.91,0,0,0-6,0c-.8,1-1,2.2-1,4a7.35,7.35,0,0,0,1,4,3.91,3.91,0,0,0,6,0,6.29,6.29,0,0,0,1-4,5.27,5.27,0,0,0-1-4m-2.8-2.4a4,4,0,0,1,3.6,1.8,7.86,7.86,0,0,1,1.4,4.6c0,2-.4,3.6-1.4,4.6a4.28,4.28,0,0,1-3.6,1.8,4,4,0,0,1-3.6-1.8,8.35,8.35,0,0,1-1.4-4.6,6.67,6.67,0,0,1,1.4-4.6,4.28,4.28,0,0,1,3.6-1.8m16,.8v1a5.2,5.2,0,0,0-1.4-.6,5.54,5.54,0,0,0-1.8-.2,4.54,4.54,0,0,0-2.6.6,2.11,2.11,0,0,0-.8,2,1.34,1.34,0,0,0,.8,1.4,4.64,4.64,0,0,0,2,.8l.6.2a6.4,6.4,0,0,1,2.6,1,2.78,2.78,0,0,1,1,2,3.46,3.46,0,0,1-1,2.6,5.3,5.3,0,0,1-3.4,1,5.57,5.57,0,0,1-2-.2l-1.8-.6v-1.2a3.59,3.59,0,0,0,1.6.8,8.2,8.2,0,0,0,2.2.2,3.39,3.39,0,0,0,2.6-.8,2.57,2.57,0,0,0,.8-2,1.56,1.56,0,0,0-.6-1.4,6.4,6.4,0,0,0-2.6-1l-.6-.2a6.67,6.67,0,0,1-2.4-1,2.78,2.78,0,0,1-1-2,3.36,3.36,0,0,1,1.2-2.8,4.82,4.82,0,0,1,3-.8,5,5,0,0,1,2,.2,5,5,0,0,0,1.6,1m5.4,10.8h3.6V1114l-4.4,1.8v-1l4.4-1.8h1v15.2h3.6v.8h-8.2v-.8m21.8,5.2v.8h-11.4v-.8h11.4m2.4-16.4h1v12h-1v-12m0-4.8h1v1.4h-1v-1.4m14.6,7.4a4,4,0,0,1,1.8-2.2,5.78,5.78,0,0,1,2.8-.8,4.21,4.21,0,0,1,2.6,1,6.44,6.44,0,0,1,1,4v7.2h-1v-7.2a6.84,6.84,0,0,0-.6-3.4,2,2,0,0,0-1.8-.8,5.39,5.39,0,0,0-3,1,4.28,4.28,0,0,0-1.4,3.6v6.8h-1v-7.2a6.84,6.84,0,0,0-.6-3.4,2.1,2.1,0,0,0-1.8-1,5.39,5.39,0,0,0-3,1,4.28,4.28,0,0,0-1.4,3.6v6.8h-1.2v-12h1v2.2a4.72,4.72,0,0,1,1.6-1.8,5.81,5.81,0,0,1,2.8-.6,3.38,3.38,0,0,1,2,.6,5.24,5.24,0,0,1,1.2,2.6m12.8,4.6V1117h1v7.2c0,1.6.2,2.6.8,3.2a2.87,2.87,0,0,0,2.2,1,4.91,4.91,0,0,0,3-1q1.2-.9,1.2-3.6V1117h1v12h-1v-2.2a12.07,12.07,0,0,1-1.6,1.6,4.59,4.59,0,0,1-2.8.8,3.36,3.36,0,0,1-2.8-1.2c-.8-.8-1-2-1-3.8"/><ellipse class="cls-3" cx="879.6" cy="867" rx="169.2" ry="35"/><path class="cls-2" d="M773.39,863.8c-.2,0-.4-.2-.6-.2h-1a3.6,3.6,0,0,0-3,1.4,6.18,6.18,0,0,0-1,3.8v6.4h-1v-12h1v2.2a5.39,5.39,0,0,1,1.4-1.6,4.78,4.78,0,0,1,2.8-1h1.4v1m2.4-.8h1v12h-1V863m0-4.8h1v1.4h-1v-1.4M790,868.8a6.62,6.62,0,0,0-1-3.8,3.5,3.5,0,0,0-5.6,0,7.11,7.11,0,0,0-1,3.8,6.62,6.62,0,0,0,1,3.8,3.5,3.5,0,0,0,5.6,0,6.18,6.18,0,0,0,1-3.8m.8,4.8c0,2.6-.4,4.2-1.4,5a5.58,5.58,0,0,1-3.6,1.2,6.17,6.17,0,0,1-2-.2,6.36,6.36,0,0,1-1.8-.6v-1.2a7.1,7.1,0,0,0,1.8.8,5.54,5.54,0,0,0,1.8.2,4.82,4.82,0,0,0,3-.8c.8-.6,1.2-1.8,1.2-4.2v-2a17.59,17.59,0,0,1-1.2,2,3.31,3.31,0,0,1-2.6,1,4.39,4.39,0,0,1-3.6-1.6,7.43,7.43,0,0,1-1.2-4.6,7.84,7.84,0,0,1,1.2-4.6,3.9,3.9,0,0,1,3.6-1.6,4.21,4.21,0,0,1,2.6,1,5.1,5.1,0,0,1,1.4,2v-2.6h1v10.8m13.2-5.8V875h-1v-7.2c0-1.6-.2-2.6-.8-3.2a3.31,3.31,0,0,0-2.4-1,4.91,4.91,0,0,0-3,1c-.8.8-1,1.8-1,3.6V875h-1V858.2h1v7a3.11,3.11,0,0,1,1.2-1.6,4.15,4.15,0,0,1,3-.8A3.36,3.36,0,0,1,803,864a5.09,5.09,0,0,1,1.2,3.8m5.8-8.2V863h4v.8h-4V871a4.3,4.3,0,0,0,.4,2,2.51,2.51,0,0,0,2.2,1.2h1.6v.8h-1.6a4,4,0,0,1-2.6-.8,4.35,4.35,0,0,1-1-3.2v-7.2h-1.4V863H809v-3.4h1m16.4,19.8v.8H815v-.8h11.4m9.4-14.4a3.91,3.91,0,0,0-6,0c-.8,1-1,2.2-1,4a7.35,7.35,0,0,0,1,4,3.91,3.91,0,0,0,6,0,8.5,8.5,0,0,0,0-8m-2.8-2.4a4,4,0,0,1,3.6,1.8A7.86,7.86,0,0,1,838,869c0,2-.4,3.6-1.4,4.6a4.28,4.28,0,0,1-3.6,1.8,4,4,0,0,1-3.6-1.8A8.35,8.35,0,0,1,828,869a6.67,6.67,0,0,1,1.4-4.6,4.28,4.28,0,0,1,3.6-1.8m16,.8v1a5.2,5.2,0,0,0-1.4-.6,5.54,5.54,0,0,0-1.8-.2,4.54,4.54,0,0,0-2.6.6,2.11,2.11,0,0,0-.8,2,1.34,1.34,0,0,0,.8,1.4,4.64,4.64,0,0,0,2,.8l.6.2a6.4,6.4,0,0,1,2.6,1,2.78,2.78,0,0,1,1,2,3.46,3.46,0,0,1-1,2.6,5.3,5.3,0,0,1-3.4,1,5.57,5.57,0,0,1-2-.2l-1.8-.6v-1.2a3.59,3.59,0,0,0,1.6.8,8.2,8.2,0,0,0,2.2.2,3.39,3.39,0,0,0,2.6-.8,2.57,2.57,0,0,0,.8-2,1.56,1.56,0,0,0-.6-1.4,6.4,6.4,0,0,0-2.6-1l-.6-.2a6.67,6.67,0,0,1-2.4-1,2.78,2.78,0,0,1-1-2,3.36,3.36,0,0,1,1.2-2.8,4.82,4.82,0,0,1,3-.8,5,5,0,0,1,2,.2,3.54,3.54,0,0,0,1.6,1m5.4,10.8H858V860l-4.4,1.8v-1L858,859h1v15.2h3.6v.8h-8.2v-.8M871,859h1.2l-5.6,18h-1.2l5.6-18m11,6a3.91,3.91,0,0,0-6,0c-.8,1-1,2.2-1,4a7.35,7.35,0,0,0,1,4,3.91,3.91,0,0,0,6,0,6.29,6.29,0,0,0,1-4,5.27,5.27,0,0,0-1-4m-2.8-2.4a4,4,0,0,1,3.6,1.8,7.86,7.86,0,0,1,1.4,4.6c0,2-.4,3.6-1.4,4.6a4.28,4.28,0,0,1-3.6,1.8,4,4,0,0,1-3.6-1.8,8.35,8.35,0,0,1-1.4-4.6,6.67,6.67,0,0,1,1.4-4.6,4.28,4.28,0,0,1,3.6-1.8m16,.8v1a5.2,5.2,0,0,0-1.4-.6,5.54,5.54,0,0,0-1.8-.2,4.54,4.54,0,0,0-2.6.6,2.11,2.11,0,0,0-.8,2,1.34,1.34,0,0,0,.8,1.4,4.64,4.64,0,0,0,2,.8l.6.2a6.4,6.4,0,0,1,2.6,1,2.78,2.78,0,0,1,1,2,3.46,3.46,0,0,1-1,2.6,5.3,5.3,0,0,1-3.4,1,5.57,5.57,0,0,1-2-.2l-1.8-.6v-1.2a3.59,3.59,0,0,0,1.6.8,8.2,8.2,0,0,0,2.2.2,3.39,3.39,0,0,0,2.6-.8,2.57,2.57,0,0,0,.8-2,1.56,1.56,0,0,0-.6-1.4,6.4,6.4,0,0,0-2.6-1l-.6-.2a6.67,6.67,0,0,1-2.4-1,2.78,2.78,0,0,1-1-2,3.36,3.36,0,0,1,1.2-2.8,4.82,4.82,0,0,1,3-.8,5,5,0,0,1,2,.2,5,5,0,0,0,1.6,1m5.4,10.8h3.6V860l-4.4,1.8v-1l4.4-1.8h1v15.2h3.6v.8h-8.2v-.8m21.8,5.2v.8H911v-.8h11.4m9.2-16v1a5.2,5.2,0,0,0-1.4-.6,5.54,5.54,0,0,0-1.8-.2,4.54,4.54,0,0,0-2.6.6,2.11,2.11,0,0,0-.8,2,1.34,1.34,0,0,0,.8,1.4,4.64,4.64,0,0,0,2,.8l.6.2a6.4,6.4,0,0,1,2.6,1,2.78,2.78,0,0,1,1,2,3.46,3.46,0,0,1-1,2.6,5.3,5.3,0,0,1-3.4,1,5.57,5.57,0,0,1-2-.2l-1.8-.6v-1.2a3.59,3.59,0,0,0,1.6.8,8.2,8.2,0,0,0,2.2.2,3.39,3.39,0,0,0,2.6-.8,2.57,2.57,0,0,0,.8-2,1.56,1.56,0,0,0-.6-1.4,6.4,6.4,0,0,0-2.6-1l-.6-.2a6.67,6.67,0,0,1-2.4-1,2.78,2.78,0,0,1-1-2A3.36,3.36,0,0,1,925,863a4.82,4.82,0,0,1,3-.8,5,5,0,0,1,2,.2,5,5,0,0,0,1.6,1m14,5.2v.6h-9.2c0,2,.4,3.2,1.2,4a4.89,4.89,0,0,0,3.6,1.2,6.89,6.89,0,0,0,1.8-.2,9.75,9.75,0,0,0,2.2-.8v1a9.75,9.75,0,0,1-2.2.8,6.89,6.89,0,0,1-1.8.2,5.73,5.73,0,0,1-4.2-1.6,6.4,6.4,0,0,1-1.6-4.6c0-2.2.4-3.8,1.4-4.8a5.26,5.26,0,0,1,4-1.6,4.39,4.39,0,0,1,3.6,1.6,6.56,6.56,0,0,1,1.2,4.2m-1-.4c0-1.6-.4-3-1.2-3.6a3.46,3.46,0,0,0-2.6-1,4.91,4.91,0,0,0-3,1c-.8.6-1.2,1.8-1.4,3.6h8.2m14.2-.4V875h-1v-7.2c0-1.6-.2-2.6-.8-3.2a2.87,2.87,0,0,0-2.2-1,4.91,4.91,0,0,0-3,1q-1.2.9-1.2,3.6V875h-1V863h1v2.2a3.71,3.71,0,0,1,1.4-1.6,4.59,4.59,0,0,1,2.8-.8,3.36,3.36,0,0,1,2.8,1.2c.8.6,1.2,2,1.2,3.8m11.6-4.4v1a5.2,5.2,0,0,0-1.4-.6,5.54,5.54,0,0,0-1.8-.2,4.54,4.54,0,0,0-2.6.6,2.11,2.11,0,0,0-.8,2,1.34,1.34,0,0,0,.8,1.4,4.64,4.64,0,0,0,2,.8l.6.2a6.4,6.4,0,0,1,2.6,1,2.78,2.78,0,0,1,1,2,3.46,3.46,0,0,1-1,2.6,5.3,5.3,0,0,1-3.4,1,5.57,5.57,0,0,1-2-.2l-1.8-.6v-1.2a3.59,3.59,0,0,0,1.6.8,8.2,8.2,0,0,0,2.2.2,3.39,3.39,0,0,0,2.6-.8,2.57,2.57,0,0,0,.8-2,1.56,1.56,0,0,0-.6-1.4,6.4,6.4,0,0,0-2.6-1l-.6-.2a6.67,6.67,0,0,1-2.4-1,2.78,2.78,0,0,1-1-2,3.36,3.36,0,0,1,1.2-2.8,4.82,4.82,0,0,1,3-.8,5,5,0,0,1,2,.2,8.91,8.91,0,0,0,1.6,1m11.8,1.6a3.37,3.37,0,0,0-3-1.4,3.6,3.6,0,0,0-3,1.4c-.8,1-1,2.2-1,4a7.35,7.35,0,0,0,1,4,3.37,3.37,0,0,0,3,1.4,3.6,3.6,0,0,0,3-1.4,6.29,6.29,0,0,0,1-4,5.27,5.27,0,0,0-1-4m-2.8-2.4a4,4,0,0,1,3.6,1.8,7.86,7.86,0,0,1,1.4,4.6c0,2-.4,3.6-1.4,4.6a4.28,4.28,0,0,1-3.6,1.8,4,4,0,0,1-3.6-1.8,8.35,8.35,0,0,1-1.4-4.6,6.67,6.67,0,0,1,1.4-4.6,4,4,0,0,1,3.6-1.8m15.6,1.2c-.2,0-.4-.2-.6-.2h-1a3.6,3.6,0,0,0-3,1.4,6.18,6.18,0,0,0-1,3.8v6.4h-1v-12h1v2.2a5.39,5.39,0,0,1,1.4-1.6,4.78,4.78,0,0,1,2.8-1H995v1"/><ellipse class="cls-3" cx="205" cy="1114" rx="147.2" ry="35"/><path class="cls-2" d="M111.75,1105.2h1V1122h-1v-16.8m15.4,10.2v.6H118c0,2,.4,3.2,1.2,4a4.89,4.89,0,0,0,3.6,1.2,6.89,6.89,0,0,0,1.8-.2,9.75,9.75,0,0,0,2.2-.8v1a9.75,9.75,0,0,1-2.2.8,6.89,6.89,0,0,1-1.8.2,5.73,5.73,0,0,1-4.2-1.6,6.4,6.4,0,0,1-1.6-4.6c0-2.2.4-3.8,1.4-4.8a5.26,5.26,0,0,1,4-1.6,4.39,4.39,0,0,1,3.6,1.6,7.39,7.39,0,0,1,1.2,4.2m-1-.2c0-1.6-.4-3-1.2-3.6a3.46,3.46,0,0,0-2.6-1,4.91,4.91,0,0,0-3,1c-.8.6-1.2,1.8-1.4,3.6h8.2m10.2-10v.8H135a2,2,0,0,0-1.6.6,3.2,3.2,0,0,0-.8,2.2v1h3.2v.8h-3.2v11.2h-1v-11.2h-1.8v-.6h1.8v-.8a4.14,4.14,0,0,1,1-3,3.31,3.31,0,0,1,2.4-1h1.4m3.6,1.4v3.4h4v.8h-4v7.2a4.3,4.3,0,0,0,.4,2,2.51,2.51,0,0,0,2.2,1.2h1.6v.8h-1.6a4,4,0,0,1-2.6-.8,4.35,4.35,0,0,1-1-3.2v-7.2h-1.4v-.8H139v-3.4h1m16.4,19.8v.8H145v-.8h11.4m9.4-14.4a3.91,3.91,0,0,0-6,0c-.8,1-1,2.2-1,4a7.35,7.35,0,0,0,1,4,3.91,3.91,0,0,0,6,0,6.29,6.29,0,0,0,1-4,5.27,5.27,0,0,0-1-4m-2.8-2.4a4,4,0,0,1,3.6,1.8,7.86,7.86,0,0,1,1.4,4.6c0,2-.4,3.6-1.4,4.6a4.28,4.28,0,0,1-3.6,1.8,4,4,0,0,1-3.6-1.8c-1-1-1.4-2.6-1.4-4.6a6.67,6.67,0,0,1,1.4-4.6,4,4,0,0,1,3.6-1.8m16,.8v1a5.2,5.2,0,0,0-1.4-.6,5.54,5.54,0,0,0-1.8-.2,4.54,4.54,0,0,0-2.6.6,2.11,2.11,0,0,0-.8,2,1.34,1.34,0,0,0,.8,1.4,4.64,4.64,0,0,0,2,.8l.6.2a6.4,6.4,0,0,1,2.6,1,2.78,2.78,0,0,1,1,2,3.46,3.46,0,0,1-1,2.6,5.3,5.3,0,0,1-3.4,1,5.57,5.57,0,0,1-2-.2l-1.8-.6v-1.2a3.59,3.59,0,0,0,1.6.8,8.2,8.2,0,0,0,2.2.2,3.39,3.39,0,0,0,2.6-.8,2.57,2.57,0,0,0,.8-2,1.56,1.56,0,0,0-.6-1.4,6.4,6.4,0,0,0-2.6-1l-.6-.2a6.67,6.67,0,0,1-2.4-1,2.78,2.78,0,0,1-1-2,3.36,3.36,0,0,1,1.2-2.8,4.82,4.82,0,0,1,3-.8,5,5,0,0,1,2,.2,3.54,3.54,0,0,0,1.6,1m5.4,10.8H188V1107l-4.4,1.8v-1l4.4-1.8h1v15.2h3.4v.8h-8v-.8M201,1106h1.2l-5.8,18h-1.2l5.8-18m11,6a3.91,3.91,0,0,0-6,0c-.8,1-1,2.2-1,4a7.35,7.35,0,0,0,1,4,3.91,3.91,0,0,0,6,0,6.29,6.29,0,0,0,1-4,5.27,5.27,0,0,0-1-4m-2.8-2.4a4,4,0,0,1,3.6,1.8,7.86,7.86,0,0,1,1.4,4.6c0,2-.4,3.6-1.4,4.6a4.28,4.28,0,0,1-3.6,1.8,4,4,0,0,1-3.6-1.8,8.35,8.35,0,0,1-1.4-4.6,6.67,6.67,0,0,1,1.4-4.6,4,4,0,0,1,3.6-1.8m16,.8v1a5.2,5.2,0,0,0-1.4-.6,5.54,5.54,0,0,0-1.8-.2,4.54,4.54,0,0,0-2.6.6,2.11,2.11,0,0,0-.8,2,1.34,1.34,0,0,0,.8,1.4,4.64,4.64,0,0,0,2,.8l.6.2a6.4,6.4,0,0,1,2.6,1,2.78,2.78,0,0,1,1,2,3.46,3.46,0,0,1-1,2.6,5.3,5.3,0,0,1-3.4,1,5.57,5.57,0,0,1-2-.2l-1.8-.6v-1.2a3.59,3.59,0,0,0,1.6.8,8.2,8.2,0,0,0,2.2.2,3.39,3.39,0,0,0,2.6-.8,2.57,2.57,0,0,0,.8-2,1.56,1.56,0,0,0-.6-1.4,6.4,6.4,0,0,0-2.6-1l-.6-.2a6.67,6.67,0,0,1-2.4-1,2.78,2.78,0,0,1-1-2,3.36,3.36,0,0,1,1.2-2.8,4.82,4.82,0,0,1,3-.8,5,5,0,0,1,2,.2,5,5,0,0,0,1.6,1m5.4,10.8h3.6V1107l-4.4,1.8v-1l4.4-1.8h1v15.2h3.6v.8h-8.2v-.8m21.8,5.2v.8H241v-.8h11.4m2.4-21.2h1V1122h-1v-16.8m6,4.8h1v12h-1v-12m0-4.8h1v1.4h-1v-1.4m14.2,7.6v-7.4h1v16.8h-1v-2.8a4.84,4.84,0,0,1-1.6,2.2,4.22,4.22,0,0,1-2.2,1,4.54,4.54,0,0,1-3.6-1.8,8.26,8.26,0,0,1,0-9.2,4.54,4.54,0,0,1,3.6-1.8,3.33,3.33,0,0,1,2.2.8,3.94,3.94,0,0,1,1.6,2.2m-6.6-1q-1.2,1.2-1.2,4.2t1.2,4.2a3.42,3.42,0,0,0,5.2,0q1.2-1.2,1.2-4.2t-1.2-4.2a3.52,3.52,0,0,0-2.6-1.2,4.3,4.3,0,0,0-2.6,1.2m17.4,3.4c-1.6,0-2.8.2-3.4.8a3.31,3.31,0,0,0-1,2.4,2.49,2.49,0,0,0,.8,2.2,3.38,3.38,0,0,0,2,.6,3.09,3.09,0,0,0,3.2-2,8.93,8.93,0,0,0,1-3.6v-.8h-2.6m3.6.4v6.8h-1v-3.2c-.6,1.6-1.2,2.6-2.2,3a4.56,4.56,0,0,1-2.2.6,3.47,3.47,0,0,1-3.8-3.8,3.6,3.6,0,0,1,1.4-3,6.8,6.8,0,0,1,4.4-1.2h2.4v-.2a3.8,3.8,0,0,0-1-2.6,4.14,4.14,0,0,0-3-1,7.11,7.11,0,0,0-2,.4c-.4.2-1,.6-1.8,1v-1a7.1,7.1,0,0,1,1.8-.8,10.32,10.32,0,0,1,2.2-.4,5.58,5.58,0,0,1,3.6,1.2q1.2.9,1.2,4.2m11.6-4.4c-.2,0-.4-.2-.6-.2h-1a3.6,3.6,0,0,0-3,1.4,6.18,6.18,0,0,0-1,3.8v6.4h-1v-12h1v2.2a5.39,5.39,0,0,1,1.4-1.6,4.78,4.78,0,0,1,2.8-1H301v1"/><ellipse class="cls-5" cx="957.2" cy="363.4" rx="110.8" ry="35"/><path class="cls-2" d="M901.67,362a4,4,0,0,1,1.8-2.2,5.78,5.78,0,0,1,2.8-.8,4.21,4.21,0,0,1,2.6,1,6.44,6.44,0,0,1,1,4v7.2h-1V364a6.84,6.84,0,0,0-.6-3.4,2,2,0,0,0-1.8-.8,5.39,5.39,0,0,0-3,1,4.28,4.28,0,0,0-1.4,3.6v6.8h-1V364a6.84,6.84,0,0,0-.6-3.4,2.1,2.1,0,0,0-1.8-1,5.39,5.39,0,0,0-3,1,4.28,4.28,0,0,0-1.4,3.6V371h-1V359h1v2.2a4.72,4.72,0,0,1,1.6-1.8,5.81,5.81,0,0,1,2.8-.6,3.38,3.38,0,0,1,2,.6c.2.6.6,1.4,1,2.6m17.6,2.6c-1.6,0-2.8.2-3.4.8a3.31,3.31,0,0,0-1,2.4,2.49,2.49,0,0,0,.8,2.2,3.38,3.38,0,0,0,2,.6,3.09,3.09,0,0,0,3.2-2,8.93,8.93,0,0,0,1-3.6v-.8h-2.6m3.6.2v6.8h-1V368c-.6,1.6-1.2,2.6-2.2,3a4.56,4.56,0,0,1-2.2.6,3.47,3.47,0,0,1-3.8-3.8,3.6,3.6,0,0,1,1.4-3c.8-.8,2.4-1.2,4.4-1.2h2.4v-.2a3.8,3.8,0,0,0-1-2.6,4.14,4.14,0,0,0-3-1,7.11,7.11,0,0,0-2,.4c-.4.2-1,.6-1.8,1v-1a7.1,7.1,0,0,1,1.8-.8,10.32,10.32,0,0,1,2.2-.4,5.58,5.58,0,0,1,3.6,1.2c1,.8,1.2,2.2,1.2,4.2m6,4.2v7.2h-1V359.2h1V362a7,7,0,0,1,1.4-2.2,3.84,3.84,0,0,1,2.4-.8,4.54,4.54,0,0,1,3.6,1.8,8.26,8.26,0,0,1,0,9.2,4.54,4.54,0,0,1-3.6,1.8,4.16,4.16,0,0,1-2.4-1,7,7,0,0,1-1.4-2.2m6.6,1q1.2-1.2,1.2-4.2t-1.2-4.2a3.42,3.42,0,0,0-5.2,0q-1.2,1.2-1.2,4.2t1.2,4.2a3.52,3.52,0,0,0,2.6,1.2,4.3,4.3,0,0,0,2.6-1.2m15.2,6v.8h-11.4v-.8h11.4m10.2-10.4a6.62,6.62,0,0,0-1-3.8,3.5,3.5,0,0,0-5.6,0,7.11,7.11,0,0,0-1,3.8,6.62,6.62,0,0,0,1,3.8,3.5,3.5,0,0,0,5.6,0,6.62,6.62,0,0,0,1-3.8m1,4.6c0,2.6-.4,4.2-1.4,5a5.58,5.58,0,0,1-3.6,1.2,6.17,6.17,0,0,1-2-.2,6.36,6.36,0,0,1-1.8-.6V374a7.1,7.1,0,0,0,1.8.8,5.54,5.54,0,0,0,1.8.2,4.82,4.82,0,0,0,3-.8c.8-.6,1.2-1.8,1.2-4.2v-2a17.59,17.59,0,0,1-1.2,2,3.31,3.31,0,0,1-2.6,1,4.39,4.39,0,0,1-3.6-1.6,7.43,7.43,0,0,1-1.2-4.6,7.84,7.84,0,0,1,1.2-4.6,4.39,4.39,0,0,1,3.6-1.6,4.21,4.21,0,0,1,2.6,1,5.1,5.1,0,0,1,1.4,2V359h1v10.8m8,2.6a7,7,0,0,1-1.4,2.2,2.87,2.87,0,0,1-2,.8h-1.4v-.8h1.2a1.82,1.82,0,0,0,1.4-.6,2.88,2.88,0,0,0,1.2-2l.4-1-4.8-12h1l4.2,10.8,4.2-10.8h1l-5,13.4m16.2-11a3.37,3.37,0,0,0-3-1.4,3.6,3.6,0,0,0-3,1.4c-.8,1-1,2.2-1,4a7.35,7.35,0,0,0,1,4,3.37,3.37,0,0,0,3,1.4,3.6,3.6,0,0,0,3-1.4,6.29,6.29,0,0,0,1-4,7.35,7.35,0,0,0-1-4m-3-2.4a4,4,0,0,1,3.6,1.8,7.86,7.86,0,0,1,1.4,4.6c0,2-.4,3.6-1.4,4.6a4.28,4.28,0,0,1-3.6,1.8,4,4,0,0,1-3.6-1.8,8.35,8.35,0,0,1-1.4-4.6,6.67,6.67,0,0,1,1.4-4.6,4.28,4.28,0,0,1,3.6-1.8m15.8,1.2c-.2,0-.4-.2-.6-.2h-1a3.6,3.6,0,0,0-3,1.4,6.18,6.18,0,0,0-1,3.8v6.4h-1v-12h1v2.2a5.39,5.39,0,0,1,1.4-1.6,4.78,4.78,0,0,1,2.8-1h1.4v1m11.2,15.4v.8h-11.4v-.8h11.4m6.6-19.8c-1.4,0-2.2.6-3,2a13.34,13.34,0,0,0-1,5.6,14,14,0,0,0,1,5.6,3.28,3.28,0,0,0,3,2,3,3,0,0,0,3-2,13.34,13.34,0,0,0,1-5.6,14,14,0,0,0-1-5.6,3.28,3.28,0,0,0-3-2m0-.8a3.81,3.81,0,0,1,3.6,2c1,1.2,1.4,3.4,1.4,6.4s-.4,5.2-1.4,6.4a4.28,4.28,0,0,1-3.6,1.8,4,4,0,0,1-3.6-1.8,12.1,12.1,0,0,1-1.4-6.4c0-3,.4-5.2,1.4-6.4a4.24,4.24,0,0,1,3.6-2"/><ellipse class="cls-3" cx="513" cy="864" rx="160.2" ry="35"/><path class="cls-2" d="M407.65,855.2h1V872h-1V855.2m15.4,10.2v.6h-9.2c0,2,.4,3.2,1.2,4a4.89,4.89,0,0,0,3.6,1.2,6.89,6.89,0,0,0,1.8-.2,9.75,9.75,0,0,0,2.2-.8v1a5.93,5.93,0,0,1-2.2.8,6.89,6.89,0,0,1-1.8.2,5.73,5.73,0,0,1-4.2-1.6,6.4,6.4,0,0,1-1.6-4.6c0-2.2.4-3.8,1.4-4.8a5.26,5.26,0,0,1,4-1.6,4.39,4.39,0,0,1,3.6,1.6,7.39,7.39,0,0,1,1.2,4.2m-1-.2c0-1.6-.4-3-1.2-3.6a3.46,3.46,0,0,0-2.6-1,4.91,4.91,0,0,0-3,1c-.8.6-1.2,1.8-1.4,3.6h8.2m10.2-10v.8h-1.4a2,2,0,0,0-1.6.6,3.2,3.2,0,0,0-.8,2.2v1h3.2v.8h-3.2V872h-1V860.8h-1.8V860h1.8v-.8a4.14,4.14,0,0,1,1-3,3.31,3.31,0,0,1,2.4-1h1.4m3.6,1.4V860h4v.8h-4V868a4.3,4.3,0,0,0,.4,2,2.51,2.51,0,0,0,2.2,1.2h1.6v.8h-1.6a4,4,0,0,1-2.6-.8,4.35,4.35,0,0,1-1-3.2v-7.2h-1.4V860h1.4v-3.4h1m16.4,19.8v.8h-11.4v-.8h11.4m9.4-14.4a3.91,3.91,0,0,0-6,0c-.8,1-1,2.2-1,4a7.35,7.35,0,0,0,1,4,3.91,3.91,0,0,0,6,0,6.29,6.29,0,0,0,1-4,5.27,5.27,0,0,0-1-4m-2.8-2.4a4,4,0,0,1,3.6,1.8,7.86,7.86,0,0,1,1.4,4.6c0,2-.4,3.6-1.4,4.6a4.28,4.28,0,0,1-3.6,1.8,4,4,0,0,1-3.6-1.8,8.35,8.35,0,0,1-1.4-4.6,6.67,6.67,0,0,1,1.4-4.6,4,4,0,0,1,3.6-1.8m16,.8v1a5.2,5.2,0,0,0-1.4-.6,5.54,5.54,0,0,0-1.8-.2,4.54,4.54,0,0,0-2.6.6,2.11,2.11,0,0,0-.8,2,1.34,1.34,0,0,0,.8,1.4,4.64,4.64,0,0,0,2,.8l.6.2a6.4,6.4,0,0,1,2.6,1,2.78,2.78,0,0,1,1,2,3.46,3.46,0,0,1-1,2.6,5.3,5.3,0,0,1-3.4,1,5.57,5.57,0,0,1-2-.2,5.84,5.84,0,0,1-1.8-.4v-1.2a3.59,3.59,0,0,0,1.6.8,8.2,8.2,0,0,0,2.2.2,3.39,3.39,0,0,0,2.6-.8,2.57,2.57,0,0,0,.8-2,1.56,1.56,0,0,0-.6-1.4,6.4,6.4,0,0,0-2.6-1l-.6-.2a6.67,6.67,0,0,1-2.4-1,2.78,2.78,0,0,1-1-2,3.36,3.36,0,0,1,1.2-2.8,4.82,4.82,0,0,1,3-.8,5,5,0,0,1,2,.2,6,6,0,0,0,1.6.8m5.4,10.8h3.6V857l-4.4,1.8v-1l4.4-1.8h1v15.2h3.6v.8h-8.2v-.8m16.6-15.2h1.2l-5.8,18h-1.2l5.8-18m11,6a3.37,3.37,0,0,0-3-1.4,3.6,3.6,0,0,0-3,1.4c-.8,1-1,2.2-1,4a7.35,7.35,0,0,0,1,4,3.37,3.37,0,0,0,3,1.4,3.6,3.6,0,0,0,3-1.4,6.29,6.29,0,0,0,1-4,5.27,5.27,0,0,0-1-4m-2.8-2.4a4,4,0,0,1,3.6,1.8,7.86,7.86,0,0,1,1.4,4.6c0,2-.4,3.6-1.4,4.6a4.28,4.28,0,0,1-3.6,1.8,4,4,0,0,1-3.6-1.8,8.35,8.35,0,0,1-1.4-4.6,6.67,6.67,0,0,1,1.4-4.6,4,4,0,0,1,3.6-1.8m16,.8v1a5.2,5.2,0,0,0-1.4-.6,5.54,5.54,0,0,0-1.8-.2,4.54,4.54,0,0,0-2.6.6,2.11,2.11,0,0,0-.8,2,1.34,1.34,0,0,0,.8,1.4,4.64,4.64,0,0,0,2,.8l.6.2a6.4,6.4,0,0,1,2.6,1,2.78,2.78,0,0,1,1,2,3.46,3.46,0,0,1-1,2.6,5.3,5.3,0,0,1-3.4,1,5.57,5.57,0,0,1-2-.2l-1.8-.6v-1.2a3.59,3.59,0,0,0,1.6.8,8.2,8.2,0,0,0,2.2.2,3.39,3.39,0,0,0,2.6-.8,2.57,2.57,0,0,0,.8-2,1.56,1.56,0,0,0-.6-1.4,6.4,6.4,0,0,0-2.6-1l-.6-.2a6.67,6.67,0,0,1-2.4-1,2.78,2.78,0,0,1-1-2,3.36,3.36,0,0,1,1.2-2.8,4.82,4.82,0,0,1,3-.8,5,5,0,0,1,2,.2,5,5,0,0,0,1.6,1m5.4,10.8h3.6V857l-4.4,1.8v-1l4.4-1.8h1v15.2h3.6v.8h-8.2v-.8m21.8,5.2v.8h-11.4v-.8h11.4m9.2-16v1a5.2,5.2,0,0,0-1.4-.6,5.54,5.54,0,0,0-1.8-.2,4.54,4.54,0,0,0-2.6.6,2.11,2.11,0,0,0-.8,2,1.34,1.34,0,0,0,.8,1.4,4.64,4.64,0,0,0,2,.8l.6.2a6.4,6.4,0,0,1,2.6,1,2.78,2.78,0,0,1,1,2,3.46,3.46,0,0,1-1,2.6c-.6.8-1.8,1.2-3.4,1.2a5.57,5.57,0,0,1-2-.2,13.78,13.78,0,0,0-1.6-.6v-1.2a3.59,3.59,0,0,0,1.6.8,8.2,8.2,0,0,0,2.2.2,3.39,3.39,0,0,0,2.6-.8,2.57,2.57,0,0,0,.8-2,1.56,1.56,0,0,0-.6-1.4,6.4,6.4,0,0,0-2.6-1l-.6-.2a4.29,4.29,0,0,1-2.4-.8,2.78,2.78,0,0,1-1-2,3.36,3.36,0,0,1,1.2-2.8,4.82,4.82,0,0,1,3-.8,5,5,0,0,1,2,.2,9.75,9.75,0,0,1,1.4.6m14,5v.6h-9.2c0,2,.4,3.2,1.2,4a4.89,4.89,0,0,0,3.6,1.2,6.89,6.89,0,0,0,1.8-.2,4.56,4.56,0,0,0,2.2-.6v1a12.3,12.3,0,0,1-2.2.6,10.15,10.15,0,0,1-1.8.4,5.73,5.73,0,0,1-4.2-1.6,6.4,6.4,0,0,1-1.6-4.6c0-2.2.4-3.8,1.4-4.8a5.26,5.26,0,0,1,4-1.6,4.39,4.39,0,0,1,3.6,1.6,6.35,6.35,0,0,1,1.2,4m-1-.2c0-1.6-.4-3-1.2-3.6a3.46,3.46,0,0,0-2.6-1,4.91,4.91,0,0,0-3,1c-.8.6-1.2,1.8-1.4,3.6h8.2m14.2-.4V872h-1v-7.2c0-1.6-.2-2.6-.8-3.2a2.87,2.87,0,0,0-2.2-1,4.91,4.91,0,0,0-3,1q-1.2.9-1.2,3.6V872h-.8V860h1v2.2a3.71,3.71,0,0,1,1.4-1.6,4.59,4.59,0,0,1,2.8-.8,3.36,3.36,0,0,1,2.8,1.2,5.77,5.77,0,0,1,1,3.8m11.6-4.4v1a5.2,5.2,0,0,0-1.4-.6,5.54,5.54,0,0,0-1.8-.2,4.54,4.54,0,0,0-2.6.6,2.11,2.11,0,0,0-.8,2,1.34,1.34,0,0,0,.8,1.4,4.64,4.64,0,0,0,2,.8l.6.2a6.4,6.4,0,0,1,2.6,1,2.78,2.78,0,0,1,1,2,3.46,3.46,0,0,1-1,2.6,5.3,5.3,0,0,1-3.4,1,5.57,5.57,0,0,1-2-.2l-1.8-.6v-1.2a3.59,3.59,0,0,0,1.6.8,8.2,8.2,0,0,0,2.2.2,3.39,3.39,0,0,0,2.6-.8,2.57,2.57,0,0,0,.8-2,1.56,1.56,0,0,0-.6-1.4,6.4,6.4,0,0,0-2.6-1l-.6-.2a6.67,6.67,0,0,1-2.4-1,2.78,2.78,0,0,1-1-2,3.36,3.36,0,0,1,1.2-2.8,4.82,4.82,0,0,1,3-.8,5,5,0,0,1,2,.2,8.91,8.91,0,0,0,1.6,1m11.8,1.6a3.37,3.37,0,0,0-3-1.4,3.6,3.6,0,0,0-3,1.4c-.8,1-1,2.2-1,4a7.35,7.35,0,0,0,1,4,3.37,3.37,0,0,0,3,1.4,3.6,3.6,0,0,0,3-1.4,6.29,6.29,0,0,0,1-4,5.27,5.27,0,0,0-1-4m-2.8-2.4a4,4,0,0,1,3.6,1.8,7.86,7.86,0,0,1,1.4,4.6c0,2-.4,3.6-1.4,4.6a4.28,4.28,0,0,1-3.6,1.8,4,4,0,0,1-3.6-1.8c-1-1-1.4-2.6-1.4-4.6a6.67,6.67,0,0,1,1.4-4.6,4,4,0,0,1,3.6-1.8m15.6,1.2c-.2,0-.4-.2-.6-.2h-1a3.6,3.6,0,0,0-3,1.4,6.18,6.18,0,0,0-1,3.8V872h-1V860h1v2.2a5.39,5.39,0,0,1,1.4-1.6,4.78,4.78,0,0,1,2.8-1h1.4v1.2"/><ellipse class="cls-3" cx="2075.2" cy="876" rx="126.4" ry="35"/><path class="cls-2" d="M1995.43,872h1l4,11,4-11h1l-4.4,12h-1.2l-4.4-12m23.6,5.4v.6h-9.2c0,2,.4,3.2,1.2,4a4.89,4.89,0,0,0,3.6,1.2,6.89,6.89,0,0,0,1.8-.2,9.75,9.75,0,0,0,2.2-.8v1a9.75,9.75,0,0,1-2.2.8,6.89,6.89,0,0,1-1.8.2,5.73,5.73,0,0,1-4.2-1.6,6.4,6.4,0,0,1-1.6-4.6c0-2.2.4-3.8,1.4-4.8a5.26,5.26,0,0,1,4-1.6,4.39,4.39,0,0,1,3.6,1.6,7.39,7.39,0,0,1,1.2,4.2m-1-.2c0-1.6-.4-3-1.2-3.6a3.46,3.46,0,0,0-2.6-1,4.91,4.91,0,0,0-3,1c-.8.6-1.2,1.8-1.4,3.6h8.2m5-10h1V884h-1V867.2m13.4,6.8a3.37,3.37,0,0,0-3-1.4,3.6,3.6,0,0,0-3,1.4c-.8,1-1,2.2-1,4a7.35,7.35,0,0,0,1,4,3.37,3.37,0,0,0,3,1.4,3.6,3.6,0,0,0,3-1.4,6.29,6.29,0,0,0,1-4,7.88,7.88,0,0,0-1-4m-3-2.4a4,4,0,0,1,3.6,1.8,7.86,7.86,0,0,1,1.4,4.6c0,2-.4,3.6-1.4,4.6a4.28,4.28,0,0,1-3.6,1.8,4,4,0,0,1-3.6-1.8,8.35,8.35,0,0,1-1.4-4.6,6.67,6.67,0,0,1,1.4-4.6,4,4,0,0,1,3.6-1.8m17.2,3.2v-7.4h1V884h-1v-2.8a4.84,4.84,0,0,1-1.6,2.2,4.22,4.22,0,0,1-2.2,1,4.54,4.54,0,0,1-3.6-1.8,8.26,8.26,0,0,1,0-9.2,4.54,4.54,0,0,1,3.6-1.8,3.33,3.33,0,0,1,2.2.8,5.59,5.59,0,0,1,1.6,2.4m-6.4-1q-1.2,1.2-1.2,4.2t1.2,4.2a3.42,3.42,0,0,0,5.2,0q1.2-1.2,1.2-4.2t-1.2-4.2a3.42,3.42,0,0,0-5.2,0m16.4,11.4a7,7,0,0,1-1.4,2.2,2.87,2.87,0,0,1-2,.8h-1.4v-.8h1.2a1.82,1.82,0,0,0,1.4-.6,2.88,2.88,0,0,0,1.2-2l.4-1-4.8-12h1l4.2,10.8,4.2-10.8h1l-5,13.4m18-8.4V884h-1v-7.2c0-1.6-.2-2.6-.8-3.2a2.87,2.87,0,0,0-2.2-1,4.91,4.91,0,0,0-3,1q-1.2.9-1.2,3.6V884h-1V872h1v2.2a3.71,3.71,0,0,1,1.4-1.6,4.59,4.59,0,0,1,2.8-.8,3.36,3.36,0,0,1,2.8,1.2c.8.6,1.2,2,1.2,3.8m14.2.6v.6h-9.2c0,2,.4,3.2,1.2,4a4.89,4.89,0,0,0,3.6,1.2,6.89,6.89,0,0,0,1.8-.2,9.75,9.75,0,0,0,2.2-.8v1a9.75,9.75,0,0,1-2.2.8,6.89,6.89,0,0,1-1.8.2,5.73,5.73,0,0,1-4.2-1.6,6.4,6.4,0,0,1-1.6-4.6c0-2.2.4-3.8,1.4-4.8a5.26,5.26,0,0,1,4-1.6,4.39,4.39,0,0,1,3.6,1.6,7.39,7.39,0,0,1,1.2,4.2m-1-.2c0-1.6-.4-3-1.2-3.6a3.46,3.46,0,0,0-2.6-1,4.91,4.91,0,0,0-3,1c-.8.6-1.2,1.8-1.4,3.6h8.2m14,11.2v.8h-11.4v-.8h11.4m8.8-15.6c-.2,0-.4-.2-.6-.2h-1a3.6,3.6,0,0,0-3,1.4,6.18,6.18,0,0,0-1,3.8V884h-1V872h1v2.2a5.39,5.39,0,0,1,1.4-1.6,4.78,4.78,0,0,1,2.8-1h1.4v1.2m2.4-.8h1v12h-1V872m0-4.8h1v1.4h-1v-1.4m14.2,10.6a6.62,6.62,0,0,0-1-3.8,3.5,3.5,0,0,0-5.6,0,7.11,7.11,0,0,0-1,3.8,6.62,6.62,0,0,0,1,3.8,3.5,3.5,0,0,0,5.6,0,6.18,6.18,0,0,0,1-3.8m1,4.6c0,2.6-.4,4.2-1.4,5a5.58,5.58,0,0,1-3.6,1.2,6.17,6.17,0,0,1-2-.2,6.36,6.36,0,0,1-1.8-.6v-1.2a7.1,7.1,0,0,0,1.8.8,5.54,5.54,0,0,0,1.8.2,4.82,4.82,0,0,0,3-.8c.8-.6,1.2-1.8,1.2-4.2v-2a17.59,17.59,0,0,1-1.2,2,3.31,3.31,0,0,1-2.6,1,4.39,4.39,0,0,1-3.6-1.6,7.43,7.43,0,0,1-1.2-4.6,7.84,7.84,0,0,1,1.2-4.6,4.39,4.39,0,0,1,3.6-1.6,4.21,4.21,0,0,1,2.6,1,5.1,5.1,0,0,1,1.4,2V872h1v10.4m13-5.6V884h-1v-7.2c0-1.6-.2-2.6-.8-3.2a3.31,3.31,0,0,0-2.4-1,4.91,4.91,0,0,0-3,1c-.8.8-1,1.8-1,3.6V884h-1V867.2h1v7a3.11,3.11,0,0,1,1.2-1.6,4.15,4.15,0,0,1,3-.8,3.36,3.36,0,0,1,2.8,1.2,5.09,5.09,0,0,1,1.2,3.8m5.8-8.2V872h4v.8h-4V880a4.3,4.3,0,0,0,.4,2,2.51,2.51,0,0,0,2.2,1.2h1.6v.8h-1.6a4,4,0,0,1-2.6-.8,4.35,4.35,0,0,1-1-3.2v-7.2h-1.4V872h1.4v-3.4h1"/><ellipse class="cls-3" cx="1673.2" cy="881" rx="148.4" ry="35"/><path class="cls-2" d="M1576,877h9.4v1l-8.6,10h8.6v.8h-9.6V888l8.6-10H1576v-1m22.2,5.4v.6H1589c0,2,.4,3.2,1.2,4a4.89,4.89,0,0,0,3.6,1.2,6.89,6.89,0,0,0,1.8-.2,9.75,9.75,0,0,0,2.2-.8v1a9.75,9.75,0,0,1-2.2.8,6.89,6.89,0,0,1-1.8.2,5.73,5.73,0,0,1-4.2-1.6,6.4,6.4,0,0,1-1.6-4.6c0-2.2.4-3.8,1.4-4.8a5.26,5.26,0,0,1,4-1.6,4.39,4.39,0,0,1,3.6,1.6,7.39,7.39,0,0,1,1.2,4.2m-1-.2c0-1.6-.4-3-1.2-3.6a3.46,3.46,0,0,0-2.6-1,4.91,4.91,0,0,0-3,1c-.8.6-1.2,1.8-1.4,3.6h8.2m13.2-2.4v-7.4h1v16.8h-1v-2.8a4.84,4.84,0,0,1-1.6,2.2,4.22,4.22,0,0,1-2.2,1,4.54,4.54,0,0,1-3.6-1.8,8.26,8.26,0,0,1,0-9.2,4.54,4.54,0,0,1,3.6-1.8,3.33,3.33,0,0,1,2.2.8,3.94,3.94,0,0,1,1.6,2.2m-6.6-1q-1.2,1.2-1.2,4.2t1.2,4.2a3.42,3.42,0,0,0,5.2,0q1.2-1.2,1.2-4.2t-1.2-4.2a3.52,3.52,0,0,0-2.6-1.2,4.3,4.3,0,0,0-2.6,1.2m21.2,14.6v.8h-11.4v-.8H1625m10.6-15.8v1a11.47,11.47,0,0,0-1.4-.8,7.11,7.11,0,0,0-2-.4c-1.8,0-3,.4-3.8,1.4a6.2,6.2,0,0,0-1.2,4.2,6.56,6.56,0,0,0,1.2,4.2,5.12,5.12,0,0,0,3.8,1.4,3.9,3.9,0,0,0,1.6-.2,13.78,13.78,0,0,0,1.6-.6v1a13.78,13.78,0,0,0-1.6.6,5.54,5.54,0,0,1-1.8.2,5.63,5.63,0,0,1-4.2-1.4,6.59,6.59,0,0,1-1.6-4.8c0-2.2.6-4,1.6-4.8a5.63,5.63,0,0,1,4.2-1.4,5.54,5.54,0,0,1,1.8.2,1.49,1.49,0,0,1,1.8.2m8.6,4.6c-1.6,0-2.8.2-3.4.8a3.31,3.31,0,0,0-1,2.4,2.49,2.49,0,0,0,.8,2.2,3.38,3.38,0,0,0,2,.6,3.09,3.09,0,0,0,3.2-2,8.93,8.93,0,0,0,1-3.6v-.8h-2.6m3.6.4V889h-1v-3.2c-.6,1.6-1.2,2.6-2.2,3a4.56,4.56,0,0,1-2.2.6,3.47,3.47,0,0,1-3.8-3.8,3.6,3.6,0,0,1,1.4-3,6.8,6.8,0,0,1,4.4-1.2h2.4v-.2a3.8,3.8,0,0,0-1-2.6,4.14,4.14,0,0,0-3-1,7.11,7.11,0,0,0-2,.4c-.4.2-1,.6-1.8,1v-1a7.1,7.1,0,0,1,1.8-.8,10.32,10.32,0,0,1,2.2-.4,5.58,5.58,0,0,1,3.6,1.2q1.2.9,1.2,4.2m13.8-2.6a4,4,0,0,1,1.8-2.2,5.78,5.78,0,0,1,2.8-.8,4.21,4.21,0,0,1,2.6,1,6.44,6.44,0,0,1,1,4v7.2h-1v-7.2a6.84,6.84,0,0,0-.6-3.4,2,2,0,0,0-1.8-.8,5.39,5.39,0,0,0-3,1,4.28,4.28,0,0,0-1.4,3.6v6.8h-1v-7.2a6.84,6.84,0,0,0-.6-3.4,2.1,2.1,0,0,0-1.8-1,5.39,5.39,0,0,0-3,1,4.28,4.28,0,0,0-1.4,3.6v6.8h-1v-12h1v2.2a4.72,4.72,0,0,1,1.6-1.8,5.81,5.81,0,0,1,2.8-.6,3.38,3.38,0,0,1,2,.6c.2.8.6,1.4,1,2.6m22,2.8v.6h-9.2c0,2,.4,3.2,1.2,4a4.89,4.89,0,0,0,3.6,1.2,6.89,6.89,0,0,0,1.8-.2,9.75,9.75,0,0,0,2.2-.8v1a9.75,9.75,0,0,1-2.2.8,6.89,6.89,0,0,1-1.8.2,5.73,5.73,0,0,1-4.2-1.6,6.4,6.4,0,0,1-1.6-4.6c0-2.2.4-3.8,1.4-4.8a5.26,5.26,0,0,1,4-1.6,4.39,4.39,0,0,1,3.6,1.6,7.39,7.39,0,0,1,1.2,4.2m-1-.2c0-1.6-.4-3-1.2-3.6a3.46,3.46,0,0,0-2.6-1,4.91,4.91,0,0,0-3,1c-.8.6-1.2,1.8-1.4,3.6h8.2m11.8-4.4c-.2,0-.4-.2-.6-.2h-1a3.6,3.6,0,0,0-3,1.4,6.18,6.18,0,0,0-1,3.8v6.4h-1v-12h1v2.2a5.39,5.39,0,0,1,1.4-1.6,4.78,4.78,0,0,1,2.8-1h1.4v1m7.2,4.4c-1.6,0-2.8.2-3.4.8a3.31,3.31,0,0,0-1,2.4,2.49,2.49,0,0,0,.8,2.2,3.38,3.38,0,0,0,2,.6,3.09,3.09,0,0,0,3.2-2,8.93,8.93,0,0,0,1-3.6v-.8h-2.6m3.8.4V889h-1v-3.2c-.6,1.6-1.2,2.6-2.2,3a4.56,4.56,0,0,1-2.2.6,3.47,3.47,0,0,1-3.8-3.8,3.6,3.6,0,0,1,1.4-3c.8-.8,2.4-1.2,4.4-1.2h2.4v-.2a3.8,3.8,0,0,0-1-2.6,4.14,4.14,0,0,0-3-1,7.11,7.11,0,0,0-2,.4c-.4.2-1,.6-1.8,1v-1a7.1,7.1,0,0,1,1.8-.8,10.32,10.32,0,0,1,2.2-.4,5.58,5.58,0,0,1,3.6,1.2q1.2.9,1.2,4.2m13.6,11.2v.8h-11.4v-.8H1719m7.4-21.2v.8H1725a2,2,0,0,0-1.6.6,3.2,3.2,0,0,0-.8,2.2v1h3.2v.8h-3.2v11.2h-1V877.6h-1.8v-.8h1.8V876a4.14,4.14,0,0,1,1-3,3.31,3.31,0,0,1,2.4-1h1.4m9.2,5.8c-.2,0-.4-.2-.6-.2h-1a3.6,3.6,0,0,0-3,1.4,6.18,6.18,0,0,0-1,3.8v6.4h-1v-12h1v2.2a5.39,5.39,0,0,1,1.4-1.6,4.78,4.78,0,0,1,2.8-1h1.4v1m9.6,1.2a3.91,3.91,0,0,0-6,0c-.8,1-1,2.2-1,4a7.35,7.35,0,0,0,1,4,3.91,3.91,0,0,0,6,0,8.5,8.5,0,0,0,0-8m-3-2.4a4,4,0,0,1,3.6,1.8,7.86,7.86,0,0,1,1.4,4.6c0,2-.4,3.6-1.4,4.6a4.28,4.28,0,0,1-3.6,1.8,4,4,0,0,1-3.6-1.8,8.35,8.35,0,0,1-1.4-4.6,6.67,6.67,0,0,1,1.4-4.6,4.54,4.54,0,0,1,3.6-1.8m18.4,5.2V889h-1v-7.2c0-1.6-.2-2.6-.8-3.2a2.87,2.87,0,0,0-2.2-1,4.91,4.91,0,0,0-3,1q-1.2.9-1.2,3.6V889h-1V877h1v2.2a3.71,3.71,0,0,1,1.4-1.6,4.59,4.59,0,0,1,2.8-.8,3.36,3.36,0,0,1,2.8,1.2c.8.6,1.2,2,1.2,3.8m5.8-8.2V877h4v.8h-4V885a4.3,4.3,0,0,0,.4,2,2.51,2.51,0,0,0,2.2,1.2h1.6v.8H1769a4,4,0,0,1-2.6-.8,4.35,4.35,0,0,1-1-3.2v-7.2H1764V877h1.4v-3.4h1"/><ellipse class="cls-3" cx="1436.2" cy="368" rx="53" ry="35"/><path class="cls-2" d="M1427.32,369.8a6.62,6.62,0,0,0-1-3.8,3.5,3.5,0,0,0-5.6,0,7.11,7.11,0,0,0-1,3.8,6.62,6.62,0,0,0,1,3.8,3.5,3.5,0,0,0,5.6,0c.8-.8,1-2,1-3.8m1,4.6c0,2.6-.4,4.2-1.4,5a5.58,5.58,0,0,1-3.6,1.2,6.17,6.17,0,0,1-2-.2,6.36,6.36,0,0,1-1.8-.6v-1.2a7.1,7.1,0,0,0,1.8.8,5.54,5.54,0,0,0,1.8.2,4.82,4.82,0,0,0,3-.8c.8-.6,1.2-1.8,1.2-4.2v-2a17.59,17.59,0,0,1-1.2,2,3.31,3.31,0,0,1-2.6,1,4.39,4.39,0,0,1-3.6-1.6,7.43,7.43,0,0,1-1.2-4.6,7.84,7.84,0,0,1,1.2-4.6,4.39,4.39,0,0,1,3.6-1.6,4.21,4.21,0,0,1,2.6,1,5.1,5.1,0,0,1,1.4,2V364h1v10.4m5-1.2v7.2h-1V364h1v2.8a7,7,0,0,1,1.4-2.2,3.84,3.84,0,0,1,2.4-.8,4.54,4.54,0,0,1,3.6,1.8,8.26,8.26,0,0,1,0,9.2,4.54,4.54,0,0,1-3.6,1.8,4.16,4.16,0,0,1-2.4-1,19.33,19.33,0,0,1-1.4-2.4m6.6,1q1.2-1.2,1.2-4.2t-1.2-4.2a3.42,3.42,0,0,0-5.2,0q-1.2,1.2-1.2,4.2t1.2,4.2a3.52,3.52,0,0,0,2.6,1.2,4.3,4.3,0,0,0,2.6-1.2m13.2-9.8v1a5.2,5.2,0,0,0-1.4-.6,5.54,5.54,0,0,0-1.8-.2,4.54,4.54,0,0,0-2.6.6,2.11,2.11,0,0,0-.8,2,1.34,1.34,0,0,0,.8,1.4,4.64,4.64,0,0,0,2,.8l.6.2a6.4,6.4,0,0,1,2.6,1,2.78,2.78,0,0,1,1,2,3.46,3.46,0,0,1-1,2.6,5.3,5.3,0,0,1-3.4,1,5.57,5.57,0,0,1-2-.2l-1.8-.6v-1.2a3.59,3.59,0,0,0,1.6.8,8.2,8.2,0,0,0,2.2.2,3.39,3.39,0,0,0,2.6-.8,2.57,2.57,0,0,0,.8-2,1.56,1.56,0,0,0-.6-1.4,6.4,6.4,0,0,0-2.6-1l-.6-.2a6.67,6.67,0,0,1-2.4-1,2.78,2.78,0,0,1-1-2,3.36,3.36,0,0,1,1.2-2.8,4.82,4.82,0,0,1,3-.8,5,5,0,0,1,2,.2,8.91,8.91,0,0,0,1.6,1"/><path class="cls-6" d="M1034.8,882c66.6,13.4,153.2,31.6,156,37,19.8,36,23.8,99.4,23.8,145.6"/><path class="cls-2" d="M1212.4,1058.6l-7.2-.2,6.6,20.6,7.8-20.2-7.2-.2"/><path class="cls-6" d="M1349,611.6c-184.6,5.6-807.8,26.6-823.2,50.4-23,35.6-24.8,99.4-22.6,145.8"/><path class="cls-2" d="M503.8,807.8l-7,.8,9.2,19.2,4.8-20.8-7,.8"/><path class="cls-6" d="M1436.2,404.4v161"/><path class="cls-2" d="M1436.2,565.4H1429l7.2,20.4,7.2-20.4h-7.2"/><path class="cls-6" d="M1524.6,623.6c119.8,6,522.8,27.6,533.2,50.4,8.2,18.2,12.6,91.8,14.8,145"/><path class="cls-2" d="M2070.4,819l-7.2.8,9.2,19.8,5.2-21.2-7.2.6"/><path class="cls-6" d="M1351,614.6c-120.4,4.8-443,20.2-460,50.4-20,35.6-22,99-20.4,145.4"/><path class="cls-2" d="M871.2,810.4l-7.2.8,9.2,19.8,5.2-21.2-7.2.6"/><path class="cls-6" d="M361.2,876.2c-58.6,11.6-135.8,28.6-141,39.8-17,36.2-19.6,99-19,144.8"/><path class="cls-2" d="M199,1056.8l-7.2.4,8.4,20,6-20.8-7.2.4"/><path class="cls-6" d="M513,900.4v161"/><path class="cls-2" d="M513,1061.4h-7.2l7.2,20.4,7.2-20.4H513"/><path class="cls-6" d="M1232.6,116c102.2,6.6,402.6,27.8,418.4,50,25.2,35.2,30.2,98.8,30,145"/><path class="cls-2" d="M1679.8,302.4l-7.2-.2L1679,323l8-20.2-7.2-.4"/><path class="cls-6" d="M1436.2,658.4v161"/><path class="cls-2" d="M1436.2,819.4H1429l7.2,20.4,7.2-20.4h-7.2"/><path class="cls-6" d="M1524.6,623.8c96,7.4,351.8,30.8,365.6,72.6,8.8,26.6,13.6,132.8,16,209.4"/><path class="cls-2" d="M1905,893.4l-7.2.8L1907,914l5.2-21.2-7.2.6"/><path class="cls-6" d="M1348,626c-7.2,9.2-20,30.6-21.4,66.6-2.2,50.2-2.6,137.2-2.4,201"/><path class="cls-2" d="M1322,886.4l-7.2.4,8.4,20,6-20.8-7.2.4"/><path class="cls-6" d="M1231.8,120.4c55.8,7.8,138.4,23,160.4,45.6,19.8,20.4,32,92.6,38.4,145"/><path class="cls-2" d="M1430.6,311l-7.2.8,9.4,19.6,4.8-21-7,.6"/><path class="cls-6" d="M1524.2,626.2c44,7.2,121.8,23.4,131.4,49.2,7.2,19.6,11.2,95.2,13.4,149.6"/><path class="cls-2" d="M1668.2,824.2l-7.2.8,9.2,19.8,5.2-21.2-7.2.6"/><path class="cls-6" d="M1124,117.2c-56,5.2-146.6,18.4-167.4,48.8C929,206.2,933,267.6,941,312.2"/><path class="cls-2" d="M940.4,307.6l-7,1.8,11.8,18,2-21.4-6.8,1.6"/><path class="cls-6" d="M879.6,903.4v161"/><path class="cls-2" d="M879.6,1064.4h-7.2l7.2,20.4,7.2-20.4h-7.2"/></svg>