<svg id="Layer_1" data-name="Layer 1" xmlns="http://www.w3.org/2000/svg" viewBox="0 0 595.28 141.73"><defs><style>.cls-1{fill:#34aec5;}</style></defs><path id="cyclone" class="cls-1" d="M336,21.74a58.55,58.55,0,0,0-6.59,1.74,40.49,40.49,0,0,0-8.18,3.84c-4.65,3.12-5.17,6.9-1.91,11.48a27.76,27.76,0,0,1,5.09,10.9c1.73,9.12-1.28,16.71-7.33,23.44-7.88,8.76-17.94,13.06-29.31,15-7.75,1.29-15.41.72-23.55-.6,3.16-.89,5.94-1.48,8.57-2.47a32,32,0,0,0,7.13-3.52c4-2.77,4.58-6.49,2-10.57-2.26-3.55-4.41-7.12-5.28-11.3A23.89,23.89,0,0,1,280,41.37c7.71-12.06,19.1-18.32,32.95-20.58A61.17,61.17,0,0,1,336,21.74ZM300.54,47.65c-4,0-7.4,3.21-7.34,7a7.57,7.57,0,0,0,7.16,7.3,7.46,7.46,0,0,0,7.29-7.13A7,7,0,0,0,300.54,47.65Z"/><g id="fastdds"><path class="cls-1" d="M144.87,44.58c-3.07.14-6.15,0-9.22,0h0c-2.66,0-5.33,0-8,0a7,7,0,0,1-5.37-2.19c-3.26-3.26-6.55-6.48-9.75-9.8-.92-.95-1.44-.83-2.29,0Q104,39.07,97.69,45.33c-.82.81-.79,1.29,0,2.09,3.22,3.14,6.44,6.31,9.55,9.56a6.36,6.36,0,0,1-1.78,10.42,6.12,6.12,0,0,1-7.1-1.2c-5.12-5-10.21-10.07-15.21-15.2-2.78-2.86-2.64-6.63.18-9.47q11.53-11.6,23.1-23.16c3.21-3.2,6.76-3.16,10,0q6.23,6.17,12.38,12.4a3,3,0,0,0,2.41,1q6.3-.06,12.6,0c3.31,0,5.75,1.73,6.64,4.49A6.34,6.34,0,0,1,144.87,44.58Z"/><path class="cls-1" d="M132.16,57.93c2.37,2.44,2.05,6.11-.46,8.72-3.1,3.2-6.24,6.36-9.38,9.52q-7,7-14,14c-3.66,3.65-7,3.64-10.74,0C93.51,86.1,89.44,82.05,85.41,78A3.07,3.07,0,0,0,83,77c-4.31,0-8.61.07-12.91,0-5.29-.13-8.27-5.24-5.68-9.62a6.5,6.5,0,0,1,5.95-3.15c2.71,0,5.43,0,8.14,0v.13h7.84a8.11,8.11,0,0,1,6,2.57c3.19,3.25,6.46,6.44,9.64,9.69.7.72,1.12.77,1.84,0q6.76-6.91,13.63-13.74c.7-.69.61-1.07,0-1.69-3.43-3.38-6.87-6.76-10.21-10.22-3.66-3.8-2.23-9.44,2.72-10.85a5.64,5.64,0,0,1,5.72,1.33C121.22,46.85,126.75,52.33,132.16,57.93Z"/></g><g id="zenoh"><path class="cls-1" d="M488.9,13.26h.86a2.34,2.34,0,0,0,0,.53,59.33,59.33,0,0,1,1.11,14.63c0,1,0,2,0,3.14.8-.69,1.51-1.32,2.24-1.93,4.34-3.65,8.93-6.92,14.36-8.79A19.71,19.71,0,0,1,514,19.71a11.09,11.09,0,0,0-2.52,4,6.23,6.23,0,0,0-.36,3.86,1.25,1.25,0,0,0,1.68,1,20,20,0,0,1,2.32-.36c5.57-.56,10.76.83,15.81,3.05a1.34,1.34,0,0,1,.94,1.49q0,21.82,0,43.64a47.19,47.19,0,0,1-.41,6.28A14.57,14.57,0,0,1,519.94,95a35.26,35.26,0,0,1-7.32.62H480.16a12.43,12.43,0,0,1,2.52-5A46.77,46.77,0,0,1,494,80.34a71.54,71.54,0,0,0,9.16-7.3,21.19,21.19,0,0,0,6.5-17.87c-.44-5.23-4-8.32-9.24-8s-7.77,4.88-5.09,9.29c.42.69.31,1-.29,1.38-5.25,3.77-10.43,7.64-15.75,11.32a8.12,8.12,0,0,0-3.54,6.65c-.06.78-.34.84-1,.8a7.82,7.82,0,0,1-7.14-9.08c.81-5.59,1.53-11.19,2.35-16.78a1.54,1.54,0,0,0-.69-1.67A25.6,25.6,0,0,1,463.08,42c-.17-.28-.3-.59-.54-1.06a29.9,29.9,0,0,0,7.61,2.62c1,.2,1.33,0,1.48-1.06.49-3.48.94-7,1.69-10.41a33.52,33.52,0,0,1,3-8.94,5.28,5.28,0,0,1,1.61-2.1,73.23,73.23,0,0,0,1.59,16.83,57.25,57.25,0,0,0,6.82-13.55A47.65,47.65,0,0,0,488.9,13.26ZM475.22,54.64c1.13.07,2,.21,2.95.18,2-.08,3.81-.68,4.81-2.6,1.69-3.25,1.49-6.54.06-10a23.05,23.05,0,0,1-3.28,6.36c-.23.34-.38.6-.05,1a1.73,1.73,0,0,1,0,2.18,1.9,1.9,0,0,1-2.16.76c-.25,0-.49-.31-.75,0C476.36,53.23,475.85,53.85,475.22,54.64Z"/><path class="cls-1" d="M477.39,18.13c-4.13,3.93-5.28,8.87-6.37,13.81-.59,2.66-.94,5.38-1.35,8.09-.12.78-.34,1-1.2.79a38,38,0,0,1-6.56-2.8c-1.53-.8-3.07-1.58-4.8-2.47,2.77,5.48,5.23,10.89,10,14.77a1.16,1.16,0,0,1,.44,1.2c-.76,5.34-1.57,10.69-2.23,16a10.67,10.67,0,0,0,4.77,10.16c2.25,1.34,4.88,1.4,7.46,1.27.56,0,.44-.45.45-.78a15.3,15.3,0,0,1,.26-3.82,5.38,5.38,0,0,1,2.09-3.09c6.05-4.31,12-8.7,18.07-13,.57-.42.59-.75.14-1.27a7.32,7.32,0,0,1-1.8-2.86c-.57-2.14.19-3.73,2.32-4.3,3.86-1,7,.15,8,4.48a18.06,18.06,0,0,1,.05,5.59c-.46,6.93-4.9,11.17-9.84,15.11-3.2,2.55-6.71,4.69-9.84,7.33a35.81,35.81,0,0,0-7.67,8.25A12.94,12.94,0,0,0,478,94.85c-.07.35,0,.8-.64.79-4,0-8,.23-11.86-.79a14.58,14.58,0,0,1-10.7-12,45.31,45.31,0,0,1-.43-6.59q0-19.74,0-39.48a29.42,29.42,0,0,1,.73-7.31,14.78,14.78,0,0,1,13.25-11.07C471.22,18.1,474.15,18.17,477.39,18.13Z"/><path class="cls-1" d="M530.75,28.64a50.53,50.53,0,0,0-6.25-2A28.63,28.63,0,0,0,514,26c-.79.1-.82-.15-.65-.79a8.15,8.15,0,0,1,2-3.6c.66-.7,1.41-1.32,2-2.06a2.27,2.27,0,0,1,2.7-.8,14.62,14.62,0,0,1,9.65,7.32A8,8,0,0,1,530.75,28.64Z"/><path class="cls-1" d="M507.68,18.27c-1.27.5-2.56,1-3.8,1.52a47.57,47.57,0,0,0-9.75,6c-.23.18-.46.56-.79.37s-.12-.52-.12-.79c0-2.16-.09-4.33-.29-6.48,0-.4-.12-.78.51-.78h14.22Z"/><path class="cls-1" d="M480.84,31a47.48,47.48,0,0,1-.61-9.8,19.53,19.53,0,0,0,.11-2c0-.76.16-1.09,1-1,1.24.08,2.49,0,3.73,0,.4,0,.69,0,.54.58A49.52,49.52,0,0,1,480.84,31Z"/></g><g id="f"><path class="cls-1" d="M83,118.34v1.51h2.58v2H83v3.55H80.68v-9.05h5.2v2Z"/><path class="cls-1" d="M93.87,125.4H91.68v-.69h0a1.69,1.69,0,0,1-.78.66,2.65,2.65,0,0,1-1.08.23,2.9,2.9,0,0,1-1.24-.26,2.94,2.94,0,0,1-1-.72,3.36,3.36,0,0,1-.65-1.05,3.56,3.56,0,0,1-.23-1.26,3.73,3.73,0,0,1,.22-1.25,3.15,3.15,0,0,1,.65-1,3.19,3.19,0,0,1,1-.72,3.06,3.06,0,0,1,2.3-.05,2.15,2.15,0,0,1,.84.6v-.6h2.19Zm-4.54-4.07a1.37,1.37,0,0,0-.38,1,1.3,1.3,0,0,0,.38,1,1.32,1.32,0,0,0,1,.4,1.34,1.34,0,0,0,1.41-1.38,1.41,1.41,0,0,0-.38-1,1.38,1.38,0,0,0-1-.4A1.35,1.35,0,0,0,89.33,121.33Z"/><path class="cls-1" d="M99.39,120.83a2.8,2.8,0,0,0-.58-.22,2.18,2.18,0,0,0-.6-.09,1.07,1.07,0,0,0-.46.11.34.34,0,0,0-.22.31.35.35,0,0,0,.24.35,3.18,3.18,0,0,0,.62.17l.12,0a2.79,2.79,0,0,1,1.32.6,1.58,1.58,0,0,1,.47,1.23,2.08,2.08,0,0,1-.24,1,2,2,0,0,1-.65.72,3.19,3.19,0,0,1-.94.41,4.3,4.3,0,0,1-1.07.14,4.67,4.67,0,0,1-1.29-.18,4.58,4.58,0,0,1-1.2-.53l.79-1.52a4.07,4.07,0,0,0,.86.44,2.55,2.55,0,0,0,.87.18.94.94,0,0,0,.47-.12.39.39,0,0,0,0-.71,3,3,0,0,0-.72-.22l-.42-.1a3.4,3.4,0,0,1-.54-.19,1.66,1.66,0,0,1-.42-.29,1.41,1.41,0,0,1-.3-.46,2,2,0,0,1-.11-.68,2,2,0,0,1,.22-1,1.93,1.93,0,0,1,.61-.69,2.94,2.94,0,0,1,.88-.4,3.71,3.71,0,0,1,1-.13,4.93,4.93,0,0,1,2,.39Z"/><path class="cls-1" d="M103.86,125.4h-2.18V121H101v-1.8h.71v-1.85h2.18v1.85h1.24V121h-1.24Z"/><path class="cls-1" d="M105.84,116.35h3.34a4.61,4.61,0,0,1,1.77.34,4.37,4.37,0,0,1,1.48,1,4.56,4.56,0,0,1,1,1.45,4.36,4.36,0,0,1,.36,1.76,4.26,4.26,0,0,1-.37,1.77,4.36,4.36,0,0,1-1,1.44,4.47,4.47,0,0,1-1.48,1,4.61,4.61,0,0,1-1.76.35h-3.34Zm2.36,7.05h.52a3,3,0,0,0,1-.15,2.19,2.19,0,0,0,.83-.46,2.07,2.07,0,0,0,.56-.79,2.85,2.85,0,0,0,.21-1.13,2.46,2.46,0,0,0-.71-1.86,2.6,2.6,0,0,0-1.87-.67h-.55Z"/><path class="cls-1" d="M114.87,116.35h3.33a4.62,4.62,0,0,1,1.78.34,4.62,4.62,0,0,1,2.47,2.42,4.53,4.53,0,0,1,.35,1.76,4.56,4.56,0,0,1-2.83,4.18,4.62,4.62,0,0,1-1.77.35h-3.33Zm2.35,7.05h.53a3,3,0,0,0,1-.15,2.12,2.12,0,0,0,.83-.46,2.2,2.2,0,0,0,.57-.79,3,3,0,0,0,.2-1.13,2.42,2.42,0,0,0-.71-1.86,2.58,2.58,0,0,0-1.87-.67h-.55Z"/><path class="cls-1" d="M128.86,118.68a2.79,2.79,0,0,0-.74-.44,2.14,2.14,0,0,0-.82-.16,1.29,1.29,0,0,0-.69.2.64.64,0,0,0-.32.55.6.6,0,0,0,.29.53,3.83,3.83,0,0,0,.75.34l.6.18a4.12,4.12,0,0,1,.9.35,2.72,2.72,0,0,1,.71.49,1.82,1.82,0,0,1,.46.69,2.54,2.54,0,0,1,.17.94,4,4,0,0,1-.22,1.37,2.37,2.37,0,0,1-.72,1.07,3.5,3.5,0,0,1-1.17.64,4.7,4.7,0,0,1-1.4.21,5.29,5.29,0,0,1-1.66-.27,6,6,0,0,1-1.52-.76l1-1.9a4.17,4.17,0,0,0,1,.68,2.39,2.39,0,0,0,1.08.26,1.33,1.33,0,0,0,.8-.24.77.77,0,0,0,.34-.68.59.59,0,0,0-.13-.39,1,1,0,0,0-.33-.28,2.17,2.17,0,0,0-.41-.19,3.7,3.7,0,0,0-.49-.14l-.07,0c-.44-.13-.79-.25-1.07-.36a2.62,2.62,0,0,1-.72-.44,1.74,1.74,0,0,1-.49-.69,3,3,0,0,1-.17-1.06,3.31,3.31,0,0,1,.23-1.25,2.76,2.76,0,0,1,1.64-1.57,3.46,3.46,0,0,1,1.25-.22,6,6,0,0,1,1.47.2,6.22,6.22,0,0,1,1.36.54Z"/></g><g id="c"><path class="cls-1" d="M274.44,119.38a2.37,2.37,0,0,0-.9-.73,2.77,2.77,0,0,0-1.17-.26,2.4,2.4,0,0,0-1,.19,2.46,2.46,0,0,0-.77.53,2.64,2.64,0,0,0-.5.8,2.9,2.9,0,0,0-.17,1,2.43,2.43,0,0,0,.68,1.77,2.37,2.37,0,0,0,1.77.69,2.58,2.58,0,0,0,1.11-.26,2.78,2.78,0,0,0,.92-.7v2.82l-.06,0c-.48.14-.85.25-1.13.31a4.13,4.13,0,0,1-.89.09,4.9,4.9,0,0,1-1.81-.35,5.34,5.34,0,0,1-1.59-1,4.3,4.3,0,0,1-1.09-1.53,4.87,4.87,0,0,1-.36-1.9,4.94,4.94,0,0,1,.34-1.78,4.58,4.58,0,0,1,1-1.53,5,5,0,0,1,1.59-1.07,4.7,4.7,0,0,1,1.86-.39,5.72,5.72,0,0,1,2.15.45Z"/><path class="cls-1" d="M274.94,119.24h2.52l1.64,3.16,1.61-3.16h2.49l-4.94,9.23h-2.44l2.1-3.91Z"/><path class="cls-1" d="M288.13,121.25a2.07,2.07,0,0,0-.55-.32,1.5,1.5,0,0,0-1.65.32,1.42,1.42,0,0,0-.43,1.06,1.45,1.45,0,0,0,.43,1.09,1.58,1.58,0,0,0,1.69.31,1.66,1.66,0,0,0,.51-.31v1.85a3.55,3.55,0,0,1-2.82.11,3.33,3.33,0,0,1-1.08-.67,3.14,3.14,0,0,1-.72-1,3,3,0,0,1-.27-1.28,3.31,3.31,0,0,1,.27-1.34,3.09,3.09,0,0,1,.73-1.07,3.21,3.21,0,0,1,1.1-.69,3.76,3.76,0,0,1,1.35-.24,2.9,2.9,0,0,1,1.44.36Z"/><path class="cls-1" d="M291.67,125.4h-2.19v-10h2.19Z"/><path class="cls-1" d="M297.78,119.26a3.74,3.74,0,0,1,1.18.64,2.85,2.85,0,0,1,.81,1,3.32,3.32,0,0,1,0,2.76,2.93,2.93,0,0,1-.8,1,3.68,3.68,0,0,1-1.19.64,4.69,4.69,0,0,1-2.84,0,3.38,3.38,0,0,1-1.18-.64,2.9,2.9,0,0,1-.81-1,3.35,3.35,0,0,1,0-2.77,2.85,2.85,0,0,1,.81-1,3.74,3.74,0,0,1,1.18-.64,4.69,4.69,0,0,1,2.84,0Zm-2.45,2.07a1.41,1.41,0,0,0-.37,1,1.33,1.33,0,0,0,.37,1,1.53,1.53,0,0,0,2.06,0,1.33,1.33,0,0,0,.37-1,1.44,1.44,0,0,0-2.43-1Z"/><path class="cls-1" d="M303.24,120h0a2.21,2.21,0,0,1,.84-.76,2.45,2.45,0,0,1,1.13-.23,2.16,2.16,0,0,1,1.75.67,2.85,2.85,0,0,1,.56,1.88v3.81h-2.18v-3a6.12,6.12,0,0,0,0-.66,1.41,1.41,0,0,0-.13-.49.76.76,0,0,0-.29-.35,1,1,0,0,0-.53-.12,1,1,0,0,0-.88.39,1.78,1.78,0,0,0-.26,1v3.19h-2.19v-6.16h2.19Z"/><path class="cls-1" d="M315.31,122.69h-4.6a1.21,1.21,0,0,0,1.37,1.36,1.11,1.11,0,0,0,1-.56h2.1a2.42,2.42,0,0,1-1.12,1.57,4.15,4.15,0,0,1-4.58-.32,3,3,0,0,1-1-2.41,3.68,3.68,0,0,1,.24-1.37,3,3,0,0,1,.71-1,3.09,3.09,0,0,1,1.08-.65,4.08,4.08,0,0,1,1.38-.22,3.26,3.26,0,0,1,2.48.92,3.44,3.44,0,0,1,.89,2.5Zm-2-1.27a1.18,1.18,0,0,0-.43-.7,1.28,1.28,0,0,0-.81-.27,1.4,1.4,0,0,0-.84.26,1.06,1.06,0,0,0-.45.71Z"/><path class="cls-1" d="M316.35,116.35h3.34a4.61,4.61,0,0,1,1.77.34,4.47,4.47,0,0,1,1.48,1,4.56,4.56,0,0,1,1,1.45,4.36,4.36,0,0,1,.35,1.76,4.41,4.41,0,0,1-.36,1.77,4.51,4.51,0,0,1-1,1.44,4.67,4.67,0,0,1-3.24,1.32h-3.34Zm2.35,7.05h.53a3,3,0,0,0,1-.15,2.19,2.19,0,0,0,.83-.46,2.07,2.07,0,0,0,.56-.79,2.85,2.85,0,0,0,.21-1.13,2.46,2.46,0,0,0-.71-1.86,2.62,2.62,0,0,0-1.87-.67h-.56Z"/><path class="cls-1" d="M325.38,116.35h3.33a4.62,4.62,0,0,1,1.78.34,4.43,4.43,0,0,1,1.47,1,4.25,4.25,0,0,1,1,1.45,4.36,4.36,0,0,1,.36,1.76,4.56,4.56,0,0,1-2.83,4.18,4.62,4.62,0,0,1-1.77.35h-3.33Zm2.35,7.05h.53a3,3,0,0,0,1-.15,2.12,2.12,0,0,0,.83-.46,2.2,2.2,0,0,0,.57-.79,3,3,0,0,0,.2-1.13,2.46,2.46,0,0,0-.71-1.86,2.58,2.58,0,0,0-1.87-.67h-.55Z"/><path class="cls-1" d="M339.37,118.68a2.79,2.79,0,0,0-.74-.44,2.14,2.14,0,0,0-.82-.16,1.29,1.29,0,0,0-.69.2.64.64,0,0,0-.32.55.6.6,0,0,0,.29.53,3.83,3.83,0,0,0,.75.34l.6.18a4.12,4.12,0,0,1,.9.35,2.72,2.72,0,0,1,.71.49,1.82,1.82,0,0,1,.46.69,2.54,2.54,0,0,1,.17.94,4.28,4.28,0,0,1-.22,1.37,2.37,2.37,0,0,1-.72,1.07,3.45,3.45,0,0,1-1.18.64,4.59,4.59,0,0,1-1.39.21,5.29,5.29,0,0,1-1.66-.27,6,6,0,0,1-1.52-.76l1-1.9a4.17,4.17,0,0,0,1,.68,2.39,2.39,0,0,0,1.08.26,1.33,1.33,0,0,0,.8-.24.77.77,0,0,0,.34-.68.59.59,0,0,0-.13-.39,1,1,0,0,0-.33-.28,2.17,2.17,0,0,0-.41-.19,3.7,3.7,0,0,0-.49-.14l-.07,0c-.44-.13-.8-.25-1.07-.36a2.62,2.62,0,0,1-.72-.44,1.64,1.64,0,0,1-.49-.69,3,3,0,0,1-.17-1.06,3.31,3.31,0,0,1,.23-1.25,2.76,2.76,0,0,1,1.64-1.57,3.42,3.42,0,0,1,1.25-.22,6.09,6.09,0,0,1,1.47.2,6.22,6.22,0,0,1,1.36.54Z"/></g><g id="z"><path class="cls-1" d="M486.93,123.4v2h-7.75l4.28-7.06h-3.55v-2h7.49l-4.26,7.05Z"/><path class="cls-1" d="M494.57,122.69H490a1.2,1.2,0,0,0,1.37,1.36,1.11,1.11,0,0,0,1-.56h2.1a2.44,2.44,0,0,1-1.13,1.57,3.72,3.72,0,0,1-2,.54,3.81,3.81,0,0,1-2.58-.86,3.06,3.06,0,0,1-1-2.41A3.68,3.68,0,0,1,488,121a2.93,2.93,0,0,1,.7-1,3.23,3.23,0,0,1,1.09-.65,4.06,4.06,0,0,1,1.37-.22,3.27,3.27,0,0,1,2.49.92,3.44,3.44,0,0,1,.88,2.5Zm-2-1.27a1.15,1.15,0,0,0-.44-.7,1.27,1.27,0,0,0-.8-.27,1.38,1.38,0,0,0-.84.26,1.06,1.06,0,0,0-.45.71Z"/><path class="cls-1" d="M497.75,120h0a2.21,2.21,0,0,1,.84-.76,2.45,2.45,0,0,1,1.13-.23,2.16,2.16,0,0,1,1.75.67,2.91,2.91,0,0,1,.56,1.88v3.81h-2.18v-3a6.12,6.12,0,0,0,0-.66,1.41,1.41,0,0,0-.13-.49.76.76,0,0,0-.29-.35,1,1,0,0,0-.54-.12,1,1,0,0,0-.87.39,1.78,1.78,0,0,0-.27,1v3.19h-2.18v-6.16h2.18Z"/><path class="cls-1" d="M508.17,119.26a3.79,3.79,0,0,1,1.19.64,3.08,3.08,0,0,1,.81,1,3.43,3.43,0,0,1,0,2.76,3.08,3.08,0,0,1-.81,1,3.63,3.63,0,0,1-1.18.64,4.55,4.55,0,0,1-1.43.22,4.43,4.43,0,0,1-1.41-.22,3.34,3.34,0,0,1-1.19-.64,3.14,3.14,0,0,1-.81-1,3.17,3.17,0,0,1,.81-3.81,3.68,3.68,0,0,1,1.19-.64,4.66,4.66,0,0,1,2.83,0Zm-2.44,2.07a1.41,1.41,0,0,0-.38,1,1.33,1.33,0,0,0,.38,1,1.51,1.51,0,0,0,2,0,1.33,1.33,0,0,0,.38-1,1.41,1.41,0,0,0-.38-1,1.51,1.51,0,0,0-2,0Z"/><path class="cls-1" d="M513.63,115.44V120h0a2.68,2.68,0,0,1,.86-.74,2.45,2.45,0,0,1,1.11-.24,2.15,2.15,0,0,1,1.73.69,2.88,2.88,0,0,1,.59,1.9v3.77h-2.19v-3.16a4.67,4.67,0,0,0,0-.57,1.69,1.69,0,0,0-.14-.45.77.77,0,0,0-.3-.32,1.12,1.12,0,0,0-1.38.3,1.92,1.92,0,0,0-.27,1v3.16h-2.18v-10Z"/></g></svg>