<?xml version="1.0" encoding="utf-8"?>
<svg version="1.1" id="Layer_1" xmlns="http://www.w3.org/2000/svg" xmlns:xlink="http://www.w3.org/1999/xlink" x="0px" y="0px"
	 viewBox="0 0 781.4 526.4" style="enable-background:new 0 0 781.4 526.4;" xml:space="preserve">
<style type="text/css">
	.st0{enable-background:new    ;}
	.st1{fill:#43AEC5;}
	.st2{fill:none;stroke:#1AC6FF;stroke-width:4;stroke-linecap:round;stroke-linejoin:round;}
	.st3{fill:none;stroke:#43AEC5;stroke-width:4;stroke-linecap:round;stroke-linejoin:round;}
	.st4{fill:none;stroke:#43AEC5;stroke-width:3.5;stroke-linecap:round;stroke-linejoin:round;}
</style>
<g class="st0">
	<path class="st1" d="M126.9,87.3c-0.4-0.5-0.9-0.9-1.5-1.2c-0.6-0.3-1.3-0.4-1.9-0.4s-1.1,0.1-1.6,0.3c-0.5,0.2-0.9,0.5-1.3,0.9
		s-0.6,0.8-0.8,1.3c-0.2,0.5-0.3,1.1-0.3,1.6c0,1.2,0.4,2.2,1.1,3c0.8,0.8,1.7,1.1,3,1.1c0.6,0,1.3-0.1,1.9-0.4s1.1-0.7,1.5-1.2V97
		h-0.1c-0.8,0.2-1.4,0.4-1.9,0.5s-1,0.2-1.5,0.2c-1,0-2-0.2-3-0.6s-1.9-0.9-2.6-1.6c-0.8-0.7-1.4-1.6-1.8-2.5s-0.6-2-0.6-3.2
		c0-1,0.2-2,0.6-3s0.9-1.8,1.7-2.5c0.7-0.8,1.6-1.4,2.6-1.8s2-0.7,3.1-0.7c1.2,0,2.4,0.3,3.6,0.8v4.7H126.9z"/>
	<path class="st1" d="M137,87.1c0.7,0.2,1.4,0.6,2,1.1s1,1,1.4,1.7c0.3,0.7,0.5,1.5,0.5,2.3s-0.2,1.6-0.5,2.3
		c-0.3,0.7-0.8,1.3-1.3,1.7c-0.6,0.5-1.2,0.8-2,1.1c-0.8,0.2-1.5,0.4-2.4,0.4c-0.8,0-1.6-0.1-2.4-0.4c-0.7-0.2-1.4-0.6-2-1.1
		s-1-1-1.3-1.7s-0.5-1.4-0.5-2.3s0.2-1.6,0.5-2.3c0.3-0.7,0.8-1.3,1.3-1.7s1.2-0.8,2-1.1c0.7-0.2,1.5-0.4,2.4-0.4
		C135.5,86.7,136.2,86.9,137,87.1z M132.9,90.6c-0.4,0.4-0.6,1-0.6,1.6c0,0.7,0.2,1.2,0.6,1.7s1,0.6,1.7,0.6s1.3-0.2,1.7-0.6
		s0.6-1,0.6-1.7s-0.2-1.2-0.6-1.6c-0.4-0.4-1-0.7-1.7-0.7S133.3,90.1,132.9,90.6z"/>
	<path class="st1" d="M146.1,88.4L146.1,88.4c0.9-1.1,1.9-1.6,3.3-1.6c0.8,0,1.5,0.2,2.1,0.5s1.1,0.8,1.4,1.5
		c0.3-0.6,0.8-1.1,1.5-1.5c0.6-0.3,1.3-0.5,2-0.5c1.2,0,2.1,0.4,2.7,1.1c0.5,0.7,0.8,1.7,0.8,3v6.5h-3.6v-4.9c0-0.4,0-0.8,0-1.1
		s-0.1-0.6-0.2-0.8c-0.1-0.3-0.2-0.5-0.5-0.7c-0.2-0.2-0.5-0.2-0.8-0.2c-0.4,0-0.7,0.1-1,0.2c-0.2,0.2-0.4,0.4-0.5,0.7
		c-0.1,0.3-0.2,0.5-0.2,0.8s0,0.7,0,1v4.9h-3.6v-4.9c0-0.4,0-0.8,0-1s-0.1-0.6-0.2-0.9c-0.1-0.3-0.3-0.5-0.5-0.7s-0.5-0.3-0.9-0.3
		s-0.7,0.1-0.9,0.3c-0.2,0.2-0.4,0.4-0.5,0.7c-0.1,0.3-0.2,0.6-0.2,0.9s0,0.7,0,1v4.9h-3.6V87.1h3.6v1.3H146.1z"/>
	<path class="st1" d="M165.9,88.4L165.9,88.4c0.9-1.1,1.9-1.6,3.3-1.6c0.8,0,1.5,0.2,2.1,0.5s1.1,0.8,1.4,1.5
		c0.3-0.6,0.8-1.1,1.5-1.5c0.6-0.3,1.3-0.5,2-0.5c1.2,0,2.1,0.4,2.7,1.1c0.5,0.7,0.8,1.7,0.8,3v6.5H176v-4.9c0-0.4,0-0.8,0-1.1
		s-0.1-0.6-0.2-0.8c-0.1-0.3-0.2-0.5-0.5-0.7c-0.2-0.2-0.5-0.2-0.8-0.2c-0.4,0-0.7,0.1-1,0.2c-0.2,0.2-0.4,0.4-0.5,0.7
		c-0.1,0.3-0.2,0.5-0.2,0.8s0,0.7,0,1v4.9h-3.6v-4.9c0-0.4,0-0.8,0-1s-0.1-0.6-0.2-0.9c-0.1-0.3-0.3-0.5-0.5-0.7s-0.5-0.3-0.9-0.3
		s-0.7,0.1-0.9,0.3c-0.2,0.2-0.4,0.4-0.5,0.7c-0.1,0.3-0.2,0.6-0.2,0.9s0,0.7,0,1v4.9h-3.6V87.1h3.6v1.3H165.9z"/>
	<path class="st1" d="M185.6,87.1v5.5c0,0.7,0.1,1.3,0.4,1.7c0.3,0.4,0.7,0.6,1.4,0.6s1.2-0.2,1.4-0.6c0.3-0.4,0.4-0.9,0.4-1.7v-5.5
		h3.6v6.2c0,0.8-0.1,1.5-0.4,2.1c-0.3,0.6-0.7,1-1.1,1.4c-0.5,0.3-1.1,0.6-1.7,0.7c-0.7,0.2-1.4,0.2-2.2,0.2s-1.5-0.1-2.2-0.2
		c-0.7-0.2-1.2-0.4-1.7-0.7s-0.9-0.8-1.1-1.4c-0.3-0.6-0.4-1.3-0.4-2.1v-6.2H185.6z"/>
	<path class="st1" d="M198.8,88.4L198.8,88.4c0.5-0.6,0.9-1,1.4-1.3s1.1-0.4,1.9-0.4c1.3,0,2.3,0.4,2.9,1.1c0.6,0.8,0.9,1.8,0.9,3.1
		v6.3h-3.6v-5c0-0.4,0-0.8,0-1.1c0-0.3-0.1-0.6-0.2-0.8c-0.1-0.2-0.3-0.4-0.5-0.6c-0.2-0.1-0.5-0.2-0.9-0.2c-0.7,0-1.2,0.2-1.5,0.7
		s-0.4,1-0.4,1.7v5.3h-3.6V87.1h3.6L198.8,88.4L198.8,88.4z"/>
	<path class="st1" d="M211.7,81.7c0.4,0.4,0.6,0.9,0.6,1.4c0,0.6-0.2,1-0.6,1.4c-0.4,0.4-0.9,0.6-1.4,0.6s-1-0.2-1.4-0.6
		s-0.6-0.9-0.6-1.4c0-0.6,0.2-1,0.6-1.4c0.4-0.4,0.9-0.6,1.4-0.6S211.3,81.3,211.7,81.7z M212.1,97.3h-3.6V87.1h3.6V97.3z"/>
	<path class="st1" d="M218.4,97.3h-3.6V90h-1.2v-3h1.2v-3h3.6v3.1h2.1v3h-2.1V97.3z"/>
	<path class="st1" d="M220.2,87.1h4.2l2.7,5.3l2.7-5.3h4.1l-8.2,15.4h-4.1l3.5-6.5L220.2,87.1z"/>
	<path class="st1" d="M124.8,106.3h4.9l-6,7.1l6.5,7.9h-5.1l-5.1-6.5l0,0v6.5h-3.9v-15.1h3.9v6.2l0,0L124.8,106.3z"/>
	<path class="st1" d="M139,111.1c0.7,0.2,1.4,0.6,2,1.1s1,1,1.4,1.7c0.3,0.7,0.5,1.5,0.5,2.3s-0.2,1.6-0.5,2.3
		c-0.3,0.7-0.8,1.3-1.3,1.7c-0.6,0.5-1.2,0.8-2,1.1c-0.8,0.2-1.5,0.4-2.4,0.4c-0.8,0-1.6-0.1-2.4-0.4c-0.7-0.2-1.4-0.6-2-1.1
		s-1-1-1.3-1.7s-0.5-1.4-0.5-2.3s0.2-1.6,0.5-2.3c0.3-0.7,0.8-1.3,1.3-1.7s1.2-0.8,2-1.1c0.7-0.2,1.5-0.4,2.4-0.4
		C137.4,110.7,138.2,110.9,139,111.1z M135.4,105.9c0.4,0.4,0.6,0.8,0.6,1.4c0,0.5-0.2,1-0.6,1.4c-0.4,0.4-0.8,0.6-1.4,0.6
		c-0.5,0-1-0.2-1.4-0.6s-0.6-0.8-0.6-1.4s0.2-1,0.6-1.4c0.4-0.4,0.9-0.6,1.4-0.6C134.6,105.3,135,105.5,135.4,105.9z M134.9,114.6
		c-0.4,0.4-0.6,1-0.6,1.6c0,0.7,0.2,1.2,0.6,1.7s1,0.6,1.7,0.6s1.3-0.2,1.7-0.6s0.6-1,0.6-1.7s-0.2-1.2-0.6-1.6
		c-0.4-0.4-1-0.7-1.7-0.7S135.3,114.1,134.9,114.6z M140.5,105.9c0.4,0.4,0.6,0.8,0.6,1.4c0,0.5-0.2,1-0.6,1.4
		c-0.4,0.4-0.8,0.6-1.4,0.6c-0.5,0-1-0.2-1.4-0.6s-0.6-0.8-0.6-1.4s0.2-1,0.6-1.4s0.9-0.6,1.4-0.6
		C139.7,105.3,140.1,105.5,140.5,105.9z"/>
	<path class="st1" d="M153.8,118.3v3h-10.4l4.8-7.2H144v-3h10.2l-4.8,7.2H153.8z"/>
	<path class="st1" d="M163.4,111.1c0.7,0.2,1.4,0.6,2,1.1s1,1,1.4,1.7c0.3,0.7,0.5,1.5,0.5,2.3s-0.2,1.6-0.5,2.3
		c-0.3,0.7-0.8,1.3-1.3,1.7c-0.6,0.5-1.2,0.8-2,1.1c-0.8,0.2-1.5,0.4-2.4,0.4c-0.8,0-1.6-0.1-2.4-0.4c-0.7-0.2-1.4-0.6-2-1.1
		s-1-1-1.3-1.7s-0.5-1.4-0.5-2.3s0.2-1.6,0.5-2.3c0.3-0.7,0.8-1.3,1.3-1.7s1.2-0.8,2-1.1c0.7-0.2,1.5-0.4,2.4-0.4
		C161.8,110.7,162.6,110.9,163.4,111.1z M159.8,105.9c0.4,0.4,0.6,0.8,0.6,1.4c0,0.5-0.2,1-0.6,1.4c-0.4,0.4-0.8,0.6-1.4,0.6
		c-0.5,0-1-0.2-1.4-0.6s-0.6-0.8-0.6-1.4s0.2-1,0.6-1.4c0.4-0.4,0.9-0.6,1.4-0.6C159,105.3,159.4,105.5,159.8,105.9z M159.3,114.6
		c-0.4,0.4-0.6,1-0.6,1.6c0,0.7,0.2,1.2,0.6,1.7s1,0.6,1.7,0.6s1.3-0.2,1.7-0.6s0.6-1,0.6-1.7s-0.2-1.2-0.6-1.6
		c-0.4-0.4-1-0.7-1.7-0.7S159.7,114.1,159.3,114.6z M165,105.9c0.4,0.4,0.6,0.8,0.6,1.4c0,0.5-0.2,1-0.6,1.4
		c-0.4,0.4-0.8,0.6-1.4,0.6c-0.5,0-1-0.2-1.4-0.6s-0.6-0.8-0.6-1.4s0.2-1,0.6-1.4s0.9-0.6,1.4-0.6S164.6,105.5,165,105.9z"/>
	<path class="st1" d="M175.6,113.7c-0.3-0.1-0.6-0.3-1-0.4s-0.7-0.1-1-0.1s-0.5,0.1-0.8,0.2c-0.2,0.1-0.4,0.3-0.4,0.5
		c0,0.3,0.1,0.5,0.4,0.6s0.6,0.2,1,0.3h0.2c0.9,0.2,1.7,0.5,2.2,1s0.8,1.2,0.8,2c0,0.7-0.1,1.2-0.4,1.7c-0.3,0.5-0.6,0.9-1.1,1.2
		c-0.5,0.3-1,0.5-1.6,0.7s-1.2,0.2-1.8,0.2c-0.7,0-1.5-0.1-2.2-0.3c-0.7-0.2-1.4-0.5-2-0.9l1.3-2.5c0.4,0.3,0.9,0.5,1.4,0.7
		s1,0.3,1.5,0.3c0.3,0,0.5-0.1,0.8-0.2c0.2-0.1,0.4-0.3,0.4-0.6c0-0.3-0.1-0.5-0.4-0.6c-0.3-0.1-0.7-0.2-1.2-0.4
		c-0.3-0.1-0.5-0.1-0.7-0.2c-0.3-0.1-0.6-0.2-0.9-0.3c-0.3-0.1-0.5-0.3-0.7-0.5s-0.4-0.5-0.5-0.8s-0.2-0.7-0.2-1.1
		c0-0.6,0.1-1.1,0.4-1.6s0.6-0.9,1-1.2c0.4-0.3,0.9-0.5,1.5-0.7s1.1-0.2,1.7-0.2c1.3,0,2.4,0.2,3.4,0.7L175.6,113.7z"/>
	<path class="st1" d="M185.9,113.7c-0.3-0.1-0.6-0.3-1-0.4s-0.7-0.1-1-0.1s-0.5,0.1-0.8,0.2c-0.2,0.1-0.4,0.3-0.4,0.5
		c0,0.3,0.1,0.5,0.4,0.6s0.6,0.2,1,0.3h0.2c0.9,0.2,1.7,0.5,2.2,1s0.8,1.2,0.8,2c0,0.7-0.1,1.2-0.4,1.7c-0.3,0.5-0.6,0.9-1.1,1.2
		c-0.5,0.3-1,0.5-1.6,0.7s-1.2,0.2-1.8,0.2c-0.7,0-1.5-0.1-2.2-0.3c-0.7-0.2-1.4-0.5-2-0.9l1.3-2.5c0.4,0.3,0.9,0.5,1.4,0.7
		s1,0.3,1.5,0.3c0.3,0,0.5-0.1,0.8-0.2c0.2-0.1,0.4-0.3,0.4-0.6c0-0.3-0.1-0.5-0.4-0.6c-0.3-0.1-0.7-0.2-1.2-0.4
		c-0.3-0.1-0.5-0.1-0.7-0.2c-0.3-0.1-0.6-0.2-0.9-0.3c-0.3-0.1-0.5-0.3-0.7-0.5s-0.4-0.5-0.5-0.8s-0.2-0.7-0.2-1.1
		c0-0.6,0.1-1.1,0.4-1.6s0.6-0.9,1-1.2c0.4-0.3,0.9-0.5,1.5-0.7s1.1-0.2,1.7-0.2c1.3,0,2.4,0.2,3.4,0.7L185.9,113.7z"/>
	<path class="st1" d="M199.9,116.8h-7.7c0,1.5,0.8,2.3,2.3,2.3c0.8,0,1.4-0.3,1.7-0.9h3.5c-0.3,1.1-0.9,2-1.9,2.6s-2.1,0.9-3.3,0.9
		c-1.8,0-3.2-0.5-4.3-1.4c-1.1-1-1.6-2.3-1.6-4c0-0.8,0.1-1.6,0.4-2.3c0.3-0.7,0.7-1.3,1.2-1.7c0.5-0.5,1.1-0.8,1.8-1.1
		c0.7-0.2,1.5-0.4,2.3-0.4c1.8,0,3.2,0.5,4.1,1.5c1,1,1.5,2.4,1.5,4.2V116.8z M193.9,109.6l-1.6-1.2l2.8-3.4l2.2,1.6L193.9,109.6z
		 M196.5,114.7c-0.1-0.5-0.3-0.9-0.7-1.2c-0.4-0.3-0.8-0.5-1.3-0.5s-1,0.1-1.4,0.4s-0.6,0.7-0.8,1.2L196.5,114.7L196.5,114.7z"/>
	<path class="st1" d="M212.8,120.3c0,2.1-0.5,3.7-1.5,4.7s-2.5,1.5-4.4,1.5c-0.6,0-1.2-0.1-1.9-0.2c-0.6-0.2-1.3-0.4-1.8-0.7
		c-0.6-0.3-1-0.7-1.4-1.2s-0.6-1.1-0.7-1.7h4.1c0.1,0.3,0.3,0.6,0.7,0.8c0.3,0.2,0.7,0.2,1,0.2c0.5,0,0.9-0.1,1.2-0.2
		s0.5-0.3,0.7-0.6c0.2-0.3,0.3-0.6,0.4-0.9c0.1-0.3,0.1-0.7,0.1-1.2v-0.5c-0.5,0.5-1,0.8-1.5,1.1c-0.5,0.2-1.1,0.3-1.8,0.3
		s-1.4-0.1-2-0.4s-1.2-0.6-1.6-1.1c-0.4-0.5-0.8-1-1-1.7c-0.2-0.6-0.4-1.3-0.4-2.1c0-0.7,0.1-1.5,0.4-2.1c0.3-0.7,0.6-1.3,1.1-1.8
		s1-0.9,1.7-1.2c0.6-0.3,1.4-0.4,2.1-0.4c0.6,0,1.2,0.1,1.7,0.3c0.5,0.2,0.9,0.6,1.3,1.1l0,0v-1.1h3.6v9.1H212.8z M205.2,114.5
		c-0.4,0.4-0.6,1-0.6,1.6c0,0.7,0.2,1.2,0.6,1.7s1,0.6,1.7,0.6s1.3-0.2,1.7-0.6s0.6-1,0.6-1.7s-0.2-1.2-0.6-1.6
		c-0.4-0.4-1-0.7-1.7-0.7S205.7,114,205.2,114.5z"/>
</g>
<g class="st0">
	<path class="st1" d="M559.9,82.3h6c1.7,0,3,0.4,4,1.2c1,0.8,1.5,2.1,1.5,3.7c0,1.7-0.5,3-1.4,3.9c-0.9,0.8-2.2,1.2-4,1.2h-2.2v5
		h-3.9L559.9,82.3L559.9,82.3z M563.8,89.2h0.7c0.5,0,0.9,0,1.1,0c0.3,0,0.6-0.1,0.8-0.2s0.5-0.3,0.6-0.5s0.2-0.6,0.2-1
		c0-0.5-0.1-0.8-0.2-1.1s-0.3-0.5-0.6-0.6s-0.5-0.2-0.8-0.2s-0.7,0-1.2,0h-0.7v3.6H563.8z"/>
	<path class="st1" d="M576.7,97.3h-3.6V80.7h3.6V97.3z"/>
	<path class="st1" d="M582.7,87.1v5.5c0,0.7,0.1,1.3,0.4,1.7c0.3,0.4,0.7,0.6,1.4,0.6s1.2-0.2,1.4-0.6s0.4-0.9,0.4-1.7v-5.5h3.6v6.2
		c0,0.8-0.1,1.5-0.4,2.1c-0.3,0.6-0.7,1-1.1,1.4c-0.5,0.3-1.1,0.6-1.7,0.7c-0.7,0.2-1.4,0.2-2.2,0.2s-1.5-0.1-2.2-0.2
		c-0.7-0.2-1.2-0.4-1.7-0.7c-0.5-0.3-0.9-0.8-1.1-1.4c-0.3-0.6-0.4-1.3-0.4-2.1v-6.2H582.7z"/>
	<path class="st1" d="M595.9,88.4L595.9,88.4c0.9-1.1,1.9-1.6,3.3-1.6c0.8,0,1.5,0.2,2.1,0.5s1.1,0.8,1.4,1.5
		c0.3-0.6,0.8-1.1,1.5-1.5s1.3-0.5,2-0.5c1.2,0,2.1,0.4,2.7,1.1c0.5,0.7,0.8,1.7,0.8,3v6.5H606v-4.9c0-0.4,0-0.8,0-1.1
		c0-0.3-0.1-0.6-0.2-0.8c-0.1-0.3-0.2-0.5-0.5-0.7c-0.2-0.2-0.5-0.2-0.8-0.2c-0.4,0-0.7,0.1-1,0.2c-0.2,0.2-0.4,0.4-0.5,0.7
		c-0.1,0.3-0.2,0.5-0.2,0.8s0,0.7,0,1v4.9h-3.6v-4.9c0-0.4,0-0.8,0-1c0-0.3-0.1-0.6-0.2-0.9c-0.1-0.3-0.3-0.5-0.5-0.7
		s-0.5-0.3-0.9-0.3s-0.7,0.1-0.9,0.3c-0.2,0.2-0.4,0.4-0.5,0.7c-0.1,0.3-0.2,0.6-0.2,0.9s0,0.7,0,1v4.9h-3.6V87.1h3.6L595.9,88.4
		L595.9,88.4z"/>
	<path class="st1" d="M611.9,80.7h3.6V88c0.4-0.4,0.8-0.8,1.4-1c0.6-0.2,1.2-0.3,1.8-0.3c0.7,0,1.4,0.1,2.1,0.4
		c0.6,0.3,1.2,0.7,1.6,1.2c0.5,0.5,0.8,1.1,1.1,1.8c0.2,0.7,0.4,1.4,0.4,2.1s-0.1,1.4-0.4,2.1s-0.6,1.3-1.1,1.8s-1,0.9-1.6,1.2
		c-0.6,0.3-1.3,0.4-2.1,0.4c-0.6,0-1.2-0.1-1.8-0.4c-0.6-0.2-1-0.6-1.3-1.1l0,0v1.1H612V80.7H611.9z M616.1,90.6
		c-0.4,0.4-0.6,1-0.6,1.6c0,0.7,0.2,1.2,0.6,1.7s1,0.6,1.7,0.6s1.3-0.2,1.7-0.6s0.6-1,0.6-1.7s-0.2-1.2-0.6-1.6
		c-0.4-0.4-1-0.7-1.7-0.7S616.5,90.1,616.1,90.6z"/>
	<path class="st1" d="M629,81.7c0.4,0.4,0.6,0.9,0.6,1.4c0,0.6-0.2,1-0.6,1.4c-0.4,0.4-0.9,0.6-1.4,0.6c-0.6,0-1-0.2-1.4-0.6
		s-0.6-0.9-0.6-1.4c0-0.6,0.2-1,0.6-1.4c0.4-0.4,0.9-0.6,1.4-0.6S628.6,81.3,629,81.7z M629.3,97.3h-3.6V87.1h3.6V97.3z"/>
	<path class="st1" d="M635.4,88.4L635.4,88.4c0.5-0.6,0.9-1,1.4-1.3s1.1-0.4,1.9-0.4c1.3,0,2.3,0.4,2.9,1.1c0.6,0.8,0.9,1.8,0.9,3.1
		v6.3h-3.6v-5c0-0.4,0-0.8,0-1.1c0-0.3-0.1-0.6-0.2-0.8c-0.1-0.2-0.3-0.4-0.5-0.6c-0.2-0.1-0.5-0.2-0.9-0.2c-0.7,0-1.2,0.2-1.5,0.7
		c-0.3,0.4-0.4,1-0.4,1.7v5.3h-3.6V87.1h3.6L635.4,88.4L635.4,88.4z"/>
	<path class="st1" d="M656.2,96.3c0,2.1-0.5,3.7-1.5,4.7s-2.5,1.5-4.4,1.5c-0.6,0-1.2-0.1-1.9-0.2s-1.3-0.4-1.8-0.7
		c-0.6-0.3-1-0.7-1.4-1.2s-0.6-1.1-0.7-1.7h4.1c0.1,0.3,0.3,0.6,0.7,0.8c0.3,0.2,0.7,0.2,1,0.2c0.5,0,0.9-0.1,1.2-0.2
		s0.5-0.3,0.7-0.6c0.2-0.3,0.3-0.6,0.4-0.9c0.1-0.3,0.1-0.7,0.1-1.2v-0.5c-0.5,0.5-1,0.8-1.5,1.1s-1.1,0.3-1.8,0.3s-1.4-0.1-2-0.4
		s-1.2-0.6-1.6-1.1c-0.4-0.5-0.8-1-1-1.7c-0.2-0.6-0.4-1.3-0.4-2.1c0-0.7,0.1-1.5,0.4-2.1c0.3-0.7,0.6-1.3,1.1-1.8s1-0.9,1.7-1.2
		c0.6-0.3,1.4-0.4,2.1-0.4c0.6,0,1.2,0.1,1.7,0.3c0.5,0.2,0.9,0.6,1.3,1.1l0,0v-1.1h3.6L656.2,96.3L656.2,96.3z M648.7,90.5
		c-0.4,0.4-0.6,1-0.6,1.6c0,0.7,0.2,1.2,0.6,1.7s1,0.6,1.7,0.6s1.3-0.2,1.7-0.6s0.6-1,0.6-1.7s-0.2-1.2-0.6-1.6
		c-0.4-0.4-1-0.7-1.7-0.7C649.6,89.8,649.1,90,648.7,90.5z"/>
	<path class="st1" d="M563.8,118.7l-1,2.6h-4.2l5.8-15.1h4.3l5.7,15.1h-4.2l-1-2.6H563.8z M566.5,110.9L566.5,110.9l-1.7,4.8h3.3
		L566.5,110.9z"/>
	<path class="st1" d="M583.2,120.2L583.2,120.2c-0.3,0.5-0.8,0.8-1.3,1.1c-0.6,0.3-1.2,0.4-1.8,0.4c-0.7,0-1.4-0.1-2.1-0.4
		c-0.6-0.3-1.2-0.7-1.7-1.2s-0.8-1.1-1.1-1.8s-0.4-1.4-0.4-2.1s0.1-1.4,0.4-2.1c0.2-0.7,0.6-1.2,1.1-1.8c0.5-0.5,1-0.9,1.6-1.2
		s1.3-0.4,2.1-0.4c0.6,0,1.2,0.1,1.8,0.3s1,0.6,1.4,1v-7.3h3.6v16.6h-3.6V120.2z M579.3,114.6c-0.4,0.4-0.6,1-0.6,1.6
		c0,0.7,0.2,1.2,0.6,1.7c0.4,0.4,1,0.6,1.7,0.6s1.3-0.2,1.7-0.6s0.6-1,0.6-1.7s-0.2-1.2-0.6-1.6c-0.4-0.4-1-0.7-1.7-0.7
		C580.2,113.9,579.7,114.1,579.3,114.6z"/>
	<path class="st1" d="M600.3,121.3h-3.6v-1.1l0,0c-0.3,0.5-0.7,0.8-1.3,1.1c-0.6,0.3-1.2,0.4-1.8,0.4c-0.7,0-1.4-0.1-2.1-0.4
		c-0.6-0.3-1.2-0.7-1.7-1.2s-0.8-1.1-1.1-1.8c-0.3-0.7-0.4-1.4-0.4-2.1s0.1-1.4,0.4-2.1c0.2-0.7,0.6-1.2,1.1-1.8
		c0.5-0.5,1-0.9,1.6-1.2s1.3-0.4,2.1-0.4c0.6,0,1.2,0.1,1.8,0.3s1,0.6,1.4,1v-1h3.6V121.3z M592.8,114.6c-0.4,0.4-0.6,1-0.6,1.6
		c0,0.7,0.2,1.2,0.6,1.7s1,0.6,1.7,0.6s1.3-0.2,1.7-0.6s0.6-1,0.6-1.7s-0.2-1.2-0.6-1.6c-0.4-0.4-1-0.7-1.7-0.7
		C593.7,113.9,593.2,114.1,592.8,114.6z"/>
	<path class="st1" d="M606.7,121.3h-3.6V114h-1.2v-3h1.2v-3h3.6v3.1h2.1v3h-2.1V121.3z"/>
	<path class="st1" d="M621.2,121.3h-3.6v-1.1l0,0c-0.3,0.5-0.7,0.8-1.3,1.1c-0.6,0.3-1.2,0.4-1.8,0.4c-0.7,0-1.4-0.1-2.1-0.4
		c-0.6-0.3-1.2-0.7-1.7-1.2s-0.8-1.1-1.1-1.8c-0.3-0.7-0.4-1.4-0.4-2.1s0.1-1.4,0.4-2.1c0.2-0.7,0.6-1.2,1.1-1.8
		c0.5-0.5,1-0.9,1.6-1.2c0.6-0.3,1.3-0.4,2.1-0.4c0.6,0,1.2,0.1,1.8,0.3c0.6,0.2,1,0.6,1.4,1v-1h3.6V121.3z M613.6,114.6
		c-0.4,0.4-0.6,1-0.6,1.6c0,0.7,0.2,1.2,0.6,1.7s1,0.6,1.7,0.6s1.3-0.2,1.7-0.6s0.6-1,0.6-1.7s-0.2-1.2-0.6-1.6
		c-0.4-0.4-1-0.7-1.7-0.7S614,114.1,613.6,114.6z M615.1,109.6l-1.6-1.2l2.8-3.4l2.2,1.6L615.1,109.6z"/>
	<path class="st1" d="M627.2,112.8L627.2,112.8c0.4-0.6,0.8-1.1,1.4-1.4s1.2-0.5,2-0.5h0.7v3.5c-0.2-0.1-0.5-0.2-0.7-0.3
		s-0.5-0.1-0.8-0.1c-0.9,0-1.6,0.3-2,0.8s-0.6,1.3-0.6,2.3v4.1h-3.6v-10.3h3.6L627.2,112.8L627.2,112.8z"/>
	<path class="st1" d="M643.9,121.3h-3.6v-1.1l0,0c-0.3,0.5-0.7,0.8-1.3,1.1c-0.6,0.3-1.2,0.4-1.8,0.4c-0.7,0-1.4-0.1-2.1-0.4
		c-0.6-0.3-1.2-0.7-1.7-1.2s-0.8-1.1-1.1-1.8c-0.3-0.7-0.4-1.4-0.4-2.1s0.1-1.4,0.4-2.1c0.2-0.7,0.6-1.2,1.1-1.8
		c0.5-0.5,1-0.9,1.6-1.2s1.3-0.4,2.1-0.4c0.6,0,1.2,0.1,1.8,0.3s1,0.6,1.4,1v-1h3.6V121.3z M636.3,114.6c-0.4,0.4-0.6,1-0.6,1.6
		c0,0.7,0.2,1.2,0.6,1.7s1,0.6,1.7,0.6s1.3-0.2,1.7-0.6s0.6-1,0.6-1.7s-0.2-1.2-0.6-1.6c-0.4-0.4-1-0.7-1.7-0.7
		S636.7,114.1,636.3,114.6z"/>
	<path class="st1" d="M649.9,112.4L649.9,112.4c0.9-1.1,1.9-1.6,3.3-1.6c0.8,0,1.5,0.2,2.1,0.5s1.1,0.8,1.4,1.5
		c0.3-0.6,0.8-1.1,1.5-1.5s1.3-0.5,2-0.5c1.2,0,2.1,0.4,2.7,1.1c0.5,0.7,0.8,1.7,0.8,3v6.5H660v-4.9c0-0.4,0-0.8,0-1.1
		c0-0.3-0.1-0.6-0.2-0.8c-0.1-0.3-0.2-0.5-0.5-0.7c-0.2-0.2-0.5-0.2-0.8-0.2c-0.4,0-0.7,0.1-1,0.2c-0.2,0.2-0.4,0.4-0.5,0.7
		c-0.1,0.3-0.2,0.5-0.2,0.8s0,0.7,0,1v4.9h-3.6v-4.9c0-0.4,0-0.8,0-1c0-0.3-0.1-0.6-0.2-0.9c-0.1-0.3-0.3-0.5-0.5-0.7
		s-0.5-0.3-0.9-0.3s-0.7,0.1-0.9,0.3c-0.2,0.2-0.4,0.4-0.5,0.7c-0.1,0.3-0.2,0.6-0.2,0.9s0,0.7,0,1v4.9h-3.6V111h3.6L649.9,112.4
		L649.9,112.4z"/>
	<path class="st1" d="M669.7,121.3h-3.6v-16.6h3.6V121.3z"/>
	<path class="st1" d="M683.3,121.3h-3.6v-1.1l0,0c-0.3,0.5-0.7,0.8-1.3,1.1c-0.6,0.3-1.2,0.4-1.8,0.4c-0.7,0-1.4-0.1-2.1-0.4
		c-0.6-0.3-1.2-0.7-1.7-1.2s-0.8-1.1-1.1-1.8c-0.3-0.7-0.4-1.4-0.4-2.1s0.1-1.4,0.4-2.1c0.2-0.7,0.6-1.2,1.1-1.8
		c0.5-0.5,1-0.9,1.6-1.2c0.6-0.3,1.3-0.4,2.1-0.4c0.6,0,1.2,0.1,1.8,0.3c0.6,0.2,1,0.6,1.4,1v-1h3.6V121.3z M675.8,114.6
		c-0.4,0.4-0.6,1-0.6,1.6c0,0.7,0.2,1.2,0.6,1.7s1,0.6,1.7,0.6s1.3-0.2,1.7-0.6s0.6-1,0.6-1.7s-0.2-1.2-0.6-1.6
		c-0.4-0.4-1-0.7-1.7-0.7S676.2,114.1,675.8,114.6z M677.2,109.6l-1.6-1.2l2.8-3.4l2.2,1.6L677.2,109.6z"/>
	<path class="st1" d="M692.5,113.7c-0.3-0.1-0.6-0.3-1-0.4s-0.7-0.1-1-0.1s-0.5,0.1-0.8,0.2c-0.2,0.1-0.4,0.3-0.4,0.5
		c0,0.3,0.1,0.5,0.4,0.6s0.6,0.2,1,0.3h0.2c0.9,0.2,1.7,0.5,2.2,1s0.8,1.2,0.8,2c0,0.7-0.1,1.2-0.4,1.7c-0.3,0.5-0.6,0.9-1.1,1.2
		s-1,0.5-1.6,0.7s-1.2,0.2-1.8,0.2c-0.7,0-1.5-0.1-2.2-0.3s-1.4-0.5-2-0.9l1.3-2.5c0.4,0.3,0.9,0.5,1.4,0.7s1,0.3,1.5,0.3
		c0.3,0,0.5-0.1,0.8-0.2c0.2-0.1,0.4-0.3,0.4-0.6c0-0.3-0.1-0.5-0.4-0.6c-0.3-0.1-0.7-0.2-1.2-0.4c-0.3-0.1-0.5-0.1-0.7-0.2
		c-0.3-0.1-0.6-0.2-0.9-0.3c-0.3-0.1-0.5-0.3-0.7-0.5s-0.4-0.5-0.5-0.8s-0.2-0.7-0.2-1.1c0-0.6,0.1-1.1,0.4-1.6
		c0.2-0.5,0.6-0.9,1-1.2s0.9-0.5,1.5-0.7s1.1-0.2,1.7-0.2c1.3,0,2.4,0.2,3.4,0.7L692.5,113.7z"/>
</g>
<g class="st0">
	<path class="st1" d="M124.4,447.6c-0.4-0.5-0.9-0.9-1.5-1.2c-0.6-0.3-1.3-0.4-1.9-0.4s-1.1,0.1-1.6,0.3c-0.5,0.2-0.9,0.5-1.3,0.9
		s-0.6,0.8-0.8,1.3c-0.2,0.5-0.3,1.1-0.3,1.6c0,1.2,0.4,2.2,1.1,3c0.8,0.8,1.7,1.1,3,1.1c0.6,0,1.3-0.1,1.9-0.4s1.1-0.7,1.5-1.2v4.7
		h-0.1c-0.8,0.2-1.4,0.4-1.9,0.5s-1,0.2-1.5,0.2c-1,0-2-0.2-3-0.6s-1.9-0.9-2.6-1.6c-0.8-0.7-1.4-1.6-1.8-2.5s-0.6-2-0.6-3.2
		c0-1,0.2-2,0.6-3s0.9-1.8,1.7-2.5c0.7-0.8,1.6-1.4,2.6-1.8s2-0.7,3.1-0.7c1.2,0,2.4,0.3,3.6,0.8v4.7H124.4z"/>
	<path class="st1" d="M138,457.6h-3.6v-1.1l0,0c-0.3,0.5-0.7,0.8-1.3,1.1s-1.2,0.4-1.8,0.4c-0.7,0-1.4-0.1-2.1-0.4
		c-0.6-0.3-1.2-0.7-1.7-1.2s-0.8-1.1-1.1-1.8s-0.4-1.4-0.4-2.1s0.1-1.4,0.4-2.1c0.2-0.7,0.6-1.2,1.1-1.8c0.5-0.5,1-0.9,1.6-1.2
		c0.6-0.3,1.3-0.4,2.1-0.4c0.6,0,1.2,0.1,1.8,0.3c0.6,0.2,1,0.6,1.4,1v-1h3.6V457.6z M130.4,450.8c-0.4,0.4-0.6,1-0.6,1.6
		c0,0.7,0.2,1.2,0.6,1.7s1,0.6,1.7,0.6s1.3-0.2,1.7-0.6s0.6-1,0.6-1.7s-0.2-1.2-0.6-1.6c-0.4-0.4-1-0.7-1.7-0.7
		C131.4,450.1,130.8,450.4,130.4,450.8z"/>
	<path class="st1" d="M143.9,448.5L143.9,448.5c0.4-0.5,0.8-0.9,1.4-1.1s1.2-0.4,1.8-0.4c0.7,0,1.4,0.1,2.1,0.4s1.2,0.7,1.6,1.2
		c0.5,0.5,0.8,1.1,1.1,1.8c0.3,0.7,0.4,1.4,0.4,2.1s-0.1,1.4-0.4,2.1s-0.6,1.2-1.1,1.8s-1,0.9-1.6,1.2c-0.6,0.3-1.3,0.4-2.1,0.4
		c-0.6,0-1.2-0.1-1.8-0.3s-1-0.6-1.4-1v6.1h-3.6v-15.4h3.6V448.5z M144.4,450.8c-0.4,0.4-0.6,1-0.6,1.6c0,0.7,0.2,1.2,0.6,1.7
		s1,0.6,1.7,0.6s1.3-0.2,1.7-0.6s0.6-1,0.6-1.7s-0.2-1.2-0.6-1.6c-0.4-0.4-1-0.7-1.7-0.7C145.4,450.1,144.9,450.4,144.4,450.8z"/>
	<path class="st1" d="M165.3,457.6h-3.6v-1.1l0,0c-0.3,0.5-0.7,0.8-1.3,1.1s-1.2,0.4-1.8,0.4c-0.7,0-1.4-0.1-2.1-0.4
		c-0.6-0.3-1.2-0.7-1.7-1.2s-0.8-1.1-1.1-1.8s-0.4-1.4-0.4-2.1s0.1-1.4,0.4-2.1c0.2-0.7,0.6-1.2,1.1-1.8c0.5-0.5,1-0.9,1.6-1.2
		c0.6-0.3,1.3-0.4,2.1-0.4c0.6,0,1.2,0.1,1.8,0.3c0.6,0.2,1,0.6,1.4,1v-1h3.6V457.6z M157.7,450.8c-0.4,0.4-0.6,1-0.6,1.6
		c0,0.7,0.2,1.2,0.6,1.7s1,0.6,1.7,0.6s1.3-0.2,1.7-0.6s0.6-1,0.6-1.7s-0.2-1.2-0.6-1.6c-0.4-0.4-1-0.7-1.7-0.7
		C158.7,450.1,158.1,450.4,157.7,450.8z"/>
	<path class="st1" d="M167.6,441h3.6v7.3c0.4-0.4,0.8-0.8,1.4-1s1.2-0.3,1.8-0.3c0.7,0,1.4,0.1,2.1,0.4c0.6,0.3,1.2,0.7,1.6,1.2
		c0.5,0.5,0.8,1.1,1.1,1.8c0.2,0.7,0.4,1.4,0.4,2.1s-0.1,1.4-0.4,2.1c-0.3,0.7-0.6,1.3-1.1,1.8s-1,0.9-1.6,1.2
		c-0.6,0.3-1.3,0.4-2.1,0.4c-0.6,0-1.2-0.1-1.8-0.4c-0.6-0.2-1-0.6-1.3-1.1l0,0v1.1h-3.6L167.6,441L167.6,441z M171.7,450.8
		c-0.4,0.4-0.6,1-0.6,1.6c0,0.7,0.2,1.2,0.6,1.7s1,0.6,1.7,0.6s1.3-0.2,1.7-0.6s0.6-1,0.6-1.7s-0.2-1.2-0.6-1.6
		c-0.4-0.4-1-0.7-1.7-0.7C172.7,450.1,172.1,450.4,171.7,450.8z"/>
	<path class="st1" d="M184.6,441.9c0.4,0.4,0.6,0.9,0.6,1.4c0,0.6-0.2,1-0.6,1.4c-0.4,0.4-0.9,0.6-1.4,0.6s-1-0.2-1.4-0.6
		s-0.6-0.9-0.6-1.4c0-0.6,0.2-1,0.6-1.4c0.4-0.4,0.9-0.6,1.4-0.6S184.2,441.5,184.6,441.9z M185,457.6h-3.6v-10.3h3.6V457.6z"/>
	<path class="st1" d="M191,457.6h-3.6V441h3.6V457.6z"/>
	<path class="st1" d="M196.7,441.9c0.4,0.4,0.6,0.9,0.6,1.4c0,0.6-0.2,1-0.6,1.4c-0.4,0.4-0.9,0.6-1.4,0.6s-1-0.2-1.4-0.6
		s-0.6-0.9-0.6-1.4c0-0.6,0.2-1,0.6-1.4c0.4-0.4,0.9-0.6,1.4-0.6S196.3,441.5,196.7,441.9z M197.1,457.6h-3.6v-10.3h3.6V457.6z"/>
	<path class="st1" d="M203.4,457.6h-3.6v-7.3h-1.2v-3h1.2v-3.1h3.6v3.1h2.1v3h-2.1V457.6z"/>
	<path class="st1" d="M209.9,441.9c0.4,0.4,0.6,0.9,0.6,1.4c0,0.6-0.2,1-0.6,1.4c-0.4,0.4-0.9,0.6-1.4,0.6s-1-0.2-1.4-0.6
		s-0.6-0.9-0.6-1.4c0-0.6,0.2-1,0.6-1.4c0.4-0.4,0.9-0.6,1.4-0.6S209.5,441.5,209.9,441.9z M210.3,457.6h-3.6v-10.3h3.6V457.6z"/>
	<path class="st1" d="M223.2,453.1h-7.7c0,1.5,0.8,2.3,2.3,2.3c0.8,0,1.4-0.3,1.7-0.9h3.5c-0.3,1.1-0.9,2-1.9,2.6s-2.1,0.9-3.3,0.9
		c-1.8,0-3.2-0.5-4.3-1.4c-1.1-1-1.6-2.3-1.6-4c0-0.8,0.1-1.6,0.4-2.3c0.3-0.7,0.7-1.3,1.2-1.7c0.5-0.5,1.1-0.8,1.8-1.1
		c0.7-0.2,1.5-0.4,2.3-0.4c1.8,0,3.2,0.5,4.1,1.5c1,1,1.5,2.4,1.5,4.2V453.1z M219.9,451c-0.1-0.5-0.3-0.9-0.7-1.2
		c-0.4-0.3-0.8-0.5-1.3-0.5s-1,0.1-1.4,0.4s-0.6,0.7-0.8,1.2h4.2V451z"/>
	<path class="st1" d="M231.7,450c-0.3-0.1-0.6-0.3-1-0.4s-0.7-0.1-1-0.1s-0.5,0.1-0.8,0.2c-0.2,0.1-0.4,0.3-0.4,0.5
		c0,0.3,0.1,0.5,0.4,0.6s0.6,0.2,1,0.3h0.2c0.9,0.2,1.7,0.5,2.2,1s0.8,1.2,0.8,2c0,0.7-0.1,1.2-0.4,1.7c-0.3,0.5-0.6,0.9-1.1,1.2
		c-0.5,0.3-1,0.5-1.6,0.7s-1.2,0.2-1.8,0.2c-0.7,0-1.5-0.1-2.2-0.3c-0.7-0.2-1.4-0.5-2-0.9l1.3-2.5c0.4,0.3,0.9,0.5,1.4,0.7
		s1,0.3,1.5,0.3c0.3,0,0.5-0.1,0.8-0.2c0.2-0.1,0.4-0.3,0.4-0.6c0-0.3-0.1-0.5-0.4-0.6c-0.3-0.1-0.7-0.2-1.2-0.4
		c-0.3-0.1-0.5-0.1-0.7-0.2c-0.3-0.1-0.6-0.2-0.9-0.3c-0.3-0.1-0.5-0.3-0.7-0.5s-0.4-0.5-0.5-0.8s-0.2-0.7-0.2-1.1
		c0-0.6,0.1-1.1,0.4-1.6s0.6-0.9,1-1.2c0.4-0.3,0.9-0.5,1.5-0.7s1.1-0.2,1.7-0.2c1.3,0,2.4,0.2,3.4,0.7L231.7,450z"/>
	<path class="st1" d="M122.4,466.5h4.9l-6,7.1l6.5,7.9h-5.1l-5.1-6.5l0,0v6.5h-3.9v-15.1h3.9v6.2l0,0L122.4,466.5z"/>
	<path class="st1" d="M139.3,477.1h-7.7c0,1.5,0.8,2.3,2.3,2.3c0.8,0,1.4-0.3,1.7-0.9h3.5c-0.3,1.1-0.9,2-1.9,2.6s-2.1,0.9-3.3,0.9
		c-1.8,0-3.2-0.5-4.3-1.4c-1.1-1-1.6-2.3-1.6-4c0-0.8,0.1-1.6,0.4-2.3c0.3-0.7,0.7-1.3,1.2-1.7c0.5-0.5,1.1-0.8,1.8-1.1
		c0.7-0.2,1.5-0.4,2.3-0.4c1.8,0,3.2,0.5,4.1,1.5c1,1,1.5,2.4,1.5,4.2V477.1z M133.2,469.8l-1.6-1.2l2.8-3.4l2.2,1.6L133.2,469.8z
		 M135.9,475c-0.1-0.5-0.3-0.9-0.7-1.2c-0.4-0.3-0.8-0.5-1.3-0.5s-1,0.1-1.4,0.4s-0.6,0.7-0.8,1.2h4.2V475z"/>
	<path class="st1" d="M144.5,472.5L144.5,472.5c0.4-0.5,0.8-0.9,1.4-1.1s1.2-0.4,1.8-0.4c0.7,0,1.4,0.1,2.1,0.4s1.2,0.7,1.6,1.2
		c0.5,0.5,0.8,1.1,1.1,1.8c0.3,0.7,0.4,1.4,0.4,2.1s-0.1,1.4-0.4,2.1s-0.6,1.2-1.1,1.8s-1,0.9-1.6,1.2c-0.6,0.3-1.3,0.4-2.1,0.4
		c-0.6,0-1.2-0.1-1.8-0.3s-1-0.6-1.4-1v6.1h-3.6v-15.4h3.6V472.5z M145,474.8c-0.4,0.4-0.6,1-0.6,1.6c0,0.7,0.2,1.2,0.6,1.7
		s1,0.6,1.7,0.6s1.3-0.2,1.7-0.6s0.6-1,0.6-1.7s-0.2-1.2-0.6-1.6c-0.4-0.4-1-0.7-1.7-0.7C146,474.1,145.4,474.4,145,474.8z"/>
	<path class="st1" d="M165.1,477.1h-7.7c0,1.5,0.8,2.3,2.3,2.3c0.8,0,1.4-0.3,1.7-0.9h3.5c-0.3,1.1-0.9,2-1.9,2.6s-2.1,0.9-3.3,0.9
		c-1.8,0-3.2-0.5-4.3-1.4c-1.1-1-1.6-2.3-1.6-4c0-0.8,0.1-1.6,0.4-2.3c0.3-0.7,0.7-1.3,1.2-1.7c0.5-0.5,1.1-0.8,1.8-1.1
		c0.7-0.2,1.5-0.4,2.3-0.4c1.8,0,3.2,0.5,4.1,1.5c1,1,1.5,2.4,1.5,4.2V477.1z M161.7,475c-0.1-0.5-0.3-0.9-0.7-1.2
		c-0.4-0.3-0.8-0.5-1.3-0.5s-1,0.1-1.4,0.4s-0.6,0.7-0.8,1.2h4.2V475z"/>
	<path class="st1" d="M173.6,474c-0.3-0.1-0.6-0.3-1-0.4s-0.7-0.1-1-0.1s-0.5,0.1-0.8,0.2c-0.2,0.1-0.4,0.3-0.4,0.5
		c0,0.3,0.1,0.5,0.4,0.6s0.6,0.2,1,0.3h0.2c0.9,0.2,1.7,0.5,2.2,1s0.8,1.2,0.8,2c0,0.7-0.1,1.2-0.4,1.7c-0.3,0.5-0.6,0.9-1.1,1.2
		c-0.5,0.3-1,0.5-1.6,0.7s-1.2,0.2-1.8,0.2c-0.7,0-1.5-0.1-2.2-0.3c-0.7-0.2-1.4-0.5-2-0.9l1.3-2.5c0.4,0.3,0.9,0.5,1.4,0.7
		s1,0.3,1.5,0.3c0.3,0,0.5-0.1,0.8-0.2c0.2-0.1,0.4-0.3,0.4-0.6c0-0.3-0.1-0.5-0.4-0.6c-0.3-0.1-0.7-0.2-1.2-0.4
		c-0.3-0.1-0.5-0.1-0.7-0.2c-0.3-0.1-0.6-0.2-0.9-0.3c-0.3-0.1-0.5-0.3-0.7-0.5s-0.4-0.5-0.5-0.8s-0.2-0.7-0.2-1.1
		c0-0.6,0.1-1.1,0.4-1.6s0.6-0.9,1-1.2c0.4-0.3,0.9-0.5,1.5-0.7s1.1-0.2,1.7-0.2c1.3,0,2.4,0.2,3.4,0.7L173.6,474z"/>
	<path class="st1" d="M183.8,474c-0.3-0.1-0.6-0.3-1-0.4s-0.7-0.1-1-0.1s-0.5,0.1-0.8,0.2c-0.2,0.1-0.4,0.3-0.4,0.5
		c0,0.3,0.1,0.5,0.4,0.6s0.6,0.2,1,0.3h0.2c0.9,0.2,1.7,0.5,2.2,1s0.8,1.2,0.8,2c0,0.7-0.1,1.2-0.4,1.7c-0.3,0.5-0.6,0.9-1.1,1.2
		c-0.5,0.3-1,0.5-1.6,0.7s-1.2,0.2-1.8,0.2c-0.7,0-1.5-0.1-2.2-0.3c-0.7-0.2-1.4-0.5-2-0.9l1.3-2.5c0.4,0.3,0.9,0.5,1.4,0.7
		s1,0.3,1.5,0.3c0.3,0,0.5-0.1,0.8-0.2c0.2-0.1,0.4-0.3,0.4-0.6c0-0.3-0.1-0.5-0.4-0.6c-0.3-0.1-0.7-0.2-1.2-0.4
		c-0.3-0.1-0.5-0.1-0.7-0.2c-0.3-0.1-0.6-0.2-0.9-0.3c-0.3-0.1-0.5-0.3-0.7-0.5s-0.4-0.5-0.5-0.8s-0.2-0.7-0.2-1.1
		c0-0.6,0.1-1.1,0.4-1.6s0.6-0.9,1-1.2c0.4-0.3,0.9-0.5,1.5-0.7s1.1-0.2,1.7-0.2c1.3,0,2.4,0.2,3.4,0.7L183.8,474z"/>
	<path class="st1" d="M197.8,477.1h-7.7c0,1.5,0.8,2.3,2.3,2.3c0.8,0,1.4-0.3,1.7-0.9h3.5c-0.3,1.1-0.9,2-1.9,2.6s-2.1,0.9-3.3,0.9
		c-1.8,0-3.2-0.5-4.3-1.4c-1.1-1-1.6-2.3-1.6-4c0-0.8,0.1-1.6,0.4-2.3c0.3-0.7,0.7-1.3,1.2-1.7c0.5-0.5,1.1-0.8,1.8-1.1
		c0.7-0.2,1.5-0.4,2.3-0.4c1.8,0,3.2,0.5,4.1,1.5c1,1,1.5,2.4,1.5,4.2V477.1z M191.8,469.8l-1.6-1.2l2.8-3.4l2.2,1.6L191.8,469.8z
		 M194.5,475c-0.1-0.5-0.3-0.9-0.7-1.2c-0.4-0.3-0.8-0.5-1.3-0.5s-1,0.1-1.4,0.4s-0.6,0.7-0.8,1.2h4.2V475z"/>
	<path class="st1" d="M210.8,480.6c0,2.1-0.5,3.7-1.5,4.7s-2.5,1.5-4.4,1.5c-0.6,0-1.2-0.1-1.9-0.2c-0.6-0.2-1.3-0.4-1.8-0.7
		c-0.6-0.3-1-0.7-1.4-1.2s-0.6-1.1-0.7-1.7h4.1c0.1,0.3,0.3,0.6,0.7,0.8c0.3,0.2,0.7,0.2,1,0.2c0.5,0,0.9-0.1,1.2-0.2
		s0.5-0.3,0.7-0.6c0.2-0.3,0.3-0.6,0.4-0.9c0.1-0.3,0.1-0.7,0.1-1.2v-0.5c-0.5,0.5-1,0.8-1.5,1.1c-0.5,0.2-1.1,0.3-1.8,0.3
		s-1.4-0.1-2-0.4s-1.2-0.6-1.6-1.1c-0.4-0.5-0.8-1-1-1.7c-0.2-0.6-0.4-1.3-0.4-2.1c0-0.7,0.1-1.5,0.4-2.1c0.3-0.7,0.6-1.3,1.1-1.8
		s1-0.9,1.7-1.2c0.6-0.3,1.4-0.4,2.1-0.4c0.6,0,1.2,0.1,1.7,0.3c0.5,0.2,0.9,0.6,1.3,1.1l0,0v-1.1h3.6v9.1H210.8z M203.2,474.7
		c-0.4,0.4-0.6,1-0.6,1.6c0,0.7,0.2,1.2,0.6,1.7s1,0.6,1.7,0.6s1.3-0.2,1.7-0.6s0.6-1,0.6-1.7s-0.2-1.2-0.6-1.6
		c-0.4-0.4-1-0.7-1.7-0.7C204.2,474.1,203.6,474.3,203.2,474.7z"/>
	<path class="st1" d="M223.6,477.1h-7.7c0,1.5,0.8,2.3,2.3,2.3c0.8,0,1.4-0.3,1.7-0.9h3.5c-0.3,1.1-0.9,2-1.9,2.6s-2.1,0.9-3.3,0.9
		c-1.8,0-3.2-0.5-4.3-1.4c-1.1-1-1.6-2.3-1.6-4c0-0.8,0.1-1.6,0.4-2.3c0.3-0.7,0.7-1.3,1.2-1.7c0.5-0.5,1.1-0.8,1.8-1.1
		c0.7-0.2,1.5-0.4,2.3-0.4c1.8,0,3.2,0.5,4.1,1.5c1,1,1.5,2.4,1.5,4.2V477.1z M220.2,475c-0.1-0.5-0.3-0.9-0.7-1.2
		c-0.4-0.3-0.8-0.5-1.3-0.5s-1,0.1-1.4,0.4s-0.6,0.7-0.8,1.2h4.2V475z"/>
	<path class="st1" d="M228.9,475l3.8-3.7h5l-5.1,4.7l5.5,5.5H233l-4-4.2v4.2h-3.6V465h3.6L228.9,475L228.9,475z"/>
</g>
<g class="st0">
	<path class="st1" d="M575.9,457.6H572v-11.8h-3.2v-3.3h10.4v3.3H576L575.9,457.6L575.9,457.6z"/>
	<path class="st1" d="M586.8,447.4c0.7,0.2,1.4,0.6,2,1.1s1,1,1.3,1.7s0.5,1.5,0.5,2.3s-0.2,1.6-0.5,2.3s-0.8,1.3-1.3,1.7
		s-1.2,0.8-2,1.1c-0.8,0.2-1.5,0.4-2.4,0.4c-0.8,0-1.6-0.1-2.4-0.4c-0.7-0.2-1.4-0.6-2-1.1s-1-1-1.3-1.7s-0.5-1.4-0.5-2.3
		s0.2-1.6,0.5-2.3c0.3-0.7,0.8-1.3,1.3-1.7s1.2-0.8,2-1.1c0.7-0.2,1.5-0.4,2.4-0.4S586.1,447.1,586.8,447.4z M582.7,450.8
		c-0.4,0.4-0.6,1-0.6,1.6c0,0.7,0.2,1.2,0.6,1.7s1,0.6,1.7,0.6s1.3-0.2,1.7-0.6s0.6-1,0.6-1.7s-0.2-1.2-0.6-1.6
		c-0.4-0.4-1-0.7-1.7-0.7C583.7,450.1,583.2,450.4,582.7,450.8z"/>
	<path class="st1" d="M600,447.4c0.7,0.2,1.4,0.6,2,1.1s1,1,1.4,1.7c0.3,0.7,0.5,1.5,0.5,2.3s-0.2,1.6-0.5,2.3
		c-0.3,0.7-0.8,1.3-1.3,1.7c-0.6,0.5-1.2,0.8-2,1.1c-0.8,0.2-1.5,0.4-2.4,0.4s-1.6-0.1-2.4-0.4c-0.7-0.2-1.4-0.6-2-1.1s-1-1-1.3-1.7
		s-0.5-1.4-0.5-2.3s0.2-1.6,0.5-2.3c0.3-0.7,0.8-1.3,1.3-1.7s1.2-0.8,2-1.1c0.7-0.2,1.5-0.4,2.4-0.4S599.3,447.1,600,447.4z
		 M596,450.8c-0.4,0.4-0.6,1-0.6,1.6c0,0.7,0.2,1.2,0.6,1.7s1,0.6,1.7,0.6s1.3-0.2,1.7-0.6s0.6-1,0.6-1.7s-0.2-1.2-0.6-1.6
		c-0.4-0.4-1-0.7-1.7-0.7S596.4,450.4,596,450.8z"/>
	<path class="st1" d="M609.1,457.6h-3.6V441h3.6V457.6z"/>
	<path class="st1" d="M618.3,450c-0.3-0.1-0.6-0.3-1-0.4s-0.7-0.1-1-0.1s-0.5,0.1-0.8,0.2c-0.2,0.1-0.4,0.3-0.4,0.5
		c0,0.3,0.1,0.5,0.4,0.6s0.6,0.2,1,0.3h0.2c0.9,0.2,1.7,0.5,2.2,1s0.8,1.2,0.8,2c0,0.7-0.1,1.2-0.4,1.7c-0.3,0.5-0.6,0.9-1.1,1.2
		c-0.5,0.3-1,0.5-1.6,0.7s-1.2,0.2-1.8,0.2c-0.7,0-1.5-0.1-2.2-0.3c-0.7-0.2-1.4-0.5-2-0.9l1.3-2.5c0.4,0.3,0.9,0.5,1.4,0.7
		s1,0.3,1.5,0.3c0.3,0,0.5-0.1,0.8-0.2c0.2-0.1,0.4-0.3,0.4-0.6c0-0.3-0.1-0.5-0.4-0.6c-0.3-0.1-0.7-0.2-1.2-0.4
		c-0.3-0.1-0.5-0.1-0.7-0.2c-0.3-0.1-0.6-0.2-0.9-0.3s-0.5-0.3-0.7-0.5s-0.4-0.5-0.5-0.8s-0.2-0.7-0.2-1.1c0-0.6,0.1-1.1,0.4-1.6
		c0.2-0.5,0.6-0.9,1-1.2c0.4-0.3,0.9-0.5,1.5-0.7s1.1-0.2,1.7-0.2c1.3,0,2.4,0.2,3.4,0.7L618.3,450z"/>
	<path class="st1" d="M573.8,469.8v2.5h4.4v3.3h-4.4v2.6h4.7v3.3h-8.6v-15.1h8.6v3.3h-4.7V469.8z"/>
	<path class="st1" d="M587.6,474c-0.3-0.1-0.6-0.3-1-0.4s-0.7-0.1-1-0.1s-0.5,0.1-0.8,0.2c-0.2,0.1-0.4,0.3-0.4,0.5
		c0,0.3,0.1,0.5,0.4,0.6s0.6,0.2,1,0.3h0.2c0.9,0.2,1.7,0.5,2.2,1s0.8,1.2,0.8,2c0,0.7-0.1,1.2-0.4,1.7c-0.3,0.5-0.6,0.9-1.1,1.2
		c-0.5,0.3-1,0.5-1.6,0.7s-1.2,0.2-1.8,0.2c-0.7,0-1.5-0.1-2.2-0.3c-0.7-0.2-1.4-0.5-2-0.9l1.3-2.5c0.4,0.3,0.9,0.5,1.4,0.7
		s1,0.3,1.5,0.3c0.3,0,0.5-0.1,0.8-0.2c0.2-0.1,0.4-0.3,0.4-0.6c0-0.3-0.1-0.5-0.4-0.6c-0.3-0.1-0.7-0.2-1.2-0.4
		c-0.3-0.1-0.5-0.1-0.7-0.2c-0.3-0.1-0.6-0.2-0.9-0.3s-0.5-0.3-0.7-0.5s-0.4-0.5-0.5-0.8s-0.2-0.7-0.2-1.1c0-0.6,0.1-1.1,0.4-1.6
		c0.2-0.5,0.6-0.9,1-1.2c0.4-0.3,0.9-0.5,1.5-0.7s1.1-0.2,1.7-0.2c1.3,0,2.4,0.2,3.4,0.7L587.6,474z"/>
	<path class="st1" d="M600.5,478.6v3h-10.4l4.8-7.2h-4.2v-3h10.2l-4.8,7.2H600.5z"/>
	<path class="st1" d="M605.9,475l3.8-3.7h5l-5.1,4.7l5.5,5.5H610l-4-4.2v4.2h-3.6V465h3.6v10H605.9z"/>
	<path class="st1" d="M623.8,471.4c0.7,0.2,1.4,0.6,2,1.1s1,1,1.4,1.7c0.3,0.7,0.5,1.5,0.5,2.3s-0.2,1.6-0.5,2.3
		c-0.3,0.7-0.8,1.3-1.3,1.7c-0.6,0.5-1.2,0.8-2,1.1c-0.8,0.2-1.5,0.4-2.4,0.4s-1.6-0.1-2.4-0.4c-0.7-0.2-1.4-0.6-2-1.1s-1-1-1.3-1.7
		s-0.5-1.4-0.5-2.3s0.2-1.6,0.5-2.3c0.3-0.7,0.8-1.3,1.3-1.7s1.2-0.8,2-1.1c0.7-0.2,1.5-0.4,2.4-0.4S623.1,471.1,623.8,471.4z
		 M620.3,466.2c0.4,0.4,0.6,0.8,0.6,1.4c0,0.5-0.2,1-0.6,1.4c-0.4,0.4-0.8,0.6-1.4,0.6c-0.5,0-1-0.2-1.4-0.6s-0.6-0.8-0.6-1.4
		s0.2-1,0.6-1.4s0.9-0.6,1.4-0.6C619.4,465.6,619.9,465.8,620.3,466.2z M619.8,474.8c-0.4,0.4-0.6,1-0.6,1.6c0,0.7,0.2,1.2,0.6,1.7
		s1,0.6,1.7,0.6s1.3-0.2,1.7-0.6s0.6-1,0.6-1.7s-0.2-1.2-0.6-1.6c-0.4-0.4-1-0.7-1.7-0.7S620.2,474.4,619.8,474.8z M625.4,466.2
		c0.4,0.4,0.6,0.8,0.6,1.4c0,0.5-0.2,1-0.6,1.4c-0.4,0.4-0.8,0.6-1.4,0.6c-0.5,0-1-0.2-1.4-0.6s-0.6-0.8-0.6-1.4s0.2-1,0.6-1.4
		s0.9-0.6,1.4-0.6C624.6,465.6,625,465.8,625.4,466.2z"/>
	<path class="st1" d="M638.6,478.6v3h-10.4l4.8-7.2h-4.2v-3H639l-4.8,7.2H638.6z"/>
	<path class="st1" d="M648.2,471.4c0.7,0.2,1.4,0.6,2,1.1s1,1,1.3,1.7s0.5,1.5,0.5,2.3s-0.2,1.6-0.5,2.3s-0.8,1.3-1.3,1.7
		s-1.2,0.8-2,1.1c-0.8,0.2-1.5,0.4-2.4,0.4c-0.8,0-1.6-0.1-2.4-0.4c-0.7-0.2-1.4-0.6-2-1.1s-1-1-1.3-1.7s-0.5-1.4-0.5-2.3
		s0.2-1.6,0.5-2.3c0.3-0.7,0.8-1.3,1.3-1.7s1.2-0.8,2-1.1c0.7-0.2,1.5-0.4,2.4-0.4S647.5,471.1,648.2,471.4z M644.7,466.2
		c0.4,0.4,0.6,0.8,0.6,1.4c0,0.5-0.2,1-0.6,1.4c-0.4,0.4-0.8,0.6-1.4,0.6s-1-0.2-1.4-0.6s-0.6-0.8-0.6-1.4s0.2-1,0.6-1.4
		c0.4-0.4,0.9-0.6,1.4-0.6C643.9,465.6,644.3,465.8,644.7,466.2z M644.2,474.8c-0.4,0.4-0.6,1-0.6,1.6c0,0.7,0.2,1.2,0.6,1.7
		s1,0.6,1.7,0.6s1.3-0.2,1.7-0.6s0.6-1,0.6-1.7s-0.2-1.2-0.6-1.6c-0.4-0.4-1-0.7-1.7-0.7C645.2,474.1,644.6,474.4,644.2,474.8z
		 M649.8,466.2c0.4,0.4,0.6,0.8,0.6,1.4c0,0.5-0.2,1-0.6,1.4c-0.4,0.4-0.8,0.6-1.4,0.6s-1-0.2-1.4-0.6s-0.6-0.8-0.6-1.4
		s0.2-1,0.6-1.4s0.9-0.6,1.4-0.6C649,465.6,649.4,465.8,649.8,466.2z"/>
	<path class="st1" d="M657.3,475l3.8-3.7h5L661,476l5.5,5.5h-5.1l-4-4.2v4.2h-3.6V465h3.6v10H657.3z"/>
</g>
<g id="_x30_.cr-big_x5F_cr_x5F_1usemisxbxp1k-stroke">
	<g>
		<path class="st2" d="M307.5,264.5c0,46.4,37.6,84.1,84.1,84.1s84.1-37.6,84.1-84.1s-37.6-84.1-84.1-84.1S307.5,218,307.5,264.5"/>
	</g>
</g>
<g id="_x34_.cu_x5F_sy_x5F_1qd7lhgxbxmo1-stroke">
	<g>
		<path class="st3" d="M389.4,180.4c1.2,0,2.1-1,2.1-2.1v-40.5c0-2.1-3.2-3.2-4.9-2.1c-2.6,1.7-5.7,2.7-9.1,2.7
			c-9.3,0-16.8-7.5-16.8-16.8s7.5-16.8,16.8-16.8c3.3,0,6.5,1,9.1,2.7c1.7,1.1,4.9,0,4.9-2.1V64.8c0-1.2-1-2.1-2.1-2.1
			c-109.7,1.1-198.5,89.9-199.6,199.6c0,1.2,0.9,2.1,2.1,2.1h40.7c2.1,0,3.2,3.1,2.1,4.8c-1.7,2.6-2.6,5.7-2.6,9
			c0,9.3,7.5,16.8,16.8,16.8c9.3,0,16.8-7.5,16.8-16.8c0-3.3-1-6.4-2.6-9c-1.1-1.7,0-4.8,2.1-4.8h42.4l0,0
			C307.5,218.7,344,181.6,389.4,180.4z"/>
	</g>
</g>
<g id="_x33_.cu_x5F_sy_x5F_1hhkl8kxbxngq-stroke">
	<g>
		<path class="st3" d="M265.4,278.5c0,9.3-7.5,16.8-16.8,16.8s-16.8-7.5-16.8-16.8c0-3.3,1-6.5,2.7-9.1c1.1-1.7,0-4.9-2.1-4.9h-40.5
			c-1.2,0-2.1,1-2.1,2.1c1.1,109.7,89.9,198.5,199.6,199.6c1.2,0,2.1-0.9,2.1-2.1v-40.4c0-2.1,3.2-3.2,5-2.1
			c2.6,1.7,5.8,2.7,9.1,2.7c9.3,0,16.8-7.5,16.8-16.8s-7.5-16.8-16.8-16.8c-3.4,0-6.5,1-9.1,2.7c-1.8,1.1-5,0-5-2.1v-40.6
			c0-1.2-0.9-2.1-2.1-2.1c-44.7-1.1-80.8-37.2-81.9-81.9c0-1.2-1-2.1-2.1-2.1h-40.5c-2.1,0-3.2,3.2-2.1,4.9
			C264.4,272,265.4,275.1,265.4,278.5z"/>
	</g>
</g>
<g id="_x32_.cu_x5F_sy_x5F_14642v8xbxp1n-stroke">
	<g>
		<path class="st3" d="M551.1,264.5c-2.1,0-3.2-3.1-2.1-4.8c1.7-2.6,2.6-5.7,2.6-9c0-9.3-7.5-16.8-16.8-16.8s-16.8,7.5-16.8,16.8
			c0,3.3,1,6.4,2.6,9c1.1,1.7,0,4.8-2.1,4.8h-40.8c-1.2,0-2.1,0.9-2.1,2.1c-1.1,44.8-37.2,80.8-81.9,81.9c-1.2,0-2.1,1-2.1,2.1v40.6
			c0,2.1,3.2,3.2,5,2.1c2.6-1.7,5.8-2.7,9.1-2.7c9.3,0,16.8,7.5,16.8,16.8s-7.5,16.8-16.8,16.8c-3.4,0-6.5-1-9.1-2.7
			c-1.8-1.1-5,0-5,2.1V464c0,1.2,1,2.1,2.1,2.1c109.7-1.1,198.5-89.9,199.6-199.6c0-1.2-0.9-2.1-2.1-2.1h-40.1V264.5z"/>
	</g>
</g>
<g id="_x31_.cu_x5F_sy_x5F_zqx1twxbxmo4-stroke">
	<g>
		<path class="st3" d="M475.6,262.3c0,1.2,1,2.1,2.1,2.1h40.8c2.1,0,3.2-3.1,2.1-4.8c-1.7-2.6-2.6-5.7-2.6-9
			c0-9.3,7.5-16.8,16.8-16.8s16.8,7.5,16.8,16.8c0,3.3-1,6.4-2.6,9c-1.1,1.7,0,4.8,2.1,4.8h40.1c1.2,0,2.1-1,2.1-2.1
			c-1.1-109.7-89.9-198.5-199.6-199.6c-1.2,0-2.1,0.9-2.1,2.1v40.6c0,2.1-3.2,3.2-5,2.1c-2.6-1.7-5.8-2.7-9.1-2.7
			c-9.3,0-16.8,7.5-16.8,16.8s7.5,16.8,16.8,16.8c3.4,0,6.5-1,9.1-2.7c1.8-1.1,5,0,5,2.1v42.5l0,0
			C437.3,180.4,474.5,216.9,475.6,262.3z"/>
	</g>
</g>
<g id="pick_145hls4xcfwgf-stroke">
	<g>
		<path class="st4" d="M284.3,137.4c0,3.5,2.8,6.3,6.3,6.3s6.3-2.8,6.3-6.3s-2.8-6.3-6.3-6.3S284.3,133.9,284.3,137.4 M303.2,156.3
			c-1.5-5.7-6.7-9.7-12.6-9.7s-11.1,4-12.6,9.7H303.2z M264.6,176.6c0,3.5,2.8,6.3,6.3,6.3s6.3-2.8,6.3-6.3s-2.8-6.3-6.3-6.3
			S264.6,173.1,264.6,176.6 M283.6,195.5c-1.5-5.7-6.7-9.7-12.6-9.7s-11.1,4-12.6,9.7H283.6z M303.9,176.6c0,3.5,2.8,6.3,6.3,6.3
			s6.3-2.8,6.3-6.3s-2.8-6.3-6.3-6.3C306.7,170.3,303.9,173.1,303.9,176.6 M322.8,195.5c-1.5-5.7-6.7-9.7-12.6-9.7s-11.1,4-12.6,9.7
			H322.8z M299,182.7c-5.4,2.2-11.4,2.2-16.8,0 M303.2,143.4c7,4.7,10.7,13,9.6,21.3 M277.9,143.4c-7,4.7-10.7,13-9.6,21.3"/>
	</g>
</g>
<g id="pipe_1lvir9gxc1urz-stroke">
	<g>
		<path class="st4" d="M463.7,150.9c2-9.8,10.6-16.8,20.6-16.8h12.6 M496.9,176.1h-12.6c-11.1,0-20.2-8.6-21-19.6 M508.1,190.1v-6.8
			c0-3.4-2.3-6.3-5.6-7 M502.5,162.2c11.1,0.8,19.6,10,19.6,21.1v6.8 M477.4,156.5c0.7,3.3,3.5,5.6,6.9,5.6h12.6 M496.9,148.1h-12.6
			c-2.2,0-4.3,1-5.6,2.8 M502.5,148.1c0,1.5-1.3,2.8-2.8,2.8s-2.8-1.3-2.8-2.8v-14c0-1.5,1.3-2.8,2.8-2.8s2.8,1.3,2.8,2.8V148.1z
			 M502.5,176.1c0,1.5-1.3,2.8-2.8,2.8s-2.8-1.3-2.8-2.8v-14c0-1.5,1.3-2.8,2.8-2.8s2.8,1.3,2.8,2.8V176.1z M508.1,195.7
			c-1.5,0-2.8-1.3-2.8-2.8s1.3-2.8,2.8-2.8h14c1.5,0,2.8,1.3,2.8,2.8s-1.3,2.8-2.8,2.8H508.1z M481.4,153.7c0,1.5-1.3,2.8-2.8,2.8
			h-15.4c-1.5,0-2.8-1.3-2.8-2.8s1.3-2.8,2.8-2.8h15.4C480.2,150.9,481.4,152.1,481.4,153.7z"/>
	</g>
</g>
<g id="robo_djtj7oxbxp1q-stroke">
	<g>
		<path class="st4" d="M320.3,364.3c0-1-0.1-2-0.2-3l3.1-3.7c1.5-1.8,1.7-4.3,0.5-6.3l-1.3-2.2c-1.2-2-3.4-3.1-5.7-2.7l-4.7,0.8
			c-1.6-1.2-3.3-2.2-5.2-3l-1.7-4.5c-0.8-2.2-2.9-3.6-5.2-3.6h-2.5c-2.3,0-4.4,1.4-5.2,3.6l-1.7,4.5c-1.9,0.8-3.6,1.8-5.2,3
			l-4.7-0.8c-2.3-0.4-4.6,0.7-5.7,2.7l-1.3,2.2c-1.2,2-0.9,4.5,0.5,6.3l3,3.7c-0.1,1-0.2,2-0.2,3l0,0c0,1,0.1,2,0.2,3l-3,3.7
			c-1.5,1.8-1.7,4.3-0.5,6.3l1.3,2.2c1.2,2,3.4,3.1,5.7,2.7l4.6-0.8c1.6,1.3,3.4,2.3,5.3,3.1l1.6,4.4c0.8,2.2,2.9,3.6,5.2,3.6h2.5
			c1.2,0,2.3-0.4,3.3-1.1 M288.4,364.3c0,5.7,4.6,10.3,10.3,10.3c5.7,0,10.3-4.6,10.3-10.3c0-5.7-4.6-10.3-10.3-10.3
			S288.4,358.6,288.4,364.3L288.4,364.3z M316.7,379.4h12.1c0,0,5.5,0,5.5,5.5v7c0,0,0,5.5-5.5,5.5h-12.1c0,0-5.5,0-5.5-5.5v-7
			C311.2,384.9,311.2,379.4,316.7,379.4 M322.8,372.3v7.1 M319,386.8v3.2 M326.6,386.8v3.2"/>
	</g>
</g>
<g id="open_dj724kxchamg-stroke">
	<g>
		<path class="st4" d="M527.9,332.1c-0.1-0.5-0.5-0.9-1-1s-1,0-1.3,0.4l-4.1,4.1c-0.2,0.2-0.5,0.4-0.8,0.4l-4.4,0.5
			c-0.4,0-0.8-0.1-1.1-0.4c-0.3-0.3-0.4-0.7-0.4-1.1l0.5-4.4c0-0.3,0.2-0.6,0.4-0.8l4.1-4.1c0.3-0.4,0.5-0.9,0.4-1.3
			c-0.1-0.4-0.5-0.8-1-1c-1-0.3-2.1-0.4-3.2-0.5l0,0c-6.9,0-12.4,5.6-12.4,12.4c0,6.9,5.6,12.4,12.4,12.4c6.9,0,12.4-5.6,12.4-12.4
			C528.4,334.2,528.2,333.1,527.9,332.1z M471.2,374l-7,7 M504.7,340.6l-7,7 M477.2,374.1c-0.8,0.8-1.8,1.2-3,1.2s-2.2-0.4-3-1.2
			l-3.5-3.5c-0.8-0.8-1.2-1.8-1.2-3s0.4-2.2,1.2-3c0.8-0.8,1.9-1.2,3-1.2s2.2,0.4,2.9,1.2l3.5,3.5c0.8,0.8,1.2,1.8,1.2,3
			S478,373.3,477.2,374.1z M471.2,362.2c-1.6-1.6-1.5-4.2,0.1-5.8c1.6-1.6,4.2-1.6,5.8-0.1l6.1,6.1c0.8,0.8,1.2,1.8,1.2,2.9
			s-0.4,2.2-1.2,3c-1.7,1.6-4.2,1.6-5.9,0L471.2,362.2z M489,362.3c-0.8,0.8-1.8,1.2-3,1.2c-1.1,0-2.2-0.4-3-1.2l-6.1-6.1
			c-0.8-0.8-1.2-1.8-1.2-3s0.4-2.2,1.2-3c0.8-0.8,1.8-1.2,2.9-1.2s2.2,0.4,3,1.2l6.1,6.1c0.8,0.8,1.2,1.8,1.2,3
			S489.8,361.5,489,362.3z M493.5,353.8v0.4c0,0.8-0.4,1.5-1.1,1.8c-1.6,0.7-3.4,0.3-4.7-0.8l-3.4-3.5c-0.8-0.8-1.2-1.8-1.2-2.9
			s0.4-2.2,1.2-3c1.7-1.6,4.2-1.6,5.9,0l3.3,3.4l0.1,0.1 M483.5,385.6l-5.8-5.8 M471.7,385.6l27-26.6l-4.7-4.7
			c-1.5-1.6-1.5-4.1,0-5.7s4.1-1.6,5.7,0l5.7,5.7c4.2,4.2,4.2,11,0,15.2l-0.9,0.9c-3.1,3.1-3.1,8.2,0,11.4l3.5,3.9 M504.3,353.3
			l6.6-6.6"/>
	</g>
</g>
<g>
	<circle class="st1" cx="373.3" cy="246.6" r="5.1"/>
	<circle class="st1" cx="373.3" cy="263.2" r="5.1"/>
	<circle class="st1" cx="373.3" cy="279.9" r="5.1"/>
	<circle class="st1" cx="390.7" cy="246.6" r="5.1"/>
	<circle class="st1" cx="390.7" cy="263.2" r="5.1"/>
	<circle class="st1" cx="390.7" cy="279.9" r="5.1"/>
	<circle class="st1" cx="408.1" cy="246.6" r="5.1"/>
	<circle class="st1" cx="408.1" cy="263.2" r="5.1"/>
	<circle class="st1" cx="408.1" cy="279.9" r="5.1"/>
</g>
</svg>
