<?xml version="1.0" encoding="utf-8"?>
<svg version="1.1" id="Layer_1" xmlns="http://www.w3.org/2000/svg" xmlns:xlink="http://www.w3.org/1999/xlink" x="0px" y="0px"
	 viewBox="0 0 595.3 595.3" style="enable-background:new 0 0 595.3 595.3;" xml:space="preserve">
<style type="text/css">
	.st0{fill:#43AEC5;}
</style>
<g>
	<path class="st0" d="M26.5,117.6c2.5,0,4.4,0,6.2,0c94.3,0,188.6-0.1,282.9,0c72.1,0.1,133.2,26.3,182.4,78.9
		c34.9,37.4,55.7,81.8,62.6,132.7c3.6,26.5,1.9,53.1,2.2,79.7c0,0.3-0.2,0.6-0.5,1.5c-4.4,0-9.1,0-13.8,0c-11.5,0-23,0.1-34.5-0.1
		c-2.9,0-4.4,0.6-5.6,3.5c-10.7,24.7-29.4,39.9-55.8,44.3c-20.7,3.4-40-1.4-56.7-14.6c-10-7.9-17.4-17.6-22.2-29.4
		c-1.2-3.1-2.9-3.7-6-3.7c-39.2,0.1-78.4,0.1-117.6,0c-3.2,0-5.1,1.2-7.1,3.5c-28.1,33-63.9,48.3-107,44.5
		c-53.2-4.7-98-46.3-107.4-98.9c-1.4-8-2-16.2-2-24.4c-0.2-70.8-0.1-141.7-0.1-212.5C26.5,121.1,26.5,119.7,26.5,117.6z
		 M221.4,337.2c0-40.4-32.9-73.4-73.2-73.3c-40.3,0.1-72.7,32.7-72.8,73.1c-0.1,40.4,32.3,73,72.6,73.3
		C188.3,410.6,221.4,377.6,221.4,337.2z M367.9,288.2c42.7,0,84.9,0,127.6,0c-2.3-4.8-4-9.4-6.6-13.4c-6.8-10.7-14.1-21.2-21-31.8
		c-1.8-2.7-3.9-3.5-7.1-3.5c-29.4,0.1-58.9,0.1-88.3,0.1c-1.5,0-3,0-4.6,0C367.9,256.1,367.9,271.9,367.9,288.2z"/>
</g>
</svg>
