<?xml version="1.0" encoding="utf-8"?>
<!-- Generator: Adobe Illustrator 25.0.1, SVG Export Plug-In . SVG Version: 6.00 Build 0)  -->
<svg version="1.1" id="Layer_1" xmlns="http://www.w3.org/2000/svg" xmlns:xlink="http://www.w3.org/1999/xlink" x="0px" y="0px"
	 viewBox="0 0 311.8 290.5" style="enable-background:new 0 0 311.8 290.5;" xml:space="preserve">
<style type="text/css">
	.st0{fill:#182744;}
</style>
<path class="st0" d="M12.6,145.6h38.7v2.4H12.6V145.6z M12.6,102c1.4,1.7,3.5,2.7,5.8,2.6c4.2,0,6.4-2.2,6.4-6.5V86.6H14.5v3.3h6.2
	v8.4c0,1.9-0.9,2.9-2.5,2.9c-1.4-0.1-2.6-0.8-3.3-1.9L12.6,102 M41.6,104.3h4.3L38,86.6h-4l-7.9,17.7h4.2l1.6-3.8h8.2L41.6,104.3z
	 M33.2,97.4l2.8-6.8l2.8,6.8H33.2z M41.3,81.6h-4.2l-3.4,3.6h3.1L41.3,81.6z M63.3,104.3l-4-5.7c2.3-0.9,3.8-3.2,3.7-5.6
	c0-4-3-6.4-7.7-6.4h-7.6v17.7h4.1v-4.9h3.8l3.4,4.9H63.3z M55.1,90c2.5,0,3.8,1.1,3.8,3.1s-1.3,3.1-3.8,3.1h-3.3V90H55.1
	 M86.1,104.3V86.6h-3.4l-6.5,11l-6.6-11h-3.3v17.7h3.8V93.9l5.2,8.5h1.8l5.1-8.7v10.6H86.1z M90.2,96.6c0,5.2,3,8.1,8,8.1
	s8-2.9,8-8.1v-9.9h-4v9.7c0,3.4-1.4,4.8-3.9,4.8s-4-1.4-4-4.7v-9.7h-4.1V96.6 M94.2,85.2h2.9l2.6-3.6H96L94.2,85.2z M99.3,85.2h2.9
	l2.6-3.6h-3.7L99.3,85.2z M110.2,104.3h4.1V86.6h-4.1V104.3z M133.8,93c0-4-3-6.4-7.7-6.4h-7.6v17.7h4.1v-4.8h3.5
	C130.9,99.4,133.8,97,133.8,93 M129.7,93c0,1.9-1.3,3.1-3.8,3.1h-3.3V90h3.3C128.4,90,129.7,91.1,129.7,93 M149,104.3h4.3l-7.9-17.7
	h-4l-7.9,17.7h4.2l1.6-3.8h8.2L149,104.3z M140.6,97.4l2.8-6.8l2.8,6.8H140.6z M170.8,104.3l-4-5.7c2.3-0.9,3.8-3.2,3.7-5.7
	c0-4-3-6.4-7.7-6.4h-7.6v17.7h4.1v-4.9h3.8l3.4,4.9L170.8,104.3z M162.6,90c2.5,0,3.7,1.1,3.7,3s-1.3,3.1-3.8,3.1h-3.2V90H162.6
	 M173.7,104.3h4.1V86.6h-4.1V104.3z M25.3,134.6h2.2l-8.2-9.7l7.6-8h-2.1l-10.4,10.7v-10.7h-1.9v17.7h1.9V130l3.6-3.7L25.3,134.6z
	 M30.2,127c0,5.1,2.8,7.7,7.3,7.7s7.2-2.6,7.2-7.7v-10.1h-1.8v10c0,4.2-2,6.1-5.4,6.1s-5.4-1.9-5.4-6.1v-10h-1.9L30.2,127
	 M53.4,134.5h1.9v-16h6.2v-1.6H47.2v1.6h6.2V134.5z M76.7,134.5h2l-8.1-17.7h-1.8l-8.1,17.7h1.9l2.1-4.7h9.8L76.7,134.5z
	 M65.4,128.3l4.2-9.5l4.2,9.5H65.4z M84.2,134.5h1.9v-16h6.3v-1.6H78.1v1.6h6.2L84.2,134.5z M93.4,125.7c0,5.2,3.9,9,9.3,9
	c5,0,9-4,9-9c0-5-4-9-9-9C97.3,116.7,93.4,120.5,93.4,125.7 M110.1,125.7c0.1,4.1-3.2,7.5-7.3,7.5c-4.1,0.1-7.5-3.2-7.5-7.3
	c-0.1-4.1,3.2-7.5,7.3-7.5h0.1c3.9-0.1,7.3,3,7.4,6.9C110.1,125.4,110.1,125.6,110.1,125.7 M101.1,115.4h1.8l4.1-3.1h-2.4
	L101.1,115.4z M128.9,134.5h2.2l-8.2-9.7l7.6-8h-2.1L118,127.5v-10.6h-1.9v17.7h1.9V130l3.6-3.7L128.9,134.5z M131.9,125.7
	c0,5.2,3.9,9,9.3,9c5,0,9-4,9-9c0-5-4-9-9-9C135.8,116.7,131.9,120.5,131.9,125.7 M148.6,125.7c0.1,4.1-3.2,7.5-7.3,7.5
	c-4.1,0.1-7.5-3.2-7.5-7.3c-0.1-4.1,3.2-7.5,7.3-7.5h0.1c3.9-0.1,7.3,3,7.4,6.9C148.6,125.4,148.6,125.6,148.6,125.7 M137.9,113.8
	c0,0.6,0.5,1.1,1,1.1l0,0c0.6,0,1.1-0.5,1.1-1.1l0,0c0-0.6-0.5-1.1-1.1-1.1C138.4,112.7,137.9,113.2,137.9,113.8L137.9,113.8
	 M142.4,113.8c0,0.6,0.5,1.1,1.1,1.1s1.1-0.5,1.1-1.1s-0.5-1.1-1.1-1.1l0,0C142.8,112.7,142.4,113.2,142.4,113.8 M155.2,133
	l11.7-14.8V117h-14v1.6h11.5l-11.7,14.8v1.3h14.5V133H155.2z M184.6,123c0-3.8-2.7-6.1-7.2-6.1h-6.6v17.7h1.9V129h4.7
	C181.9,129,184.6,126.7,184.6,123 M182.8,123c0,2.8-1.9,4.4-5.4,4.4h-4.7v-8.8h4.7C180.9,118.6,182.8,120.2,182.8,123 M187.4,125.8
	c0,5.2,3.9,9,9.3,9c5,0,9-4,9-9c0-5-4-9-9-9l0,0C191.3,116.8,187.4,120.6,187.4,125.8 M204,125.8c0.1,4.1-3.2,7.5-7.3,7.5
	c-4.1,0.1-7.5-3.2-7.5-7.3c-0.1-4.1,3.2-7.5,7.3-7.5h0.1c4-0.1,7.3,3,7.4,6.9C204.1,125.5,204.1,125.6,204,125.8 M223,116.9v14.3
	l-11.4-14.3h-1.5v17.7h1.9v-14.4l11.3,14.3h1.5v-17.7L223,116.9z M234.1,134.6h1.9v-16h6.2V117h-14.3v1.6h6.2L234.1,134.6
	L234.1,134.6z M28.1,159l-5.4,12.6L17.3,159h-4.4l7.6,17.7h4l7.7-17.7H28.1z M37.7,173.4v-4.1h8.2v-3.2h-8.2v-3.8H47V159H33.7v17.7
	h13.6v-3.3H37.7z M62.7,159v7h-8v-7h-4.1v17.7h4.1v-7.2h8v7.2h4.1V159H62.7z M71,176.7h4.1V159H71V176.7z M78.1,167.8
	c0,5.3,4.1,9.1,9.6,9.1c2.8,0.1,5.5-1,7.3-3.1l-2.6-2.4c-1.1,1.3-2.7,2.1-4.4,2.1c-3.1,0-5.6-2.5-5.6-5.6s2.5-5.7,5.6-5.7
	c1.7,0,3.3,0.7,4.4,2.1l2.6-2.4c-1.8-2.1-4.5-3.2-7.3-3.1C82.2,158.7,78.1,162.5,78.1,167.8 M97.7,176.7h12.9v-3.3h-8.9V159h-4.1
	L97.7,176.7L97.7,176.7z M117,173.4v-4.1h8.2v-3.2H117v-3.8h9.3V159H113v17.7h13.7v-3.3H117z M26.8,206.9l-4.3-6.1
	c2.5-0.7,4.1-3,4-5.6c0-3.8-2.7-6.1-7.2-6.1h-6.6v17.6h1.9v-5.6h4.8c0.5,0,0.9,0,1.4-0.1l4,5.7L26.8,206.9z M24.6,195.3
	c0,2.8-1.9,4.4-5.4,4.4h-4.7v-8.8h4.7C22.7,190.9,24.6,192.5,24.6,195.3 M32.8,205.3v-6.6h9.1v-1.6h-9.1v-6.3H43v-1.6H30.9v17.6
	h12.5v-1.6L32.8,205.3z M46.1,204.8c1.8,1.6,4.2,2.4,6.6,2.3c4.5,0,6.6-2.2,6.6-4.8c0-6.4-10.9-3.5-10.9-8.4c0-1.8,1.4-3.2,4.7-3.2
	c1.7,0,3.4,0.5,4.9,1.5l0.6-1.5c-1.6-1-3.5-1.6-5.5-1.6c-4.5,0-6.5,2.2-6.5,4.8c0,6.5,10.9,3.6,10.9,8.4c0,1.7-1.4,3.1-4.7,3.1
	c-2.1,0-4.2-0.7-5.8-2.1L46.1,204.8 M65.2,205.3v-6.6h9.1v-1.6h-9.1v-6.3h10.2v-1.6H63.3v17.6h12.5v-1.6L65.2,205.3z M93.4,206.9h2
	l-8.1-17.6h-1.9l-8.1,17.6h2l2.1-4.7h9.8L93.4,206.9z M82.1,200.7l4.2-9.5l4.2,9.5H82.1z M112.3,206.9l-4.3-6.1c2.5-0.7,4.1-3,4-5.6
	c0-3.8-2.7-6.1-7.2-6.1h-6.6v17.6h1.9v-5.6h4.7c0.5,0,0.9,0,1.4-0.1l4,5.7L112.3,206.9z M110.2,195.3c0,2.8-1.9,4.4-5.4,4.4h-4.7
	v-8.9h4.7C108.3,190.9,110.2,192.5,110.2,195.3 M114.9,198.1c-0.1,4.9,3.8,8.9,8.7,9c0.2,0,0.3,0,0.5,0c2.4,0.1,4.8-0.9,6.5-2.6
	l-1.2-1.2c-1.4,1.4-3.3,2.2-5.2,2.1c-4,0.1-7.4-3-7.6-7s3-7.4,7-7.6c0.2,0,0.4,0,0.5,0c2-0.1,3.8,0.7,5.2,2.1l1.2-1.2
	c-1.7-1.7-4-2.7-6.5-2.6C118.8,189.2,114.9,193,114.9,198.1 M147.5,189.3v7.9h-11v-7.9h-1.9V207h1.9v-8.2h11v8.1h1.8v-17.7
	L147.5,189.3z M160.1,198.2c-0.1,4.9,3.8,8.9,8.7,9c0.2,0,0.3,0,0.5,0c2.4,0.1,4.8-0.9,6.5-2.6l-1.2-1.2c-1.4,1.4-3.3,2.2-5.2,2.1
	c-4,0.1-7.4-3-7.6-7s3-7.4,7-7.6c0.2,0,0.4,0,0.5,0c2-0.1,3.8,0.7,5.2,2.1l1.2-1.2c-1.7-1.7-4-2.7-6.5-2.6
	C164.1,189.2,160.1,193,160.1,198.2 M181.7,205.4v-6.6h9.1v-1.6h-9.1v-6.4h10.2v-1.6h-12.1v17.6h12.5v-1.6L181.7,205.4z
	 M209.6,189.4v14.3l-11.3-14.4h-1.5v17.6h1.9v-14.3l11.4,14.3h1.5v-17.7L209.6,189.4z M220.6,207.1h1.9v-16h6.2v-1.6h-14.2v1.6h6.2
	L220.6,207.1z M233.6,205.5v-6.6h9.1v-1.6h-9.1v-6.4h10.2v-1.6h-12v17.6h12.5v-1.6L233.6,205.5z M262.7,207.1l-4.4-6.1
	c2.5-0.7,4.1-3,4-5.6c0-3.8-2.7-6.1-7.2-6.1h-6.6v17.6h1.9v-5.6h4.7c0.5,0,0.9,0,1.4-0.1l4,5.7L262.7,207.1z M260.5,195.5
	c0,2.8-1.9,4.4-5.4,4.4h-4.6v-9h4.7c3.5,0,5.4,1.6,5.4,4.4 M139.2,159h4.1v17.6h-4.1V159z M163.6,159v17.6h-3.3l-8.8-10.7v10.7h-4
	V159h3.4l8.8,10.7V159H163.6z M167.8,159h8c1.9,0,3.6,0.4,5.1,1.1c1.5,0.7,2.6,1.8,3.4,3.1s1.2,2.9,1.2,4.6c0,1.8-0.4,3.3-1.2,4.6
	s-2,2.4-3.4,3.1c-1.5,0.7-3.2,1.1-5.1,1.1h-8V159z M175.6,173.3c1.8,0,3.2-0.5,4.2-1.5s1.6-2.3,1.6-4s-0.5-3-1.6-4
	c-1-1-2.5-1.5-4.2-1.5h-3.7v10.9h3.7V173.3z M190.6,174.9c-1.4-1.4-2.1-3.4-2.1-6V159h4.1v9.7c0,3.2,1.3,4.7,3.9,4.7
	c1.3,0,2.2-0.4,2.9-1.1c0.7-0.8,1-2,1-3.6V159h4v9.9c0,2.6-0.7,4.6-2.1,6s-3.4,2.1-5.9,2.1S192,176.2,190.6,174.9z M210.2,176.4
	c-1.3-0.4-2.3-0.9-3.1-1.5l1.4-3.1c0.8,0.6,1.7,1,2.7,1.3s2.1,0.5,3.1,0.5c1.2,0,2-0.2,2.6-0.5s0.8-0.8,0.8-1.4c0-0.4-0.2-0.8-0.5-1
	c-0.3-0.3-0.7-0.5-1.3-0.7s-1.2-0.4-2.1-0.6c-1.3-0.3-2.4-0.6-3.3-1c-0.9-0.3-1.6-0.8-2.2-1.5s-0.9-1.6-0.9-2.8c0-1,0.3-2,0.8-2.8
	s1.4-1.5,2.5-2s2.5-0.7,4.1-0.7c1.1,0,2.2,0.1,3.3,0.4s2,0.7,2.8,1.2l-1.3,3.1c-1.6-0.9-3.3-1.4-4.9-1.4c-1.1,0-2,0.2-2.5,0.6
	c-0.5,0.4-0.8,0.9-0.8,1.5s0.3,1.1,0.9,1.3c0.6,0.3,1.6,0.6,2.9,0.9c1.3,0.3,2.4,0.6,3.3,1c0.9,0.3,1.6,0.8,2.2,1.5s0.9,1.6,0.9,2.8
	c0,1-0.3,1.9-0.8,2.8s-1.4,1.5-2.5,2s-2.5,0.7-4.1,0.7C212.8,176.9,211.5,176.8,210.2,176.4z M227.9,162.3h-5.6V159h15.4v3.3h-5.6
	v14.3H228L227.9,162.3L227.9,162.3z M251.1,176.6l-3.4-4.9h-0.2h-3.6v4.9h-4.1V159h7.6c1.6,0,2.9,0.3,4.1,0.8c1.2,0.5,2,1.3,2.7,2.2
	s0.9,2.1,0.9,3.4s-0.3,2.4-0.9,3.4c-0.6,0.9-1.5,1.7-2.7,2.2l4,5.7L251.1,176.6L251.1,176.6z M250,163.1c-0.6-0.5-1.6-0.8-2.8-0.8
	h-3.3v6.1h3.3c1.2,0,2.2-0.3,2.8-0.8s1-1.3,1-2.3C251,164.4,250.7,163.7,250,163.1z M266.5,170.4v6.2h-4.1v-6.3l-6.8-11.3h4.3
	l4.7,7.8l4.7-7.8h4L266.5,170.4z"/>
</svg>
