<?xml version="1.0" encoding="utf-8"?>
<!-- Generator: Adobe Illustrator 25.0.1, SVG Export Plug-In . SVG Version: 6.00 Build 0)  -->
<svg version="1.1" id="Layer_1" xmlns="http://www.w3.org/2000/svg" xmlns:xlink="http://www.w3.org/1999/xlink" x="0px" y="0px"
	 viewBox="0 0 311.8 290.5" style="enable-background:new 0 0 311.8 290.5;" xml:space="preserve">
<style type="text/css">
	.st0{fill:#182744;}
</style>
<path id="sze_logo_2_" class="st0" d="M16.1,97.1c3.5,0,6.9,1.2,10.1,3.7l4.3-6.1c-1.9-1.6-4.1-2.8-6.6-3.7c-2.5-0.9-5-1.3-7.5-1.3
	c-3.8,0-7,1-9.6,2.9c-2.6,1.9-3.9,4.7-3.9,8.3c0,3.6,1,6.2,3,7.9c2,1.7,5.2,3,9.6,4.1c2.8,0.7,4.6,1.4,5.5,2
	c0.9,0.7,1.4,1.6,1.4,2.7c0,1.1-0.4,2-1.3,2.7c-0.9,0.7-2.1,1-3.6,1c-3.4,0-7.2-1.8-11.3-5.3l-5,6.1c4.8,4.4,10.1,6.6,16.1,6.6
	c4.1,0,7.5-1.1,10-3.2c2.5-2.1,3.8-4.8,3.8-8.2c0-3.4-1-5.9-3-7.7c-2-1.8-4.7-3.1-8.3-4c-3.6-0.9-5.9-1.6-6.8-2.3
	c-1-0.6-1.5-1.5-1.5-2.6c0-1.1,0.4-2,1.2-2.6C13.6,97.4,14.7,97.1,16.1,97.1z M67.7,128.2v-7.3h-20l19.7-24.5v-5.8H36.9v7.3h19.1
	l-19.7,24.6v5.8H67.7z M75,90.6v37.6h27.7v-7.4H83.4V113h16.9v-7.2H83.4v-7.8h18.7v-7.5H75z M99.2,80.7l-8.3-3.5L84,86.7h7.7
	L99.2,80.7z M119.9,117.6c-2.1-2.1-3.2-4.9-3.2-8.4c0-3.5,1.1-6.3,3.4-8.3c2.2-2.1,4.9-3.1,8.1-3.1c3.9,0,7.3,1.7,9.9,5l5.2-5.9
	c-4.2-4.7-9.3-7.1-15.5-7.1c-5.5,0-10.2,1.9-14,5.6c-3.8,3.7-5.7,8.4-5.7,14c0,5.6,1.9,10.2,5.6,13.9c3.8,3.7,8.5,5.5,14.3,5.5
	c5.8,0,10.8-2.4,15.1-7.2l-5.4-5.5c-2.6,3.3-6,4.9-10.1,4.9C124.5,120.8,122,119.7,119.9,117.6z M173.1,106.3h-15V90.6h-8.4v37.6
	h8.4v-14.8h15v14.8h8.4V90.6h-8.4V106.3z M190.7,90.6v37.6h27.7v-7.4h-19.3V113H216v-7.2h-16.9v-7.8h18.7v-7.5H190.7z M252.3,114.8
	l-18.5-24.2h-7.9v37.6h8.4v-23.6l17.9,23.6h8.4V90.6h-8.4V114.8z M286.1,113.4l13-22.8h-9.1l-8.1,14l-8.1-14h-9.1l13,22.8v14.9h8.4
	V113.4z M303.2,128.2h8.4V90.6h-8.4V128.2z M4,136.7v37.6h27.7v-7.4H12.4v-7.8h16.9V152H12.4v-7.8h18.7v-7.5H4z M64.3,165.5
	c-1.9,1.1-4.4,1.7-7.3,1.7c-2.9,0-5.4-1.1-7.5-3.2c-2.1-2.1-3.2-5-3.2-8.5s1.1-6.4,3.3-8.6c2.2-2.2,4.9-3.3,8.1-3.3
	c1.7,0,3.2,0.3,4.6,0.8c1.4,0.6,3,1.6,4.7,3l4.4-6.3c-4-3.6-8.7-5.3-14.1-5.3c-5.4,0-10,1.9-13.8,5.6c-3.8,3.7-5.7,8.4-5.7,14
	c0,5.6,1.9,10.2,5.6,13.9c3.8,3.7,8.4,5.5,13.9,5.5c6.6,0,11.8-2.1,15.5-6.2v-13.4h-8.5V165.5z M96.4,159.5l13-22.8h-9.1l-8.1,14
	l-8.1-14h-9.1l13,22.8v14.9h8.4V159.5z M114,136.7v37.6h27.7v-7.4h-19.3v-7.8h16.9V152h-16.9v-7.8h18.7v-7.5H114z M176.5,144v-7.3
	h-29.7v7.3h10.7v30.4h8.4V144H176.5z M183.2,136.7v37.6h27.7v-7.4h-19.3v-7.8h16.9V152h-16.9v-7.8h18.7v-7.5H183.2z M252.7,174.4
	h8.4v-37.6h-11.3l-9.7,20.7l-9.7-20.7H219v37.6h8.4v-23.7l10.1,20.6h5l10.2-20.6V174.4z M6.1,198.3v-9H3.4v9.2
	c0,2.4,0.6,4.2,1.9,5.4c1.3,1.3,3,1.9,5,1.9c2,0,3.7-0.6,5-1.9c1.3-1.3,1.9-3.1,1.9-5.4v-9.2h-2.8v9c0,1.5-0.4,2.7-1.1,3.6
	c-0.7,0.9-1.8,1.3-3,1.3c-1.3,0-2.3-0.4-3-1.3C6.5,201,6.1,199.8,6.1,198.3z M33.8,201.5l-9.5-12.2h-2.8v16.3h2.8v-11.9l9.3,11.9h3
	v-16.3h-2.8V201.5z M41.1,205.6h2.8v-16.3h-2.8V205.6z M62.4,189.3h-3.1l-5,12.2l-5-12.2h-3.1l6.6,16.3h3.1L62.4,189.3z M64.7,189.3
	v16.3h11.8V203h-9v-4.4h7.8v-2.5h-7.8v-4.3h8.7v-2.6H64.7z M91.5,190.5c-1.1-0.8-2.9-1.3-5.4-1.3H80v16.3h2.8v-5.5h3.6l3.9,5.5h3.5
	l-4.3-5.9c2.4-0.7,3.5-2.4,3.5-5.1C93.1,192.7,92.5,191.4,91.5,190.5z M86.2,197.6h-3.4v-5.8h3.5c1.5,0,2.5,0.2,3.1,0.6
	c0.6,0.4,0.9,1.1,0.9,2.2c0,1.1-0.3,1.8-0.8,2.3C88.9,197.4,87.8,197.6,86.2,197.6z M104.5,191.8c0.8,0.3,1.5,0.6,2,1.1l1.5-2.1
	c-0.7-0.6-1.6-1.1-2.7-1.5c-1-0.3-2.1-0.5-3.1-0.5c-1.6,0-3,0.4-4.1,1.2c-1.1,0.8-1.6,2-1.6,3.5s0.5,2.6,1.5,3.4
	c0.5,0.4,1,0.7,1.7,0.9c0.6,0.2,1.5,0.5,2.7,0.8c1.2,0.3,2,0.6,2.5,1c0.5,0.4,0.7,0.8,0.7,1.5c0,0.6-0.3,1.1-0.8,1.5
	c-0.5,0.4-1.2,0.6-2.1,0.6c-1.8,0-3.5-0.7-5.1-2.2l-1.7,2.1c2,1.8,4.2,2.6,6.8,2.6c1.7,0,3.2-0.4,4.2-1.3c1.1-0.9,1.6-2,1.6-3.5
	c0-1.4-0.4-2.5-1.3-3.2c-0.8-0.7-2.1-1.3-3.8-1.7c-1.7-0.4-2.8-0.8-3.3-1.1c-0.5-0.4-0.8-0.9-0.8-1.5s0.3-1.2,0.8-1.5
	c0.5-0.3,1.2-0.5,2-0.5C102.8,191.4,103.6,191.5,104.5,191.8z M111.8,205.6h2.8v-16.3h-2.8V205.6z M130.2,191.8v-2.5h-12.7v2.5h5
	v13.8h2.8v-13.8H130.2z M139.6,199.1l6.1-9.9h-3l-4.5,7.4l-4.5-7.4h-3l6.1,9.9v6.5h2.8V199.1z M170.4,197.3c0-2.4-0.8-4.4-2.5-6
	c-1.7-1.6-3.7-2.4-6.1-2.4c-2.4,0-4.5,0.8-6.1,2.4c-1.7,1.6-2.5,3.6-2.5,6s0.8,4.4,2.5,6c1.7,1.6,3.7,2.4,6.1,2.4
	c2.4,0,4.5-0.8,6.1-2.4C169.6,201.7,170.4,199.7,170.4,197.3z M167.5,197.3c0,1.6-0.6,3-1.7,4.2c-1.1,1.2-2.5,1.7-4.1,1.7
	c-1.6,0-3-0.6-4.1-1.7c-1.1-1.2-1.7-2.6-1.7-4.2c0-1.6,0.6-3,1.7-4.2c1.1-1.2,2.5-1.7,4.1-1.7c1.6,0,3,0.6,4.1,1.7
	C167,194.3,167.5,195.7,167.5,197.3z M184.7,191.8l0-2.6h-10.9v16.3h2.8v-6.7h7.2v-2.5h-7.2v-4.5H184.7z M205.7,202.1
	c-1,0.7-2.3,1-3.9,1c-1.6,0-2.9-0.5-4-1.6c-1.1-1.1-1.6-2.4-1.6-4.2c0-1.7,0.6-3.1,1.7-4.2c1.1-1.1,2.5-1.6,4.2-1.6
	c0.9,0,1.6,0.1,2.3,0.3c0.6,0.2,1.3,0.6,1.9,1.1l1.5-2.1c-1.6-1.4-3.5-2.1-5.9-2.1s-4.4,0.8-6,2.4c-1.7,1.6-2.5,3.6-2.5,6.1
	s0.8,4.4,2.4,6c1.6,1.6,3.7,2.4,6.1,2.4c2.9,0,5.1-0.9,6.6-2.5v-5.6h-2.8V202.1z M218.3,199.1l6.1-9.9h-3l-4.5,7.4l-4.5-7.4h-3
	l6.1,9.9v6.5h2.8V199.1z M242.6,197.3c0-2.4-0.8-4.4-2.5-6c-1.7-1.6-3.7-2.4-6.1-2.4c-2.4,0-4.5,0.8-6.1,2.4c-1.7,1.6-2.5,3.6-2.5,6
	s0.8,4.4,2.5,6c1.7,1.6,3.7,2.4,6.1,2.4c2.4,0,4.5-0.8,6.1-2.4C241.8,201.7,242.6,199.7,242.6,197.3z M239.8,197.3
	c0,1.6-0.6,3-1.7,4.2c-1.1,1.2-2.5,1.7-4.1,1.7c-1.6,0-3-0.6-4.1-1.7c-1.1-1.2-1.7-2.6-1.7-4.2c0-1.6,0.6-3,1.7-4.2
	c1.1-1.2,2.5-1.7,4.1-1.7c1.6,0,3,0.6,4.1,1.7C239.2,194.3,239.8,195.7,239.8,197.3z M257.5,190.5c-1.1-0.8-2.9-1.3-5.4-1.3h-6.1
	v16.3h2.8v-5.5h3.6l3.9,5.5h3.5l-4.3-5.9c2.4-0.7,3.5-2.4,3.5-5.1C259.1,192.7,258.6,191.4,257.5,190.5z M252.3,197.6h-3.4v-5.8h3.5
	c1.5,0,2.5,0.2,3.1,0.6c0.6,0.4,0.9,1.1,0.9,2.2c0,1.1-0.3,1.8-0.8,2.3C254.9,197.4,253.8,197.6,252.3,197.6z M310.7,205.3v-7.1
	c0-0.2-0.2-0.3-0.3-0.3h-38.5c-0.2,0-0.3,0.2-0.3,0.3v7.1c0,0.2,0.2,0.3,0.3,0.3h38.5C310.6,205.6,310.7,205.4,310.7,205.3z
	 M238,184.4l-1.9-0.9l-2.1,3.9h2L238,184.4z M234.4,184.3l-1.9-0.8l-2.1,3.9h2L234.4,184.3z"/>
</svg>
