<svg id="Layer_1" data-name="Layer 1" xmlns="http://www.w3.org/2000/svg" viewBox="0 0 704.56 678.42"><defs><style>.cls-1,.cls-2,.cls-4,.cls-5,.cls-6{fill:none;stroke-linecap:round;stroke-linejoin:round;}.cls-1,.cls-2,.cls-4{stroke:#e5e5de;}.cls-1,.cls-2{stroke-width:3px;}.cls-2{stroke-dasharray:9.82 9.82;}.cls-3{fill:#32aec5;}.cls-4,.cls-5,.cls-6{stroke-width:14px;}.cls-5{stroke:#32aec5;}.cls-6{stroke:#242943;}.cls-7{fill:#242943;}</style></defs><line class="cls-1" x1="521.74" y1="596.64" x2="521.74" y2="591.64"/><line class="cls-2" x1="521.74" y1="581.82" x2="521.74" y2="72.49"/><line class="cls-1" x1="521.74" y1="63.57" x2="521.74" y2="57.86"/><line class="cls-1" x1="485.2" y1="596.64" x2="485.2" y2="591.64"/><line class="cls-2" x1="485.2" y1="581.82" x2="485.2" y2="72.49"/><line class="cls-1" x1="485.2" y1="63.57" x2="485.2" y2="57.86"/><line class="cls-1" x1="448.65" y1="596.64" x2="448.65" y2="591.64"/><line class="cls-2" x1="448.65" y1="581.82" x2="448.65" y2="72.49"/><line class="cls-1" x1="448.65" y1="63.57" x2="448.65" y2="57.86"/><line class="cls-1" x1="412.11" y1="596.64" x2="412.11" y2="591.64"/><line class="cls-2" x1="412.11" y1="581.82" x2="412.11" y2="72.49"/><line class="cls-1" x1="412.11" y1="63.57" x2="412.11" y2="57.86"/><line class="cls-1" x1="375.57" y1="596.64" x2="375.57" y2="591.64"/><line class="cls-2" x1="375.57" y1="581.82" x2="375.57" y2="72.49"/><line class="cls-1" x1="375.57" y1="63.57" x2="375.57" y2="57.86"/><line class="cls-1" x1="339.02" y1="596.64" x2="339.02" y2="591.64"/><line class="cls-2" x1="339.02" y1="581.82" x2="339.02" y2="72.49"/><line class="cls-1" x1="339.02" y1="63.57" x2="339.02" y2="57.86"/><line class="cls-1" x1="302.48" y1="596.64" x2="302.48" y2="591.64"/><line class="cls-2" x1="302.48" y1="581.82" x2="302.48" y2="72.49"/><line class="cls-1" x1="302.48" y1="63.57" x2="302.48" y2="57.86"/><line class="cls-1" x1="265.94" y1="596.64" x2="265.94" y2="591.64"/><line class="cls-2" x1="265.94" y1="581.82" x2="265.94" y2="72.49"/><line class="cls-1" x1="265.94" y1="63.57" x2="265.94" y2="57.86"/><line class="cls-1" x1="229.4" y1="596.64" x2="229.4" y2="591.64"/><line class="cls-2" x1="229.4" y1="581.82" x2="229.4" y2="72.49"/><line class="cls-1" x1="229.4" y1="63.57" x2="229.4" y2="57.86"/><line class="cls-1" x1="192.85" y1="596.64" x2="192.85" y2="591.64"/><line class="cls-2" x1="192.85" y1="581.82" x2="192.85" y2="72.49"/><line class="cls-1" x1="192.85" y1="63.57" x2="192.85" y2="57.86"/><path class="cls-3" d="M69.2,154.66H68.05v-8.44H69.2Z"/><path class="cls-3" d="M74.41,149.51l-.54.94a1.55,1.55,0,0,0-.72-.22,1,1,0,0,0-.72.34A2.07,2.07,0,0,0,72,152v2.65H70.9v-5.3H72v.69a1.44,1.44,0,0,1,.46-.46,2.12,2.12,0,0,1,.72-.32,1.61,1.61,0,0,1,.31,0A1.86,1.86,0,0,1,74.41,149.51Z"/><path class="cls-3" d="M80.44,152a2.75,2.75,0,0,1-.79,2,2.46,2.46,0,0,1-1.84.83,3,3,0,0,1-2.13-.78,2.49,2.49,0,0,1-.84-1.9,2.78,2.78,0,0,1,.78-2,2.52,2.52,0,0,1,1.91-.83,2.92,2.92,0,0,1,2.14.78A2.56,2.56,0,0,1,80.44,152Zm-1,0a1.62,1.62,0,0,0-.53-1.22,1.67,1.67,0,0,0-1.2-.47,1.78,1.78,0,0,0-1.32.53,1.8,1.8,0,0,0-.51,1.26,1.68,1.68,0,0,0,.53,1.28,1.75,1.75,0,0,0,1.28.51,1.62,1.62,0,0,0,1.25-.55,2,2,0,0,0,.47-1.39Z"/><path class="cls-3" d="M86.12,154.66H85.05v-3.15c0-.88-.38-1.32-1.13-1.33a1.08,1.08,0,0,0-.87.39,1.39,1.39,0,0,0-.36,1v3.14H81.58v-5.3h1.08V150a2,2,0,0,1,1.62-.77,2.16,2.16,0,0,1,.62.09,1.61,1.61,0,0,1,1.22,1.77Z"/><path class="cls-3" d="M92.05,154.66H90.9v-8.44h1.15Z"/><path class="cls-3" d="M97.26,149.51l-.54.94a1.55,1.55,0,0,0-.72-.22.92.92,0,0,0-.72.34,2.07,2.07,0,0,0-.43,1.44v2.65h-1.1v-5.3h1.07v.69a1.41,1.41,0,0,1,.45-.46,2.12,2.12,0,0,1,.72-.32,1.61,1.61,0,0,1,.31,0A2,2,0,0,1,97.26,149.51Z"/><path class="cls-3" d="M106.53,149.36l-2.79,5.7-1.57-3.44-1.52,3.44-2.72-5.7h1.15l1.57,3.26,1.55-3.47,1.54,3.47,1.59-3.26Z"/><path class="cls-3" d="M109,147a.66.66,0,0,1-1.32,0h0a.69.69,0,0,1,.63-.7.7.7,0,0,1,.5.2A.66.66,0,0,1,109,147Zm-.1,7.68h-1.11v-5.3h1.11Z"/><path class="cls-3" d="M114.84,154.66h-1.08v-3.15c0-.88-.37-1.32-1.13-1.33a1.13,1.13,0,0,0-.87.39,1.43,1.43,0,0,0-.35,1v3.14H110.3v-5.3h1.07V150a2,2,0,0,1,1.63-.77,2.23,2.23,0,0,1,.63.09,1.61,1.61,0,0,1,1.22,1.77Z"/><path class="cls-3" d="M117.56,147a.66.66,0,0,1-.2.49.67.67,0,0,1-.9,0,.66.66,0,0,1-.22-.49.62.62,0,0,1,.18-.48.64.64,0,0,1,.9-.1l.1.1A.64.64,0,0,1,117.56,147Zm-.09,7.68h-1.11v-5.3h1.11Z"/><path class="cls-3" d="M36.31,221.35H35.14v-4.16h-4v4.16H30v-8.44h1.14v3.27h4v-3.27h1.17Z"/><path class="cls-3" d="M42.08,219.48a1.81,1.81,0,0,1-.71,1.48,2.47,2.47,0,0,1-3.23,0,2.26,2.26,0,0,1-.67-1.72v-3.15h1.14v3c0,1,.41,1.51,1.25,1.49S41,220,41,219.08v-3h1.09Z"/><path class="cls-3" d="M50.44,221.35H49.36v-3.42c0-.72-.32-1.06-1-1a1,1,0,0,0-.77.41,1.39,1.39,0,0,0-.26.86v3.18h-1.1v-3.54a.86.86,0,0,0-.79-.91h-.09a1,1,0,0,0-.76.33,1.11,1.11,0,0,0-.33.79v3.33h-1v-5.3h1.06v.59a1.79,1.79,0,0,1,2.89,0,2.15,2.15,0,0,1,1.62-.74,1.68,1.68,0,0,1,1.14.37,1.43,1.43,0,0,1,.52,1.17Z"/><path class="cls-3" d="M57.14,218.66a3,3,0,0,1-.61,1.93,2.36,2.36,0,0,1-1.82.9,2.17,2.17,0,0,1-1.09-.23,2.21,2.21,0,0,1-.7-.47v.56H51.77v-9.5h1.15v4.73a2.49,2.49,0,0,1,1.83-.7,2.23,2.23,0,0,1,1.77.87A3,3,0,0,1,57.14,218.66Zm-1.06,0a2,2,0,0,0-.41-1.26,1.47,1.47,0,0,0-1.18-.57,1.49,1.49,0,0,0-1.3.57,2.27,2.27,0,0,0-.42,1.4,1.7,1.7,0,0,0,.48,1.19,1.55,1.55,0,0,0,1.18.51,1.49,1.49,0,0,0,1.18-.55,1.93,1.93,0,0,0,.47-1.28Z"/><path class="cls-3" d="M59.47,221.35H58.34v-9.5h1.13Z"/><path class="cls-3" d="M66,219.88A2.9,2.9,0,0,1,65,221a2.51,2.51,0,0,1-1.51.5,2.66,2.66,0,0,1-2.1-.82,3,3,0,0,1-.62-2,2.9,2.9,0,0,1,.69-1.93,2.56,2.56,0,0,1,3.62-.18l.18.18a3,3,0,0,1,.69,2.16H61.9a1.58,1.58,0,0,0,1.49,1.65,1.56,1.56,0,0,0,1.11-.39,1.64,1.64,0,0,0,.6-.8ZM64.85,218a1.37,1.37,0,0,0-1.38-1.17A1.42,1.42,0,0,0,62,218Z"/><path class="cls-3" d="M76.57,221.35H75.39v-4.16h-4v4.16H70.27v-8.44H71.4v3.27h4v-3.27h1.18Z"/><path class="cls-3" d="M82.82,221.35h-1.1v-.59a2.3,2.3,0,0,1-.72.47,2.46,2.46,0,0,1-1.07.24,2.25,2.25,0,0,1-1.81-.85,3,3,0,0,1-.64-1.92,2.88,2.88,0,0,1,.63-1.93,2.26,2.26,0,0,1,1.79-.86,2.45,2.45,0,0,1,1.8.65v-.51h1.12Zm-.95-2.72a2,2,0,0,0-.49-1.28,1.56,1.56,0,0,0-2.2-.12,1.07,1.07,0,0,0-.18.19,2,2,0,0,0-.43,1.26A2,2,0,0,0,79,220a1.49,1.49,0,0,0,1.18.59,1.51,1.51,0,0,0,1.22-.58,2,2,0,0,0,.46-1.37Z"/><path class="cls-3" d="M92.59,216.05l-2.79,5.7-1.56-3.44-1.53,3.44L84,216.05h1.15l1.57,3.26,1.54-3.47,1.54,3.46,1.59-3.25Z"/><path class="cls-3" d="M98.5,221.35H97l-2-2.24v2.24H93.84v-9.5H95V218l1.93-1.9h1.46l-2.57,2.42Z"/><path class="cls-3" d="M102.81,219.78a1.69,1.69,0,0,1-.56,1.32,2,2,0,0,1-1.28.42,2.12,2.12,0,0,1-1.12-.35,1.71,1.71,0,0,1-.68-.68L100,220a1.33,1.33,0,0,0,1,.61.86.86,0,0,0,.53-.19.5.5,0,0,0,.27-.51,1.07,1.07,0,0,0-.71-.75c-.68-.32-1.06-.5-1.12-.54a1.4,1.4,0,0,1-.56-1.24,1.39,1.39,0,0,1,.4-.94,1.54,1.54,0,0,1,1.22-.52,2.19,2.19,0,0,1,1,.26,2.12,2.12,0,0,1,.6.47l-.73.59a1,1,0,0,0-.85-.39.67.67,0,0,0-.44.2.54.54,0,0,0-.14.45c0,.23.27.43.7.6a7,7,0,0,1,1.11.51A1.31,1.31,0,0,1,102.81,219.78Z"/><path class="cls-3" d="M109.51,218.66a3,3,0,0,1-.62,1.93,2.32,2.32,0,0,1-1.81.9,2.2,2.2,0,0,1-1.1-.23,2.17,2.17,0,0,1-.69-.47v.56h-1.15v-9.5h1.15v4.73a2.49,2.49,0,0,1,1.83-.7,2.23,2.23,0,0,1,1.77.87A3,3,0,0,1,109.51,218.66Zm-1.06,0a2,2,0,0,0-.45-1.24,1.63,1.63,0,0,0-2.3-.18,1.53,1.53,0,0,0-.18.18,2.27,2.27,0,0,0-.42,1.4,1.7,1.7,0,0,0,.48,1.19,1.55,1.55,0,0,0,1.18.51,1.49,1.49,0,0,0,1.18-.55,1.9,1.9,0,0,0,.51-1.3Z"/><path class="cls-3" d="M112,213.67a.65.65,0,0,1-.21.49.66.66,0,0,1-.93,0,.63.63,0,0,1-.18-.45.69.69,0,0,1,.17-.49.62.62,0,0,1,.46-.21.67.67,0,0,1,.69.67Zm-.1,7.68h-1.11v-5.3h1.11Z"/><path class="cls-3" d="M114.71,221.35h-1.13v-9.5h1.13Z"/><path class="cls-3" d="M117.49,221.35h-1.13v-9.5h1.13Z"/><path class="cls-3" d="M20.57,284.25A3.85,3.85,0,0,1,19.5,287a4,4,0,0,1-2.92,1.19,3.92,3.92,0,0,1-3-1.25,4.24,4.24,0,0,1-1.28-3,4.41,4.41,0,0,1,4.35-4.47h.09a4.75,4.75,0,0,1,1.89.4,4.34,4.34,0,0,1,1.48,1.21l-.83.74a3.12,3.12,0,0,0-2.57-1.28,3,3,0,0,0-2.37,1,3.47,3.47,0,0,0-.93,2.43,3,3,0,0,0,.9,2.22,3.23,3.23,0,0,0,2.29.95,2.78,2.78,0,0,0,1.88-.65,2.26,2.26,0,0,0,.84-1.72h-2v-1h3.2Z"/><path class="cls-3" d="M26.74,288h-1.1v-.61a2,2,0,0,1-.71.46,2.55,2.55,0,0,1-1.08.25,2.27,2.27,0,0,1-1.81-.85,3,3,0,0,1-.64-1.86,2.88,2.88,0,0,1,.6-2,2.23,2.23,0,0,1,1.79-.86,2.45,2.45,0,0,1,1.8.65v-.51h1.12Zm-.94-2.72a2,2,0,0,0-.5-1.27,1.52,1.52,0,0,0-1.19-.54,1.48,1.48,0,0,0-1.18.58,2,2,0,0,0-.43,1.26,2,2,0,0,0,.43,1.31,1.49,1.49,0,0,0,1.18.59,1.54,1.54,0,0,0,1.23-.58A2,2,0,0,0,25.8,285.31Z"/><path class="cls-3" d="M29.53,288H28.4v-9.49h1.13Z"/><path class="cls-3" d="M36,288H34.88v-.61a2,2,0,0,1-.71.46,2.47,2.47,0,0,1-1.07.25,2.25,2.25,0,0,1-1.81-.85,3,3,0,0,1-.65-1.93,2.9,2.9,0,0,1,.63-1.92,2.23,2.23,0,0,1,1.79-.86,2.45,2.45,0,0,1,1.8.65v-.51H36Zm-1-2.72a2,2,0,0,0-.5-1.27,1.52,1.52,0,0,0-1.19-.54,1.48,1.48,0,0,0-1.18.58,2.12,2.12,0,0,0,0,2.57,1.49,1.49,0,0,0,1.18.59,1.53,1.53,0,0,0,1.22-.58A2,2,0,0,0,35,285.31Z"/><path class="cls-3" d="M41.6,287.81a6.13,6.13,0,0,1-.8.33,4.11,4.11,0,0,1-.78.07,2.44,2.44,0,0,1-2-.82,2.81,2.81,0,0,1-.69-2,2.72,2.72,0,0,1,.8-2,2.66,2.66,0,0,1,2-.83,3,3,0,0,1,.9.14,1.5,1.5,0,0,1,.6.28v1.14a2.1,2.1,0,0,0-1.47-.53,1.55,1.55,0,0,0-1.23.52,1.7,1.7,0,0,0-.5,1.28,1.83,1.83,0,0,0,.45,1.21,1.62,1.62,0,0,0,1.22.53,2.2,2.2,0,0,0,1.53-.63Z"/><path class="cls-3" d="M45.31,283.7h-1v4.36h-1.1V283.7H42.7v-1h.54v-2h1.1v2h1Z"/><path class="cls-3" d="M48,280.36a.65.65,0,0,1-.21.49.68.68,0,0,1-.89,0,.64.64,0,0,1-.22-.49.67.67,0,0,1,.17-.49.65.65,0,0,1,.92-.08l.08.08A.62.62,0,0,1,48,280.36ZM47.9,288H46.81v-5.29h1.11Z"/><path class="cls-3" d="M53.56,287.81a5.73,5.73,0,0,1-.81.33,3.3,3.3,0,0,1-.77.07,2.41,2.41,0,0,1-2-.82,2.87,2.87,0,0,1-.7-2,2.68,2.68,0,0,1,.81-2,2.6,2.6,0,0,1,1.94-.83,3.09,3.09,0,0,1,.91.14,1.5,1.5,0,0,1,.6.28v1.14a2.2,2.2,0,0,0-1.47-.53,1.57,1.57,0,0,0-1.24.52,1.73,1.73,0,0,0-.49,1.28,1.83,1.83,0,0,0,.45,1.21,1.63,1.63,0,0,0,1.21.53,2.2,2.2,0,0,0,1.54-.63Z"/><path class="cls-3" d="M66.09,284.25A3.87,3.87,0,0,1,65,287a4,4,0,0,1-2.92,1.19,3.92,3.92,0,0,1-3-1.25,4.37,4.37,0,0,1,0-6.18h0a4.2,4.2,0,0,1,3.15-1.3,4.75,4.75,0,0,1,1.89.4,4.34,4.34,0,0,1,1.48,1.21l-.83.74a3.12,3.12,0,0,0-2.57-1.28,3,3,0,0,0-2.37,1A3.47,3.47,0,0,0,58.9,284a3,3,0,0,0,.9,2.22,3.23,3.23,0,0,0,2.29,1,2.82,2.82,0,0,0,1.91-.64,2.17,2.17,0,0,0,.83-1.72h-2v-1H66Z"/><path class="cls-3" d="M72.32,286.56a2.88,2.88,0,0,1-.95,1.15,2.5,2.5,0,0,1-1.51.49,2.71,2.71,0,0,1-2.1-.81,3,3,0,0,1-.62-2.05,2.9,2.9,0,0,1,.69-1.93,2.56,2.56,0,0,1,3.62-.18c.06,0,.12.12.18.18a3,3,0,0,1,.69,2.16H68.23a1.48,1.48,0,0,0,1.33,1.63h.2a1.53,1.53,0,0,0,1.08-.38,1.86,1.86,0,0,0,.6-.81Zm-1.15-1.83a1.47,1.47,0,0,0-2.89,0Z"/><path class="cls-3" d="M79,285.34a2.76,2.76,0,0,1-.78,2,2.47,2.47,0,0,1-1.85.84,3,3,0,0,1-2.13-.78,2.59,2.59,0,0,1-.83-1.9,2.81,2.81,0,0,1,.77-2,2.52,2.52,0,0,1,1.91-.83,2.92,2.92,0,0,1,2.14.78A2.54,2.54,0,0,1,79,285.34Zm-1,0a1.59,1.59,0,0,0-.53-1.22,1.64,1.64,0,0,0-1.2-.48,1.75,1.75,0,0,0-1.31.54,1.8,1.8,0,0,0,0,2.54,1.77,1.77,0,0,0,1.29.51,1.6,1.6,0,0,0,1.24-.55A1.94,1.94,0,0,0,78,285.3Z"/><path class="cls-3" d="M84.37,287.81a5.73,5.73,0,0,1-.81.33,3.43,3.43,0,0,1-.78.07,2.41,2.41,0,0,1-2-.82,2.78,2.78,0,0,1-.7-2,2.68,2.68,0,0,1,.81-2,2.6,2.6,0,0,1,1.94-.83,3.09,3.09,0,0,1,.91.14,1.5,1.5,0,0,1,.6.28v1.14a2.2,2.2,0,0,0-1.47-.53,1.57,1.57,0,0,0-1.24.52,1.73,1.73,0,0,0-.49,1.28,1.83,1.83,0,0,0,.45,1.21,1.6,1.6,0,0,0,1.21.53,2.2,2.2,0,0,0,1.54-.63Z"/><path class="cls-3" d="M90.06,288H88.94v-3.1c0-.9-.33-1.35-1-1.37a1.2,1.2,0,0,0-1,.42,1.47,1.47,0,0,0-.34,1v3H85.51v-9.49H86.6v4.7a1.2,1.2,0,0,1,.67-.52,2.29,2.29,0,0,1,1-.16c1.2.07,1.8.76,1.8,2.08Z"/><path class="cls-3" d="M96.35,286.56a2.77,2.77,0,0,1-.94,1.15,2.51,2.51,0,0,1-1.52.49,2.71,2.71,0,0,1-2.1-.81,3,3,0,0,1-.62-2.05,2.79,2.79,0,0,1,.7-1.93,2.35,2.35,0,0,1,1.9-.84,2.39,2.39,0,0,1,1.9.85,3,3,0,0,1,.68,2.16H92.26a1.48,1.48,0,0,0,1.33,1.63h.2a1.53,1.53,0,0,0,1.08-.38,1.86,1.86,0,0,0,.6-.81Zm-1.15-1.83a1.38,1.38,0,0,0-1.38-1.18,1.44,1.44,0,0,0-1.51,1.18Z"/><path class="cls-3" d="M98.85,288H97.72v-9.49h1.13Z"/><path class="cls-3" d="M105.8,285.34a2.76,2.76,0,0,1-.78,2,2.47,2.47,0,0,1-1.85.84,3,3,0,0,1-2.13-.78,2.49,2.49,0,0,1-.84-1.9,2.78,2.78,0,0,1,.78-2,2.47,2.47,0,0,1,1.91-.83,2.94,2.94,0,0,1,2.11.75A2.62,2.62,0,0,1,105.8,285.34Zm-1,0a1.59,1.59,0,0,0-.53-1.22,1.72,1.72,0,0,0-1.2-.48,1.81,1.81,0,0,0-1.83,1.79h0a1.68,1.68,0,0,0,.53,1.28,1.75,1.75,0,0,0,1.28.51,1.62,1.62,0,0,0,1.25-.55,1.94,1.94,0,0,0,.47-1.38Z"/><path class="cls-3" d="M111.48,288h-1.07v-3.15c0-.87-.38-1.31-1.13-1.33a1.08,1.08,0,0,0-.87.4,1.41,1.41,0,0,0-.36.94V288h-1.11v-5.29H108v.62a2,2,0,0,1,1.62-.76,2.28,2.28,0,0,1,.63.09,1.6,1.6,0,0,1,1.21,1.77Z"/><path class="cls-3" d="M117.78,286.56a2.77,2.77,0,0,1-.94,1.15,2.5,2.5,0,0,1-1.51.49,2.66,2.66,0,0,1-2.1-.81,3,3,0,0,1-.63-2.05,2.79,2.79,0,0,1,.7-1.93,2.37,2.37,0,0,1,1.91-.84,2.4,2.4,0,0,1,1.89.85,3,3,0,0,1,.68,2.16h-4.09a1.48,1.48,0,0,0,1.33,1.63h.21a1.5,1.5,0,0,0,1.07-.38,1.86,1.86,0,0,0,.6-.81Zm-1.15-1.83a1.38,1.38,0,0,0-1.38-1.18,1.4,1.4,0,0,0-1,.32,1.42,1.42,0,0,0-.51.86Z"/><path class="cls-3" d="M61.35,347.42H58.3v2.16h3v1h-3v4.17H57.11v-8.43h4.24Z"/><path class="cls-3" d="M67.82,352a2.75,2.75,0,0,1-.79,2,2.44,2.44,0,0,1-1.84.84,3,3,0,0,1-2.13-.79,2.49,2.49,0,0,1-.84-1.9,2.86,2.86,0,0,1,.78-2,2.52,2.52,0,0,1,1.91-.83,2.93,2.93,0,0,1,2.14.79A2.58,2.58,0,0,1,67.82,352Zm-1,0a1.59,1.59,0,0,0-.53-1.22,1.72,1.72,0,0,0-1.2-.48,1.79,1.79,0,0,0-1.83,1.8,1.68,1.68,0,0,0,.53,1.28,1.75,1.75,0,0,0,1.28.51,1.62,1.62,0,0,0,1.25-.55,1.94,1.94,0,0,0,.47-1.38Z"/><path class="cls-3" d="M73.4,354.72H72.11l-1.57-1.94L69,354.72H67.7L69.88,352l-2-2.52h1.33l1.31,1.65,1.33-1.66h1.28l-1.93,2.5Z"/><path class="cls-3" d="M79.71,349.42l-4,8.11H74.5l1.94-3.93-2.35-4.18h1.22l1.69,3,1.54-3Z"/><path class="cls-3" d="M88.3,347.42h-3v2.16h3v1h-3v4.17H84.1v-8.43h4.2Z"/><path class="cls-3" d="M90.76,347.05a.69.69,0,0,1-.21.49.66.66,0,0,1-.44.17.61.61,0,0,1-.45-.16.7.7,0,0,1,0-1,.57.57,0,0,1,.46-.21.61.61,0,0,1,.49.2A.65.65,0,0,1,90.76,347.05Zm-.1,7.67H89.55v-5.3h1.11Z"/><path class="cls-3" d="M94.66,350.42h-1v4.36h-1.1v-4.36H92v-1h.54v-2h1.1v2h1Z"/><path class="cls-3" d="M101.24,349.42l-3.58,4.32H101v1H95.54l3.52-4.32H96.21v-1Z"/><path class="cls-3" d="M105.9,349.57l-.53,1a1.41,1.41,0,0,0-.72-.22.94.94,0,0,0-.72.33,2,2,0,0,0-.43,1.44v2.65h-1.1v-5.35h1.07v.69a1.17,1.17,0,0,1,.45-.46,2.12,2.12,0,0,1,.72-.32H105A2,2,0,0,1,105.9,349.57Z"/><path class="cls-3" d="M111.93,352a2.76,2.76,0,0,1-.78,2,2.47,2.47,0,0,1-1.85.84,3,3,0,0,1-2.13-.79,2.5,2.5,0,0,1-.83-1.9,2.81,2.81,0,0,1,.77-2,2.52,2.52,0,0,1,1.91-.83,2.93,2.93,0,0,1,2.14.79A2.54,2.54,0,0,1,111.93,352Zm-1,0a1.59,1.59,0,0,0-.53-1.22,1.64,1.64,0,0,0-1.2-.48,1.8,1.8,0,0,0-1.3,3.08,1.75,1.75,0,0,0,1.28.51,1.62,1.62,0,0,0,1.25-.55,1.94,1.94,0,0,0,.47-1.38Z"/><path class="cls-3" d="M118,349.42l-4,8.11h-1.2l1.94-3.93-2.38-4.18h1.21l1.68,3,1.54-3Z"/><path class="cls-3" d="M47.05,421.42H42.61V413h4.46v1.12H43.71v2.16H47v1H43.71v3.06h3.34Z"/><path class="cls-3" d="M49.4,421.42H48.27v-9.5H49.4Z"/><path class="cls-3" d="M56.36,418.72a2.75,2.75,0,0,1-.79,2,2.44,2.44,0,0,1-1.84.84,3,3,0,0,1-2.13-.79,2.49,2.49,0,0,1-.84-1.9,2.86,2.86,0,0,1,.78-2,2.52,2.52,0,0,1,1.91-.83,2.93,2.93,0,0,1,2.14.79A2.58,2.58,0,0,1,56.36,418.72Zm-1,0a1.65,1.65,0,0,0-.56-1.3,1.71,1.71,0,0,0-1.21-.47,1.79,1.79,0,0,0-1.83,1.75v.05a1.69,1.69,0,0,0,.53,1.27,1.83,1.83,0,0,0,1.29.51,1.62,1.62,0,0,0,1.24-.54,1.92,1.92,0,0,0,.51-1.31Z"/><path class="cls-3" d="M62.53,424.22H61.48v-3.35a4,4,0,0,1-.9.55,3,3,0,0,1-.93.13,2.22,2.22,0,0,1-1.78-.85,3,3,0,0,1-.64-1.91,2.92,2.92,0,0,1,.68-2,2.22,2.22,0,0,1,1.78-.85,2.35,2.35,0,0,1,1.71.73v-.59h1.13Zm-1-5.37a1.93,1.93,0,0,0-.4-1.31,1.5,1.5,0,0,0-1.24-.59,1.36,1.36,0,0,0-1.16.57,2,2,0,0,0-.41,1.3,2,2,0,0,0,.43,1.26,1.32,1.32,0,0,0,1.11.53c1,0,1.59-.62,1.64-1.76Z"/><path class="cls-3" d="M68.53,419.55a1.85,1.85,0,0,1-.72,1.48,2.35,2.35,0,0,1-1.62.57,2.18,2.18,0,0,1-2.28-2.09,1,1,0,0,1,0-.24v-3.15h1.14v3c0,1,.42,1.51,1.25,1.49s1.13-.5,1.13-1.44v-3h1.1Z"/><path class="cls-3" d="M74.84,419.94a2.77,2.77,0,0,1-.94,1.15,2.51,2.51,0,0,1-1.52.49,2.64,2.64,0,0,1-2.09-.81,3,3,0,0,1-.63-2,2.93,2.93,0,0,1,.7-1.94,2.57,2.57,0,0,1,3.63-.17l.17.17a3,3,0,0,1,.68,2.15H70.75a1.49,1.49,0,0,0,1.32,1.64h.21a1.53,1.53,0,0,0,1.08-.38,1.75,1.75,0,0,0,.64-.78Zm-1.15-1.84a1.37,1.37,0,0,0-1.38-1.17,1.49,1.49,0,0,0-1,.31,1.42,1.42,0,0,0-.51.86Z"/><path class="cls-3" d="M80.46,421.42H79.39v-3.15c0-.87-.38-1.31-1.13-1.33a1.08,1.08,0,0,0-.87.4,1.41,1.41,0,0,0-.36.94v3.14H75.92v-5.3H77v.62a2,2,0,0,1,1.62-.76,2.72,2.72,0,0,1,.63.08,1.61,1.61,0,0,1,1.21,1.77Z"/><path class="cls-3" d="M84.22,417.08h-1v4.34h-1.1v-4.36h-.53v-1h.53v-2h1.1v2h1Z"/><path class="cls-3" d="M93.28,421.42H88.83V413H93.3v1.12H89.94v2.16h3.29v1H89.94v3.06h3.34Z"/><path class="cls-3" d="M95.63,421.42H94.5v-9.5h1.13Z"/><path class="cls-3" d="M101.6,419.55a1.89,1.89,0,0,1-.71,1.48,2.51,2.51,0,0,1-3.23,0,2.26,2.26,0,0,1-.67-1.72v-3.15h1.14v3c0,1,.41,1.51,1.25,1.49s1.13-.5,1.13-1.44v-3h1.09Z"/><path class="cls-3" d="M106.4,419.84a1.67,1.67,0,0,1-.57,1.32,2.06,2.06,0,0,1-2.39.07,1.69,1.69,0,0,1-.68-.67l.78-.53a1.3,1.3,0,0,0,1,.61.85.85,0,0,0,.53-.18.51.51,0,0,0,.27-.52,1.11,1.11,0,0,0-.71-.75c-.68-.31-1.06-.49-1.12-.53a1.46,1.46,0,0,1-.51-1.24,1.39,1.39,0,0,1,.4-.94,1.5,1.5,0,0,1,1.22-.51,2.18,2.18,0,0,1,1,.25,2.12,2.12,0,0,1,.6.47l-.73.6a1,1,0,0,0-.85-.4.73.73,0,0,0-.44.21.48.48,0,0,0-.14.44c0,.23.27.43.7.6a9.26,9.26,0,0,1,1.11.51A1.35,1.35,0,0,1,106.4,419.84Z"/><path class="cls-3" d="M113.1,418.72a2.75,2.75,0,0,1-.79,2,2.44,2.44,0,0,1-1.84.84,3,3,0,0,1-2.13-.79,2.49,2.49,0,0,1-.84-1.9,2.86,2.86,0,0,1,.78-2,2.52,2.52,0,0,1,1.91-.83,2.93,2.93,0,0,1,2.14.79A2.58,2.58,0,0,1,113.1,418.72Zm-1,0a1.64,1.64,0,0,0-.53-1.23,1.71,1.71,0,0,0-1.2-.47,1.79,1.79,0,0,0-1.83,1.75v.05a1.66,1.66,0,0,0,.53,1.27,1.75,1.75,0,0,0,1.28.51,1.64,1.64,0,0,0,1.25-.54,2,2,0,0,0,.47-1.38Z"/><path class="cls-3" d="M118,416.26l-.54,1a1.41,1.41,0,0,0-.72-.22.94.94,0,0,0-.72.33,2.13,2.13,0,0,0-.42,1.44v2.61h-1.11v-5.3h1.07v.68a1.24,1.24,0,0,1,.46-.45,2,2,0,0,1,.71-.32h.32A2.08,2.08,0,0,1,118,416.26Z"/><path class="cls-3" d="M28,483.91a3.91,3.91,0,0,1-1.31,3,4.5,4.5,0,0,1-3.18,1.21H21.46v-8.44h2.06a4.53,4.53,0,0,1,3.38,1.22A4.08,4.08,0,0,1,28,483.91Zm-1.07-.06a3,3,0,0,0-.92-2.26,3.62,3.62,0,0,0-2.61-.89h-.79v6.39h.92a3.42,3.42,0,0,0,2.4-.86,2.91,2.91,0,0,0,1-2.38Z"/><path class="cls-3" d="M34,488.1H32.9v-.59a1.88,1.88,0,0,1-.71.47,2.47,2.47,0,0,1-1.07.25,2.23,2.23,0,0,1-1.81-.86,3,3,0,0,1-.65-1.92,2.9,2.9,0,0,1,.63-1.92,2.23,2.23,0,0,1,1.79-.86,2.36,2.36,0,0,1,1.8.65v-.51H34Zm-.94-2.68a1.88,1.88,0,0,0-.5-1.27,1.55,1.55,0,0,0-2.17-.2l-.2.2a2,2,0,0,0-.43,1.27,1.92,1.92,0,0,0,.44,1.3,1.45,1.45,0,0,0,1.18.6,1.49,1.49,0,0,0,1.22-.59A2,2,0,0,0,33.06,485.42Z"/><path class="cls-3" d="M39,486.53a1.67,1.67,0,0,1-.57,1.32,2,2,0,0,1-1.27.42,2,2,0,0,1-1.12-.35,1.69,1.69,0,0,1-.68-.67l.78-.53a1.3,1.3,0,0,0,1,.61.85.85,0,0,0,.53-.18.5.5,0,0,0,.26-.52c0-.31-.28-.56-.7-.75a11.53,11.53,0,0,1-1.12-.54,1.4,1.4,0,0,1-.56-1.24,1.39,1.39,0,0,1,.4-.94,1.54,1.54,0,0,1,1.22-.52,2.19,2.19,0,0,1,1,.26,2.12,2.12,0,0,1,.6.47L38,484a1,1,0,0,0-.85-.4.68.68,0,0,0-.44.21.48.48,0,0,0-.14.44q.06.34.69.6a11.3,11.3,0,0,1,1.12.51A1.36,1.36,0,0,1,39,486.53Z"/><path class="cls-3" d="M44.71,488.1H43.59V485c0-.9-.33-1.36-1-1.37a1.25,1.25,0,0,0-1,.41,1.52,1.52,0,0,0-.34,1v3h-1.1v-9.5h1.1v4.7a1.22,1.22,0,0,1,.67-.51,2.3,2.3,0,0,1,1-.17c1.2.07,1.8.77,1.8,2.08Z"/><path class="cls-3" d="M47.43,480.42a.65.65,0,0,1-.64.66h0a.62.62,0,0,1-.45-.16.72.72,0,0,1-.22-.5.62.62,0,0,1,.18-.48.67.67,0,0,1,.46-.22.7.7,0,0,1,.49.2A.63.63,0,0,1,47.43,480.42Zm-.1,7.67H46.22V482.8h1.11Z"/><path class="cls-3" d="M53.26,488.1H52.19V485c0-.87-.38-1.32-1.13-1.33a1.08,1.08,0,0,0-.87.4,1.41,1.41,0,0,0-.36.94v3.14h-1.1v-5.29H49.8v.61a2,2,0,0,1,1.62-.76,2.72,2.72,0,0,1,.63.08,1.61,1.61,0,0,1,1.21,1.77Z"/><path class="cls-3" d="M59.54,488.58a2.59,2.59,0,0,1-.82,1.92,2.48,2.48,0,0,1-1.94.74,3.05,3.05,0,0,1-1.62-.57,1.77,1.77,0,0,1-.72-1.45h1.11A1.3,1.3,0,0,0,56,490a1.51,1.51,0,0,0,.8.22,1.33,1.33,0,0,0,1.23-.51,2.38,2.38,0,0,0,.42-1.49v-.67c-.43.26-.7.42-.81.47a2.22,2.22,0,0,1-2.78-.68,3.07,3.07,0,0,1,0-3.88,2.24,2.24,0,0,1,1.76-.85,2.38,2.38,0,0,1,1.8.73v-.56h1.07Zm-.95-3.09a1.93,1.93,0,0,0-.42-1.29,1.57,1.57,0,0,0-1.25-.58,1.45,1.45,0,0,0-1.19.54,2,2,0,0,0-.45,1.27,1.88,1.88,0,0,0,.43,1.29,1.44,1.44,0,0,0,1.14.6,1.6,1.6,0,0,0,1.25-.55A2,2,0,0,0,58.59,485.49Z"/><path class="cls-3" d="M70.94,483.91a3.85,3.85,0,0,1-1.32,3,4.5,4.5,0,0,1-3.17,1.21H64.39v-8.44h2.06a4.57,4.57,0,0,1,3.38,1.22A4.13,4.13,0,0,1,70.94,483.91Zm-1.07-.06a3,3,0,0,0-.92-2.26,3.63,3.63,0,0,0-2.62-.89h-.79v6.39h.93a3.42,3.42,0,0,0,2.4-.86A3,3,0,0,0,69.87,483.85Z"/><path class="cls-3" d="M73.42,480.42a.65.65,0,0,1-.64.66h0a.6.6,0,0,1-.44-.16.69.69,0,0,1,.42-1.2.7.7,0,0,1,.49.2A.66.66,0,0,1,73.42,480.42Zm-.1,7.67H72.21V482.8h1.11Z"/><path class="cls-3" d="M79.8,488.1H78.7v-.59A2.15,2.15,0,0,1,78,488a2.55,2.55,0,0,1-1.08.25,2.28,2.28,0,0,1-1.81-.81,3,3,0,0,1-.64-1.92,2.9,2.9,0,0,1,.63-1.92,2.23,2.23,0,0,1,1.79-.86,2.4,2.4,0,0,1,1.8.65v-.51H79.8Zm-.94-2.68a1.93,1.93,0,0,0-.5-1.27,1.54,1.54,0,0,0-2.37,0,2,2,0,0,0-.43,1.27,1.93,1.93,0,0,0,.43,1.3,1.48,1.48,0,0,0,1.18.6,1.55,1.55,0,0,0,1.23-.59A2,2,0,0,0,78.86,485.42Z"/><path class="cls-3" d="M86.31,488.1H85.15v-.56a2.17,2.17,0,0,1-.69.47,2.21,2.21,0,0,1-1.1.24,2.33,2.33,0,0,1-1.81-.91,3.29,3.29,0,0,1,0-3.83,2.17,2.17,0,0,1,1.76-.87,2.45,2.45,0,0,1,1.83.7V478.6h1.16Zm-1-2.61a2,2,0,0,0-.5-1.39,1.57,1.57,0,0,0-1.22-.42,1.45,1.45,0,0,0-1.17.57,2,2,0,0,0-.41,1.26,1.92,1.92,0,0,0,.47,1.29,1.54,1.54,0,0,0,2.17.19l.19-.19A1.9,1.9,0,0,0,85.31,485.49Z"/><path class="cls-3" d="M92.83,486.63a2.82,2.82,0,0,1-1,1.14,2.51,2.51,0,0,1-1.51.5,2.66,2.66,0,0,1-2.1-.81,3,3,0,0,1-.62-2,2.92,2.92,0,0,1,.69-1.94,2.41,2.41,0,0,1,1.91-.83,2.37,2.37,0,0,1,1.89.85,3,3,0,0,1,.69,2.15h-4.1A1.49,1.49,0,0,0,90,487.28h.22a1.61,1.61,0,0,0,1.07-.38,1.86,1.86,0,0,0,.6-.81Zm-1.16-1.84a1.38,1.38,0,0,0-1.37-1.17,1.39,1.39,0,0,0-1,.31,1.46,1.46,0,0,0-.5.86Z"/><path class="cls-3" d="M101.09,488.1H100v-3.42c0-.72-.32-1.06-1-1a1,1,0,0,0-.77.4,1.39,1.39,0,0,0-.26.86v3.18h-1.1v-3.54a.9.9,0,0,0-.22-.63.86.86,0,0,0-.66-.27,1,1,0,0,0-.76.32,1.09,1.09,0,0,0-.32.8v3.32h-1v-5.29h1.06v.59a1.78,1.78,0,0,1,2.89,0,2.11,2.11,0,0,1,1.62-.75,1.81,1.81,0,0,1,1.14.37,1.43,1.43,0,0,1,.52,1.17Z"/><path class="cls-3" d="M107.29,488.1h-1.1v-.59a2.3,2.3,0,0,1-.72.47,2.47,2.47,0,0,1-1.07.25,2.28,2.28,0,0,1-1.81-.86,3,3,0,0,1-.59-1.95,2.9,2.9,0,0,1,.63-1.92,2.2,2.2,0,0,1,1.78-.86,2.42,2.42,0,0,1,1.81.65v-.51h1.12Zm-1-2.72a1.92,1.92,0,0,0-.49-1.27,1.55,1.55,0,0,0-2.18-.2l-.2.2a2.13,2.13,0,0,0-.42,1.31,1.92,1.92,0,0,0,.44,1.3,1.51,1.51,0,0,0,2.4,0,1.89,1.89,0,0,0,.5-1.31Z"/><path class="cls-3" d="M111.27,483.77h-1v4.36h-1.1v-4.36h-.54v-1h.54v-2h1.1v2h1Z"/><path class="cls-3" d="M117.49,488.1h-1.11v-.59a1.88,1.88,0,0,1-.71.47,2.47,2.47,0,0,1-1.07.25,2.23,2.23,0,0,1-1.81-.86,3,3,0,0,1-.65-1.92,2.9,2.9,0,0,1,.63-1.92,2.23,2.23,0,0,1,1.79-.86,2.36,2.36,0,0,1,1.8.65v-.51h1.13Zm-.95-2.72a1.88,1.88,0,0,0-.5-1.27,1.55,1.55,0,0,0-2.17-.2l-.2.2a2,2,0,0,0-.43,1.27,1.92,1.92,0,0,0,.44,1.3,1.45,1.45,0,0,0,1.18.6,1.49,1.49,0,0,0,1.22-.59,2,2,0,0,0,.46-1.27Z"/><path class="cls-3" d="M41.53,548.1a3.88,3.88,0,0,0-2.17-.79,3.3,3.3,0,0,0-2.34.93,3.06,3.06,0,0,0-1,2.39,3.36,3.36,0,0,0,.82,2.29,3.29,3.29,0,0,0,2.4,1,3.25,3.25,0,0,0,2.24-.85v1.35a2.9,2.9,0,0,1-.93.38,5.09,5.09,0,0,1-1.4.2A4.1,4.1,0,0,1,36,553.69a4.3,4.3,0,0,1-1.12-3.06,4.24,4.24,0,0,1,1.29-3.1,4.1,4.1,0,0,1,3.08-1.26,5.16,5.16,0,0,1,2.21.59Z"/><path class="cls-3" d="M46.4,549.64l-.54.94a1.54,1.54,0,0,0-.72-.21,1,1,0,0,0-.72.33,2.13,2.13,0,0,0-.42,1.44v2.65H42.9V549.5H44v.68a1.24,1.24,0,0,1,.46-.45,2.14,2.14,0,0,1,.72-.33h.31A1.82,1.82,0,0,1,46.4,549.64Z"/><path class="cls-3" d="M52.7,549.5l-4,8.11H47.5l2-3.94-2.35-4.17h1.21l1.69,3,1.54-3Z"/><path class="cls-3" d="M57.21,553.22a1.69,1.69,0,0,1-.56,1.32,2.07,2.07,0,0,1-2.4.07,1.71,1.71,0,0,1-.68-.68l.78-.52a1.33,1.33,0,0,0,1,.61.86.86,0,0,0,.53-.19.51.51,0,0,0,.26-.51,1.07,1.07,0,0,0-.71-.75L54.31,552a1.4,1.4,0,0,1-.56-1.24,1.39,1.39,0,0,1,.4-.94,1.54,1.54,0,0,1,1.22-.52,2.19,2.19,0,0,1,1,.26,2.12,2.12,0,0,1,.6.47l-.73.59a1,1,0,0,0-.85-.39.73.73,0,0,0-.44.21.45.45,0,0,0-.13.44q0,.35.69.6a5.58,5.58,0,0,1,1.11.51A1.3,1.3,0,0,1,57.21,553.22Z"/><path class="cls-3" d="M60.93,550.42H60v4.36H58.9v-4.36h-.54v-1h.54v-2H60v2h1Z"/><path class="cls-3" d="M67.15,554.79H66v-.59a1.88,1.88,0,0,1-.71.47,2.47,2.47,0,0,1-1.07.25,2.23,2.23,0,0,1-1.81-.86,3,3,0,0,1-.64-1.92,2.91,2.91,0,0,1,.62-1.92,2.27,2.27,0,0,1,1.79-.87A2.45,2.45,0,0,1,66,550v-.5h1.13Zm-1-2.72a1.92,1.92,0,0,0-.49-1.27,1.55,1.55,0,0,0-2.18-.2l-.2.2a2,2,0,0,0-.43,1.27,1.92,1.92,0,0,0,.44,1.3,1.51,1.51,0,0,0,1.18.6,1.49,1.49,0,0,0,1.22-.59,2,2,0,0,0,.51-1.31Z"/><path class="cls-3" d="M69.94,554.79H68.81v-9.5h1.13Z"/><path class="cls-3" d="M81.07,548.1a3.88,3.88,0,0,0-2.17-.79,3.3,3.3,0,0,0-2.34.93,3.06,3.06,0,0,0-1,2.39,3.1,3.1,0,0,0,3.21,3.29,3.25,3.25,0,0,0,2.24-.85v1.35a2.76,2.76,0,0,1-.92.38,5.16,5.16,0,0,1-1.41.2,4.1,4.1,0,0,1-3.14-1.31,4.3,4.3,0,0,1-1.12-3.06,4.24,4.24,0,0,1,1.29-3.1,4.1,4.1,0,0,1,3.08-1.26,5.16,5.16,0,0,1,2.21.59Z"/><path class="cls-3" d="M83.61,554.79H82.48v-9.5h1.13Z"/><path class="cls-3" d="M90.13,553.32a2.85,2.85,0,0,1-.95,1.14,2.51,2.51,0,0,1-1.51.5,2.71,2.71,0,0,1-2.1-.81,3,3,0,0,1-.62-2,2.92,2.92,0,0,1,.69-1.94,2.58,2.58,0,0,1,3.65-.15l.15.15a3,3,0,0,1,.69,2.16H86A1.49,1.49,0,0,0,87.32,554h.21a1.56,1.56,0,0,0,1.07-.39,1.64,1.64,0,0,0,.6-.8ZM89,551.48a1.48,1.48,0,0,0-1.74-1.14,1.5,1.5,0,0,0-.6.28,1.42,1.42,0,0,0-.51.86Z"/><path class="cls-3" d="M98.39,554.79H97.31v-3.37c0-.72-.32-1.06-1-1a1,1,0,0,0-.78.41,1.39,1.39,0,0,0-.26.86v3.18h-1.1v-3.54a.86.86,0,0,0-.79-.91h-.09a1,1,0,0,0-.76.33,1.06,1.06,0,0,0-.32.79v3.33h-1v-5.29h1.06v.58a1.78,1.78,0,0,1,2.88,0,2.15,2.15,0,0,1,1.62-.74,1.68,1.68,0,0,1,1.14.37,1.42,1.42,0,0,1,.52,1.17Z"/><path class="cls-3" d="M106.69,554.79h-1.07v-3.37c0-.72-.33-1.06-1-1a1,1,0,0,0-.78.41,1.45,1.45,0,0,0-.25.86v3.18h-1.11v-3.54a.84.84,0,0,0-.77-.91h-.11a1,1,0,0,0-.76.33,1.12,1.12,0,0,0-.32.79v3.33h-1v-5.29h1.06v.58a1.78,1.78,0,0,1,2.88,0,2.16,2.16,0,0,1,1.63-.74,1.71,1.71,0,0,1,1.13.37,1.42,1.42,0,0,1,.52,1.17Z"/><path class="cls-3" d="M113.23,549.5l-4,8.11H108l1.94-3.94-2.34-4.17h1.21l1.68,3,1.54-3Z"/><path class="cls-3" d="M117.75,553.22a1.7,1.7,0,0,1-.57,1.32,2,2,0,0,1-1.27.42,2,2,0,0,1-1.12-.35,1.71,1.71,0,0,1-.68-.68l.78-.52a1.3,1.3,0,0,0,1,.61.86.86,0,0,0,.53-.19.47.47,0,0,0,.26-.51c0-.31-.28-.56-.7-.75-.69-.32-1.06-.49-1.12-.54a1.4,1.4,0,0,1-.56-1.24,1.39,1.39,0,0,1,.4-.94,1.54,1.54,0,0,1,1.22-.52,2.19,2.19,0,0,1,1,.26,2.12,2.12,0,0,1,.6.47l-.73.59a1,1,0,0,0-.85-.39.68.68,0,0,0-.44.21.48.48,0,0,0-.14.44q.06.35.69.6a7.54,7.54,0,0,1,1.12.51A1.36,1.36,0,0,1,117.75,553.22Z"/><path class="cls-3" d="M166.76,629.25v-.92l1.18-1.15c2.84-2.7,4.12-4.13,4.13-5.8a2,2,0,0,0-1.81-2.18,1.7,1.7,0,0,0-.39,0,3.76,3.76,0,0,0-2.36.94l-.47-1.06a4.81,4.81,0,0,1,3.14-1.13,3.13,3.13,0,0,1,3.39,2.84c0,.13,0,.26,0,.39,0,2-1.49,3.7-3.83,6l-.89.82h5v1.25Z"/><path class="cls-3" d="M182.9,623.48c0,3.77-1.4,5.86-3.86,5.86-2.17,0-3.64-2-3.67-5.71s1.6-5.77,3.86-5.77S182.9,620,182.9,623.48Zm-6,.17c0,2.89.89,4.53,2.25,4.53,1.54,0,2.27-1.8,2.27-4.63s-.7-4.53-2.25-4.53c-1.34,0-2.3,1.61-2.3,4.63Z"/><path class="cls-3" d="M187.54,619.49h0l-1.93,1-.29-1.14,2.43-1.3H189v11.1h-1.45Z"/><path class="cls-3" d="M192.9,626.35a3.15,3.15,0,0,1,2.2-3h0a2.74,2.74,0,0,1-1.76-2.49,3.15,3.15,0,0,1,3.44-3c2.15,0,3.22,1.35,3.22,2.73a2.83,2.83,0,0,1-1.82,2.6v0a3.08,3.08,0,0,1,2.23,2.87c0,1.93-1.65,3.23-3.77,3.23C194.3,629.35,192.9,628,192.9,626.35Zm6-.07c0-1.35-.94-2-2.44-2.42a2.41,2.41,0,0,0-2,2.29,2.06,2.06,0,0,0,2,2.12h.22a2,2,0,0,0,2.18-1.8.41.41,0,0,0,0-.11Zm-4.13-5.55c0,1.11.84,1.71,2.12,2a2.18,2.18,0,0,0,1.69-2,1.72,1.72,0,0,0-1.64-1.81h-.24a1.76,1.76,0,0,0-1.95,1.55,1.93,1.93,0,0,0,0,.24Z"/><path class="cls-3" d="M223.15,619.49h0l-1.93,1-.29-1.14,2.43-1.3h1.28v11.1h-1.45Z"/><path class="cls-3" d="M617,628.1a8.15,8.15,0,0,0,1.21,0,4.23,4.23,0,0,0,2.33-1.08,4.88,4.88,0,0,0,1.47-2.95H622a3.25,3.25,0,0,1-2.61,1.19,3.21,3.21,0,0,1-3.28-3.14v-.25a3.83,3.83,0,0,1,3.62-4h.17c2.27,0,3.68,1.85,3.68,4.68a7,7,0,0,1-1.92,5.21,5.49,5.49,0,0,1-3.22,1.48,6.46,6.46,0,0,1-1.39.09Zm.55-6.39a2.15,2.15,0,0,0,1.91,2.35h.22a2.5,2.5,0,0,0,2.19-1.16,1,1,0,0,0,.14-.55c0-1.89-.71-3.34-2.28-3.34-1.24,0-2.18,1.12-2.18,2.69Z"/><path class="cls-3" d="M228.42,627.62a6.12,6.12,0,0,0,1.21,0,4.13,4.13,0,0,0,2.33-1.08,4.93,4.93,0,0,0,1.47-2.95h-.06a3.26,3.26,0,0,1-2.61,1.19,3.21,3.21,0,0,1-3.29-3.13,2.26,2.26,0,0,1,0-.26,3.8,3.8,0,0,1,3.61-4h.18c2.27,0,3.68,1.85,3.68,4.68a7,7,0,0,1-1.92,5.21,5.46,5.46,0,0,1-3.22,1.48,6.5,6.5,0,0,1-1.39.09Zm.55-6.39a2.14,2.14,0,0,0,1.91,2.35h.22a2.5,2.5,0,0,0,2.19-1.16,1.12,1.12,0,0,0,.14-.55c0-1.89-.71-3.34-2.28-3.34-1.24,0-2.18,1.12-2.18,2.69Z"/><path class="cls-3" d="M255.49,629.25v-.92l1.18-1.15c2.83-2.7,4.12-4.13,4.13-5.8A2,2,0,0,0,259,619.2a1.7,1.7,0,0,0-.39,0,3.76,3.76,0,0,0-2.36.94l-.47-1.06a4.81,4.81,0,0,1,3.14-1.13,3.12,3.12,0,0,1,3.38,2.83,2.67,2.67,0,0,1,0,.4c0,2-1.48,3.7-3.82,6l-.89.82h5v1.25Z"/><path class="cls-3" d="M271.62,623.48c0,3.77-1.4,5.86-3.85,5.86-2.17,0-3.64-2-3.68-5.71s1.61-5.77,3.86-5.77S271.62,620,271.62,623.48Zm-6,.17c0,2.89.89,4.53,2.25,4.53,1.54,0,2.27-1.8,2.27-4.63s-.7-4.53-2.25-4.53c-1.34,0-2.29,1.61-2.29,4.63Z"/><path class="cls-3" d="M291.1,629.25v-.92l1.18-1.15c2.83-2.7,4.11-4.13,4.13-5.8a2,2,0,0,0-1.81-2.18,1.7,1.7,0,0,0-.39,0,3.74,3.74,0,0,0-2.36.94l-.48-1.06a4.81,4.81,0,0,1,3.14-1.13,3.13,3.13,0,0,1,3.39,2.84c0,.13,0,.26,0,.39,0,2-1.48,3.7-3.82,6l-.89.82h5v1.25Z"/><path class="cls-3" d="M303.12,619.49h0l-1.93,1-.29-1.14,2.43-1.3h1.28v11.1h-1.45Z"/><path class="cls-3" d="M326.71,629.25v-.92l1.17-1.15c2.84-2.7,4.12-4.13,4.14-5.8a2,2,0,0,0-1.81-2.18,1.79,1.79,0,0,0-.4,0,3.72,3.72,0,0,0-2.35.94l-.48-1.06a4.81,4.81,0,0,1,3.14-1.13,3.13,3.13,0,0,1,3.39,2.84c0,.13,0,.26,0,.39,0,2-1.49,3.7-3.82,6l-.89.82h5v1.25Z"/><path class="cls-3" d="M335.46,629.25v-.92l1.18-1.15c2.84-2.7,4.12-4.13,4.13-5.8A2,2,0,0,0,339,619.2a1.7,1.7,0,0,0-.39,0,3.76,3.76,0,0,0-2.36.94l-.47-1.06a4.81,4.81,0,0,1,3.14-1.13,3.13,3.13,0,0,1,3.39,2.84c0,.13,0,.26,0,.39,0,2-1.49,3.7-3.83,6l-.89.82h5v1.25Z"/><path class="cls-3" d="M365.93,629.25v-.92l1.18-1.15c2.84-2.7,4.12-4.13,4.13-5.8a2,2,0,0,0-1.81-2.18,1.7,1.7,0,0,0-.39,0,3.76,3.76,0,0,0-2.36.94l-.47-1.06a4.81,4.81,0,0,1,3.14-1.13,3.13,3.13,0,0,1,3.39,2.84c0,.13,0,.26,0,.39,0,2-1.49,3.7-3.83,6L368,628h5v1.25Z"/><path class="cls-3" d="M375.05,627.44a4.84,4.84,0,0,0,2.46.7c1.93,0,2.52-1.23,2.51-2.15,0-1.55-1.42-2.22-2.87-2.22h-.84v-1.12h.84c1.09,0,2.47-.57,2.47-1.88,0-.89-.56-1.68-1.94-1.68a4.09,4.09,0,0,0-2.22.74l-.4-1.09a5.38,5.38,0,0,1,2.91-.86c2.18,0,3.17,1.3,3.17,2.65a2.75,2.75,0,0,1-2.05,2.61h0a2.88,2.88,0,0,1,2.48,2.85c0,1.77-1.38,3.33-4.05,3.33a5.71,5.71,0,0,1-2.88-.75Z"/><path class="cls-3" d="M405.16,629.25v-.92l1.18-1.15c2.83-2.7,4.11-4.13,4.13-5.8a2,2,0,0,0-1.81-2.18,1.7,1.7,0,0,0-.39,0,3.74,3.74,0,0,0-2.36.94l-.48-1.06a4.81,4.81,0,0,1,3.14-1.13A3.13,3.13,0,0,1,412,620.8c0,.13,0,.26,0,.39,0,2-1.48,3.7-3.82,6l-.89.82h5v1.25Z"/><path class="cls-3" d="M418.56,629.15v-3H413.4v-1l5-7.09H420V625h1.55v1.18H420v3Zm0-4.2v-3.71c0-.58,0-1.16.05-1.74h-.05c-.34.65-.61,1.13-.92,1.64l-2.72,3.77h0Z"/><path class="cls-3" d="M440.77,629.25v-.92l1.17-1.15c2.84-2.7,4.12-4.13,4.14-5.8a2,2,0,0,0-1.81-2.18,1.79,1.79,0,0,0-.4,0,3.72,3.72,0,0,0-2.35.94l-.48-1.06a4.81,4.81,0,0,1,3.14-1.13,3.13,3.13,0,0,1,3.39,2.84c0,.13,0,.26,0,.39,0,2-1.49,3.7-3.83,6l-.88.82h5v1.25Z"/><path class="cls-3" d="M456.15,619.21h-4.24l-.42,2.86a5.46,5.46,0,0,1,.9-.07,4.63,4.63,0,0,1,2.39.59,3.18,3.18,0,0,1,1.59,2.86,3.85,3.85,0,0,1-3.9,3.8h-.23a5.48,5.48,0,0,1-2.77-.69l.38-1.14a4.92,4.92,0,0,0,2.37.61,2.44,2.44,0,0,0,2.62-2.26.66.66,0,0,0,0-.14c0-1.44-1-2.46-3.19-2.46a13.14,13.14,0,0,0-1.54.12l.72-5.33h5.31Z"/><path class="cls-3" d="M476.37,629.25v-.92l1.18-1.15c2.84-2.7,4.12-4.13,4.13-5.8a2,2,0,0,0-1.81-2.18,1.7,1.7,0,0,0-.39,0,3.76,3.76,0,0,0-2.36.94l-.47-1.06a4.81,4.81,0,0,1,3.14-1.13,3.13,3.13,0,0,1,3.39,2.84c0,.13,0,.26,0,.39,0,2-1.49,3.7-3.83,6l-.89.82h5v1.25Z"/><path class="cls-3" d="M491.47,619.1a4.74,4.74,0,0,0-1.13.07,4.49,4.49,0,0,0-3.86,3.94h0a3.39,3.39,0,0,1,6,2.31,3.72,3.72,0,0,1-3.53,3.9h-.16c-2.37,0-3.93-1.85-3.93-4.73a7,7,0,0,1,1.88-5,6,6,0,0,1,3.55-1.64,8,8,0,0,1,1.1-.08Zm-.43,6.4A2.25,2.25,0,0,0,489.1,623a2,2,0,0,0-.35,0,2.45,2.45,0,0,0-2.15,1.33,1.39,1.39,0,0,0-.17.67c0,1.83.87,3.18,2.44,3.18,1.3,0,2.13-1,2.13-2.64Z"/><path class="cls-3" d="M512.5,629.25v-.92l1.17-1.15c2.84-2.7,4.12-4.13,4.13-5.8A2,2,0,0,0,516,619.2a1.7,1.7,0,0,0-.39,0,3.72,3.72,0,0,0-2.35.94l-.48-1.06a4.81,4.81,0,0,1,3.14-1.13,3.13,3.13,0,0,1,3.39,2.84c0,.13,0,.26,0,.39,0,2-1.49,3.7-3.83,6l-.89.82h5v1.25Z"/><path class="cls-3" d="M552.41,629.25v-.92l1.17-1.15c2.84-2.7,4.12-4.13,4.13-5.8a2,2,0,0,0-1.81-2.18,1.7,1.7,0,0,0-.39,0,3.72,3.72,0,0,0-2.35.94l-.48-1.06a4.81,4.81,0,0,1,3.14-1.13,3.13,3.13,0,0,1,3.39,2.84c0,.13,0,.26,0,.39,0,2-1.49,3.7-3.83,6l-.89.82h5v1.25Z"/><path class="cls-3" d="M528.46,618.05v1l-4.84,10.11h-1.55l4.82-9.82h-5.43v-1.25Z"/><line class="cls-4" x1="134.78" y1="286.61" x2="655.36" y2="286.61"/><line class="cls-4" x1="134.78" y1="220.29" x2="655.36" y2="220.29"/><line class="cls-4" x1="134.78" y1="153.98" x2="655.36" y2="153.98"/><line class="cls-4" x1="133.86" y1="87.48" x2="654.45" y2="87.48"/><line class="cls-4" x1="134.78" y1="352.92" x2="655.36" y2="352.92"/><line class="cls-4" x1="134.78" y1="419.23" x2="655.36" y2="419.23"/><line class="cls-4" x1="134.78" y1="485.55" x2="655.36" y2="485.55"/><line class="cls-4" x1="134.78" y1="551.86" x2="655.36" y2="551.86"/><line class="cls-5" x1="354.39" y1="154.09" x2="424.5" y2="154.09"/><path class="cls-3" d="M355.05,167.25a13.16,13.16,0,1,1,13.16-13.16,13.16,13.16,0,0,1-13.16,13.16Z"/><path class="cls-3" d="M423.84,167.25a13.16,13.16,0,1,0-13.16-13.16,13.16,13.16,0,0,0,13.16,13.16Z"/><line class="cls-6" x1="326.83" y1="220.4" x2="527.61" y2="220.4"/><path class="cls-7" d="M327.49,233.56a13.16,13.16,0,1,1,13.16-13.16v0A13.16,13.16,0,0,1,327.49,233.56Z"/><path class="cls-7" d="M527,233.56a13.16,13.16,0,1,0-13.21-13.14A13.16,13.16,0,0,0,527,233.56Z"/><line class="cls-5" x1="288.61" y1="286.72" x2="348.94" y2="286.72"/><path class="cls-3" d="M289.27,299.88a13.16,13.16,0,1,1,13.16-13.16,13.16,13.16,0,0,1-13.16,13.16Z"/><path class="cls-3" d="M348.29,299.88a13.16,13.16,0,1,0-13.16-13.16,13.16,13.16,0,0,0,13.16,13.16Z"/><line class="cls-5" x1="282.39" y1="353.03" x2="382.72" y2="353.03"/><path class="cls-3" d="M283.05,366.19A13.16,13.16,0,1,1,296.21,353a13.16,13.16,0,0,1-13.16,13.16Z"/><path class="cls-3" d="M382.06,366.19A13.16,13.16,0,1,0,368.9,353a13.16,13.16,0,0,0,13.16,13.16Z"/><line class="cls-5" x1="233.5" y1="419.35" x2="276.05" y2="419.35"/><path class="cls-3" d="M234.16,432.51a13.16,13.16,0,1,1,13.16-13.16,13.16,13.16,0,0,1-13.16,13.16Z"/><path class="cls-3" d="M275.4,432.51a13.16,13.16,0,1,0-13.16-13.16A13.16,13.16,0,0,0,275.4,432.51Z"/><line class="cls-5" x1="215.72" y1="485.66" x2="276.05" y2="485.66"/><path class="cls-3" d="M216.38,498.82a13.16,13.16,0,1,1,13.16-13.16,13.16,13.16,0,0,1-13.16,13.16Z"/><path class="cls-3" d="M275.4,498.82a13.16,13.16,0,1,0-13.16-13.16,13.16,13.16,0,0,0,13.16,13.16Z"/><line class="cls-5" x1="184.61" y1="551.98" x2="235.17" y2="551.98"/><path class="cls-3" d="M185.27,565.13A13.16,13.16,0,1,1,198.43,552h0A13.17,13.17,0,0,1,185.27,565.13Z"/><path class="cls-3" d="M234.51,565.13A13.16,13.16,0,1,0,221.35,552h0A13.17,13.17,0,0,0,234.51,565.13Z"/><path class="cls-3" d="M590.24,629.25v-.92l1.18-1.15c2.83-2.7,4.11-4.13,4.13-5.8a2,2,0,0,0-1.81-2.18,1.7,1.7,0,0,0-.39,0,3.76,3.76,0,0,0-2.36.94l-.48-1.06a4.85,4.85,0,0,1,3.15-1.13,3.12,3.12,0,0,1,3.38,2.83,2.67,2.67,0,0,1,0,.4c0,2-1.48,3.7-3.82,6l-.89.82h5v1.25Z"/><path class="cls-3" d="M606.35,623.48c0,3.77-1.4,5.86-3.85,5.86-2.17,0-3.64-2-3.68-5.71s1.61-5.77,3.86-5.77S606.35,620,606.35,623.48Zm-6,.17c0,2.89.88,4.53,2.25,4.53,1.54,0,2.27-1.8,2.27-4.63s-.7-4.53-2.25-4.53c-1.38,0-2.29,1.61-2.29,4.63Z"/><path class="cls-3" d="M607.74,629.25v-.92l1.17-1.15c2.84-2.7,4.12-4.13,4.13-5.8a2,2,0,0,0-1.81-2.18,1.7,1.7,0,0,0-.39,0,3.72,3.72,0,0,0-2.35.94l-.48-1.06a4.81,4.81,0,0,1,3.14-1.13,3.13,3.13,0,0,1,3.39,2.84,2.54,2.54,0,0,1,0,.39c0,2-1.49,3.7-3.83,6l-.89.82h5v1.25Z"/><path class="cls-3" d="M561.57,626.35a3.17,3.17,0,0,1,2.2-3h0a2.76,2.76,0,0,1-1.76-2.49,3.15,3.15,0,0,1,3.44-3c2.15,0,3.22,1.35,3.22,2.73a2.83,2.83,0,0,1-1.82,2.6v0a3.08,3.08,0,0,1,2.23,2.87c0,1.93-1.65,3.23-3.77,3.23C563,629.35,561.57,628,561.57,626.35Zm6-.07c0-1.35-.94-2-2.44-2.42a2.41,2.41,0,0,0-2,2.29,2.06,2.06,0,0,0,2,2.12h.22a2,2,0,0,0,2.18-1.8.41.41,0,0,0,0-.11Zm-4.13-5.55c0,1.11.84,1.71,2.12,2a2.18,2.18,0,0,0,1.69-2,1.72,1.72,0,0,0-1.64-1.81h-.24a1.76,1.76,0,0,0-2,1.55,1.93,1.93,0,0,0,0,.24Z"/><line class="cls-1" x1="594.3" y1="595.8" x2="594.3" y2="590.09"/><line class="cls-2" x1="594.3" y1="578.86" x2="594.3" y2="68.23"/><line class="cls-1" x1="594.3" y1="62.61" x2="594.3" y2="56.9"/><line class="cls-1" x1="557.76" y1="595.8" x2="557.76" y2="590.09"/><line class="cls-2" x1="557.76" y1="578.86" x2="557.76" y2="68.23"/><line class="cls-1" x1="557.76" y1="62.61" x2="557.76" y2="56.9"/><path class="cls-3" d="M59.2,82.36h1v5.41c0,2.15-1.05,2.81-2.44,2.81a3.31,3.31,0,0,1-1.12-.19l.16-.85a2.52,2.52,0,0,0,.87.15c.94,0,1.49-.42,1.49-2Z"/><path class="cls-3" d="M65.16,90.45l-.08-.73h0a2.17,2.17,0,0,1-1.77.86,1.66,1.66,0,0,1-1.78-1.67c0-1.4,1.25-2.17,3.49-2.16v-.12a1.19,1.19,0,0,0-1.32-1.34,2.93,2.93,0,0,0-1.51.43L61.91,85a3.64,3.64,0,0,1,1.91-.52c1.77,0,2.2,1.21,2.2,2.38v2.17a8.4,8.4,0,0,0,.1,1.39Zm-.15-3c-1.16,0-2.46.18-2.46,1.3a.93.93,0,0,0,1,1,1.45,1.45,0,0,0,1.41-1,1.35,1.35,0,0,0,.06-.34Z"/><path class="cls-3" d="M67.07,89.84l2.63-3.42c.25-.31.49-.59.75-.9v0H67.31v-.85h4.43l0,.66-2.59,3.37c-.24.33-.48.61-.74.91v0h3.39v.84H67.07Z"/><path class="cls-3" d="M72.21,89.84l2.62-3.42.76-.9v0H72.45v-.85h4.42v.66l-2.59,3.37c-.24.33-.48.61-.74.91v0h3.39v.84H72.21Z"/><path class="cls-3" d="M78.67,84.64,80,88.07c.13.39.27.84.37,1.19h0c.11-.35.23-.79.37-1.21l1.16-3.41H83L81.4,88.78c-.76,2-1.27,3-2,3.63a2.87,2.87,0,0,1-1.3.69l-.26-.89a2.77,2.77,0,0,0,.92-.51,3.22,3.22,0,0,0,.89-1.18.69.69,0,0,0,.08-.25.85.85,0,0,0-.07-.28l-2.15-5.35Z"/><path class="cls-3" d="M88.18,82.36h1v5.41c0,2.15-1,2.81-2.45,2.81a3.3,3.3,0,0,1-1.11-.19l.16-.85a2.52,2.52,0,0,0,.87.15c.94,0,1.49-.42,1.49-2Z"/><path class="cls-3" d="M94.14,90.45l-.08-.73h0a2.17,2.17,0,0,1-1.77.86,1.66,1.66,0,0,1-1.78-1.67c0-1.4,1.25-2.17,3.49-2.16v-.12a1.19,1.19,0,0,0-1.32-1.34,2.93,2.93,0,0,0-1.51.43L90.89,85a3.64,3.64,0,0,1,1.91-.52c1.77,0,2.2,1.21,2.2,2.38v2.17a8.4,8.4,0,0,0,.1,1.39Zm-.15-3c-1.16,0-2.46.18-2.46,1.3a.93.93,0,0,0,1,1,1.45,1.45,0,0,0,1.41-1,1.35,1.35,0,0,0,.06-.34Z"/><path class="cls-3" d="M96.71,81.93h1.06v8.52H96.71Z"/><path class="cls-3" d="M100.72,83a.66.66,0,0,1-1.31,0,.65.65,0,0,1,.66-.66A.63.63,0,0,1,100.72,83Zm-1.18,7.44V84.64h1.06v5.81Z"/><path class="cls-3" d="M102.21,89.37a2.79,2.79,0,0,0,1.39.42c.77,0,1.13-.39,1.13-.87s-.3-.77-1.08-1.06c-1.05-.37-1.54-1-1.54-1.65a1.79,1.79,0,0,1,2-1.7,2.91,2.91,0,0,1,1.43.36l-.26.77a2.22,2.22,0,0,0-1.19-.34c-.62,0-1,.36-1,.79s.35.7,1.1,1c1,.38,1.52.89,1.52,1.75,0,1-.79,1.74-2.17,1.74a3.33,3.33,0,0,1-1.63-.4Z"/><path class="cls-3" d="M111.24,90.23a3.81,3.81,0,0,1-1.67.34,2.76,2.76,0,0,1-2.89-3,3,3,0,0,1,3.12-3.09,3.56,3.56,0,0,1,1.46.3l-.24.82a2.35,2.35,0,0,0-1.22-.28,2,2,0,0,0-2,2.2,2,2,0,0,0,2,2.17,3,3,0,0,0,1.29-.29Z"/><path class="cls-3" d="M117.66,87.5a2.84,2.84,0,0,1-2.89,3.08,2.76,2.76,0,0,1-2.78-3,2.83,2.83,0,0,1,2.87-3.08A2.75,2.75,0,0,1,117.66,87.5Zm-4.61.06c0,1.27.74,2.23,1.77,2.23s1.76-1,1.76-2.26c0-1-.49-2.23-1.74-2.23S113.05,86.45,113.05,87.56Z"/><line class="cls-5" x1="419.82" y1="87.15" x2="620.6" y2="87.15"/><path class="cls-3" d="M422.48,99.31a13.16,13.16,0,1,1,13.16-13.16v0A13.16,13.16,0,0,1,422.48,99.31Z"/><path class="cls-3" d="M622,99.31a13.16,13.16,0,1,0-13.21-13.14A13.16,13.16,0,0,0,622,99.31Z"/></svg>