<svg id="Layer_1" data-name="Layer 1" xmlns="http://www.w3.org/2000/svg" viewBox="0 0 449 338"><defs><style>.cls-1{fill:#fff;}.cls-2,.cls-3,.cls-4,.cls-5{fill:none;stroke-linecap:round;stroke-linejoin:round;}.cls-2{stroke:#fff;stroke-width:7px;}.cls-3{stroke:#172744;}.cls-3,.cls-4{stroke-width:1.41px;}.cls-4,.cls-5{stroke:#42aec5;}.cls-5{stroke-width:1.54px;}.cls-6{fill:#42aec5;}</style></defs><path class="cls-1" d="M365.25,156.16l4,.07,3.58,8.05,5.81,2.89L381,171l6.09,1.49,2.36,2.47,1.76,5.94-6,7.89-12.3,3.6-5.2,8.25-3.26,3.42.16,5.9-3.81,4.8-2.05,8.65-3.82,5.14-.07,4.17-4.42,9.34.45,4.53-5.67,5.06-4.28,16.25L337.39,271l-6.9-1.17-6.78,6.83L320,274.85l-8.53,3-2.62-1.78-7.48-1.17-2.94.65L290.71,274l-2.64,1-4.1,5.45-5.92,3.37-4.22-1.81-5.67,4.42-7.74,1.25-3,4.81-6.71,3-13-.93-8.73-3.28-3.38-4.58-6.61-2.2-3.42-2.49-5.72-7.74L202.73,268l-2.31-4.56L196,259.16l-7.64-4.31-4.92-7.73-3.53-11.52-6.38-.46,4.89-5.82,6.69-1.62.93-6.24-2.8-5.61,1.37-2.41-1-5.22,5.94-4.07,1.42-4.84-1.35-3.84-6.87-2.55,3.55-4.8,6.59,3.24,10.4-.86-1.75-7,1.72-6.54,1.64-2.4,5.6,1.14,11,9.57,4.21,2.5,12.51.57,18.68-1.06,1.67-3.45-1.26-4.53,1.13-3.46,3.73-2.37,11.45-1.24,6.42-2,2.75-5.17,1.87-.66,9.23,5,13.45-8.41L311.83,149l4.81-1.31,7.18.48,6.62,2.2,12.28-2.22,3.67,3.2,5.72,7.74,1.59.71Z"/><path class="cls-2" d="M16,201l3-3.08,10.48-5,3.26-.31,11.93-1.16h0l.34-4.86,5.31,1.14,3.94,2.85,6.68-1.63,2.9,1.8h0l.46,3.82,3.13,3.18,4.51,1.47L72.8,194l-.68-6.62-4.5-1.12,1.67-4.49-.19-4.51-.4-.61-6.08-9.23L64.29,163l8.36-6.12,7.77-2.64h0l2.72-3.42,2-10.05L91.25,144l3.52-3.07.7-9.71,5.78,4.27,2,4.55,10.35,1.57,3.77-2.36,6.63,1.5.33-3.82,3.56-5.49,3.2.05,1-11.09,3.2-.64,4.22,2.85,3.74-1.32L156,127.38l4-.27,7.88,6,10.1.87,3.25-3.07,13.49,5.45,2.56,5.6-2.55,8.29.22,2.79L199,163.22l5.95,10.18-1.64,2.4-.23.87-1.48,5.7,1.74,7-10.39.86L186.33,187l-3.54,4.8,6.88,2.56,1.26,3.83L189.52,203l-5.93,4.06,1,5.22-1.38,2.42,2.83,5.6-.9,6.24-6.68,1.62-4.9,5.81L170,237.05l-.38,6.6-6.35-1.86-4.28.63-6.19,3.71-7.44-.82-6.93.57-5.1,2.34-2.73,4.47-8.07,4-13.25-2.66L96,250.7l-6.89-1.86-10.63-1.23L55.73,242l-2.9-1.78-8-12.3.14-8L32.7,224.78l-.37.14-8.24-.84L15,225"/><path class="cls-2" d="M122.38,21.2,128,19.91l-.15-6.61,8.73,2.93.73,3.84,2.6,3.86,12.15,4,7.11,3.94,2.08,3.16,8.62-2.27,4.72,4.25-1.93,3.79L168.32,45l4.2,3.21,5.22,6.34,3.87,6.66,2.64,1.44,9.46-8.52-4.37-8.41,3.46.06,5.82,2.18,8.67,6.76,9.62-2.24-.1,5.55-3.74,1.67,7,8.11,2.63,2.13,4.84-3.45,9.2,6.42,1.35-.67,7.13,2.91,1.22,6.27,7.32,7.77L255,94.75l-7.48.93-5.41,5.12-1.64,2.75-6.2,4-2,10.38-4.32,2.7-5.71,6.54-4,2.37-4.53.6-9.55-1.86-3.8,4.1-3.1,9.67-2.57-5.61-13.42-5.53L178,134l-10.1-.87-7.88-6-4,.28-12.68-6.13-3.74,1.33-4.27-2.85-3.2.64-1,11.09-3.2-.05-3.56,5.5-.32,3.82-6.64-1.51-3.73,2.36L103.33,140l-2-4.55-5.78-4.27L94,128.72l-7.59-7.78-3.46-.06-3.36-5.61L73,109.94l-7.6-9.15-3.46-.06-6-7L51.3,84.2,47.65,79l3.29-5.85-1.49-5.61-6-4.6L37,51l1.37-2.41,4.93,7,5.22-8.94,3-2,7-2L64,44.15l2.22-4.48,5.33-.93,1.66-3.45,4.3-2.36,2.93.41,1.67-4.14,11.76-3.27,9.41-5.05,5.07-2-3.9-5.28,2.17-2.05L112.47,13l3.9,5.28-.06,3.13L120,23.59Z"/><path class="cls-2" d="M16,201l3-3.08,10.48-5,3.26-.3,11.93-1.16.35-4.86,5.31,1.14,3.94,2.85,6.68-1.63,2.9,1.79.47,3.82,3.13,3.19,4.53,1.47.93-5.19-.68-6.62-4.51-1.12,1.68-4.49-.19-4.51-.4-.61-6.18-9.23L64.27,163l8.4-6.12,7.77-2.64,2.71-3.42,2-10.05L91.25,144l3.52-3.06.7-9.71-1.56-2.46L86.33,121l-3.46-.07-3.37-5.6L73,110l-7.56-9.21-3.47-.06-6-7.06L51.3,84.2,47.65,79l3.29-5.85-1.5-5.61-6-4.6L37,51l1.33-2.41,5,7,5.21-8.94,3-2,5.46-1.54,1.53-.43,5.6,1.5,2.21-4.49,5.34-.93,1.66-3.45,4.3-2.36,2.93.41,1.66-4.14,11.77-3.27,9.41-5.05,5.08-2h0l-3.9-5.27h0l2.16-2L112.46,13l3.91,5.28-.06,3.13L120,23.6l2.38-2.4,4.48-12.43.38-2.55"/><path class="cls-2" d="M277.47,336.89l-1.7-9.06,4.54-1.32,6.12-.23-.11-.26-2.18-5-7.93-3.62-3.13-3.52,1.18-6.93-3.44-1.45-.43-5.56-4.13-9.46,1.95-5.18-7.75,1.27-3,4.8-6.7,3-13-.94L229,290.17l-2-2.65-1.41-1.87-6.62-2.2L215.57,281l-5.71-7.74-7.09-6.38-2.31-4.55L196,258l-7.65-4.3-6.62-2.24-2.43,2.8-.11,5.91h0l-5.31-.1L172,263.52l-11.82,5.7L159,274.06l2.34,3.17.4,7.65-1.13,3.81-5.6,2L149.39,294l2.59,3.87-1.87,2.4,2,8-3.21,1.33-4.24-.77-5.29-2.52-3.48,1.67-4-2.5-6.79-7.42-3.42,7.54-1.61,1-9.59.18-2.89-1.79-3.81,4.45-8.73-2.92-1.3-2.11L91.9,306.2l3.22,13.6L96.26,326m71.06,0,.14-2.17,3.22-2,4.77,1.48,1.87,2.72,2.52,3.61,4.73,3.56,4.81-7.17,2.57-3.82,8.5,1.18,4.06-4.09L211.6,325l6.64.47,1.68.58,5.73,2,1.36-.6,3.14-1.38h.06l4.16,4.56,5.91-3.37,4.78,1.13,4.8-.61,6.88,2.55,5.84.79,2.87,2.81M116.06,324l.93-6.54,3.74-3.07,5.55,2.54,2.86,3.87m-11.21,4,.37,1.3"/><path class="cls-2" d="M365.28,155l4,.08,3.59,8,5.81,2.89,2.33,3.86,6.09,1.49,2.35,2.47,1.77,5.94-6,7.89-12.3,3.6-5.21,8.25-3.26,3.42.17,5.91-3.81,4.79-2.06,8.65-3.81,5.14-.07,4.17-4.42,9.34.45,4.53-5.67,5.06-4.28,16.25-3.52,3.07-6.89-1.17-6.78,6.83-3.74-1.8-8.53,3-2.62-1.79-7.48-1.17-2.94.65-7.69-1.53-2.64,1-4.1,5.45-5.92,3.38-4.22-1.82-5.67,4.42-7.75,1.26-3,4.81-6.71,3-13-.94L229,290.18l-3.38-4.58L219,283.41l-3.42-2.5-5.71-7.74-7.09-6.37-2.3-4.56L196,258l-7.64-4.31L183.45,246l-3.54-11.52-6.38-.46,4.9-5.82,6.69-1.62.93-6.24-2.8-5.6,1.37-2.42-1-5.22,5.93-4.06,1.42-4.85-1.34-3.83-6.88-2.56,3.55-4.8,6.6,3.24,10.4-.86-1.75-7,1.72-6.54,1.63-2.4,5.61,1.14,11,9.57,4.22,2.5,12.51.57L257,186.15l1.66-3.45-1.25-4.53,1.12-3.46,3.74-2.36,11.44-1.25,6.43-2,2.75-5.17,1.87-.66,9.23,5,13.45-8.41,4.47-12.08,4.82-1.31,7.18.47,6.61,2.2L342.76,147l3.67,3.19,5.72,7.74,1.59.72Z"/><path class="cls-2" d="M54.05,326l-2.35-5.61-2.09-2.12,1.25-10.76,2.7-2.38,4.76,1.47,8.6-4,4.59-3.74,4-1.31,5.76-6.84L89.74,294l5.37-3,5.2,7.73-1.87,2.05,4-.28-.45-4.52-3.91-4.58-5-3.92,1.18-6.92-3.44-.76-.74-3.48,4.38-7.22-6.07-2.54-1.79-4.9,8.93-7.83.58-3.11-6.88-1.87L78.6,247.59,55.8,242l-3-1.73-8-12.33.14-8L32.7,224.78l-.37.14-8.24-.84L15,225"/><path class="cls-2" d="M418.84,38.55l.35.68.19,4.52-.54,1L416.07,50l-8,1.6L395,67.29l-6.55,9.27-9.31,15.12-1.66,3.45,3.76,13.26-.37,6.25,5,5-1.12,3.11L376,120.11l-2.38-.73-15.06-6.87-2.05-4.89-2.61-2.48-8.19-3.62-9.56-1.21-8.53.55L323.79,106l-4.8-.43L312.67,102l-8,.22-6.18,3.36-3.06,7.24L291,110.63,287.21,112l-1.44-9.4-3.7-1.46-7.8-10.56L268.34,95l-2.77,5.86-5.85-.1-1.25-5.23L255,94.72l-1.24-5.58-7.31-7.76-1.23-6.28-7.13-2.9-1.34.67-9.21-6.42-.55.39-4.3,3-2.62-2.13-7-8.11,3.76-1.67.09-5.56-9.62,2.27-8.66-6.76L192.8,45.7l-3.47-.06,4.38,8.41-9.46,8.52-2.64-1.43-3.87-6.68-5.22-6.33-4.2-3.21,4.33-4.09,1.93-3.78-4.72-4.26-8.56,2.28-2.07-3.16L152.11,28l-12.17-4-2.6-3.86-.74-3.84-8.72-2.93.15,6.61-5.62,1.29,4.48-12.43"/><path class="cls-2" d="M409.28,12.31l4.88,9.81"/><path class="cls-2" d="M353.74,326.41l2.33,3.86L352,337.15l4.11-6.88Z"/><path class="cls-2" d="M352.8,326l-5.93-2.51-10-6.77-5.74-6.35-.82-14.26-2.14.66-4.67-7-7.62-6-4.4-7,8.57-3,3.7,1.8,6.77-6.83,6.9,1.17,3.52-3.07,4.28-16.26,5.68-5.11-.46-4.52,4.43-9.3.06-4.17,3.82-5.15,2-8.64,3.81-4.79-.15-5.92,3.25-3.41,5.2-8.25,12.31-3.61,6-7.88h0l5.64-3,.05-.08,2.42-4,1.87,0,5.33,4h0l1.75,1.32,7.19-.22,3.41,1L433.72,183l3.4-.8"/><path class="cls-2" d="M286.28,326l-2.19-5-7.92-3.62L273,313.89l1.18-6.93-3.43-1.45-.43-5.56-4.09-9.46,1.95-5.18,5.66-4.41,4.23,1.82,5.92-3.38,4.09-5.48,2.68-1,7.69,1.52,2.94-.65,7.43,1.18,2.63,1.79,4.4,7,7.62,6,4.67,7,2.14-.66.82,14.26,5.74,6.35,10,6.77L352.8,326"/><path class="cls-2" d="M356.07,330.27,352,337.15l4.11-6.88-2.32-3.86Z"/><path class="cls-2" d="M376,120.12l-4.16,10.34-2.3,10-4.36,5.83.11,8.68-11.5,3.62-1.59-.72-5.72-7.74L342.79,147l-12.29,2.21-6.61-2.2-7.19-.47-4.81,1.31-4.53,12.06-13.45,8.41-9.23-5-1.87.67-2.75,5.16-6.4,2-11.46,1.19-3.74,2.36-1.12,3.46,1.26,4.53-1.69,3.48-18.68,1.07-12.51-.57-4.21-2.51-11-9.57-5.6-1.14L199,163.23l-4.08-10.15-.22-2.81,2.54-8.29,3.1-9.67,3.8-4.1,9.55,1.87,4.53-.61,4-2.29,5.71-6.54,4.31-2.7,2-10.38,6.2-4.07,1.64-2.74,5.41-5.12,7.48-.94,3.44.76,1.24,5.22,5.85.11,2.81-5.85,5.93-4.42,7.8,10.55,3.74,1.46,1.43,9.4,3.73-1.31,4.5,2.15,3.05-7.24,6.18-3.36,8-.21,6.33,3.58,4.78.43,3.81-5.14,8.53-.54,9.49,1.24,8.18,3.62,2.62,2.48,2,4.89,15.05,6.87,2.38.74Z"/><path class="cls-2" d="M188.37,253.7l-6.63-2.23-2.43,2.8-.11,5.9-5.32-.1L172,263.52l-11.8,5.7L159,274.07l2.33,3.17.4,7.64-1.13,3.81-5.6,2-5.61,3.37,2.6,3.86-1.87,2.4,2,8-3.22,1.33-4.24-.77-5.28-2.52-3.5,1.67-4-2.5-6.79-7.42-3.43,7.54-1.61,1-9.59.18-2.89-1.78-3.81,4.44-8.73-2.92-1.3-2.11,4.59-3.74,4-.28-.45-4.52L98,291.37l-5-3.91,1.19-6.93-3.45-.76L90,276.29l4.39-7.22-6.08-2.54-1.77-4.89,8.92-7.84.59-3.11,13.26,3.37,13.26,2.66,8.05-4,2.75-4.47,5.08-2.36,6.93-.57,7.48.82,6.18-3.73,4.27-.62,6.35,1.87.39-6.54,3.51-3.07,6.38.46L183.47,246l4.93,7.73Z"/><path class="cls-2" d="M418.84-20.79l-3.73,4.72L410-12l-2.91-1.79-5-1.13-3,1.69.18,4.86L402.35-2l-.08,4.51,2.67,3.74,4.35,6.09,4.88,9.81,6.14,3.83L417.08,30l1.76,8.55.35.68.19,4.52-.54,1L416,50l-8,1.6L395,67.29l-6.54,9.27-9.27,15.11-1.66,3.45,3.73,13.26-.37,6.25,5,5-1.12,3.11L376,120.1l-4.13,10.36-2.3,10-4.37,5.82.12,8.69,4,.07,3.59,8,5.8,2.88,2.33,3.87h0l6.09,1.49,2.35,2.47.85,2.8.93,3.11h0l5.6-3h0l.05-.08,2.42-4h1.87l5.34,4.11h0l1.75,1.32,7.19-.22,3.41.94L433.71,183l3.4-.8"/><path class="cls-2" d="M285.2,218.69a8.64,8.64,0,0,1,2.8-5.77,8.78,8.78,0,0,1,6.09-2.06,8.16,8.16,0,0,1,5.48,1.86,6.37,6.37,0,0,1,2.15,5.11,6.63,6.63,0,0,1-.63,2.87,4.43,4.43,0,0,1-1.87,2,4.66,4.66,0,0,1,2.85,2.27,7.35,7.35,0,0,1-1.81,9.65,9.5,9.5,0,0,1-3,1.52,12.44,12.44,0,0,1-7.42-.13,8.36,8.36,0,0,1-3.18-2.06,10.6,10.6,0,0,1-1.93-2.8A7.38,7.38,0,0,1,284,228h6.33a3.3,3.3,0,0,0,.94,2.42,3.14,3.14,0,0,0,2.39.94,3.36,3.36,0,0,0,2.39-.89,3,3,0,0,0,.93-2.31,3,3,0,0,0-1-2.26,3.22,3.22,0,0,0-2.31-.93,4.36,4.36,0,0,0-1.08.18V221h.64a2.78,2.78,0,0,0,2-.71,2.51,2.51,0,0,0,.76-1.92,2.33,2.33,0,0,0-.7-1.74,2.45,2.45,0,0,0-1.74-.66,2.32,2.32,0,0,0-1.87.77,2.84,2.84,0,0,0-.7,2Z"/><path class="cls-2" d="M325.36,226v4.75h-2.88v4.94H316.7v-4.94H305.12V226.8l9.22-15h8.14V226Zm-8.66-9.18h0L311.1,226h5.6Z"/><path class="cls-2" d="M337.87,235.69h-6.22V217.07h-5.13v-5.26H343v5.26h-5.13Z"/><path class="cls-3" d="M16,201l3-3.08,10.48-5,3.26-.31,11.93-1.16h0l.34-4.86,5.31,1.14,3.94,2.85,6.68-1.63,2.9,1.8h0l.46,3.82,3.13,3.18,4.51,1.47L72.8,194l-.68-6.62-4.5-1.12,1.67-4.49-.19-4.51-.4-.61-6.08-9.23L64.29,163l8.36-6.12,7.77-2.64h0l2.72-3.42,2-10.05L91.25,144l3.52-3.07.7-9.71,5.78,4.27,2,4.55,10.35,1.57,3.77-2.36,6.63,1.5.33-3.82,3.56-5.49,3.2.05,1-11.09,3.2-.64,4.22,2.85,3.74-1.32L156,127.38l4-.27,7.88,6,10.1.87,3.25-3.07,13.49,5.45,2.56,5.6-2.55,8.29.22,2.79L199,163.22l5.95,10.18-1.64,2.4-.23.87-1.48,5.7,1.74,7-10.39.86L186.33,187l-3.54,4.8,6.88,2.56,1.26,3.83L189.52,203l-5.93,4.06,1,5.22-1.38,2.42,2.83,5.6-.9,6.24-6.68,1.62-4.9,5.81L170,237.05l-.38,6.6-6.35-1.86-4.28.63-6.19,3.71-7.44-.82-6.93.57-5.1,2.34-2.73,4.47-8.07,4-13.25-2.66L96,250.7l-6.89-1.86-10.63-1.23L55.73,242l-2.9-1.78-8-12.3.14-8L32.7,224.78l-.37.14-8.24-.84L15,225"/><path class="cls-3" d="M122.38,21.2,128,19.91l-.15-6.61,8.73,2.93.73,3.84,2.6,3.86,12.15,4,7.11,3.94,2.08,3.16,8.62-2.27,4.72,4.25-1.93,3.79L168.32,45l4.2,3.21,5.22,6.34,3.87,6.66,2.64,1.44,9.46-8.52-4.37-8.41,3.46.06,5.82,2.18,8.67,6.76,9.62-2.24-.1,5.55-3.74,1.67,7,8.11,2.63,2.13,4.84-3.45,9.2,6.42,1.35-.67,7.13,2.91,1.22,6.27,7.32,7.77L255,94.75l-7.48.93-5.41,5.12-1.64,2.75-6.2,4-2,10.38-4.32,2.7-5.71,6.54-4,2.37-4.53.6-9.55-1.86-3.8,4.1-3.1,9.67-2.57-5.61-13.42-5.53L178,134l-10.1-.87-7.88-6-4,.28-12.68-6.13-3.74,1.33-4.27-2.85-3.2.64-1,11.09-3.2-.05-3.56,5.5-.32,3.82-6.64-1.51-3.73,2.36L103.33,140l-2-4.55-5.78-4.27L94,128.72l-7.59-7.78-3.46-.06-3.36-5.61L73,109.94l-7.6-9.15-3.46-.06-6-7L51.3,84.2,47.65,79l3.29-5.85-1.49-5.61-6-4.6L37,51l1.37-2.41,4.93,7,5.22-8.94,3-2,7-2L64,44.15l2.22-4.48,5.33-.93,1.66-3.45,4.3-2.36,2.93.41,1.67-4.14,11.76-3.27,9.41-5.05,5.07-2-3.9-5.28,2.17-2.05L112.47,13l3.9,5.28-.06,3.13L120,23.59Z"/><path class="cls-3" d="M16,201l3-3.08,10.48-5,3.26-.3,11.93-1.16.35-4.86,5.31,1.14,3.94,2.85,6.68-1.63,2.9,1.79.47,3.82,3.13,3.19,4.53,1.47.93-5.19-.68-6.62-4.51-1.12,1.68-4.49-.19-4.51-.4-.61-6.18-9.23L64.27,163l8.4-6.12,7.77-2.64,2.71-3.42,2-10.05L91.25,144l3.52-3.06.7-9.71-1.56-2.46L86.33,121l-3.46-.07-3.37-5.6L73,110l-7.56-9.21-3.47-.06-6-7.06L51.3,84.2,47.65,79l3.29-5.85-1.5-5.61-6-4.6L37,51l1.33-2.41,5,7,5.21-8.94,3-2,5.46-1.54,1.53-.43,5.6,1.5,2.21-4.49,5.34-.93,1.66-3.45,4.3-2.36,2.93.41,1.66-4.14,11.77-3.27,9.41-5.05,5.08-2h0l-3.9-5.27h0l2.16-2L112.46,13l3.91,5.28-.06,3.13L120,23.6l2.38-2.4,4.48-12.43.38-2.55"/><path class="cls-3" d="M277.47,336.89l-1.7-9.06,4.54-1.32,6.12-.23-.11-.26-2.18-5-7.93-3.62-3.13-3.52,1.18-6.93-3.44-1.45-.43-5.56-4.13-9.46,1.95-5.18-7.75,1.27-3,4.8-6.7,3-13-.94L229,290.17l-2-2.65-1.41-1.87-6.62-2.2L215.57,281l-5.71-7.74-7.09-6.38-2.31-4.55L196,258l-7.65-4.3-6.62-2.24-2.43,2.8-.11,5.91h0l-5.31-.1L172,263.52l-11.82,5.7L159,274.06l2.34,3.17.4,7.65-1.13,3.81-5.6,2L149.39,294l2.59,3.87-1.87,2.4,2,8-3.21,1.33-4.24-.77-5.29-2.52-3.48,1.67-4-2.5-6.79-7.42-3.42,7.54-1.61,1-9.59.18-2.89-1.79-3.81,4.45-8.73-2.92-1.3-2.11L91.9,306.2l3.22,13.6L96.26,326m71.06,0,.14-2.17,3.22-2,4.77,1.48,1.87,2.72,2.52,3.61,4.73,3.56,4.81-7.17,2.57-3.82,8.5,1.18,4.06-4.09L211.6,325l6.64.47,1.68.58,5.73,2,1.36-.6,3.14-1.38h.06l4.16,4.56,5.91-3.37,4.78,1.13,4.8-.61,6.88,2.55,5.84.79,2.87,2.81M116.06,324l.93-6.54,3.74-3.07,5.55,2.54,2.86,3.87m-11.21,4,.37,1.3"/><path class="cls-3" d="M365.28,155l4,.08,3.59,8,5.81,2.89,2.33,3.86,6.09,1.49,2.35,2.47,1.77,5.94-6,7.89-12.3,3.6-5.21,8.25-3.26,3.42.17,5.91-3.81,4.79-2.06,8.65-3.81,5.14-.07,4.17-4.42,9.34.45,4.53-5.67,5.06-4.28,16.25-3.52,3.07-6.89-1.17-6.78,6.83-3.74-1.8-8.53,3-2.62-1.79-7.48-1.17-2.94.65-7.69-1.53-2.64,1-4.1,5.45-5.92,3.38-4.22-1.82-5.67,4.42-7.75,1.26-3,4.81-6.71,3-13-.94L229,290.18l-3.38-4.58L219,283.41l-3.42-2.5-5.71-7.74-7.09-6.37-2.3-4.56L196,258l-7.64-4.31L183.45,246l-3.54-11.52-6.38-.46,4.9-5.82,6.69-1.62.93-6.24-2.8-5.6,1.37-2.42-1-5.22,5.93-4.06,1.42-4.85-1.34-3.83-6.88-2.56,3.55-4.8,6.6,3.24,10.4-.86-1.75-7,1.72-6.54,1.63-2.4,5.61,1.14,11,9.57,4.22,2.5,12.51.57L257,186.15l1.66-3.45-1.25-4.53,1.12-3.46,3.74-2.36,11.44-1.25,6.43-2,2.75-5.17,1.87-.66,9.23,5,13.45-8.41,4.47-12.08,4.82-1.31,7.18.47,6.61,2.2L342.76,147l3.67,3.19,5.72,7.74,1.59.72Z"/><path class="cls-3" d="M54.05,326l-2.35-5.61-2.09-2.12,1.25-10.76,2.7-2.38,4.76,1.47,8.6-4,4.59-3.74,4-1.31,5.76-6.84L89.74,294l5.37-3,5.2,7.73-1.87,2.05,4-.28-.45-4.52-3.91-4.58-5-3.92,1.18-6.92-3.44-.76-.74-3.48,4.38-7.22-6.07-2.54-1.79-4.9,8.93-7.83.58-3.11-6.88-1.87L78.6,247.59,55.8,242l-3-1.73-8-12.33.14-8L32.7,224.78l-.37.14-8.24-.84L15,225"/><path class="cls-3" d="M418.84,38.55l.35.68.19,4.52-.54,1L416.07,50l-8,1.6L395,67.29l-6.55,9.27-9.31,15.12-1.66,3.45,3.76,13.26-.37,6.25,5,5-1.12,3.11L376,120.11l-2.38-.73-15.06-6.87-2.05-4.89-2.61-2.48-8.19-3.62-9.56-1.21-8.53.55L323.79,106l-4.8-.43L312.67,102l-8,.22-6.18,3.36-3.06,7.24L291,110.63,287.21,112l-1.44-9.4-3.7-1.46-7.8-10.56L268.34,95l-2.77,5.86-5.85-.1-1.25-5.23L255,94.72l-1.24-5.58-7.31-7.76-1.23-6.28-7.13-2.9-1.34.67-9.21-6.42-.55.39-4.3,3-2.62-2.13-7-8.11,3.76-1.67.09-5.56-9.62,2.27-8.66-6.76L192.8,45.7l-3.47-.06,4.38,8.41-9.46,8.52-2.64-1.43-3.87-6.68-5.22-6.33-4.2-3.21,4.33-4.09,1.93-3.78-4.72-4.26-8.56,2.28-2.07-3.16L152.11,28l-12.17-4-2.6-3.86-.74-3.84-8.72-2.93.15,6.61-5.62,1.29,4.48-12.43"/><path class="cls-3" d="M409.28,12.31l4.88,9.81"/><path class="cls-3" d="M353.74,326.41l2.33,3.86L352,337.15l4.11-6.88Z"/><path class="cls-3" d="M352.8,326l-5.93-2.51-10-6.77-5.74-6.35-.82-14.26-2.14.66-4.67-7-7.62-6-4.4-7,8.57-3,3.7,1.8,6.77-6.83,6.9,1.17,3.52-3.07,4.28-16.26,5.68-5.11-.46-4.52,4.43-9.3.06-4.17,3.82-5.15,2-8.64,3.81-4.79-.15-5.92,3.25-3.41,5.2-8.25,12.31-3.61,6-7.88h0l5.64-3,.05-.08,2.42-4,1.87,0,5.33,4h0l1.75,1.32,7.19-.22,3.41,1L433.72,183l3.4-.8"/><path class="cls-3" d="M286.28,326l-2.19-5-7.92-3.62L273,313.89l1.18-6.93-3.43-1.45-.43-5.56-4.09-9.46,1.95-5.18,5.66-4.41,4.23,1.82,5.92-3.38,4.09-5.48,2.68-1,7.69,1.52,2.94-.65,7.43,1.18,2.63,1.79,4.4,7,7.62,6,4.67,7,2.14-.66.82,14.26,5.74,6.35,10,6.77L352.8,326"/><path class="cls-3" d="M356.07,330.27,352,337.15l4.11-6.88-2.32-3.86Z"/><path class="cls-3" d="M376,120.12l-4.16,10.34-2.3,10-4.36,5.83.11,8.68-11.5,3.62-1.59-.72-5.72-7.74L342.79,147l-12.29,2.21-6.61-2.2-7.19-.47-4.81,1.31-4.53,12.06-13.45,8.41-9.23-5-1.87.67-2.75,5.16-6.4,2-11.46,1.19-3.74,2.36-1.12,3.46,1.26,4.53-1.69,3.48-18.68,1.07-12.51-.57-4.21-2.51-11-9.57-5.6-1.14L199,163.23l-4.08-10.15-.22-2.81,2.54-8.29,3.1-9.67,3.8-4.1,9.55,1.87,4.53-.61,4-2.29,5.71-6.54,4.31-2.7,2-10.38,6.2-4.07,1.64-2.74,5.41-5.12,7.48-.94,3.44.76,1.24,5.22,5.85.11,2.81-5.85,5.93-4.42,7.8,10.55,3.74,1.46,1.43,9.4,3.73-1.31,4.5,2.15,3.05-7.24,6.18-3.36,8-.21,6.33,3.58,4.78.43,3.81-5.14,8.53-.54,9.49,1.24,8.18,3.62,2.62,2.48,2,4.89,15.05,6.87,2.38.74Z"/><path class="cls-3" d="M188.37,253.7l-6.63-2.23-2.43,2.8-.11,5.9-5.32-.1L172,263.52l-11.8,5.7L159,274.07l2.33,3.17.4,7.64-1.13,3.81-5.6,2-5.61,3.37,2.6,3.86-1.87,2.4,2,8-3.22,1.33-4.24-.77-5.28-2.52-3.5,1.67-4-2.5-6.79-7.42-3.43,7.54-1.61,1-9.59.18-2.89-1.78-3.81,4.44-8.73-2.92-1.3-2.11,4.59-3.74,4-.28-.45-4.52L98,291.37l-5-3.91,1.19-6.93-3.45-.76L90,276.29l4.39-7.22-6.08-2.54-1.77-4.89,8.92-7.84.59-3.11,13.26,3.37,13.26,2.66,8.05-4,2.75-4.47,5.08-2.36,6.93-.57,7.48.82,6.18-3.73,4.27-.62,6.35,1.87.39-6.54,3.51-3.07,6.38.46L183.47,246l4.93,7.73Z"/><path class="cls-3" d="M418.84,6.22v-27l-3.73,4.72L410-12l-2.91-1.79-5-1.13-3,1.69.18,4.86L402.35-2l-.08,4.51,2.67,3.74,4.35,6.09,4.88,9.81,6.14,3.83L417.08,30l1.76,8.55.35.68.19,4.52-.54,1L416,50l-8,1.6L395,67.29l-6.54,9.27-9.27,15.11-1.66,3.45,3.73,13.26-.37,6.25,5,5-1.12,3.11L376,120.1l-4.13,10.36-2.3,10-4.37,5.82.12,8.69,4,.07,3.59,8,5.8,2.88,2.33,3.87h0l6.09,1.49,2.35,2.47.85,2.8.93,3.11h0l5.6-3h0l.05-.08,2.42-4h1.87l5.34,4.11h0l1.75,1.32,7.19-.22,3.41.94L433.71,183l3.4-.8"/><path class="cls-4" d="M32.7,326V6.22"/><path class="cls-4" d="M227,327.4V6.22"/><path class="cls-4" d="M418.84,326V-20.79"/><path class="cls-5" d="M-7.72,176.67H464"/><path class="cls-6" d="M98.54,70.94a8.61,8.61,0,0,1,2.81-5.77,8.78,8.78,0,0,1,6.08-2.05A8.12,8.12,0,0,1,112.91,65a6.35,6.35,0,0,1,2.15,5.1,6.64,6.64,0,0,1-.64,2.87,4.36,4.36,0,0,1-1.86,2,4.58,4.58,0,0,1,2.84,2.27,7.54,7.54,0,0,1,.29,7.14,7.2,7.2,0,0,1-2.07,2.51,9,9,0,0,1-3,1.52,11.93,11.93,0,0,1-3.46.51,11.76,11.76,0,0,1-4-.64,8.17,8.17,0,0,1-3.18-2.06,10.63,10.63,0,0,1-1.94-2.8,7.36,7.36,0,0,1-.78-3.19h6.33a3.32,3.32,0,0,0,.94,2.42,3.19,3.19,0,0,0,2.39.93,3.36,3.36,0,0,0,2.39-.93,3.11,3.11,0,0,0,.93-2.32,3,3,0,0,0-1-2.24,3.28,3.28,0,0,0-2.31-.93,4.37,4.37,0,0,0-1.08.19V73.22h.64a2.83,2.83,0,0,0,2-.71,2.53,2.53,0,0,0,.76-1.87,2.34,2.34,0,0,0-.7-1.75,2.45,2.45,0,0,0-1.74-.66A2.37,2.37,0,0,0,105,69a2.87,2.87,0,0,0-.69,2Z"/><path class="cls-6" d="M120.26,70.94a8.31,8.31,0,0,1,8.89-7.82A8.08,8.08,0,0,1,134.62,65a6.31,6.31,0,0,1,2.16,5.1,6.78,6.78,0,0,1-.63,2.87,4.43,4.43,0,0,1-1.87,2,4.66,4.66,0,0,1,2.85,2.27,7.32,7.32,0,0,1-1.8,9.65,8.9,8.9,0,0,1-3,1.52,12.08,12.08,0,0,1-3.44.44,11.74,11.74,0,0,1-3.94-.63,8.32,8.32,0,0,1-3.19-2.06,10.6,10.6,0,0,1-1.93-2.8,7.27,7.27,0,0,1-.79-3.2h6.33a3.36,3.36,0,0,0,.94,2.42,3.17,3.17,0,0,0,2.39.93,3.32,3.32,0,0,0,2.39-.93,3,3,0,0,0,.93-2.32,3,3,0,0,0-1-2.26,3.2,3.2,0,0,0-2.31-.93,5,5,0,0,0-1.08.18v-4h.64a2.78,2.78,0,0,0,2-.71,2.49,2.49,0,0,0,.76-1.87,2.26,2.26,0,0,0-.7-1.75,2.41,2.41,0,0,0-1.73-.66,2.35,2.35,0,0,0-1.87.77,2.79,2.79,0,0,0-.7,2Z"/><path class="cls-6" d="M162.43,64.06V77.5a23,23,0,0,1-.46,4.89,7.11,7.11,0,0,1-2.05,3.53,8.16,8.16,0,0,1-3.51,2,15.68,15.68,0,0,1-8.8,0,8.12,8.12,0,0,1-3.51-2,7.17,7.17,0,0,1-2.1-3.52,22.33,22.33,0,0,1-.46-4.89V64.06h6.22V76.64a23.22,23.22,0,0,0,.1,2.5,6.75,6.75,0,0,0,.52,2,3.35,3.35,0,0,0,1.29,1.47,5,5,0,0,0,4.59,0,3.44,3.44,0,0,0,1.29-1.46,6,6,0,0,0,.51-2q.12-1.26.12-2.52V64.06Z"/><path class="cls-6" d="M286.12,70.94a8.6,8.6,0,0,1,2.8-5.77A8.81,8.81,0,0,1,295,63.12,8.12,8.12,0,0,1,300.48,65a6.3,6.3,0,0,1,2.15,5.1A6.63,6.63,0,0,1,302,73a4.43,4.43,0,0,1-1.87,2A4.6,4.6,0,0,1,303,77.26a7.59,7.59,0,0,1,.29,7.14,7.52,7.52,0,0,1-2.07,2.51,9.19,9.19,0,0,1-3,1.52,11.93,11.93,0,0,1-3.46.51,11.46,11.46,0,0,1-3.94-.64,8.21,8.21,0,0,1-3.19-2.06,10.6,10.6,0,0,1-1.93-2.8,7.52,7.52,0,0,1-.8-3.19h6.34a3.36,3.36,0,0,0,.93,2.42,3.19,3.19,0,0,0,2.39.93,3.4,3.4,0,0,0,2.4-.93,3.11,3.11,0,0,0,.93-2.32,3,3,0,0,0-1-2.26,3.23,3.23,0,0,0-2.31-.94,4.37,4.37,0,0,0-1.08.19V73.22h.63a2.76,2.76,0,0,0,2-.71,2.5,2.5,0,0,0,.77-1.87,2.34,2.34,0,0,0-.7-1.75,2.43,2.43,0,0,0-1.74-.66,2.38,2.38,0,0,0-1.87.77,2.83,2.83,0,0,0-.69,2Z"/><path class="cls-6" d="M326.27,78.25V83h-2.88v4.93h-5.75V83H306v-4l9.21-15h8.14V78.25Zm-8.63-9.18h-.07L312,78.25h5.6Z"/><path class="cls-6" d="M350,64.06V77.5a21.74,21.74,0,0,1-.47,4.89,7,7,0,0,1-2,3.53,8.17,8.17,0,0,1-3.56,2,15.68,15.68,0,0,1-8.8,0,8.25,8.25,0,0,1-3.52-2,7.1,7.1,0,0,1-2-3.53,21.73,21.73,0,0,1-.46-4.89V64.06h6.24V76.64a23.23,23.23,0,0,0,.11,2.5,6.75,6.75,0,0,0,.52,2,3.35,3.35,0,0,0,1.24,1.47,5.06,5.06,0,0,0,4.59,0,3.35,3.35,0,0,0,1.28-1.46,6.33,6.33,0,0,0,.53-2c.08-.84.11-1.68.11-2.52V64.06Z"/><path class="cls-6" d="M97.63,218.69a8.6,8.6,0,0,1,2.8-5.77,8.76,8.76,0,0,1,6.08-2.06,8.16,8.16,0,0,1,5.48,1.86,6.32,6.32,0,0,1,2.15,5.11,6.63,6.63,0,0,1-.63,2.87,4.43,4.43,0,0,1-1.87,2,4.66,4.66,0,0,1,2.85,2.27,7.36,7.36,0,0,1-1.8,9.65,9.29,9.29,0,0,1-3,1.52,12.44,12.44,0,0,1-7.42-.13A8.36,8.36,0,0,1,99.12,234a10.21,10.21,0,0,1-1.93-2.8,7.25,7.25,0,0,1-.8-3.2h6.37a3.34,3.34,0,0,0,.94,2.42,3.16,3.16,0,0,0,2.39.94,3.34,3.34,0,0,0,2.39-.89,3.21,3.21,0,0,0,0-4.53l0,0a3.19,3.19,0,0,0-2.3-.93,4,4,0,0,0-1.09.18V221h.64a2.78,2.78,0,0,0,2-.71,2.52,2.52,0,0,0,.77-1.92,2.32,2.32,0,0,0-.71-1.74A2.41,2.41,0,0,0,106,216a2.32,2.32,0,0,0-1.87.77,2.84,2.84,0,0,0-.7,2Z"/><path class="cls-6" d="M119.36,218.69a8.64,8.64,0,0,1,2.8-5.77,8.77,8.77,0,0,1,6.08-2.06,8.17,8.17,0,0,1,5.49,1.86,6.4,6.4,0,0,1,2.14,5.11,6.49,6.49,0,0,1-.63,2.87,4.38,4.38,0,0,1-1.87,2,4.62,4.62,0,0,1,2.86,2.27,7.36,7.36,0,0,1-1.81,9.65,9.45,9.45,0,0,1-3,1.52A12.41,12.41,0,0,1,124,236a8.32,8.32,0,0,1-3.19-2.06,10.6,10.6,0,0,1-1.93-2.8,7.41,7.41,0,0,1-.79-3.2h6.34a3.33,3.33,0,0,0,.93,2.42,3.16,3.16,0,0,0,2.39.94,3.37,3.37,0,0,0,2.4-.89,3.07,3.07,0,0,0,.93-2.31,3,3,0,0,0-1-2.26,3.24,3.24,0,0,0-2.32-.93,4.36,4.36,0,0,0-1.07.18V221h.63a2.8,2.8,0,0,0,2-.71,2.5,2.5,0,0,0,.75-1.92,2.32,2.32,0,0,0-.69-1.74,2.45,2.45,0,0,0-1.75-.66,2.3,2.3,0,0,0-1.86.77,2.81,2.81,0,0,0-.71,2Z"/><path class="cls-6" d="M150.3,235.69h-6.2V217.07H139v-5.26h16.46v5.26H150.3Z"/><path class="cls-6" d="M285.2,218.69a8.64,8.64,0,0,1,2.8-5.77,8.78,8.78,0,0,1,6.09-2.06,8.16,8.16,0,0,1,5.48,1.86,6.37,6.37,0,0,1,2.15,5.11,6.63,6.63,0,0,1-.63,2.87,4.43,4.43,0,0,1-1.87,2,4.66,4.66,0,0,1,2.85,2.27,7.35,7.35,0,0,1-1.81,9.65,9.5,9.5,0,0,1-3,1.52,12.44,12.44,0,0,1-7.42-.13,8.36,8.36,0,0,1-3.18-2.06,10.6,10.6,0,0,1-1.93-2.8A7.38,7.38,0,0,1,284,228h6.33a3.3,3.3,0,0,0,.94,2.42,3.14,3.14,0,0,0,2.39.94,3.36,3.36,0,0,0,2.39-.89,3,3,0,0,0,.93-2.31,3,3,0,0,0-1-2.26,3.22,3.22,0,0,0-2.31-.93,4.36,4.36,0,0,0-1.08.18V221h.64a2.78,2.78,0,0,0,2-.71,2.51,2.51,0,0,0,.76-1.92,2.33,2.33,0,0,0-.7-1.74,2.45,2.45,0,0,0-1.74-.66,2.32,2.32,0,0,0-1.87.77,2.84,2.84,0,0,0-.7,2Z"/><path class="cls-6" d="M325.36,226v4.75h-2.88v4.94H316.7v-4.94H305.12V226.8l9.22-15h8.14V226Zm-8.66-9.18h0L311.1,226h5.6Z"/><path class="cls-6" d="M337.87,235.69h-6.22V217.07h-5.13v-5.26H343v5.26h-5.13Z"/></svg>