<?xml version="1.0" encoding="utf-8"?>
<!-- Generator: Adobe Illustrator 25.0.1, SVG Export Plug-In . SVG Version: 6.00 Build 0)  -->
<svg version="1.1" id="Layer_1" xmlns="http://www.w3.org/2000/svg" xmlns:xlink="http://www.w3.org/1999/xlink" x="0px" y="0px"
	 viewBox="0 0 595.3 290.5" style="enable-background:new 0 0 595.3 290.5;" xml:space="preserve">
<style type="text/css">
	.st0{fill:#182744;}
	.st1{fill:#43AEC5;}
</style>
<path class="st0" d="M293.3,145.6H332v2.4h-38.7V145.6z M293.3,102c1.4,1.7,3.5,2.7,5.8,2.6c4.2,0,6.4-2.2,6.4-6.5V86.6h-10.3v3.3
	h6.2v8.4c0,1.9-0.9,2.9-2.5,2.9c-1.4-0.1-2.6-0.8-3.3-1.9L293.3,102 M322.3,104.3h4.3l-7.9-17.7h-4l-7.9,17.7h4.2l1.6-3.8h8.2
	L322.3,104.3z M313.9,97.4l2.8-6.8l2.8,6.8H313.9z M322,81.6h-4.2l-3.4,3.6h3.1L322,81.6z M344,104.3l-4-5.7
	c2.3-0.9,3.8-3.2,3.7-5.6c0-4-3-6.4-7.7-6.4h-7.6v17.7h4.1v-4.9h3.8l3.4,4.9L344,104.3z M335.8,90c2.5,0,3.8,1.1,3.8,3.1
	s-1.3,3.1-3.8,3.1h-3.3V90H335.8 M366.8,104.3l0-17.7h-3.4l-6.5,11l-6.6-11H347v17.7h3.8V93.9l5.2,8.5h1.8l5.1-8.7v10.6L366.8,104.3
	z M370.9,96.6c0,5.2,3,8.1,8,8.1s8-2.9,8-8.1v-9.9h-4v9.7c0,3.4-1.4,4.8-3.9,4.8s-4-1.4-4-4.7v-9.7h-4.1L370.9,96.6 M374.9,85.2h2.9
	l2.6-3.6h-3.7L374.9,85.2z M380,85.2h2.9l2.6-3.6h-3.7L380,85.2z M390.9,104.3h4.1V86.6h-4.1V104.3z M414.5,93c0-4-3-6.4-7.7-6.4
	h-7.6v17.7h4.1v-4.8h3.5C411.6,99.4,414.5,97,414.5,93 M410.4,93c0,1.9-1.3,3.1-3.8,3.1h-3.3V90h3.3C409.1,90,410.4,91.1,410.4,93
	 M429.7,104.3h4.3l-7.9-17.7h-4l-7.9,17.7h4.2l1.6-3.8h8.2L429.7,104.3z M421.3,97.4l2.8-6.8l2.8,6.8H421.3z M451.5,104.3l-4-5.7
	c2.3-0.9,3.8-3.2,3.7-5.7c0-4-3-6.4-7.7-6.4h-7.6v17.7h4.1v-4.9h3.8l3.4,4.9L451.5,104.3z M443.3,90c2.5,0,3.7,1.1,3.7,3
	s-1.3,3.1-3.8,3.1H440V90H443.3 M454.4,104.3h4.1V86.6h-4.1V104.3z M306,134.6h2.2l-8.2-9.7l7.6-8h-2.1l-10.4,10.7v-10.7h-1.9v17.7
	h1.9v-4.6l3.6-3.7L306,134.6z M310.9,127c0,5.1,2.8,7.7,7.3,7.7s7.2-2.6,7.2-7.7v-10.1h-1.8v10c0,4.2-2,6.1-5.4,6.1
	s-5.4-1.9-5.4-6.1v-10h-1.9L310.9,127 M334.1,134.5h1.9v-16h6.2v-1.6h-14.3v1.6h6.2L334.1,134.5z M357.4,134.5h2l-8.1-17.7h-1.8
	l-8.1,17.7h1.9l2.1-4.7h9.8L357.4,134.5z M346.1,128.3l4.2-9.5l4.2,9.5H346.1z M364.9,134.5h1.9v-16h6.3v-1.6h-14.3v1.6h6.2
	L364.9,134.5z M374.1,125.7c0,5.2,3.9,9,9.3,9c5,0,9-4,9-9c0-5-4-9-9-9C378,116.7,374.1,120.5,374.1,125.7 M390.8,125.7
	c0.1,4.1-3.2,7.5-7.3,7.5c-4.1,0.1-7.5-3.2-7.5-7.3c-0.1-4.1,3.2-7.5,7.3-7.5c0,0,0.1,0,0.1,0c3.9-0.1,7.3,3,7.4,6.9
	C390.8,125.4,390.8,125.6,390.8,125.7 M381.8,115.4h1.8l4.1-3.1h-2.4L381.8,115.4z M409.6,134.5h2.2l-8.2-9.7l7.6-8h-2.1l-10.4,10.7
	v-10.6h-1.9v17.7h1.9v-4.6l3.6-3.7L409.6,134.5z M412.6,125.7c0,5.2,3.9,9,9.3,9c5,0,9-4,9-9c0-5-4-9-9-9
	C416.5,116.7,412.6,120.5,412.6,125.7 M429.3,125.7c0.1,4.1-3.2,7.5-7.3,7.5c-4.1,0.1-7.5-3.2-7.5-7.3c-0.1-4.1,3.2-7.5,7.3-7.5
	c0,0,0.1,0,0.1,0c3.9-0.1,7.3,3,7.4,6.9C429.3,125.4,429.3,125.6,429.3,125.7 M418.6,113.8c0,0.6,0.5,1.1,1,1.1c0,0,0,0,0,0
	c0.6,0,1.1-0.5,1.1-1.1c0,0,0,0,0,0c0-0.6-0.5-1.1-1.1-1.1C419.1,112.7,418.6,113.2,418.6,113.8
	C418.6,113.8,418.6,113.8,418.6,113.8 M423.1,113.8c0,0.6,0.5,1.1,1.1,1.1c0.6,0,1.1-0.5,1.1-1.1s-0.5-1.1-1.1-1.1c0,0,0,0,0,0
	C423.5,112.7,423.1,113.2,423.1,113.8 M435.9,133l11.7-14.8V117h-14v1.6h11.5l-11.7,14.8v1.3h14.5V133H435.9z M465.3,123
	c0-3.8-2.7-6.1-7.2-6.1h-6.6v17.7h1.9V129h4.7C462.6,129,465.3,126.7,465.3,123 M463.5,123c0,2.8-1.9,4.4-5.4,4.4h-4.7v-8.8h4.7
	C461.6,118.6,463.5,120.2,463.5,123 M468.1,125.8c0,5.2,3.9,9,9.3,9c5,0,9-4,9-9c0-5-4-9-9-9l0,0C472,116.8,468.1,120.6,468.1,125.8
	 M484.7,125.8c0.1,4.1-3.2,7.5-7.3,7.5c-4.1,0.1-7.5-3.2-7.5-7.3c-0.1-4.1,3.2-7.5,7.3-7.5c0,0,0.1,0,0.1,0c4-0.1,7.3,3,7.4,6.9
	C484.8,125.5,484.8,125.6,484.7,125.8 M503.7,116.9v14.3l-11.4-14.3h-1.5v17.7h1.9v-14.4l11.3,14.3h1.5v-17.7L503.7,116.9z
	 M514.8,134.6h1.9v-16h6.2V117h-14.3v1.6h6.2V134.6z M308.8,159l-5.4,12.6L298,159h-4.4l7.6,17.7h4l7.7-17.7H308.8z M318.4,173.4
	v-4.1h8.2v-3.2h-8.2v-3.8h9.3V159h-13.3v17.7H328v-3.3H318.4z M343.4,159v7h-8v-7h-4.1v17.7h4.1v-7.2h8v7.2h4.1V159H343.4z
	 M351.7,176.7h4.1V159h-4.1V176.7z M358.8,167.8c0,5.3,4.1,9.1,9.6,9.1c2.8,0.1,5.5-1,7.3-3.1l-2.6-2.4c-1.1,1.3-2.7,2.1-4.4,2.1
	c-3.1,0-5.6-2.5-5.6-5.6c0-3.1,2.5-5.7,5.6-5.7c1.7,0,3.3,0.7,4.4,2.1l2.6-2.4c-1.8-2.1-4.5-3.2-7.3-3.1
	C362.9,158.7,358.8,162.5,358.8,167.8 M378.4,176.7h12.9v-3.3h-8.9V159h-4.1V176.7z M397.7,173.4v-4.1h8.2v-3.2h-8.2v-3.8h9.3V159
	h-13.3v17.7h13.7v-3.3L397.7,173.4z M307.5,206.9l-4.3-6.1c2.5-0.7,4.1-3,4-5.6c0-3.8-2.7-6.1-7.2-6.1h-6.6v17.6h1.9v-5.6h4.8
	c0.5,0,0.9,0,1.4-0.1l4,5.7L307.5,206.9z M305.3,195.3c0,2.8-1.9,4.4-5.4,4.4h-4.7v-8.8h4.7C303.4,190.9,305.3,192.5,305.3,195.3
	 M313.5,205.3v-6.6h9.1v-1.6h-9.1v-6.3h10.2v-1.6h-12.1v17.6h12.5v-1.6L313.5,205.3z M326.8,204.8c1.8,1.6,4.2,2.4,6.6,2.3
	c4.5,0,6.6-2.2,6.6-4.8c0-6.4-10.9-3.5-10.9-8.4c0-1.8,1.4-3.2,4.7-3.2c1.7,0,3.4,0.5,4.9,1.5l0.6-1.5c-1.6-1-3.5-1.6-5.5-1.6
	c-4.5,0-6.5,2.2-6.5,4.8c0,6.5,10.9,3.6,10.9,8.4c0,1.7-1.4,3.1-4.7,3.1c-2.1,0-4.2-0.7-5.8-2.1L326.8,204.8 M345.9,205.3v-6.6h9.1
	v-1.6h-9.1v-6.3h10.2v-1.6H344v17.6h12.5v-1.6L345.9,205.3z M374.1,206.9h2l-8.1-17.6h-1.9l-8.1,17.6h2l2.1-4.7h9.8L374.1,206.9z
	 M362.8,200.7l4.2-9.5l4.2,9.5H362.8z M393,206.9l-4.3-6.1c2.5-0.7,4.1-3,4-5.6c0-3.8-2.7-6.1-7.2-6.1h-6.6v17.6h1.9v-5.6h4.7
	c0.5,0,0.9,0,1.4-0.1l4,5.7L393,206.9z M390.9,195.3c0,2.8-1.9,4.4-5.4,4.4h-4.7v-8.9h4.7C389,190.9,390.9,192.5,390.9,195.3
	 M395.6,198.1c-0.1,4.9,3.8,8.9,8.7,9c0.2,0,0.3,0,0.5,0c2.4,0.1,4.8-0.9,6.5-2.6l-1.2-1.2c-1.4,1.4-3.3,2.2-5.2,2.1
	c-4,0.1-7.4-3-7.6-7s3-7.4,7-7.6c0.2,0,0.4,0,0.5,0c2-0.1,3.8,0.7,5.2,2.1l1.2-1.2c-1.7-1.7-4-2.7-6.5-2.6
	C399.5,189.2,395.6,193,395.6,198.1 M428.2,189.3v7.9h-11v-7.9h-1.9V207h1.9v-8.2h11v8.1h1.8v-17.7L428.2,189.3z M440.8,198.2
	c-0.1,4.9,3.8,8.9,8.7,9c0.2,0,0.3,0,0.5,0c2.4,0.1,4.8-0.9,6.5-2.6l-1.2-1.2c-1.4,1.4-3.3,2.2-5.2,2.1c-4,0.1-7.4-3-7.6-7
	s3-7.4,7-7.6c0.2,0,0.4,0,0.5,0c2-0.1,3.8,0.7,5.2,2.1l1.2-1.2c-1.7-1.7-4-2.7-6.5-2.6C444.8,189.2,440.8,193,440.8,198.2
	 M462.4,205.4v-6.6h9.1v-1.6h-9.1v-6.4h10.2v-1.6h-12.1v17.6h12.5v-1.6L462.4,205.4z M490.3,189.4v14.3L479,189.3h-1.5v17.6h1.9
	v-14.3l11.4,14.3h1.5v-17.7L490.3,189.4z M501.3,207.1h1.9v-16h6.2v-1.6h-14.2v1.6h6.2L501.3,207.1z M514.3,205.5v-6.6h9.1v-1.6
	h-9.1v-6.4h10.2v-1.6h-12v17.6h12.5v-1.6L514.3,205.5z M543.4,207.1L539,201c2.5-0.7,4.1-3,4-5.6c0-3.8-2.7-6.1-7.2-6.1h-6.6v17.6
	h1.9v-5.6h4.7c0.5,0,0.9,0,1.4-0.1l4,5.7L543.4,207.1z M541.2,195.5c0,2.8-1.9,4.4-5.4,4.4h-4.6v-9h4.7c3.5,0,5.4,1.6,5.4,4.4
	 M61,191.6c7.7,11.2,20.8,17.4,35.1,17.4c24.6,0,37.6-13.2,37.6-40V87.3l-17,17.4v65.1c0,16.1-7,24.4-20.6,24.4
	c-10.1,0-18-4.2-24.5-13.4L61,191.6"/>
<path class="st1" d="M201.6,153.5l-10.1-12.1l53.4-54.8h19.6l-51.4,54.1l54.7,66.2h-20.1L201.6,153.5z M205.1,206.9h20.1l-54.7-66.2
	L222,86.6h-19.6L149,141.4l10.1,12.1L205.1,206.9z"/>
<g>
	<path class="st0" d="M419.9,159h4.1v17.6h-4.1V159z"/>
	<path class="st0" d="M444.3,159v17.6H441l-8.8-10.7v10.7h-4V159h3.4l8.8,10.7V159H444.3z"/>
	<path class="st0" d="M448.5,159h8c1.9,0,3.6,0.4,5.1,1.1c1.5,0.7,2.6,1.8,3.4,3.1c0.8,1.3,1.2,2.9,1.2,4.6c0,1.8-0.4,3.3-1.2,4.6
		c-0.8,1.3-2,2.4-3.4,3.1c-1.5,0.7-3.2,1.1-5.1,1.1h-8V159z M456.3,173.3c1.8,0,3.2-0.5,4.2-1.5c1-1,1.6-2.3,1.6-4s-0.5-3-1.6-4
		c-1-1-2.5-1.5-4.2-1.5h-3.7v10.9H456.3z"/>
	<path class="st0" d="M471.3,174.9c-1.4-1.4-2.1-3.4-2.1-6V159h4.1v9.7c0,3.2,1.3,4.7,3.9,4.7c1.3,0,2.2-0.4,2.9-1.1
		c0.7-0.8,1-2,1-3.6V159h4v9.9c0,2.6-0.7,4.6-2.1,6c-1.4,1.4-3.4,2.1-5.9,2.1S472.7,176.2,471.3,174.9z"/>
	<path class="st0" d="M490.9,176.4c-1.3-0.4-2.3-0.9-3.1-1.5l1.4-3.1c0.8,0.6,1.7,1,2.7,1.3c1,0.3,2.1,0.5,3.1,0.5
		c1.2,0,2-0.2,2.6-0.5c0.6-0.3,0.8-0.8,0.8-1.4c0-0.4-0.2-0.8-0.5-1c-0.3-0.3-0.7-0.5-1.3-0.7s-1.2-0.4-2.1-0.6
		c-1.3-0.3-2.4-0.6-3.3-1c-0.9-0.3-1.6-0.8-2.2-1.5c-0.6-0.7-0.9-1.6-0.9-2.8c0-1,0.3-2,0.8-2.8s1.4-1.5,2.5-2
		c1.1-0.5,2.5-0.7,4.1-0.7c1.1,0,2.2,0.1,3.3,0.4s2,0.7,2.8,1.2l-1.3,3.1c-1.6-0.9-3.3-1.4-4.9-1.4c-1.1,0-2,0.2-2.5,0.6
		c-0.5,0.4-0.8,0.9-0.8,1.5s0.3,1.1,0.9,1.3c0.6,0.3,1.6,0.6,2.9,0.9c1.3,0.3,2.4,0.6,3.3,1c0.9,0.3,1.6,0.8,2.2,1.5
		c0.6,0.7,0.9,1.6,0.9,2.8c0,1-0.3,1.9-0.8,2.8s-1.4,1.5-2.5,2c-1.1,0.5-2.5,0.7-4.1,0.7C493.5,176.9,492.2,176.8,490.9,176.4z"/>
	<path class="st0" d="M508.6,162.3H503V159h15.4v3.3h-5.6v14.3h-4.1V162.3z"/>
	<path class="st0" d="M531.8,176.6l-3.4-4.9h-0.2h-3.6v4.9h-4.1V159h7.6c1.6,0,2.9,0.3,4.1,0.8c1.2,0.5,2,1.3,2.7,2.2
		s0.9,2.1,0.9,3.4s-0.3,2.4-0.9,3.4c-0.6,0.9-1.5,1.7-2.7,2.2l4,5.7H531.8z M530.7,163.1c-0.6-0.5-1.6-0.8-2.8-0.8h-3.3v6.1h3.3
		c1.2,0,2.2-0.3,2.8-0.8s1-1.3,1-2.3C531.7,164.4,531.4,163.7,530.7,163.1z"/>
	<path class="st0" d="M547.2,170.4v6.2h-4.1v-6.3l-6.8-11.3h4.3l4.7,7.8l4.7-7.8h4L547.2,170.4z"/>
</g>
</svg>
