<?xml version="1.0" encoding="utf-8"?>
<!-- Generator: Adobe Illustrator 25.3.1, SVG Export Plug-In . SVG Version: 6.00 Build 0)  -->
<svg version="1.1" id="Layer_1" xmlns="http://www.w3.org/2000/svg" xmlns:xlink="http://www.w3.org/1999/xlink" x="0px" y="0px"
	 viewBox="0 0 436.1 317" style="enable-background:new 0 0 436.1 317;" xml:space="preserve">
<style type="text/css">
	.st0{fill:none;stroke:#000000;stroke-width:2.0006;stroke-linejoin:round;stroke-miterlimit:10;}
	.st1{fill:none;stroke:#000000;stroke-width:1.0003;stroke-linejoin:round;stroke-miterlimit:10;stroke-dasharray:4.0012,3.0009;}
	.st2{fill:#ED0007;}
	.st3{fill:#00884A;}
	.st4{fill:none;stroke:#000000;stroke-width:4.0012;stroke-miterlimit:8;}
	.st5{fill:none;stroke:#000000;stroke-width:4.001;stroke-miterlimit:8;}
	.st6{enable-background:new    ;}
	.st7{fill:none;stroke:#A6A6A6;stroke-width:0.6669;stroke-miterlimit:8;}
	.st8{fill:none;stroke:#3F136C;stroke-width:1.0003;stroke-linejoin:round;stroke-miterlimit:10;}
	.st9{fill:none;stroke:#000000;stroke-width:0.6669;stroke-miterlimit:8.0002;}
	.st10{fill:#7F7F7F;fill-opacity:0.302;}
	.st11{fill:none;stroke:#C00000;stroke-width:4.0012;stroke-linejoin:round;stroke-miterlimit:10;}
	.st12{fill:#FFC000;}
	.st13{fill:none;stroke:#000000;stroke-width:1.0003;stroke-miterlimit:8;stroke-dasharray:4.0012,3.0009;}
	.st14{fill:none;stroke:#000000;stroke-width:2.0006;stroke-miterlimit:8;}
	.st15{fill:none;stroke:#C00000;stroke-width:4.0012;stroke-miterlimit:8;}
</style>
<path class="st0" d="M29.1,117.3l90.3,0.8c19.8-0.1,18.8-0.3,28.8-1.6c10-1.3,19.6-2.4,31.2-6.4c11.6-4,28.6-11.5,38.4-17.6
	c9.7-6.2,14.9-11.4,20-19.3c5.1-7.9,7.7-18,10.4-28.1"/>
<path class="st0" d="M29.1,88.3l83.3,0.8c18.3-0.1,17.3-0.3,26.5-1.6c9.2-1.3,18.1-2.4,28.8-6.4c10.7-4,26.4-11.5,35.4-17.6
	c9-6.1,13.8-11.4,18.4-19.3s7.1-18,9.6-28.1"/>
<path class="st1" d="M29.6,103.8l87,0.8c19.1-0.1,18.1-0.3,27.7-1.6c9.6-1.3,18.9-2.4,30-6.4s27.6-11.5,37-17.6
	c9.4-6.2,14.4-11.4,19.3-19.3c4.9-7.9,7.4-18,10-28.1"/>
<path class="st2" d="M29.6,102.1h17.3v3H29.6V102.1z M45.4,99.1l9,4.5l-9,4.5V99.1z"/>
<path class="st3" d="M29.1,104.4V87.1h3v17.3H29.1z M26.1,88.6l4.5-9l4.5,9H26.1z"/>
<path class="st4" d="M61.2,98l10.3,9.8"/>
<path class="st5" d="M61.4,108.1l9.8-10.3"/>
<path class="st4" d="M138.8,97.1l10.3,9.8"/>
<path class="st5" d="M139.1,107.2l9.8-10.3"/>
<path class="st4" d="M231.9,36.3l10.3,9.8"/>
<path class="st5" d="M232.1,46.4l9.8-10.3"/>
<g class="st6">
	<path d="M71.3,85.1h-3.1v-0.4c0.2-0.1,0.3-0.1,0.4-0.2s0.2-0.1,0.2-0.2c0.1-0.1,0.1-0.2,0.1-0.4c0-0.2,0.1-0.4,0.1-0.8v-2
		c0-0.4,0-0.7,0-1s-0.1-0.5-0.1-0.7c0-0.2-0.1-0.3-0.2-0.4c-0.1-0.1-0.2-0.2-0.2-0.3c-0.1-0.1-0.2-0.1-0.3-0.2
		c-0.1,0-0.3-0.1-0.5-0.1s-0.4,0-0.6,0.1c-0.2,0.1-0.4,0.2-0.6,0.4c-0.2,0.2-0.4,0.4-0.5,0.6c-0.1,0.2-0.1,0.4-0.1,0.7v2.9
		c0,0.4,0,0.8,0.1,0.9c0,0.2,0.1,0.3,0.2,0.4c0.1,0.1,0.3,0.2,0.6,0.2v0.4h-3.1v-0.4c0.2-0.1,0.3-0.1,0.4-0.2c0.1,0,0.2-0.1,0.2-0.2
		c0.1-0.1,0.1-0.2,0.1-0.4s0.1-0.4,0.1-0.8v-3.4c0-0.3,0-0.6,0-0.8s0-0.4-0.1-0.5c-0.1-0.1-0.2-0.2-0.3-0.3
		c-0.1-0.1-0.3-0.1-0.5-0.2v-0.4l1.8-0.1h0.5l-0.1,1.3l0.1,0c0.4-0.4,0.7-0.7,0.9-0.8c0.2-0.2,0.5-0.3,0.7-0.4
		c0.2-0.1,0.5-0.1,0.8-0.1c0.3,0,0.5,0,0.8,0.1c0.2,0.1,0.4,0.2,0.6,0.3c0.2,0.1,0.3,0.3,0.4,0.5c0.1,0.2,0.2,0.4,0.2,0.7
		s0.1,0.6,0.1,1.1v2.9c0,0.4,0,0.6,0,0.8c0,0.2,0.1,0.3,0.1,0.4c0.1,0.1,0.1,0.2,0.2,0.2c0.1,0.1,0.3,0.1,0.5,0.2V85.1z"/>
</g>
<g class="st6">
	<path d="M140.7,75.8l0.1,0c0.3-0.3,0.6-0.5,0.8-0.7c0.2-0.2,0.4-0.3,0.6-0.4c0.2-0.1,0.4-0.2,0.5-0.2c0.2,0,0.3-0.1,0.5-0.1
		c0.5,0,0.9,0.1,1.3,0.4c0.3,0.2,0.6,0.6,0.7,1.1c0.4-0.4,0.7-0.7,0.9-0.9s0.5-0.3,0.7-0.4s0.5-0.2,0.8-0.2c0.3,0,0.6,0.1,0.9,0.2
		s0.5,0.3,0.6,0.5s0.3,0.5,0.4,0.8c0.1,0.3,0.1,0.7,0.1,1.3v2.9c0,0.4,0,0.7,0,0.8c0,0.2,0.1,0.3,0.1,0.4c0,0.1,0.1,0.2,0.2,0.2
		c0.1,0.1,0.3,0.1,0.5,0.2v0.4h-3.1v-0.4c0.2-0.1,0.3-0.1,0.4-0.2s0.2-0.1,0.2-0.2c0.1-0.1,0.1-0.2,0.1-0.4c0-0.2,0.1-0.4,0.1-0.8
		v-2c0-0.4,0-0.8,0-1.1s-0.1-0.5-0.1-0.7s-0.1-0.3-0.2-0.4c-0.1-0.1-0.1-0.2-0.2-0.3c-0.1-0.1-0.2-0.1-0.3-0.2
		c-0.1,0-0.3-0.1-0.5-0.1c-0.2,0-0.4,0-0.6,0.1c-0.2,0.1-0.4,0.2-0.6,0.4c-0.2,0.2-0.4,0.4-0.5,0.6c-0.1,0.2-0.1,0.4-0.1,0.7v2.9
		c0,0.4,0,0.7,0,0.8c0,0.2,0.1,0.3,0.1,0.4c0,0.1,0.1,0.2,0.2,0.2c0.1,0.1,0.3,0.1,0.5,0.2v0.4H143v-0.4c0.2-0.1,0.3-0.1,0.4-0.2
		s0.2-0.1,0.2-0.2c0.1-0.1,0.1-0.2,0.1-0.4c0-0.2,0.1-0.4,0.1-0.8v-2c0-0.5,0-0.8,0-1.1c0-0.3-0.1-0.5-0.1-0.7
		c-0.1-0.2-0.1-0.3-0.2-0.4s-0.2-0.2-0.3-0.2c-0.1-0.1-0.2-0.1-0.3-0.1c-0.1,0-0.3,0-0.4,0c-0.2,0-0.4,0-0.6,0.1
		c-0.2,0.1-0.4,0.2-0.6,0.4c-0.2,0.2-0.3,0.4-0.4,0.6c-0.1,0.2-0.1,0.4-0.1,0.6v2.9c0,0.3,0,0.5,0,0.7s0,0.3,0.1,0.4
		c0,0.1,0.1,0.2,0.1,0.2s0.1,0.1,0.2,0.2c0.1,0,0.2,0.1,0.4,0.2v0.4h-3.1v-0.4c0.2-0.1,0.3-0.1,0.4-0.2s0.2-0.1,0.2-0.2
		c0.1-0.1,0.1-0.2,0.1-0.4s0-0.4,0-0.8v-3.4c0-0.3,0-0.6,0-0.8s0-0.4-0.1-0.5c-0.1-0.1-0.2-0.2-0.3-0.3c-0.1-0.1-0.3-0.1-0.5-0.2
		v-0.4l1.8-0.1h0.5L140.7,75.8z"/>
</g>
<g class="st6">
	<path d="M238.9,21.4H237v4.7c0,0.3,0,0.6,0.1,0.8c0,0.2,0.1,0.3,0.1,0.4c0.1,0.1,0.2,0.2,0.3,0.2s0.3,0.1,0.5,0.2v0.4h-3.2v-0.4
		c0.2-0.1,0.4-0.1,0.5-0.2c0.1-0.1,0.2-0.1,0.2-0.2c0.1-0.1,0.1-0.2,0.1-0.4c0-0.2,0-0.4,0-0.8v-4.7h-0.9V21c0.2,0,0.3-0.1,0.4-0.1
		c0.1,0,0.1,0,0.2-0.1c0.1,0,0.1-0.1,0.2-0.2c0-0.1,0.1-0.2,0.1-0.3c0-0.1,0.1-0.3,0.1-0.6c0-0.6,0.1-1,0.3-1.4
		c0.2-0.4,0.4-0.7,0.7-0.9s0.6-0.4,1-0.5s0.8-0.2,1.2-0.2c0.4,0,0.8,0,1,0.1v1.4h-0.8c-0.1-0.3-0.2-0.5-0.3-0.7
		c-0.1-0.1-0.3-0.2-0.6-0.2c-0.2,0-0.3,0-0.4,0.1s-0.2,0.1-0.3,0.2c-0.1,0.1-0.2,0.2-0.3,0.4c-0.1,0.2-0.1,0.4-0.2,0.6
		c0,0.2-0.1,0.6-0.1,1v0.8h1.9V21.4z"/>
</g>
<path d="M29.6,265.3h221.8v0.7H29.6V265.3z M250.1,261.6l8,4l-8,4V261.6z"/>
<path d="M29.9,266.2l0-110.9h-0.7l0,110.9H29.9z M33.6,156.6l-4-8l-4,8H33.6z"/>
<path class="st7" d="M66.6,104.6v161.8"/>
<path class="st7" d="M144.6,103.6v161.8"/>
<path class="st7" d="M237.6,45.6V266"/>
<path class="st8" d="M30.6,265.6l27.3-0.7c6-0.1,8.7,0,8.7,0l46.7-0.7c12.7-0.9,21.6-1,29.3-4.7c7.8-3.7,11.2-10.4,17.3-17.3
	c6.1-6.9,10.6-15.8,19.3-23.9c8.8-8.1,23.4-19.8,33.3-24.6c9.9-4.8,17.9-4.4,26-4"/>
<path class="st9" d="M143.4,261.6l-76.7,0"/>
<path class="st9" d="M237.3,213.6l-93.7,0"/>
<rect x="66.1" y="261.1" class="st10" width="78" height="5"/>
<rect x="144.1" y="213.1" class="st10" width="93" height="52"/>
<g class="st6">
	<path d="M70.4,277.1h-3.1v-0.4c0.2-0.1,0.3-0.1,0.4-0.2s0.2-0.1,0.2-0.2s0.1-0.2,0.1-0.4s0.1-0.4,0.1-0.8v-2c0-0.4,0-0.7,0-1
		s-0.1-0.5-0.1-0.7s-0.1-0.3-0.2-0.4s-0.2-0.2-0.2-0.3s-0.2-0.1-0.3-0.2s-0.3-0.1-0.5-0.1s-0.4,0-0.6,0.1s-0.4,0.2-0.6,0.4
		s-0.4,0.4-0.5,0.6S65,272,65,272.2v2.9c0,0.4,0,0.8,0.1,0.9s0.1,0.3,0.2,0.4s0.3,0.2,0.6,0.2v0.4h-3.1v-0.4
		c0.2-0.1,0.3-0.1,0.4-0.2s0.2-0.1,0.2-0.2s0.1-0.2,0.1-0.4s0.1-0.4,0.1-0.8v-3.4c0-0.3,0-0.6,0-0.8s0-0.4-0.1-0.5s-0.2-0.2-0.3-0.3
		s-0.3-0.1-0.5-0.2v-0.4l1.8-0.1H65l-0.1,1.3l0.1,0c0.4-0.4,0.7-0.7,0.9-0.8s0.5-0.3,0.7-0.4s0.5-0.1,0.8-0.1c0.3,0,0.5,0,0.8,0.1
		s0.4,0.2,0.6,0.3s0.3,0.3,0.4,0.5s0.2,0.4,0.2,0.7s0.1,0.6,0.1,1.1v2.9c0,0.4,0,0.6,0,0.8s0.1,0.3,0.1,0.4s0.1,0.2,0.2,0.2
		s0.3,0.1,0.5,0.2V277.1z"/>
</g>
<g class="st6">
	<path d="M140,270.8l0.1,0c0.3-0.3,0.6-0.5,0.8-0.7s0.4-0.3,0.6-0.4s0.4-0.2,0.5-0.2s0.3-0.1,0.5-0.1c0.5,0,0.9,0.1,1.3,0.4
		s0.6,0.6,0.7,1.1c0.4-0.4,0.7-0.7,0.9-0.9s0.5-0.3,0.7-0.4s0.5-0.2,0.8-0.2c0.3,0,0.6,0.1,0.9,0.2s0.5,0.3,0.6,0.5s0.3,0.5,0.4,0.8
		s0.1,0.7,0.1,1.3v2.9c0,0.4,0,0.7,0,0.8s0.1,0.3,0.1,0.4s0.1,0.2,0.2,0.2s0.3,0.1,0.5,0.2v0.4h-3.1v-0.4c0.2-0.1,0.3-0.1,0.4-0.2
		s0.2-0.1,0.2-0.2s0.1-0.2,0.1-0.4s0.1-0.4,0.1-0.8v-2c0-0.4,0-0.8,0-1.1s-0.1-0.5-0.1-0.7s-0.1-0.3-0.2-0.4s-0.1-0.2-0.2-0.3
		s-0.2-0.1-0.3-0.2s-0.3-0.1-0.5-0.1c-0.2,0-0.4,0-0.6,0.1s-0.4,0.2-0.6,0.4s-0.4,0.4-0.5,0.6s-0.1,0.4-0.1,0.7v2.9
		c0,0.4,0,0.7,0,0.8s0.1,0.3,0.1,0.4s0.1,0.2,0.2,0.2s0.3,0.1,0.5,0.2v0.4h-3.1v-0.4c0.2-0.1,0.3-0.1,0.4-0.2s0.2-0.1,0.2-0.2
		s0.1-0.2,0.1-0.4s0.1-0.4,0.1-0.8v-2c0-0.5,0-0.8,0-1.1s-0.1-0.5-0.1-0.7s-0.1-0.3-0.2-0.4s-0.2-0.2-0.3-0.2s-0.2-0.1-0.3-0.1
		s-0.3,0-0.4,0c-0.2,0-0.4,0-0.6,0.1s-0.4,0.2-0.6,0.4s-0.3,0.4-0.4,0.6s-0.1,0.4-0.1,0.6v2.9c0,0.3,0,0.5,0,0.7s0,0.3,0.1,0.4
		s0.1,0.2,0.1,0.2s0.1,0.1,0.2,0.2s0.2,0.1,0.4,0.2v0.4h-3.1v-0.4c0.2-0.1,0.3-0.1,0.4-0.2s0.2-0.1,0.2-0.2s0.1-0.2,0.1-0.4
		s0-0.4,0-0.8v-3.4c0-0.3,0-0.6,0-0.8s0-0.4-0.1-0.5s-0.2-0.2-0.3-0.3s-0.3-0.1-0.5-0.2v-0.4l1.8-0.1h0.5L140,270.8z"/>
</g>
<g class="st6">
	<path d="M187.8,198.7L187.8,198.7C187.8,198.8,187.8,198.8,187.8,198.7c0.2-0.2,0.4-0.4,0.6-0.5c0.2-0.1,0.4-0.2,0.6-0.2
		c0.2,0,0.4,0.1,0.5,0.2c0.1,0.1,0.2,0.3,0.2,0.5c0,0.1,0,0.3-0.1,0.5l-0.3,1.2c0,0.2-0.1,0.3-0.1,0.4c0,0.1,0,0.1,0,0.2
		c0,0,0.1,0.1,0.1,0.1c0,0,0.1,0,0.2,0l0,0.2h-1.1l0.4-1.7c0-0.1,0.1-0.3,0.1-0.4c0-0.1,0-0.2,0-0.4c0-0.2,0-0.3-0.1-0.4
		c-0.1-0.1-0.1-0.1-0.3-0.1c-0.1,0-0.2,0-0.3,0.1c-0.1,0.1-0.2,0.2-0.3,0.3c-0.1,0.2-0.2,0.3-0.3,0.4c-0.1,0.1-0.1,0.3-0.2,0.5
		l-0.3,1.5h-0.6l0.4-1.7c0-0.2,0.1-0.4,0.1-0.5c0-0.1,0-0.2,0-0.3c0-0.2,0-0.3-0.1-0.4c-0.1-0.1-0.1-0.1-0.3-0.1
		c-0.1,0-0.2,0-0.3,0.1s-0.2,0.2-0.4,0.3s-0.2,0.3-0.3,0.5s-0.1,0.3-0.2,0.5l-0.3,1.5h-0.6l0.5-2.3c0-0.1,0-0.1,0-0.2
		c0-0.1,0-0.2,0-0.3c0-0.1,0-0.1,0-0.1s-0.1-0.1-0.1-0.1c0,0-0.1,0-0.2,0l0-0.2l0.8,0h0.2l-0.2,0.9l0,0c0.2-0.3,0.4-0.5,0.6-0.7
		c0.2-0.2,0.4-0.2,0.6-0.2c0.2,0,0.4,0.1,0.5,0.2C187.7,198.3,187.8,198.5,187.8,198.7z"/>
	<path d="M190.9,201.4c-0.1,0.4-0.2,0.7-0.3,0.9c-0.1,0.2-0.3,0.4-0.5,0.5s-0.4,0.1-0.7,0.1c-0.1,0-0.2,0-0.3,0l0.1-0.3
		c0.1,0,0.1,0,0.2,0c0.1,0,0.2,0,0.3,0c0.1,0,0.1-0.1,0.2-0.2c0.1-0.1,0.1-0.2,0.2-0.3c0.1-0.1,0.1-0.3,0.2-0.5l0.7-3.1h-0.4l0-0.2
		c0.1,0,0.2,0,0.2,0s0.1,0,0.1-0.1s0.1-0.1,0.1-0.1c0-0.1,0.1-0.2,0.1-0.3c0.1-0.4,0.3-0.7,0.6-0.9s0.6-0.3,1-0.3
		c0.2,0,0.4,0,0.6,0.1l-0.1,0.6h-0.3c0-0.1-0.1-0.2-0.1-0.3c-0.1-0.1-0.1-0.1-0.2-0.1c-0.1,0-0.2,0-0.3,0.1
		c-0.1,0.1-0.2,0.2-0.2,0.3c-0.1,0.1-0.1,0.3-0.2,0.6l-0.1,0.4h0.8l-0.1,0.3h-0.8L190.9,201.4z"/>
</g>
<g class="st6">
	<path d="M104.9,255.1h-1.1l0.4-1.7c0-0.1,0.1-0.2,0.1-0.4s0-0.3,0-0.4c0-0.2,0-0.3-0.1-0.3s-0.1-0.1-0.3-0.1c-0.1,0-0.2,0-0.3,0.1
		s-0.2,0.2-0.3,0.3c-0.1,0.1-0.2,0.3-0.3,0.4s-0.1,0.3-0.2,0.6l-0.3,1.5h-0.6l0.5-2.3c0-0.1,0-0.1,0-0.2c0-0.1,0-0.2,0-0.3
		c0-0.1,0-0.1,0-0.1s-0.1-0.1-0.1-0.1c0,0-0.1,0-0.2,0l0-0.2l0.8,0h0.2l-0.2,0.9l0,0c0.2-0.3,0.4-0.5,0.6-0.7s0.4-0.2,0.6-0.2
		c0.2,0,0.4,0.1,0.5,0.2c0.1,0.1,0.2,0.3,0.2,0.5c0,0.1,0,0.2,0,0.3s0,0.2,0,0.3l-0.3,1.2c0,0.2-0.1,0.3-0.1,0.4c0,0.1,0,0.1,0,0.2
		c0,0,0.1,0.1,0.1,0.1c0,0,0.1,0,0.2,0L104.9,255.1z"/>
	<path d="M108.7,252.5L108.7,252.5C108.7,252.6,108.7,252.6,108.7,252.5c0.2-0.2,0.4-0.4,0.6-0.5c0.2-0.1,0.4-0.2,0.6-0.2
		c0.2,0,0.4,0.1,0.5,0.2c0.1,0.1,0.2,0.3,0.2,0.5c0,0.1,0,0.3-0.1,0.5l-0.3,1.2c0,0.2-0.1,0.3-0.1,0.4c0,0.1,0,0.1,0,0.2
		c0,0,0.1,0.1,0.1,0.1c0,0,0.1,0,0.2,0l0,0.2h-1.1l0.4-1.7c0-0.1,0.1-0.3,0.1-0.4c0-0.1,0-0.2,0-0.4c0-0.2,0-0.3-0.1-0.4
		c-0.1-0.1-0.1-0.1-0.3-0.1c-0.1,0-0.2,0-0.3,0.1c-0.1,0.1-0.2,0.2-0.3,0.3c-0.1,0.2-0.2,0.3-0.3,0.4c-0.1,0.1-0.1,0.3-0.2,0.5
		l-0.3,1.5h-0.6l0.4-1.7c0-0.2,0.1-0.4,0.1-0.5c0-0.1,0-0.2,0-0.3c0-0.2,0-0.3-0.1-0.4c-0.1-0.1-0.1-0.1-0.3-0.1
		c-0.1,0-0.2,0-0.3,0.1s-0.2,0.2-0.4,0.3s-0.2,0.3-0.3,0.5s-0.1,0.3-0.2,0.5l-0.3,1.5h-0.6l0.5-2.3c0-0.1,0-0.1,0-0.2
		c0-0.1,0-0.2,0-0.3c0-0.1,0-0.1,0-0.1s-0.1-0.1-0.1-0.1c0,0-0.1,0-0.2,0l0-0.2l0.8,0h0.2l-0.2,0.9l0,0c0.2-0.3,0.4-0.5,0.6-0.7
		c0.2-0.2,0.4-0.2,0.6-0.2c0.2,0,0.4,0.1,0.5,0.2C108.6,252.1,108.7,252.3,108.7,252.5z"/>
</g>
<g class="st6">
	<path d="M51.5,256.7c-0.4,0-0.6-0.1-0.8-0.3c-0.2-0.2-0.3-0.5-0.3-0.9c0-0.1,0-0.3,0.1-0.5c0-0.2,0.1-0.5,0.2-0.6
		c0.1-0.2,0.2-0.4,0.4-0.6c0.2-0.2,0.3-0.3,0.6-0.4c0.2-0.1,0.4-0.1,0.7-0.1c0.3,0,0.5,0,0.6,0.2c0.2,0.1,0.3,0.2,0.4,0.4
		s0.1,0.4,0.1,0.6c0,0.2,0,0.4-0.1,0.6c-0.1,0.3-0.2,0.6-0.4,0.9c-0.2,0.2-0.4,0.4-0.6,0.5C52.1,256.7,51.8,256.7,51.5,256.7z
		 M51,255.7c0,0.3,0.1,0.4,0.2,0.6c0.1,0.1,0.3,0.2,0.5,0.2c0.2,0,0.4-0.1,0.6-0.3c0.2-0.2,0.3-0.5,0.4-0.8c0.1-0.4,0.2-0.7,0.2-1
		c0-0.2,0-0.4-0.1-0.6s-0.2-0.2-0.4-0.2c-0.2,0-0.4,0.1-0.6,0.3c-0.2,0.2-0.3,0.5-0.4,0.9S51,255.4,51,255.7z"/>
	<path d="M56.9,256.7h-1.1l0.4-1.7c0-0.1,0.1-0.2,0.1-0.4s0-0.3,0-0.4c0-0.2,0-0.3-0.1-0.3s-0.1-0.1-0.3-0.1c-0.1,0-0.2,0-0.3,0.1
		s-0.2,0.2-0.3,0.3c-0.1,0.1-0.2,0.3-0.3,0.4s-0.1,0.3-0.2,0.6l-0.3,1.5H54l0.5-2.3c0-0.1,0-0.1,0-0.2c0-0.1,0-0.2,0-0.3
		c0-0.1,0-0.1,0-0.1s-0.1-0.1-0.1-0.1c0,0-0.1,0-0.2,0l0-0.2l0.8,0h0.2l-0.2,0.9l0,0c0.2-0.3,0.4-0.5,0.6-0.7s0.4-0.2,0.6-0.2
		c0.2,0,0.4,0.1,0.5,0.2c0.1,0.1,0.2,0.3,0.2,0.5c0,0.1,0,0.2,0,0.3s0,0.2,0,0.3l-0.3,1.2c0,0.2-0.1,0.3-0.1,0.4c0,0.1,0,0.1,0,0.2
		c0,0,0.1,0.1,0.1,0.1c0,0,0.1,0,0.2,0L56.9,256.7z"/>
</g>
<g class="st6">
	<path d="M238.4,273.4h-1.9v4.7c0,0.3,0,0.6,0.1,0.8s0.1,0.3,0.1,0.4s0.2,0.2,0.3,0.2s0.3,0.1,0.5,0.2v0.4h-3.2v-0.4
		c0.2-0.1,0.4-0.1,0.5-0.2s0.2-0.1,0.2-0.2s0.1-0.2,0.1-0.4s0-0.4,0-0.8v-4.7h-0.9V273c0.2,0,0.3-0.1,0.4-0.1s0.1,0,0.2-0.1
		s0.1-0.1,0.2-0.2s0.1-0.2,0.1-0.3c0-0.1,0.1-0.3,0.1-0.6c0-0.6,0.1-1,0.3-1.4c0.2-0.4,0.4-0.7,0.7-0.9s0.6-0.4,1-0.5
		s0.8-0.2,1.2-0.2c0.4,0,0.8,0,1,0.1v1.4h-0.8c-0.1-0.3-0.2-0.5-0.3-0.7c-0.1-0.1-0.3-0.2-0.6-0.2c-0.2,0-0.3,0-0.4,0.1
		s-0.2,0.1-0.3,0.2c-0.1,0.1-0.2,0.2-0.3,0.4c-0.1,0.2-0.1,0.4-0.2,0.6c0,0.2-0.1,0.6-0.1,1v0.8h1.9V273.4z"/>
</g>
<g class="st6">
	<path d="M28.2,278.2c-1.1,0-1.9-0.3-2.5-1s-0.9-1.6-0.9-2.8c0-0.9,0.1-1.6,0.4-2.2s0.7-1,1.2-1.3s1.1-0.4,1.8-0.4
		c1.1,0,2,0.3,2.5,1s0.9,1.6,0.9,2.8c0,0.9-0.1,1.6-0.4,2.2s-0.7,1-1.2,1.3S29,278.2,28.2,278.2z M26.4,274.3c0,1.1,0.2,1.9,0.5,2.5
		s0.8,0.9,1.5,0.9c0.3,0,0.6-0.1,0.9-0.3s0.4-0.4,0.6-0.7s0.3-0.6,0.3-1s0.1-0.8,0.1-1.2c0-0.8-0.1-1.4-0.3-1.9s-0.4-0.9-0.7-1.1
		s-0.6-0.4-1-0.4c-0.6,0-1.1,0.3-1.4,0.8S26.4,273.3,26.4,274.3z"/>
</g>
<g class="st6">
	<path d="M25.5,110c0-1.5,0.4-2.7,1.3-3.4c0.7-0.6,1.6-0.9,2.6-0.9c1.1,0,2.1,0.4,2.8,1.1c0.7,0.7,1.1,1.8,1.1,3.1
		c0,1.1-0.2,1.9-0.5,2.5c-0.3,0.6-0.8,1.1-1.4,1.4s-1.3,0.5-2,0.5c-1.2,0-2.1-0.4-2.8-1.1C25.8,112.4,25.5,111.4,25.5,110z
		 M26.9,110c0,1.1,0.2,1.9,0.7,2.4c0.5,0.5,1,0.8,1.8,0.8c0.7,0,1.3-0.3,1.7-0.8s0.7-1.3,0.7-2.4c0-1-0.2-1.8-0.7-2.3
		c-0.5-0.5-1-0.8-1.7-0.8c-0.7,0-1.3,0.3-1.8,0.8C27.2,108.1,26.9,108.9,26.9,110z"/>
</g>
<path class="st11" d="M29.1,103.1c9.9-2.8,19.9-5.7,39-7.1c19.1-1.4,54.2,1.3,75.6-1.2c21.4-2.4,38-3.7,52.6-13.5
	c14.6-9.8,24.7-27.5,34.8-45.3"/>
<path class="st12" d="M143.2,105.1l0-3.9l3,0l0,3.9L143.2,105.1z M140.2,102.7l4.4-9.1l4.6,8.9L140.2,102.7z"/>
<path class="st12" d="M68.1,96.6v2.3h-3v-2.3H68.1z M71.1,97.4l-4.5,9l-4.5-9L71.1,97.4z"/>
<path class="st12" d="M236.6,45.4l-4.9-8.8l10,1.3L236.6,45.4z"/>
<path class="st4" d="M303.8,39.3l10.3,9.8"/>
<path class="st5" d="M304,49.4l9.8-10.3"/>
<g class="st6">
	<path d="M338.5,43.9c0.1,0.2,0.3,0.4,0.4,0.6s0.2,0.4,0.3,0.6h0.1c0-0.2,0-0.7-0.1-1.4s0-1.3,0-1.9v-1.2c0-0.3,0-0.5,0-0.6
		c0-0.1,0-0.2-0.1-0.3c0-0.1-0.1-0.1-0.2-0.2s-0.2-0.1-0.4-0.1v-0.3h2.1v0.3c-0.2,0-0.3,0.1-0.4,0.1c-0.1,0-0.1,0.1-0.2,0.2
		c0,0.1-0.1,0.2-0.1,0.3c0,0.1,0,0.3,0,0.6v6.6h-0.7l-3.3-5.5c-0.2-0.3-0.3-0.6-0.4-0.7c-0.1-0.2-0.2-0.3-0.2-0.5h-0.1
		c0,0.3,0,0.8,0.1,1.6s0,1.6,0,2.4v1.2c0,0.3,0,0.5,0,0.6s0,0.2,0.1,0.3s0.1,0.1,0.2,0.2s0.2,0.1,0.4,0.1v0.3h-2.1v-0.3
		c0.2-0.1,0.4-0.1,0.5-0.2s0.1-0.2,0.2-0.3s0-0.4,0-0.6v-5.1c0-0.3,0-0.5,0-0.6s-0.1-0.2-0.1-0.3c0-0.1-0.1-0.1-0.2-0.2
		s-0.2-0.1-0.4-0.1v-0.3h1.8L338.5,43.9z"/>
	<path d="M344.4,47.2c-0.8,0-1.4-0.2-1.9-0.7s-0.6-1.2-0.6-2.1c0-0.6,0.1-1.2,0.3-1.6s0.5-0.8,0.9-1s0.8-0.3,1.3-0.3
		c0.8,0,1.5,0.2,1.9,0.7s0.6,1.2,0.6,2.1c0,0.6-0.1,1.2-0.3,1.6s-0.5,0.8-0.9,1S344.9,47.2,344.4,47.2z M343,44.2
		c0,0.8,0.1,1.4,0.4,1.9s0.6,0.6,1.1,0.6c0.3,0,0.5-0.1,0.7-0.2s0.3-0.3,0.4-0.5s0.2-0.5,0.2-0.7s0.1-0.6,0.1-0.9
		c0-0.6-0.1-1.1-0.2-1.4s-0.3-0.7-0.5-0.8s-0.5-0.3-0.8-0.3c-0.5,0-0.8,0.2-1.1,0.6S343,43.5,343,44.2z"/>
	<path d="M352.2,40.7c0-0.4,0-0.6,0-0.8c0-0.1,0-0.3,0-0.4c0-0.1-0.1-0.2-0.1-0.2s-0.1-0.1-0.2-0.1s-0.2-0.1-0.4-0.1v-0.3l1.4-0.1
		h0.3v6.8c0,0.3,0,0.5,0,0.7s0,0.2,0.1,0.3s0.1,0.1,0.2,0.2s0.2,0.1,0.4,0.1v0.3l-1.4,0.1h-0.4l0.1-1l-0.1,0
		c-0.2,0.3-0.5,0.5-0.6,0.6s-0.4,0.2-0.6,0.3s-0.4,0.1-0.7,0.1c-0.6,0-1.1-0.2-1.5-0.7s-0.5-1.2-0.5-2.1c0-0.6,0.1-1.2,0.3-1.6
		s0.5-0.8,0.9-1s0.8-0.3,1.3-0.3c0.3,0,0.5,0,0.7,0.1s0.4,0.1,0.7,0.2V40.7z M352.2,43.6c0-0.3,0-0.5,0-0.7s-0.1-0.3-0.1-0.5
		s-0.2-0.2-0.3-0.3s-0.2-0.1-0.4-0.2s-0.3-0.1-0.5-0.1c-0.5,0-0.9,0.2-1.1,0.6s-0.4,1-0.4,1.7s0.1,1.3,0.3,1.7s0.5,0.6,1,0.6
		c0.2,0,0.3,0,0.4,0s0.2-0.1,0.3-0.1s0.2-0.2,0.3-0.3s0.2-0.2,0.2-0.3s0.1-0.2,0.1-0.3s0-0.3,0-0.5V43.6z"/>
	<path d="M359.6,46.1c-0.2,0.3-0.5,0.5-0.7,0.6s-0.4,0.3-0.7,0.3s-0.5,0.1-0.8,0.1c-0.8,0-1.4-0.2-1.8-0.7s-0.6-1.2-0.6-2.1
		c0-0.6,0.1-1.1,0.3-1.5s0.5-0.8,0.9-1s0.8-0.4,1.3-0.4c0.4,0,0.7,0.1,1,0.2s0.5,0.3,0.7,0.5s0.3,0.5,0.4,0.8s0.1,0.8,0.2,1.3H356
		v0.1c0,0.5,0.1,0.8,0.2,1.2s0.3,0.6,0.5,0.7s0.5,0.3,0.9,0.3c0.3,0,0.6-0.1,0.9-0.2s0.5-0.3,0.8-0.6L359.6,46.1z M358.6,43.7
		c0-0.4-0.1-0.8-0.2-1s-0.2-0.5-0.4-0.6s-0.4-0.2-0.6-0.2c-0.4,0-0.7,0.2-1,0.5s-0.4,0.8-0.4,1.4H358.6z"/>
</g>
<g class="st6">
	<path d="M365,46.9v1.2c0,0.3,0,0.4,0,0.6s0,0.2,0.1,0.3s0.1,0.1,0.2,0.2s0.2,0.1,0.4,0.1v0.3h-2.4v-0.3c0.1,0,0.3-0.1,0.3-0.1
		s0.2-0.1,0.2-0.2s0.1-0.2,0.1-0.3s0-0.3,0-0.5v-5c0-0.3,0-0.5,0-0.6s0-0.2,0-0.3s-0.1-0.1-0.1-0.2s-0.1-0.1-0.2-0.1
		s-0.2-0.1-0.4-0.1v-0.3l1.4-0.1h0.4l-0.1,1l0.1,0c0.2-0.2,0.4-0.4,0.6-0.5s0.3-0.2,0.4-0.3s0.3-0.1,0.4-0.2s0.3,0,0.4,0
		c0.6,0,1.1,0.2,1.5,0.7s0.5,1.2,0.5,2.1c0,0.6-0.1,1.2-0.3,1.6s-0.5,0.8-0.9,1s-0.8,0.3-1.3,0.3c-0.3,0-0.6,0-0.8-0.1
		S365.1,47,365,46.9z M365,45c0,0.4,0,0.7,0.1,0.9s0.1,0.4,0.2,0.5s0.3,0.2,0.4,0.3s0.4,0.1,0.6,0.1c0.5,0,0.8-0.2,1.1-0.6
		s0.4-1,0.4-1.7c0-1.5-0.4-2.3-1.3-2.3c-0.2,0-0.4,0-0.6,0.1s-0.3,0.2-0.5,0.3s-0.3,0.3-0.3,0.4s-0.1,0.3-0.1,0.5V45z"/>
	<path d="M372.6,47.2c-0.8,0-1.4-0.2-1.9-0.7s-0.6-1.2-0.6-2.1c0-0.6,0.1-1.2,0.3-1.6s0.5-0.8,0.9-1s0.8-0.3,1.3-0.3
		c0.8,0,1.5,0.2,1.9,0.7s0.6,1.2,0.6,2.1c0,0.6-0.1,1.2-0.3,1.6s-0.5,0.8-0.9,1S373.1,47.2,372.6,47.2z M371.2,44.2
		c0,0.8,0.1,1.4,0.4,1.9s0.6,0.6,1.1,0.6c0.3,0,0.5-0.1,0.7-0.2s0.3-0.3,0.4-0.5s0.2-0.5,0.2-0.7s0.1-0.6,0.1-0.9
		c0-0.6-0.1-1.1-0.2-1.4s-0.3-0.7-0.5-0.8s-0.5-0.3-0.8-0.3c-0.5,0-0.8,0.2-1.1,0.6S371.2,43.5,371.2,44.2z"/>
	<path d="M376.4,46.8c0.2,0,0.3-0.1,0.3-0.1s0.1-0.1,0.2-0.1s0.1-0.2,0.1-0.3s0-0.3,0-0.6v-2.6c0-0.2,0-0.5,0-0.6s0-0.3-0.1-0.4
		s-0.1-0.2-0.2-0.2s-0.2-0.1-0.4-0.1v-0.3l1.4-0.1h0.4v4.2c0,0.3,0,0.6,0,0.7s0.1,0.2,0.2,0.3s0.2,0.1,0.4,0.2v0.3h-2.3V46.8z
		 M378.1,39.2v1.1H377v-1.1H378.1z"/>
	<path d="M385.4,47.1h-2.3v-0.3c0.2,0,0.3-0.1,0.3-0.1s0.1-0.1,0.2-0.1s0.1-0.2,0.1-0.3s0-0.3,0-0.6v-1.5c0-0.3,0-0.5,0-0.7
		s0-0.4-0.1-0.5s-0.1-0.3-0.1-0.3s-0.1-0.1-0.2-0.2s-0.2-0.1-0.2-0.1s-0.2,0-0.4,0s-0.3,0-0.4,0.1s-0.3,0.2-0.5,0.3
		s-0.3,0.3-0.4,0.4s-0.1,0.3-0.1,0.5v2.2c0,0.3,0,0.6,0,0.7s0.1,0.2,0.2,0.3s0.2,0.1,0.4,0.2v0.3h-2.3v-0.3c0.2,0,0.3-0.1,0.3-0.1
		s0.1-0.1,0.2-0.1s0.1-0.2,0.1-0.3s0-0.3,0-0.6v-2.6c0-0.2,0-0.5,0-0.6s0-0.3-0.1-0.4s-0.1-0.2-0.2-0.2s-0.2-0.1-0.4-0.1v-0.3
		l1.4-0.1h0.4l-0.1,1l0.1,0c0.3-0.3,0.5-0.5,0.7-0.6s0.4-0.2,0.5-0.3s0.4-0.1,0.6-0.1c0.2,0,0.4,0,0.6,0.1s0.3,0.1,0.4,0.2
		s0.2,0.2,0.3,0.4s0.1,0.3,0.2,0.5s0.1,0.5,0.1,0.8v2.2c0,0.3,0,0.5,0,0.6s0,0.2,0.1,0.3s0.1,0.1,0.2,0.2s0.2,0.1,0.4,0.1V47.1z"/>
	<path d="M386.1,41.8c0.2,0,0.4-0.1,0.5-0.2s0.2-0.2,0.3-0.3s0.1-0.3,0.2-0.5c0-0.2,0.1-0.5,0.1-0.8h0.8v1.4h1.9v0.6H388v2.6
		c0,0.4,0,0.7,0,0.9s0.1,0.4,0.2,0.5s0.2,0.2,0.3,0.3s0.2,0.1,0.4,0.1c0.2,0,0.3,0,0.4-0.1s0.3-0.2,0.4-0.3l0.3,0.3
		c-0.3,0.3-0.5,0.5-0.8,0.6s-0.5,0.2-0.8,0.2c-0.5,0-0.9-0.1-1.1-0.4S387,46,387,45.4v-3.3h-0.9V41.8z"/>
	<path d="M394.4,42.8h-0.6c-0.1-0.2-0.2-0.4-0.3-0.6s-0.2-0.2-0.4-0.3s-0.3-0.1-0.5-0.1c-0.3,0-0.6,0.1-0.7,0.2s-0.3,0.3-0.3,0.6
		c0,0.2,0,0.3,0.1,0.4s0.2,0.2,0.3,0.3s0.4,0.2,0.8,0.4c0.4,0.2,0.7,0.3,0.9,0.5s0.4,0.3,0.5,0.5s0.2,0.4,0.2,0.7
		c0,0.3-0.1,0.6-0.2,0.8s-0.3,0.4-0.4,0.5s-0.4,0.2-0.7,0.3s-0.6,0.1-0.9,0.1c-0.3,0-0.6,0-1-0.1s-0.6-0.1-0.9-0.2v-1.2h0.6
		c0.1,0.4,0.3,0.6,0.5,0.8s0.5,0.2,0.9,0.2c0.1,0,0.3,0,0.4,0s0.3-0.1,0.4-0.1s0.2-0.2,0.3-0.3s0.1-0.3,0.1-0.4c0-0.2,0-0.4-0.1-0.5
		s-0.2-0.2-0.4-0.3s-0.5-0.2-0.9-0.4c-0.4-0.1-0.6-0.3-0.9-0.4s-0.4-0.3-0.5-0.5s-0.2-0.4-0.2-0.7c0-0.3,0.1-0.6,0.3-0.8
		s0.4-0.4,0.8-0.5s0.7-0.2,1.2-0.2c0.3,0,0.5,0,0.7,0s0.5,0.1,0.9,0.1V42.8z"/>
</g>
<path class="st13" d="M293.6,74.6h31"/>
<g class="st6">
	<path d="M342.2,70.4c-0.2,0-0.3,0.1-0.4,0.1c-0.1,0-0.1,0.1-0.2,0.2s-0.1,0.2-0.1,0.3s0,0.3,0,0.6v5.1c0,0.3,0,0.5,0,0.6
		s0,0.2,0.1,0.3s0.1,0.1,0.2,0.2s0.2,0.1,0.4,0.1v0.3h-2.4v-0.3c0.2-0.1,0.4-0.1,0.5-0.2s0.1-0.2,0.2-0.3s0-0.4,0-0.7v-2.2
		c0-0.6,0-1.2,0-1.8s0-1,0.1-1.2h-0.1l-2.3,5.8h-0.7l-2.2-5.9h-0.1c0,0.2,0,0.7,0.1,1.3c0,0.6,0,1.3,0,1.9v2.1c0,0.3,0,0.5,0,0.6
		s0,0.2,0.1,0.3s0.1,0.1,0.2,0.2s0.2,0.1,0.4,0.1v0.3h-2.1v-0.3c0.2-0.1,0.4-0.1,0.5-0.2s0.1-0.2,0.2-0.3s0-0.4,0-0.6v-5.1
		c0-0.3,0-0.5,0-0.6s-0.1-0.2-0.1-0.3c0-0.1-0.1-0.1-0.2-0.2s-0.2-0.1-0.4-0.1v-0.3h2.1l2.1,5.7l2.3-5.7h2V70.4z"/>
	<path d="M343.5,77.8c0.2,0,0.3-0.1,0.3-0.1s0.1-0.1,0.2-0.1s0.1-0.2,0.1-0.3s0-0.3,0-0.6v-2.6c0-0.2,0-0.5,0-0.6s0-0.3-0.1-0.4
		s-0.1-0.2-0.2-0.2s-0.2-0.1-0.4-0.1v-0.3l1.4-0.1h0.4v4.2c0,0.3,0,0.6,0,0.7s0.1,0.2,0.2,0.3s0.2,0.1,0.4,0.2v0.3h-2.3V77.8z
		 M345.1,70.2v1.1h-1.1v-1.1H345.1z"/>
	<path d="M350.8,71.7c0-0.4,0-0.6,0-0.8c0-0.1,0-0.3,0-0.4c0-0.1-0.1-0.2-0.1-0.2s-0.1-0.1-0.2-0.1s-0.2-0.1-0.4-0.1v-0.3l1.4-0.1
		h0.3v6.8c0,0.3,0,0.5,0,0.7s0,0.2,0.1,0.3s0.1,0.1,0.2,0.2s0.2,0.1,0.4,0.1v0.3l-1.4,0.1h-0.4l0.1-1l-0.1,0
		c-0.2,0.3-0.5,0.5-0.6,0.6s-0.4,0.2-0.6,0.3s-0.4,0.1-0.7,0.1c-0.6,0-1.1-0.2-1.5-0.7s-0.5-1.2-0.5-2.1c0-0.6,0.1-1.2,0.3-1.6
		s0.5-0.8,0.9-1s0.8-0.3,1.3-0.3c0.3,0,0.5,0,0.7,0.1s0.4,0.1,0.7,0.2V71.7z M350.8,74.6c0-0.3,0-0.5,0-0.7s-0.1-0.3-0.1-0.5
		s-0.2-0.2-0.3-0.3s-0.2-0.1-0.4-0.2s-0.3-0.1-0.5-0.1c-0.5,0-0.9,0.2-1.1,0.6s-0.4,1-0.4,1.7s0.1,1.3,0.3,1.7s0.5,0.6,1,0.6
		c0.2,0,0.3,0,0.4,0s0.2-0.1,0.3-0.1s0.2-0.2,0.3-0.3s0.2-0.2,0.2-0.3s0.1-0.2,0.1-0.3s0-0.3,0-0.5V74.6z"/>
</g>
<g class="st6">
	<path d="M356.3,75.5h-2.7v-0.9h2.7V75.5z"/>
</g>
<g class="st6">
	<path d="M359.1,76.6c0,0.3,0,0.6,0,0.7s0.1,0.2,0.2,0.3s0.2,0.1,0.4,0.2v0.3h-2.3v-0.3c0.2-0.1,0.3-0.1,0.4-0.2s0.1-0.1,0.2-0.2
		s0.1-0.2,0.1-0.3s0-0.3,0-0.5v-4.9c0-0.4,0-0.6,0-0.8c0-0.1,0-0.3,0-0.4c0-0.1-0.1-0.2-0.1-0.2s-0.1-0.1-0.2-0.1s-0.2-0.1-0.4-0.1
		v-0.3l1.4-0.1h0.4V76.6z"/>
	<path d="M364.2,77.3L364.2,77.3c-0.4,0.3-0.7,0.6-1,0.7s-0.6,0.2-1,0.2c-0.3,0-0.6-0.1-0.8-0.2s-0.4-0.3-0.5-0.5s-0.2-0.5-0.2-0.7
		c0-0.6,0.3-1,0.8-1.3s1.4-0.5,2.5-0.5v-0.4c0-0.4,0-0.7-0.1-1s-0.2-0.4-0.4-0.5s-0.4-0.2-0.7-0.2c-0.3,0-0.5,0.1-0.7,0.2
		s-0.3,0.4-0.4,0.7H361v-0.8c0.4-0.2,0.7-0.3,0.9-0.4s0.5-0.2,0.8-0.2s0.5-0.1,0.8-0.1c0.4,0,0.7,0.1,0.9,0.2s0.4,0.3,0.5,0.6
		s0.2,0.6,0.2,1.1v2c0,0.3,0,0.5,0,0.6s0,0.2,0,0.3s0,0.2,0.1,0.2s0.1,0.1,0.2,0.2s0.2,0.1,0.4,0.1v0.3h-1.6L364.2,77.3z
		 M364.1,75.4c-0.8,0-1.4,0.1-1.8,0.3s-0.6,0.5-0.6,0.9c0,0.2,0,0.4,0.1,0.5s0.2,0.2,0.3,0.3s0.3,0.1,0.5,0.1c0.3,0,0.5-0.1,0.7-0.2
		s0.4-0.3,0.5-0.5s0.2-0.4,0.2-0.6V75.4z"/>
	<path d="M372.4,78.1H370v-0.3c0.2,0,0.3-0.1,0.3-0.1s0.1-0.1,0.2-0.1s0.1-0.2,0.1-0.3s0-0.3,0-0.6v-1.5c0-0.3,0-0.5,0-0.7
		s0-0.4-0.1-0.5s-0.1-0.3-0.1-0.3s-0.1-0.1-0.2-0.2s-0.2-0.1-0.2-0.1s-0.2,0-0.4,0s-0.3,0-0.4,0.1s-0.3,0.2-0.5,0.3
		s-0.3,0.3-0.4,0.4s-0.1,0.3-0.1,0.5v2.2c0,0.3,0,0.6,0,0.7s0.1,0.2,0.2,0.3s0.2,0.1,0.4,0.2v0.3h-2.3v-0.3c0.2,0,0.3-0.1,0.3-0.1
		s0.1-0.1,0.2-0.1s0.1-0.2,0.1-0.3s0-0.3,0-0.6v-2.6c0-0.2,0-0.5,0-0.6s0-0.3-0.1-0.4s-0.1-0.2-0.2-0.2s-0.2-0.1-0.4-0.1v-0.3
		l1.4-0.1h0.4l-0.1,1l0.1,0c0.3-0.3,0.5-0.5,0.7-0.6s0.4-0.2,0.5-0.3s0.4-0.1,0.6-0.1c0.2,0,0.4,0,0.6,0.1s0.3,0.1,0.4,0.2
		s0.2,0.2,0.3,0.4s0.1,0.3,0.2,0.5s0.1,0.5,0.1,0.8v2.2c0,0.3,0,0.5,0,0.6s0,0.2,0.1,0.3s0.1,0.1,0.2,0.2s0.2,0.1,0.4,0.1V78.1z"/>
	<path d="M378,77.1c-0.2,0.3-0.5,0.5-0.7,0.6s-0.4,0.3-0.7,0.3s-0.5,0.1-0.8,0.1c-0.8,0-1.4-0.2-1.8-0.7s-0.6-1.2-0.6-2.1
		c0-0.6,0.1-1.1,0.3-1.5s0.5-0.8,0.9-1s0.8-0.4,1.3-0.4c0.4,0,0.7,0.1,1,0.2s0.5,0.3,0.7,0.5s0.3,0.5,0.4,0.8s0.1,0.8,0.2,1.3h-3.7
		v0.1c0,0.5,0.1,0.8,0.2,1.2s0.3,0.6,0.5,0.7s0.5,0.3,0.9,0.3c0.3,0,0.6-0.1,0.9-0.2s0.5-0.3,0.8-0.6L378,77.1z M377,74.7
		c0-0.4-0.1-0.8-0.2-1s-0.2-0.5-0.4-0.6s-0.4-0.2-0.6-0.2c-0.4,0-0.7,0.2-1,0.5s-0.4,0.8-0.4,1.4H377z"/>
</g>
<path class="st14" d="M293.1,97.1h31"/>
<g class="st6">
	<path d="M335.6,100.6h1.5c0.2,0,0.3,0,0.4,0s0.2,0,0.3-0.1s0.2-0.1,0.2-0.2s0.1-0.2,0.2-0.3s0.1-0.3,0.2-0.4s0.1-0.4,0.2-0.8h0.6
		l-0.1,2.4h-5.3v-0.3c0.2-0.1,0.4-0.1,0.5-0.2s0.1-0.2,0.2-0.3s0-0.4,0-0.6v-5.1c0-0.3,0-0.5,0-0.6s-0.1-0.2-0.1-0.3
		c0-0.1-0.1-0.1-0.2-0.2s-0.2-0.1-0.4-0.1v-0.3h2.5v0.3c-0.2,0-0.3,0.1-0.4,0.1c-0.1,0-0.1,0.1-0.2,0.1c0,0.1-0.1,0.2-0.1,0.3
		s0,0.3,0,0.6V100.6z"/>
	<path d="M343.5,100.3L343.5,100.3c-0.4,0.3-0.7,0.6-1,0.7s-0.6,0.2-1,0.2c-0.3,0-0.6-0.1-0.8-0.2s-0.4-0.3-0.5-0.5
		s-0.2-0.5-0.2-0.7c0-0.6,0.3-1,0.8-1.3s1.4-0.5,2.5-0.5v-0.4c0-0.4,0-0.7-0.1-1s-0.2-0.4-0.4-0.5s-0.4-0.2-0.7-0.2
		c-0.3,0-0.5,0.1-0.7,0.2s-0.3,0.4-0.4,0.7h-0.8v-0.8c0.4-0.2,0.7-0.3,0.9-0.4s0.5-0.2,0.8-0.2s0.5-0.1,0.8-0.1
		c0.4,0,0.7,0.1,0.9,0.2s0.4,0.3,0.5,0.6s0.2,0.6,0.2,1.1v2c0,0.3,0,0.5,0,0.6s0,0.2,0,0.3s0,0.2,0.1,0.2s0.1,0.1,0.2,0.2
		s0.2,0.1,0.4,0.1v0.3h-1.6L343.5,100.3z M343.4,98.4c-0.8,0-1.4,0.1-1.8,0.3s-0.6,0.5-0.6,0.9c0,0.2,0,0.4,0.1,0.5s0.2,0.2,0.3,0.3
		s0.3,0.1,0.5,0.1c0.3,0,0.5-0.1,0.7-0.2s0.4-0.3,0.5-0.5s0.2-0.4,0.2-0.6V98.4z"/>
	<path d="M351.7,101.1h-2.3v-0.3c0.2,0,0.3-0.1,0.3-0.1s0.1-0.1,0.2-0.1s0.1-0.2,0.1-0.3s0-0.3,0-0.6v-1.5c0-0.3,0-0.5,0-0.7
		s0-0.4-0.1-0.5s-0.1-0.3-0.1-0.3s-0.1-0.1-0.2-0.2s-0.2-0.1-0.2-0.1s-0.2,0-0.4,0s-0.3,0-0.4,0.1s-0.3,0.2-0.5,0.3
		s-0.3,0.3-0.4,0.4s-0.1,0.3-0.1,0.5v2.2c0,0.3,0,0.6,0,0.7s0.1,0.2,0.2,0.3s0.2,0.1,0.4,0.2v0.3H346v-0.3c0.2,0,0.3-0.1,0.3-0.1
		s0.1-0.1,0.2-0.1s0.1-0.2,0.1-0.3s0-0.3,0-0.6v-2.6c0-0.2,0-0.5,0-0.6s0-0.3-0.1-0.4s-0.1-0.2-0.2-0.2s-0.2-0.1-0.4-0.1v-0.3
		l1.4-0.1h0.4l-0.1,1l0.1,0c0.3-0.3,0.5-0.5,0.7-0.6s0.4-0.2,0.5-0.3s0.4-0.1,0.6-0.1c0.2,0,0.4,0,0.6,0.1s0.3,0.1,0.4,0.2
		s0.2,0.2,0.3,0.4s0.1,0.3,0.2,0.5s0.1,0.5,0.1,0.8v2.2c0,0.3,0,0.5,0,0.6s0,0.2,0.1,0.3s0.1,0.1,0.2,0.2s0.2,0.1,0.4,0.1V101.1z"/>
	<path d="M357.4,100.1c-0.2,0.3-0.5,0.5-0.7,0.6s-0.4,0.3-0.7,0.3s-0.5,0.1-0.8,0.1c-0.8,0-1.4-0.2-1.8-0.7s-0.6-1.2-0.6-2.1
		c0-0.6,0.1-1.1,0.3-1.5s0.5-0.8,0.9-1s0.8-0.4,1.3-0.4c0.4,0,0.7,0.1,1,0.2s0.5,0.3,0.7,0.5s0.3,0.5,0.4,0.8s0.1,0.8,0.2,1.3h-3.7
		v0.1c0,0.5,0.1,0.8,0.2,1.2s0.3,0.6,0.5,0.7s0.5,0.3,0.9,0.3c0.3,0,0.6-0.1,0.9-0.2s0.5-0.3,0.8-0.6L357.4,100.1z M356.4,97.7
		c0-0.4-0.1-0.8-0.2-1s-0.2-0.5-0.4-0.6s-0.4-0.2-0.6-0.2c-0.4,0-0.7,0.2-1,0.5s-0.4,0.8-0.4,1.4H356.4z"/>
</g>
<g class="st6">
	<path d="M365.9,100.1c-0.2,0.3-0.5,0.5-0.7,0.6s-0.4,0.3-0.7,0.3s-0.5,0.1-0.8,0.1c-0.8,0-1.4-0.2-1.8-0.7s-0.6-1.2-0.6-2.1
		c0-0.6,0.1-1.1,0.3-1.5s0.5-0.8,0.9-1s0.8-0.4,1.3-0.4c0.4,0,0.7,0.1,1,0.2s0.5,0.3,0.7,0.5s0.3,0.5,0.4,0.8s0.1,0.8,0.2,1.3h-3.7
		v0.1c0,0.5,0.1,0.8,0.2,1.2s0.3,0.6,0.5,0.7s0.5,0.3,0.9,0.3c0.3,0,0.6-0.1,0.9-0.2s0.5-0.3,0.8-0.6L365.9,100.1z M364.9,97.7
		c0-0.4-0.1-0.8-0.2-1s-0.2-0.5-0.4-0.6s-0.4-0.2-0.6-0.2c-0.4,0-0.7,0.2-1,0.5s-0.4,0.8-0.4,1.4H364.9z"/>
	<path d="M371,94.7c0-0.4,0-0.6,0-0.8c0-0.1,0-0.3,0-0.4c0-0.1-0.1-0.2-0.1-0.2s-0.1-0.1-0.2-0.1s-0.2-0.1-0.4-0.1v-0.3l1.4-0.1h0.3
		v6.8c0,0.3,0,0.5,0,0.7s0,0.2,0.1,0.3s0.1,0.1,0.2,0.2s0.2,0.1,0.4,0.1v0.3l-1.4,0.1H371l0.1-1l-0.1,0c-0.2,0.3-0.5,0.5-0.6,0.6
		s-0.4,0.2-0.6,0.3s-0.4,0.1-0.7,0.1c-0.6,0-1.1-0.2-1.5-0.7s-0.5-1.2-0.5-2.1c0-0.6,0.1-1.2,0.3-1.6s0.5-0.8,0.9-1s0.8-0.3,1.3-0.3
		c0.3,0,0.5,0,0.7,0.1s0.4,0.1,0.7,0.2V94.7z M371,97.6c0-0.3,0-0.5,0-0.7s-0.1-0.3-0.1-0.5s-0.2-0.2-0.3-0.3s-0.2-0.1-0.4-0.2
		s-0.3-0.1-0.5-0.1c-0.5,0-0.9,0.2-1.1,0.6s-0.4,1-0.4,1.7s0.1,1.3,0.3,1.7s0.5,0.6,1,0.6c0.2,0,0.3,0,0.4,0s0.2-0.1,0.3-0.1
		s0.2-0.2,0.3-0.3s0.2-0.2,0.2-0.3s0.1-0.2,0.1-0.3s0-0.3,0-0.5V97.6z"/>
	<path d="M379,96.1l-1.1,0l-0.1,0.1c0.1,0.1,0.2,0.3,0.3,0.5s0.1,0.4,0.1,0.7c0,0.6-0.2,1.1-0.6,1.5s-1,0.5-1.7,0.5
		c-0.3,0-0.6,0-0.8-0.1c-0.3,0.2-0.4,0.4-0.4,0.7c0,0.1,0,0.3,0.1,0.3s0.2,0.1,0.3,0.2s0.3,0,0.6,0h1.4c0.4,0,0.8,0.1,1,0.2
		s0.4,0.3,0.6,0.5s0.2,0.5,0.2,0.8c0,0.4-0.1,0.7-0.3,1s-0.5,0.5-0.9,0.7s-0.9,0.2-1.4,0.2c-0.4,0-0.8,0-1.1-0.1s-0.6-0.1-0.8-0.2
		s-0.4-0.3-0.5-0.4s-0.2-0.4-0.2-0.7c0-0.2,0.1-0.5,0.2-0.7s0.4-0.4,0.7-0.5c-0.2-0.1-0.3-0.2-0.4-0.3s-0.2-0.3-0.2-0.5
		c0-0.2,0.1-0.4,0.2-0.6s0.3-0.4,0.7-0.6c-0.3-0.2-0.5-0.4-0.6-0.7s-0.2-0.6-0.2-1c0-0.3,0.1-0.6,0.2-0.9s0.3-0.5,0.5-0.6
		s0.4-0.3,0.7-0.4s0.6-0.1,0.9-0.1c0.3,0,0.6,0,0.8,0.1h2.1V96.1z M375,101.2c-0.2,0.1-0.3,0.3-0.4,0.5s-0.1,0.4-0.1,0.6
		c0,0.4,0.1,0.6,0.4,0.8s0.7,0.2,1.3,0.2c0.4,0,0.7,0,0.9-0.1s0.4-0.2,0.6-0.4s0.2-0.4,0.2-0.6c0-0.1,0-0.2,0-0.3s-0.1-0.2-0.2-0.3
		s-0.2-0.1-0.3-0.2s-0.3-0.1-0.6-0.1h-0.9C375.6,101.2,375.3,101.2,375,101.2z M374.9,97.3c0,0.5,0.1,0.9,0.3,1.1s0.5,0.4,0.9,0.4
		c0.2,0,0.4,0,0.5-0.1s0.3-0.2,0.3-0.3s0.2-0.3,0.2-0.5s0.1-0.4,0.1-0.5c0-0.3,0-0.6-0.1-0.9s-0.2-0.4-0.4-0.5s-0.4-0.2-0.6-0.2
		c-0.4,0-0.7,0.1-0.8,0.4S374.9,96.8,374.9,97.3z"/>
	<path d="M384.3,100.1c-0.2,0.3-0.5,0.5-0.7,0.6s-0.4,0.3-0.7,0.3s-0.5,0.1-0.8,0.1c-0.8,0-1.4-0.2-1.8-0.7s-0.6-1.2-0.6-2.1
		c0-0.6,0.1-1.1,0.3-1.5s0.5-0.8,0.9-1s0.8-0.4,1.3-0.4c0.4,0,0.7,0.1,1,0.2s0.5,0.3,0.7,0.5s0.3,0.5,0.4,0.8s0.1,0.8,0.2,1.3h-3.7
		v0.1c0,0.5,0.1,0.8,0.2,1.2s0.3,0.6,0.5,0.7s0.5,0.3,0.9,0.3c0.3,0,0.6-0.1,0.9-0.2s0.5-0.3,0.8-0.6L384.3,100.1z M383.3,97.7
		c0-0.4-0.1-0.8-0.2-1s-0.2-0.5-0.4-0.6s-0.4-0.2-0.6-0.2c-0.4,0-0.7,0.2-1,0.5s-0.4,0.8-0.4,1.4H383.3z"/>
</g>
<path class="st15" d="M293.1,120.1h31"/>
<g class="st6">
	<path d="M335.9,116.1v0.3c-0.2,0-0.3,0.1-0.4,0.1c-0.1,0-0.2,0.1-0.2,0.2c0,0.1-0.1,0.2-0.1,0.3c0,0.1,0,0.3,0,0.4
		c0,0.2,0.1,0.3,0.1,0.5l1.4,4.8l1.7-4.8c0-0.1,0-0.2,0.1-0.2s0-0.2,0.1-0.2c0-0.1,0-0.1,0-0.2s0-0.1,0-0.2c0-0.2-0.1-0.4-0.2-0.5
		c-0.1-0.1-0.3-0.2-0.5-0.2v-0.3h2.5v0.3c-0.2,0-0.3,0.1-0.4,0.2c-0.1,0.1-0.2,0.2-0.3,0.4s-0.2,0.4-0.3,0.8l-2.4,6.5h-0.8l-2-6.5
		c-0.1-0.4-0.2-0.6-0.3-0.8c-0.1-0.1-0.2-0.3-0.3-0.3s-0.2-0.1-0.4-0.2v-0.3H335.9z"/>
	<path d="M344.8,123.1c-0.2,0.3-0.5,0.5-0.7,0.6s-0.4,0.3-0.7,0.3s-0.5,0.1-0.8,0.1c-0.8,0-1.4-0.2-1.8-0.7s-0.6-1.2-0.6-2.1
		c0-0.6,0.1-1.1,0.3-1.5s0.5-0.8,0.9-1s0.8-0.4,1.3-0.4c0.4,0,0.7,0.1,1,0.2s0.5,0.3,0.7,0.5s0.3,0.5,0.4,0.8s0.1,0.8,0.2,1.3h-3.7
		v0.1c0,0.5,0.1,0.8,0.2,1.2s0.3,0.6,0.5,0.7s0.5,0.3,0.9,0.3c0.3,0,0.6-0.1,0.9-0.2s0.5-0.3,0.8-0.6L344.8,123.1z M343.8,120.7
		c0-0.4-0.1-0.8-0.2-1s-0.2-0.5-0.4-0.6s-0.4-0.2-0.6-0.2c-0.4,0-0.7,0.2-1,0.5s-0.4,0.8-0.4,1.4H343.8z"/>
	<path d="M347.5,119.4L347.5,119.4c0.3-0.3,0.6-0.5,0.7-0.6s0.4-0.2,0.5-0.3s0.4-0.1,0.6-0.1c0.2,0,0.4,0,0.6,0.1s0.3,0.1,0.4,0.2
		s0.2,0.2,0.3,0.4s0.1,0.3,0.2,0.5s0.1,0.5,0.1,0.8v2.2c0,0.3,0,0.6,0,0.7s0.1,0.2,0.2,0.3s0.2,0.1,0.5,0.2v0.3h-2.3v-0.3
		c0.2,0,0.3-0.1,0.3-0.1s0.1-0.1,0.2-0.1s0.1-0.2,0.1-0.3s0-0.3,0-0.6v-1.5c0-0.5,0-0.9-0.1-1.2s-0.2-0.5-0.3-0.6s-0.4-0.2-0.6-0.2
		c-0.2,0-0.3,0-0.4,0.1s-0.3,0.2-0.4,0.3s-0.3,0.3-0.4,0.4s-0.1,0.3-0.1,0.5v2.2c0,0.3,0,0.5,0,0.6s0,0.2,0.1,0.3s0.1,0.1,0.2,0.2
		s0.2,0.1,0.4,0.1v0.3h-2.3v-0.3c0.2,0,0.3-0.1,0.4-0.1s0.1-0.1,0.2-0.2s0.1-0.2,0.1-0.3s0-0.3,0-0.6v-4.9c0-0.4,0-0.6,0-0.8
		c0-0.1,0-0.3,0-0.4c0-0.1-0.1-0.2-0.1-0.2s-0.1-0.1-0.2-0.1s-0.2-0.1-0.4-0.1v-0.3l1.4-0.1h0.4V119.4z"/>
	<path d="M352.6,123.8c0.2,0,0.3-0.1,0.3-0.1s0.1-0.1,0.2-0.1s0.1-0.2,0.1-0.3s0-0.3,0-0.6v-2.6c0-0.2,0-0.5,0-0.6s0-0.3-0.1-0.4
		s-0.1-0.2-0.2-0.2s-0.2-0.1-0.4-0.1v-0.3l1.4-0.1h0.4v4.2c0,0.3,0,0.6,0,0.7s0.1,0.2,0.2,0.3s0.2,0.1,0.4,0.2v0.3h-2.3V123.8z
		 M354.3,116.2v1.1h-1.1v-1.1H354.3z"/>
	<path d="M360.3,118.6v1.2h-0.7c-0.1-0.3-0.1-0.5-0.2-0.6s-0.2-0.2-0.3-0.3s-0.3-0.1-0.5-0.1c-0.3,0-0.5,0.1-0.7,0.3
		s-0.4,0.4-0.5,0.8s-0.2,0.8-0.2,1.3c0,0.3,0,0.6,0.1,0.9s0.1,0.5,0.2,0.7s0.3,0.3,0.5,0.5s0.4,0.2,0.7,0.2c0.3,0,0.5-0.1,0.8-0.2
		s0.5-0.3,0.7-0.6l0.3,0.4c-0.2,0.2-0.4,0.4-0.5,0.5s-0.3,0.2-0.5,0.3s-0.3,0.1-0.5,0.2s-0.4,0.1-0.6,0.1c-0.7,0-1.3-0.2-1.7-0.7
		s-0.6-1.2-0.6-2.1c0-0.6,0.1-1.1,0.3-1.5s0.5-0.8,0.9-1s0.8-0.4,1.4-0.4c0.3,0,0.6,0,0.9,0.1S360,118.6,360.3,118.6z"/>
	<path d="M362.8,122.6c0,0.3,0,0.6,0,0.7s0.1,0.2,0.2,0.3s0.2,0.1,0.4,0.2v0.3h-2.3v-0.3c0.2-0.1,0.3-0.1,0.4-0.2s0.1-0.1,0.2-0.2
		s0.1-0.2,0.1-0.3s0-0.3,0-0.5v-4.9c0-0.4,0-0.6,0-0.8c0-0.1,0-0.3,0-0.4c0-0.1-0.1-0.2-0.1-0.2s-0.1-0.1-0.2-0.1s-0.2-0.1-0.4-0.1
		v-0.3l1.4-0.1h0.4V122.6z"/>
	<path d="M369.1,123.1c-0.2,0.3-0.5,0.5-0.7,0.6s-0.4,0.3-0.7,0.3s-0.5,0.1-0.8,0.1c-0.8,0-1.4-0.2-1.8-0.7s-0.6-1.2-0.6-2.1
		c0-0.6,0.1-1.1,0.3-1.5s0.5-0.8,0.9-1s0.8-0.4,1.3-0.4c0.4,0,0.7,0.1,1,0.2s0.5,0.3,0.7,0.5s0.3,0.5,0.4,0.8s0.1,0.8,0.2,1.3h-3.7
		v0.1c0,0.5,0.1,0.8,0.2,1.2s0.3,0.6,0.5,0.7s0.5,0.3,0.9,0.3c0.3,0,0.6-0.1,0.9-0.2s0.5-0.3,0.8-0.6L369.1,123.1z M368.2,120.7
		c0-0.4-0.1-0.8-0.2-1s-0.2-0.5-0.4-0.6s-0.4-0.2-0.6-0.2c-0.4,0-0.7,0.2-1,0.5s-0.4,0.8-0.4,1.4H368.2z"/>
</g>
<g class="st6">
	<path d="M375.5,123.9v1.2c0,0.3,0,0.4,0,0.6s0,0.2,0.1,0.3s0.1,0.1,0.2,0.2s0.2,0.1,0.4,0.1v0.3h-2.4v-0.3c0.1,0,0.3-0.1,0.3-0.1
		s0.2-0.1,0.2-0.2s0.1-0.2,0.1-0.3s0-0.3,0-0.5v-5c0-0.3,0-0.5,0-0.6s0-0.2,0-0.3s-0.1-0.1-0.1-0.2s-0.1-0.1-0.2-0.1
		s-0.2-0.1-0.4-0.1v-0.3l1.4-0.1h0.4l-0.1,1l0.1,0c0.2-0.2,0.4-0.4,0.6-0.5s0.3-0.2,0.4-0.3s0.3-0.1,0.4-0.2s0.3,0,0.4,0
		c0.6,0,1.1,0.2,1.5,0.7s0.5,1.2,0.5,2.1c0,0.6-0.1,1.2-0.3,1.6s-0.5,0.8-0.9,1s-0.8,0.3-1.3,0.3c-0.3,0-0.6,0-0.8-0.1
		S375.7,124,375.5,123.9z M375.5,122c0,0.4,0,0.7,0.1,0.9s0.1,0.4,0.2,0.5s0.3,0.2,0.4,0.3s0.4,0.1,0.6,0.1c0.5,0,0.8-0.2,1.1-0.6
		s0.4-1,0.4-1.7c0-1.5-0.4-2.3-1.3-2.3c-0.2,0-0.4,0-0.6,0.1s-0.3,0.2-0.5,0.3s-0.3,0.3-0.3,0.4s-0.1,0.3-0.1,0.5V122z"/>
	<path d="M383.9,123.3L383.9,123.3c-0.4,0.3-0.7,0.6-1,0.7s-0.6,0.2-1,0.2c-0.3,0-0.6-0.1-0.8-0.2s-0.4-0.3-0.5-0.5
		s-0.2-0.5-0.2-0.7c0-0.6,0.3-1,0.8-1.3s1.4-0.5,2.5-0.5v-0.4c0-0.4,0-0.7-0.1-1s-0.2-0.4-0.4-0.5s-0.4-0.2-0.7-0.2
		c-0.3,0-0.5,0.1-0.7,0.2s-0.3,0.4-0.4,0.7h-0.8v-0.8c0.4-0.2,0.7-0.3,0.9-0.4s0.5-0.2,0.8-0.2s0.5-0.1,0.8-0.1
		c0.4,0,0.7,0.1,0.9,0.2s0.4,0.3,0.5,0.6s0.2,0.6,0.2,1.1v2c0,0.3,0,0.5,0,0.6s0,0.2,0,0.3s0,0.2,0.1,0.2s0.1,0.1,0.2,0.2
		s0.2,0.1,0.4,0.1v0.3h-1.6L383.9,123.3z M383.8,121.4c-0.8,0-1.4,0.1-1.8,0.3s-0.6,0.5-0.6,0.9c0,0.2,0,0.4,0.1,0.5
		s0.2,0.2,0.3,0.3s0.3,0.1,0.5,0.1c0.3,0,0.5-0.1,0.7-0.2s0.4-0.3,0.5-0.5s0.2-0.4,0.2-0.6V121.4z"/>
	<path d="M386,118.8c0.2,0,0.4-0.1,0.5-0.2s0.2-0.2,0.3-0.3s0.1-0.3,0.2-0.5c0-0.2,0.1-0.5,0.1-0.8h0.8v1.4h1.9v0.6h-1.9v2.6
		c0,0.4,0,0.7,0,0.9s0.1,0.4,0.2,0.5s0.2,0.2,0.3,0.3s0.2,0.1,0.4,0.1c0.2,0,0.3,0,0.4-0.1s0.3-0.2,0.4-0.3l0.3,0.3
		c-0.3,0.3-0.5,0.5-0.8,0.6s-0.5,0.2-0.8,0.2c-0.5,0-0.9-0.1-1.1-0.4s-0.4-0.8-0.4-1.4v-3.3H386V118.8z"/>
	<path d="M392,119.4L392,119.4c0.3-0.3,0.6-0.5,0.7-0.6s0.4-0.2,0.5-0.3s0.4-0.1,0.6-0.1c0.2,0,0.4,0,0.6,0.1s0.3,0.1,0.4,0.2
		s0.2,0.2,0.3,0.4s0.1,0.3,0.2,0.5s0.1,0.5,0.1,0.8v2.2c0,0.3,0,0.6,0,0.7s0.1,0.2,0.2,0.3s0.2,0.1,0.5,0.2v0.3h-2.3v-0.3
		c0.2,0,0.3-0.1,0.3-0.1s0.1-0.1,0.2-0.1s0.1-0.2,0.1-0.3s0-0.3,0-0.6v-1.5c0-0.5,0-0.9-0.1-1.2s-0.2-0.5-0.3-0.6s-0.4-0.2-0.6-0.2
		c-0.2,0-0.3,0-0.4,0.1s-0.3,0.2-0.4,0.3s-0.3,0.3-0.4,0.4s-0.1,0.3-0.1,0.5v2.2c0,0.3,0,0.5,0,0.6s0,0.2,0.1,0.3s0.1,0.1,0.2,0.2
		s0.2,0.1,0.4,0.1v0.3h-2.3v-0.3c0.2,0,0.3-0.1,0.4-0.1s0.1-0.1,0.2-0.2s0.1-0.2,0.1-0.3s0-0.3,0-0.6v-4.9c0-0.4,0-0.6,0-0.8
		c0-0.1,0-0.3,0-0.4c0-0.1-0.1-0.2-0.1-0.2s-0.1-0.1-0.2-0.1s-0.2-0.1-0.4-0.1v-0.3l1.4-0.1h0.4V119.4z"/>
</g>
<path class="st12" d="M308.2,149.1l0-3.9l3,0l0,3.9L308.2,149.1z M305.2,146.7l4.4-9.1l4.6,8.9L305.2,146.7z"/>
<g class="st6">
	<path d="M335.6,145.6h1.5c0.2,0,0.3,0,0.4,0s0.2,0,0.3-0.1s0.2-0.1,0.2-0.2s0.1-0.2,0.2-0.3s0.1-0.3,0.2-0.4s0.1-0.4,0.2-0.8h0.6
		l-0.1,2.4h-5.3v-0.3c0.2-0.1,0.4-0.1,0.5-0.2s0.1-0.2,0.2-0.3s0-0.4,0-0.6v-5.1c0-0.3,0-0.5,0-0.6s-0.1-0.2-0.1-0.3
		c0-0.1-0.1-0.1-0.2-0.2s-0.2-0.1-0.4-0.1v-0.3h2.5v0.3c-0.2,0-0.3,0.1-0.4,0.1c-0.1,0-0.1,0.1-0.2,0.1c0,0.1-0.1,0.2-0.1,0.3
		s0,0.3,0,0.6V145.6z"/>
	<path d="M343.5,145.3L343.5,145.3c-0.4,0.3-0.7,0.6-1,0.7s-0.6,0.2-1,0.2c-0.3,0-0.6-0.1-0.8-0.2s-0.4-0.3-0.5-0.5
		s-0.2-0.5-0.2-0.7c0-0.6,0.3-1,0.8-1.3s1.4-0.5,2.5-0.5v-0.4c0-0.4,0-0.7-0.1-1s-0.2-0.4-0.4-0.5s-0.4-0.2-0.7-0.2
		c-0.3,0-0.5,0.1-0.7,0.2s-0.3,0.4-0.4,0.7h-0.8v-0.8c0.4-0.2,0.7-0.3,0.9-0.4s0.5-0.2,0.8-0.2s0.5-0.1,0.8-0.1
		c0.4,0,0.7,0.1,0.9,0.2s0.4,0.3,0.5,0.6s0.2,0.6,0.2,1.1v2c0,0.3,0,0.5,0,0.6s0,0.2,0,0.3s0,0.2,0.1,0.2s0.1,0.1,0.2,0.2
		s0.2,0.1,0.4,0.1v0.3h-1.6L343.5,145.3z M343.4,143.4c-0.8,0-1.4,0.1-1.8,0.3s-0.6,0.5-0.6,0.9c0,0.2,0,0.4,0.1,0.5
		s0.2,0.2,0.3,0.3s0.3,0.1,0.5,0.1c0.3,0,0.5-0.1,0.7-0.2s0.4-0.3,0.5-0.5s0.2-0.4,0.2-0.6V143.4z"/>
	<path d="M351.7,146.1h-2.3v-0.3c0.2,0,0.3-0.1,0.3-0.1s0.1-0.1,0.2-0.1s0.1-0.2,0.1-0.3s0-0.3,0-0.6v-1.5c0-0.3,0-0.5,0-0.7
		s0-0.4-0.1-0.5s-0.1-0.3-0.1-0.3s-0.1-0.1-0.2-0.2s-0.2-0.1-0.2-0.1s-0.2,0-0.4,0s-0.3,0-0.4,0.1s-0.3,0.2-0.5,0.3
		s-0.3,0.3-0.4,0.4s-0.1,0.3-0.1,0.5v2.2c0,0.3,0,0.6,0,0.7s0.1,0.2,0.2,0.3s0.2,0.1,0.4,0.2v0.3H346v-0.3c0.2,0,0.3-0.1,0.3-0.1
		s0.1-0.1,0.2-0.1s0.1-0.2,0.1-0.3s0-0.3,0-0.6v-2.6c0-0.2,0-0.5,0-0.6s0-0.3-0.1-0.4s-0.1-0.2-0.2-0.2s-0.2-0.1-0.4-0.1v-0.3
		l1.4-0.1h0.4l-0.1,1l0.1,0c0.3-0.3,0.5-0.5,0.7-0.6s0.4-0.2,0.5-0.3s0.4-0.1,0.6-0.1c0.2,0,0.4,0,0.6,0.1s0.3,0.1,0.4,0.2
		s0.2,0.2,0.3,0.4s0.1,0.3,0.2,0.5s0.1,0.5,0.1,0.8v2.2c0,0.3,0,0.5,0,0.6s0,0.2,0.1,0.3s0.1,0.1,0.2,0.2s0.2,0.1,0.4,0.1V146.1z"/>
	<path d="M357.4,145.1c-0.2,0.3-0.5,0.5-0.7,0.6s-0.4,0.3-0.7,0.3s-0.5,0.1-0.8,0.1c-0.8,0-1.4-0.2-1.8-0.7s-0.6-1.2-0.6-2.1
		c0-0.6,0.1-1.1,0.3-1.5s0.5-0.8,0.9-1s0.8-0.4,1.3-0.4c0.4,0,0.7,0.1,1,0.2s0.5,0.3,0.7,0.5s0.3,0.5,0.4,0.8s0.1,0.8,0.2,1.3h-3.7
		v0.1c0,0.5,0.1,0.8,0.2,1.2s0.3,0.6,0.5,0.7s0.5,0.3,0.9,0.3c0.3,0,0.6-0.1,0.9-0.2s0.5-0.3,0.8-0.6L357.4,145.1z M356.4,142.7
		c0-0.4-0.1-0.8-0.2-1s-0.2-0.5-0.4-0.6s-0.4-0.2-0.6-0.2c-0.4,0-0.7,0.2-1,0.5s-0.4,0.8-0.4,1.4H356.4z"/>
</g>
<g class="st6">
	<path d="M363.7,146.2c-0.8,0-1.4-0.2-1.9-0.7s-0.6-1.2-0.6-2.1c0-0.6,0.1-1.2,0.3-1.6s0.5-0.8,0.9-1s0.8-0.3,1.3-0.3
		c0.8,0,1.5,0.2,1.9,0.7s0.6,1.2,0.6,2.1c0,0.6-0.1,1.2-0.3,1.6s-0.5,0.8-0.9,1S364.3,146.2,363.7,146.2z M362.3,143.2
		c0,0.8,0.1,1.4,0.4,1.9s0.6,0.6,1.1,0.6c0.3,0,0.5-0.1,0.7-0.2s0.3-0.3,0.4-0.5s0.2-0.5,0.2-0.7s0.1-0.6,0.1-0.9
		c0-0.6-0.1-1.1-0.2-1.4s-0.3-0.7-0.5-0.8s-0.5-0.3-0.8-0.3c-0.5,0-0.8,0.2-1.1,0.6S362.3,142.5,362.3,143.2z"/>
	<path d="M370.6,141.1h-1.4v3.5c0,0.3,0,0.5,0,0.6s0.1,0.2,0.1,0.3s0.1,0.1,0.2,0.2s0.2,0.1,0.4,0.1v0.3h-2.4v-0.3
		c0.2,0,0.3-0.1,0.4-0.1s0.1-0.1,0.2-0.2s0.1-0.2,0.1-0.3s0-0.3,0-0.6v-3.5h-0.7v-0.3c0.1,0,0.2,0,0.3-0.1s0.1,0,0.1-0.1
		s0.1-0.1,0.1-0.1s0.1-0.1,0.1-0.2s0-0.2,0.1-0.4c0-0.4,0.1-0.8,0.2-1c0.1-0.3,0.3-0.5,0.5-0.7s0.5-0.3,0.7-0.4s0.6-0.1,0.9-0.1
		c0.3,0,0.6,0,0.8,0.1v1.1h-0.6c-0.1-0.2-0.2-0.4-0.3-0.5s-0.2-0.1-0.4-0.1c-0.1,0-0.2,0-0.3,0.1s-0.2,0.1-0.2,0.2s-0.1,0.2-0.2,0.3
		c-0.1,0.1-0.1,0.3-0.1,0.5c0,0.2,0,0.4,0,0.7v0.6h1.4V141.1z"/>
	<path d="M374.2,141.1h-1.4v3.5c0,0.3,0,0.5,0,0.6s0.1,0.2,0.1,0.3s0.1,0.1,0.2,0.2s0.2,0.1,0.4,0.1v0.3h-2.4v-0.3
		c0.2,0,0.3-0.1,0.4-0.1s0.1-0.1,0.2-0.2s0.1-0.2,0.1-0.3s0-0.3,0-0.6v-3.5h-0.7v-0.3c0.1,0,0.2,0,0.3-0.1s0.1,0,0.1-0.1
		s0.1-0.1,0.1-0.1s0.1-0.1,0.1-0.2s0-0.2,0.1-0.4c0-0.4,0.1-0.8,0.2-1c0.1-0.3,0.3-0.5,0.5-0.7s0.5-0.3,0.7-0.4s0.6-0.1,0.9-0.1
		c0.3,0,0.6,0,0.8,0.1v1.1h-0.6c-0.1-0.2-0.2-0.4-0.3-0.5s-0.2-0.1-0.4-0.1c-0.1,0-0.2,0-0.3,0.1s-0.2,0.1-0.2,0.2s-0.1,0.2-0.2,0.3
		c-0.1,0.1-0.1,0.3-0.1,0.5c0,0.2,0,0.4,0,0.7v0.6h1.4V141.1z"/>
	<path d="M378.7,141.8h-0.6c-0.1-0.2-0.2-0.4-0.3-0.6s-0.2-0.2-0.4-0.3s-0.3-0.1-0.5-0.1c-0.3,0-0.6,0.1-0.7,0.2s-0.3,0.3-0.3,0.6
		c0,0.2,0,0.3,0.1,0.4s0.2,0.2,0.3,0.3s0.4,0.2,0.8,0.4c0.4,0.2,0.7,0.3,0.9,0.5s0.4,0.3,0.5,0.5s0.2,0.4,0.2,0.7
		c0,0.3-0.1,0.6-0.2,0.8s-0.3,0.4-0.4,0.5s-0.4,0.2-0.7,0.3s-0.6,0.1-0.9,0.1c-0.3,0-0.6,0-1-0.1s-0.6-0.1-0.9-0.2v-1.2h0.6
		c0.1,0.4,0.3,0.6,0.5,0.8s0.5,0.2,0.9,0.2c0.1,0,0.3,0,0.4,0s0.3-0.1,0.4-0.1s0.2-0.2,0.3-0.3s0.1-0.3,0.1-0.4c0-0.2,0-0.4-0.1-0.5
		s-0.2-0.2-0.4-0.3s-0.5-0.2-0.9-0.4c-0.4-0.1-0.6-0.3-0.9-0.4s-0.4-0.3-0.5-0.5s-0.2-0.4-0.2-0.7c0-0.3,0.1-0.6,0.3-0.8
		s0.4-0.4,0.8-0.5s0.7-0.2,1.2-0.2c0.3,0,0.5,0,0.7,0s0.5,0.1,0.9,0.1V141.8z"/>
	<path d="M384.6,145.1c-0.2,0.3-0.5,0.5-0.7,0.6s-0.4,0.3-0.7,0.3s-0.5,0.1-0.8,0.1c-0.8,0-1.4-0.2-1.8-0.7s-0.6-1.2-0.6-2.1
		c0-0.6,0.1-1.1,0.3-1.5s0.5-0.8,0.9-1s0.8-0.4,1.3-0.4c0.4,0,0.7,0.1,1,0.2s0.5,0.3,0.7,0.5s0.3,0.5,0.4,0.8s0.1,0.8,0.2,1.3H381
		v0.1c0,0.5,0.1,0.8,0.2,1.2s0.3,0.6,0.5,0.7s0.5,0.3,0.9,0.3c0.3,0,0.6-0.1,0.9-0.2s0.5-0.3,0.8-0.6L384.6,145.1z M383.6,142.7
		c0-0.4-0.1-0.8-0.2-1s-0.2-0.5-0.4-0.6s-0.4-0.2-0.6-0.2c-0.4,0-0.7,0.2-1,0.5s-0.4,0.8-0.4,1.4H383.6z"/>
	<path d="M385.4,140.8c0.2,0,0.4-0.1,0.5-0.2s0.2-0.2,0.3-0.3s0.1-0.3,0.2-0.5c0-0.2,0.1-0.5,0.1-0.8h0.8v1.4h1.9v0.6h-1.9v2.6
		c0,0.4,0,0.7,0,0.9s0.1,0.4,0.2,0.5s0.2,0.2,0.3,0.3s0.2,0.1,0.4,0.1c0.2,0,0.3,0,0.4-0.1s0.3-0.2,0.4-0.3l0.3,0.3
		c-0.3,0.3-0.5,0.5-0.8,0.6s-0.5,0.2-0.8,0.2c-0.5,0-0.9-0.1-1.1-0.4s-0.4-0.8-0.4-1.4v-3.3h-0.9V140.8z"/>
</g>
<path class="st2" d="M298.6,186.1h17.3v3h-17.3V186.1z M314.4,183.1l9,4.5l-9,4.5V183.1z"/>
<path class="st3" d="M298.1,188.4v-17.3h3v17.3H298.1z M295.1,172.6l4.5-9l4.5,9H295.1z"/>
<g class="st6">
	<path d="M335.6,179.6c0,0.2,0,0.4,0,0.6s0.1,0.2,0.1,0.3s0.1,0.1,0.2,0.2s0.2,0.1,0.4,0.1v0.3h-2.6v-0.3c0.2-0.1,0.4-0.1,0.5-0.2
		s0.1-0.2,0.2-0.3s0-0.4,0-0.6v-5.1c0-0.3,0-0.5,0-0.6s-0.1-0.2-0.1-0.3c0-0.1-0.1-0.1-0.2-0.2s-0.2-0.1-0.4-0.1v-0.3h2.9
		c0.9,0,1.6,0.2,2,0.5c0.4,0.4,0.7,0.9,0.7,1.6c0,0.4-0.1,0.8-0.2,1.1s-0.3,0.6-0.6,0.8s-0.6,0.4-0.9,0.4s-0.7,0.1-1.1,0.1
		c-0.4,0-0.8,0-1,0V179.6z M335.6,177.2h0.7c0.4,0,0.8-0.1,1.1-0.2s0.5-0.3,0.7-0.6s0.2-0.6,0.2-1.1c0-0.3,0-0.6-0.1-0.8
		c-0.1-0.2-0.2-0.4-0.4-0.5c-0.2-0.1-0.3-0.2-0.6-0.3c-0.2-0.1-0.5-0.1-0.7-0.1c-0.4,0-0.7,0-0.9,0V177.2z"/>
	<path d="M342.1,179.6c0,0.3,0,0.6,0,0.7s0.1,0.2,0.2,0.3s0.2,0.1,0.4,0.2v0.3h-2.3v-0.3c0.2-0.1,0.3-0.1,0.4-0.2s0.1-0.1,0.2-0.2
		s0.1-0.2,0.1-0.3s0-0.3,0-0.5v-4.9c0-0.4,0-0.6,0-0.8c0-0.1,0-0.3,0-0.4c0-0.1-0.1-0.2-0.1-0.2s-0.1-0.1-0.2-0.1s-0.2-0.1-0.4-0.1
		v-0.3l1.4-0.1h0.4V179.6z"/>
	<path d="M347.1,180.3L347.1,180.3c-0.4,0.3-0.7,0.6-1,0.7s-0.6,0.2-1,0.2c-0.3,0-0.6-0.1-0.8-0.2s-0.4-0.3-0.5-0.5
		s-0.2-0.5-0.2-0.7c0-0.6,0.3-1,0.8-1.3s1.4-0.5,2.5-0.5v-0.4c0-0.4,0-0.7-0.1-1s-0.2-0.4-0.4-0.5s-0.4-0.2-0.7-0.2
		c-0.3,0-0.5,0.1-0.7,0.2s-0.3,0.4-0.4,0.7H344v-0.8c0.4-0.2,0.7-0.3,0.9-0.4s0.5-0.2,0.8-0.2s0.5-0.1,0.8-0.1
		c0.4,0,0.7,0.1,0.9,0.2s0.4,0.3,0.5,0.6s0.2,0.6,0.2,1.1v2c0,0.3,0,0.5,0,0.6s0,0.2,0,0.3s0,0.2,0.1,0.2s0.1,0.1,0.2,0.2
		s0.2,0.1,0.4,0.1v0.3h-1.6L347.1,180.3z M347,178.4c-0.8,0-1.4,0.1-1.8,0.3s-0.6,0.5-0.6,0.9c0,0.2,0,0.4,0.1,0.5s0.2,0.2,0.3,0.3
		s0.3,0.1,0.5,0.1c0.3,0,0.5-0.1,0.7-0.2s0.4-0.3,0.5-0.5s0.2-0.4,0.2-0.6V178.4z"/>
	<path d="M355.3,181.1H353v-0.3c0.2,0,0.3-0.1,0.3-0.1s0.1-0.1,0.2-0.1s0.1-0.2,0.1-0.3s0-0.3,0-0.6v-1.5c0-0.3,0-0.5,0-0.7
		s0-0.4-0.1-0.5s-0.1-0.3-0.1-0.3s-0.1-0.1-0.2-0.2s-0.2-0.1-0.2-0.1s-0.2,0-0.4,0s-0.3,0-0.4,0.1s-0.3,0.2-0.5,0.3
		s-0.3,0.3-0.4,0.4s-0.1,0.3-0.1,0.5v2.2c0,0.3,0,0.6,0,0.7s0.1,0.2,0.2,0.3s0.2,0.1,0.4,0.2v0.3h-2.3v-0.3c0.2,0,0.3-0.1,0.3-0.1
		s0.1-0.1,0.2-0.1s0.1-0.2,0.1-0.3s0-0.3,0-0.6v-2.6c0-0.2,0-0.5,0-0.6s0-0.3-0.1-0.4s-0.1-0.2-0.2-0.2s-0.2-0.1-0.4-0.1v-0.3
		l1.4-0.1h0.4l-0.1,1l0.1,0c0.3-0.3,0.5-0.5,0.7-0.6s0.4-0.2,0.5-0.3s0.4-0.1,0.6-0.1c0.2,0,0.4,0,0.6,0.1s0.3,0.1,0.4,0.2
		s0.2,0.2,0.3,0.4s0.1,0.3,0.2,0.5s0.1,0.5,0.1,0.8v2.2c0,0.3,0,0.5,0,0.6s0,0.2,0.1,0.3s0.1,0.1,0.2,0.2s0.2,0.1,0.4,0.1V181.1z"/>
	<path d="M362,181.1h-2.3v-0.3c0.2,0,0.3-0.1,0.3-0.1s0.1-0.1,0.2-0.1s0.1-0.2,0.1-0.3s0-0.3,0-0.6v-1.5c0-0.3,0-0.5,0-0.7
		s0-0.4-0.1-0.5s-0.1-0.3-0.1-0.3s-0.1-0.1-0.2-0.2s-0.2-0.1-0.2-0.1s-0.2,0-0.4,0s-0.3,0-0.4,0.1s-0.3,0.2-0.5,0.3
		s-0.3,0.3-0.4,0.4s-0.1,0.3-0.1,0.5v2.2c0,0.3,0,0.6,0,0.7s0.1,0.2,0.2,0.3s0.2,0.1,0.4,0.2v0.3h-2.3v-0.3c0.2,0,0.3-0.1,0.3-0.1
		s0.1-0.1,0.2-0.1s0.1-0.2,0.1-0.3s0-0.3,0-0.6v-2.6c0-0.2,0-0.5,0-0.6s0-0.3-0.1-0.4s-0.1-0.2-0.2-0.2s-0.2-0.1-0.4-0.1v-0.3
		l1.4-0.1h0.4l-0.1,1l0.1,0c0.3-0.3,0.5-0.5,0.7-0.6s0.4-0.2,0.5-0.3s0.4-0.1,0.6-0.1c0.2,0,0.4,0,0.6,0.1s0.3,0.1,0.4,0.2
		s0.2,0.2,0.3,0.4s0.1,0.3,0.2,0.5s0.1,0.5,0.1,0.8v2.2c0,0.3,0,0.5,0,0.6s0,0.2,0.1,0.3s0.1,0.1,0.2,0.2s0.2,0.1,0.4,0.1V181.1z"/>
	<path d="M363,180.8c0.2,0,0.3-0.1,0.3-0.1s0.1-0.1,0.2-0.1s0.1-0.2,0.1-0.3s0-0.3,0-0.6v-2.6c0-0.2,0-0.5,0-0.6s0-0.3-0.1-0.4
		s-0.1-0.2-0.2-0.2s-0.2-0.1-0.4-0.1v-0.3l1.4-0.1h0.4v4.2c0,0.3,0,0.6,0,0.7s0.1,0.2,0.2,0.3s0.2,0.1,0.4,0.2v0.3H363V180.8z
		 M364.7,173.2v1.1h-1.1v-1.1H364.7z"/>
	<path d="M372.1,181.1h-2.3v-0.3c0.2,0,0.3-0.1,0.3-0.1s0.1-0.1,0.2-0.1s0.1-0.2,0.1-0.3s0-0.3,0-0.6v-1.5c0-0.3,0-0.5,0-0.7
		s0-0.4-0.1-0.5s-0.1-0.3-0.1-0.3s-0.1-0.1-0.2-0.2s-0.2-0.1-0.2-0.1s-0.2,0-0.4,0s-0.3,0-0.4,0.1s-0.3,0.2-0.5,0.3
		s-0.3,0.3-0.4,0.4s-0.1,0.3-0.1,0.5v2.2c0,0.3,0,0.6,0,0.7s0.1,0.2,0.2,0.3s0.2,0.1,0.4,0.2v0.3h-2.3v-0.3c0.2,0,0.3-0.1,0.3-0.1
		s0.1-0.1,0.2-0.1s0.1-0.2,0.1-0.3s0-0.3,0-0.6v-2.6c0-0.2,0-0.5,0-0.6s0-0.3-0.1-0.4s-0.1-0.2-0.2-0.2s-0.2-0.1-0.4-0.1v-0.3
		l1.4-0.1h0.4l-0.1,1l0.1,0c0.3-0.3,0.5-0.5,0.7-0.6s0.4-0.2,0.5-0.3s0.4-0.1,0.6-0.1c0.2,0,0.4,0,0.6,0.1s0.3,0.1,0.4,0.2
		s0.2,0.2,0.3,0.4s0.1,0.3,0.2,0.5s0.1,0.5,0.1,0.8v2.2c0,0.3,0,0.5,0,0.6s0,0.2,0.1,0.3s0.1,0.1,0.2,0.2s0.2,0.1,0.4,0.1V181.1z"/>
	<path d="M378.3,176.1l-1.1,0l-0.1,0.1c0.1,0.1,0.2,0.3,0.3,0.5s0.1,0.4,0.1,0.7c0,0.6-0.2,1.1-0.6,1.5s-1,0.5-1.7,0.5
		c-0.3,0-0.6,0-0.8-0.1c-0.3,0.2-0.4,0.4-0.4,0.7c0,0.1,0,0.3,0.1,0.3s0.2,0.1,0.3,0.2s0.3,0,0.6,0h1.4c0.4,0,0.8,0.1,1,0.2
		s0.4,0.3,0.6,0.5s0.2,0.5,0.2,0.8c0,0.4-0.1,0.7-0.3,1s-0.5,0.5-0.9,0.7s-0.9,0.2-1.4,0.2c-0.4,0-0.8,0-1.1-0.1s-0.6-0.1-0.8-0.2
		s-0.4-0.3-0.5-0.4s-0.2-0.4-0.2-0.7c0-0.2,0.1-0.5,0.2-0.7s0.4-0.4,0.7-0.5c-0.2-0.1-0.3-0.2-0.4-0.3s-0.2-0.3-0.2-0.5
		c0-0.2,0.1-0.4,0.2-0.6s0.3-0.4,0.7-0.6c-0.3-0.2-0.5-0.4-0.6-0.7s-0.2-0.6-0.2-1c0-0.3,0.1-0.6,0.2-0.9s0.3-0.5,0.5-0.6
		s0.4-0.3,0.7-0.4s0.6-0.1,0.9-0.1c0.3,0,0.6,0,0.8,0.1h2.1V176.1z M374.4,181.2c-0.2,0.1-0.3,0.3-0.4,0.5s-0.1,0.4-0.1,0.6
		c0,0.4,0.1,0.6,0.4,0.8s0.7,0.2,1.3,0.2c0.4,0,0.7,0,0.9-0.1s0.4-0.2,0.6-0.4s0.2-0.4,0.2-0.6c0-0.1,0-0.2,0-0.3s-0.1-0.2-0.2-0.3
		s-0.2-0.1-0.3-0.2s-0.3-0.1-0.6-0.1h-0.9C374.9,181.2,374.6,181.2,374.4,181.2z M374.2,177.3c0,0.5,0.1,0.9,0.3,1.1
		s0.5,0.4,0.9,0.4c0.2,0,0.4,0,0.5-0.1s0.3-0.2,0.3-0.3s0.2-0.3,0.2-0.5s0.1-0.4,0.1-0.5c0-0.3,0-0.6-0.1-0.9s-0.2-0.4-0.4-0.5
		s-0.4-0.2-0.6-0.2c-0.4,0-0.7,0.1-0.8,0.4S374.2,176.8,374.2,177.3z"/>
</g>
<g class="st6">
	<path d="M384.7,176.1h-1.4v3.5c0,0.3,0,0.5,0,0.6s0.1,0.2,0.1,0.3s0.1,0.1,0.2,0.2s0.2,0.1,0.4,0.1v0.3h-2.4v-0.3
		c0.2,0,0.3-0.1,0.4-0.1s0.1-0.1,0.2-0.2s0.1-0.2,0.1-0.3s0-0.3,0-0.6v-3.5h-0.7v-0.3c0.1,0,0.2,0,0.3-0.1s0.1,0,0.1-0.1
		s0.1-0.1,0.1-0.1s0.1-0.1,0.1-0.2s0-0.2,0.1-0.4c0-0.4,0.1-0.8,0.2-1c0.1-0.3,0.3-0.5,0.5-0.7s0.5-0.3,0.7-0.4s0.6-0.1,0.9-0.1
		c0.3,0,0.6,0,0.8,0.1v1.1h-0.6c-0.1-0.2-0.2-0.4-0.3-0.5s-0.2-0.1-0.4-0.1c-0.1,0-0.2,0-0.3,0.1s-0.2,0.1-0.2,0.2s-0.1,0.2-0.2,0.3
		c-0.1,0.1-0.1,0.3-0.1,0.5c0,0.2,0,0.4,0,0.7v0.6h1.4V176.1z"/>
	<path d="M386.9,176.5L386.9,176.5c0.3-0.2,0.5-0.5,0.7-0.6s0.4-0.3,0.6-0.3s0.5-0.1,0.7-0.1c0.2,0,0.4,0,0.6,0v1.3h-0.7
		c-0.1-0.2-0.2-0.4-0.3-0.5s-0.2-0.1-0.4-0.1c-0.1,0-0.3,0-0.4,0.1s-0.3,0.2-0.4,0.4s-0.2,0.3-0.3,0.4s-0.1,0.3-0.1,0.5v2.1
		c0,0.4,0,0.6,0.1,0.7s0.1,0.2,0.2,0.3s0.2,0.1,0.4,0.1v0.3h-2.4v-0.3c0.1,0,0.3-0.1,0.3-0.1s0.1-0.1,0.2-0.1s0.1-0.2,0.1-0.3
		s0-0.3,0-0.6v-2.6c0-0.2,0-0.5,0-0.6s0-0.3-0.1-0.4s-0.1-0.2-0.2-0.2s-0.2-0.1-0.4-0.1v-0.3l1.4-0.1h0.4L386.9,176.5z"/>
	<path d="M393.5,180.3L393.5,180.3c-0.4,0.3-0.7,0.6-1,0.7s-0.6,0.2-1,0.2c-0.3,0-0.6-0.1-0.8-0.2s-0.4-0.3-0.5-0.5
		s-0.2-0.5-0.2-0.7c0-0.6,0.3-1,0.8-1.3s1.4-0.5,2.5-0.5v-0.4c0-0.4,0-0.7-0.1-1s-0.2-0.4-0.4-0.5s-0.4-0.2-0.7-0.2
		c-0.3,0-0.5,0.1-0.7,0.2s-0.3,0.4-0.4,0.7h-0.8v-0.8c0.4-0.2,0.7-0.3,0.9-0.4s0.5-0.2,0.8-0.2s0.5-0.1,0.8-0.1
		c0.4,0,0.7,0.1,0.9,0.2s0.4,0.3,0.5,0.6s0.2,0.6,0.2,1.1v2c0,0.3,0,0.5,0,0.6s0,0.2,0,0.3s0,0.2,0.1,0.2s0.1,0.1,0.2,0.2
		s0.2,0.1,0.4,0.1v0.3h-1.6L393.5,180.3z M393.4,178.4c-0.8,0-1.4,0.1-1.8,0.3s-0.6,0.5-0.6,0.9c0,0.2,0,0.4,0.1,0.5
		s0.2,0.2,0.3,0.3s0.3,0.1,0.5,0.1c0.3,0,0.5-0.1,0.7-0.2s0.4-0.3,0.5-0.5s0.2-0.4,0.2-0.6V178.4z"/>
	<path d="M397.5,176.4L397.5,176.4c0.3-0.2,0.5-0.4,0.7-0.5s0.3-0.2,0.4-0.3s0.3-0.1,0.4-0.2s0.2,0,0.4,0c0.4,0,0.7,0.1,1,0.3
		s0.4,0.5,0.5,0.8c0.3-0.3,0.5-0.5,0.7-0.7s0.4-0.2,0.6-0.3s0.4-0.1,0.6-0.1c0.3,0,0.5,0,0.7,0.1s0.3,0.2,0.5,0.4s0.2,0.4,0.3,0.6
		s0.1,0.6,0.1,1v2.2c0,0.3,0,0.5,0,0.6s0,0.2,0.1,0.3s0.1,0.1,0.2,0.2s0.2,0.1,0.4,0.1v0.3h-2.3v-0.3c0.2,0,0.3-0.1,0.3-0.1
		s0.1-0.1,0.2-0.1s0.1-0.2,0.1-0.3s0-0.3,0-0.6v-1.5c0-0.3,0-0.6,0-0.8s0-0.4-0.1-0.5s-0.1-0.2-0.1-0.3s-0.1-0.1-0.2-0.2
		s-0.1-0.1-0.2-0.1s-0.2,0-0.4,0c-0.2,0-0.3,0-0.4,0.1s-0.3,0.2-0.4,0.3s-0.3,0.3-0.3,0.4s-0.1,0.3-0.1,0.5v2.1c0,0.3,0,0.5,0,0.6
		s0,0.2,0.1,0.3s0.1,0.1,0.2,0.2s0.2,0.1,0.4,0.1v0.3h-2.3v-0.3c0.2,0,0.3-0.1,0.3-0.1s0.1-0.1,0.2-0.1s0.1-0.2,0.1-0.3s0-0.3,0-0.6
		v-1.5c0-0.3,0-0.6,0-0.8s0-0.4-0.1-0.5s-0.1-0.2-0.2-0.3s-0.1-0.1-0.2-0.2s-0.1-0.1-0.2-0.1s-0.2,0-0.3,0c-0.2,0-0.3,0-0.5,0.1
		s-0.3,0.2-0.4,0.3s-0.3,0.3-0.3,0.4s-0.1,0.3-0.1,0.5v2.2c0,0.2,0,0.4,0,0.5s0,0.2,0.1,0.3s0.1,0.1,0.1,0.2s0.1,0.1,0.2,0.1
		s0.2,0.1,0.3,0.1v0.3H396v-0.3c0.1,0,0.3-0.1,0.3-0.1s0.1-0.1,0.2-0.1s0.1-0.2,0.1-0.3s0-0.3,0-0.6v-2.6c0-0.2,0-0.5,0-0.6
		s0-0.3-0.1-0.4s-0.1-0.2-0.2-0.2s-0.2-0.1-0.4-0.1v-0.3l1.4-0.1h0.4L397.5,176.4z"/>
	<path d="M410.6,180.1c-0.2,0.3-0.5,0.5-0.7,0.6s-0.4,0.3-0.7,0.3s-0.5,0.1-0.8,0.1c-0.8,0-1.4-0.2-1.8-0.7s-0.6-1.2-0.6-2.1
		c0-0.6,0.1-1.1,0.3-1.5s0.5-0.8,0.9-1s0.8-0.4,1.3-0.4c0.4,0,0.7,0.1,1,0.2s0.5,0.3,0.7,0.5s0.3,0.5,0.4,0.8s0.1,0.8,0.2,1.3H407
		v0.1c0,0.5,0.1,0.8,0.2,1.2s0.3,0.6,0.5,0.7s0.5,0.3,0.9,0.3c0.3,0,0.6-0.1,0.9-0.2s0.5-0.3,0.8-0.6L410.6,180.1z M409.6,177.7
		c0-0.4-0.1-0.8-0.2-1s-0.2-0.5-0.4-0.6s-0.4-0.2-0.6-0.2c-0.4,0-0.7,0.2-1,0.5s-0.4,0.8-0.4,1.4H409.6z"/>
</g>
<g>
	
		<image style="overflow:visible;" width="25" height="20" xlink:href="CC08935C.png"  transform="matrix(0.8836 0 0 0.8766 287.0506 412.6253)">
	</image>
</g>
<g>
	<path d="M17.9,155.6h0.1c0.1,0,0.2,0,0.3-0.1s0.2-0.1,0.4-0.2s0.4-0.3,0.6-0.5c0.2-0.1,0.3-0.2,0.4-0.3s0.1-0.2,0.2-0.3
		s0-0.2,0-0.3c0-0.1,0-0.2-0.1-0.2s-0.1-0.1-0.3-0.1l0.1-0.4h2.1l0.1,0.4c-0.2,0.3-0.6,0.6-1,0.9l-1.3,1l0.8,2.2
		c0.1,0.3,0.2,0.5,0.2,0.6s0.1,0.2,0.2,0.3s0.2,0.1,0.4,0.2l-0.1,0.4h-2.1l-0.8-2.5c0-0.1-0.1-0.2-0.1-0.3s-0.1-0.1-0.1-0.1
		s-0.1,0-0.2,0h-0.1l-0.6,2.9h-1.7l1.2-4.8c0.1-0.4,0.1-0.7,0.1-0.8c0-0.1,0-0.2,0-0.2s0-0.1-0.1-0.1s-0.1-0.1-0.1-0.1
		s-0.2,0-0.3-0.1l0.1-0.4l1.8-0.1h0.7L17.9,155.6z"/>
</g>
<g>
	<path d="M44.9,251.7H45c0.1,0,0.2,0,0.3-0.1s0.2-0.1,0.4-0.2s0.4-0.3,0.6-0.5c0.2-0.1,0.3-0.2,0.4-0.3s0.1-0.2,0.2-0.3s0-0.2,0-0.3
		c0-0.1,0-0.2-0.1-0.2s-0.1-0.1-0.3-0.1l0.1-0.4h2.1l0.1,0.4c-0.2,0.3-0.6,0.6-1,0.9l-1.3,1l0.8,2.2c0.1,0.3,0.2,0.5,0.2,0.6
		s0.1,0.2,0.2,0.3s0.2,0.1,0.4,0.2l-0.1,0.4h-2.1l-0.8-2.5c0-0.1-0.1-0.2-0.1-0.3s-0.1-0.1-0.1-0.1s-0.1,0-0.2,0h-0.1l-0.6,2.9h-1.7
		l1.2-4.8c0.1-0.4,0.1-0.7,0.1-0.8c0-0.1,0-0.2,0-0.2s0-0.1-0.1-0.1s-0.1-0.1-0.1-0.1s-0.2,0-0.3-0.1l0.1-0.4l1.8-0.1h0.7
		L44.9,251.7z"/>
</g>
<g>
	<path d="M97.6,249.5h0.1c0.1,0,0.2,0,0.3-0.1s0.2-0.1,0.4-0.2s0.4-0.3,0.6-0.5c0.2-0.1,0.3-0.2,0.4-0.3s0.1-0.2,0.2-0.3
		s0-0.2,0-0.3c0-0.1,0-0.2-0.1-0.2s-0.1-0.1-0.3-0.1l0.1-0.4h2.1l0.1,0.4c-0.2,0.3-0.6,0.6-1,0.9l-1.3,1l0.8,2.2
		c0.1,0.3,0.2,0.5,0.2,0.6s0.1,0.2,0.2,0.3s0.2,0.1,0.4,0.2l-0.1,0.4h-2.1l-0.8-2.5c0-0.1-0.1-0.2-0.1-0.3s-0.1-0.1-0.1-0.1
		s-0.1,0-0.2,0h-0.1l-0.6,2.9h-1.7l1.2-4.8c0.1-0.4,0.1-0.7,0.1-0.8c0-0.1,0-0.2,0-0.2s0-0.1-0.1-0.1s-0.1-0.1-0.1-0.1
		s-0.2,0-0.3-0.1l0.1-0.4l1.8-0.1h0.7L97.6,249.5z"/>
</g>
<g>
	<path d="M180.4,196.2h0.1c0.1,0,0.2,0,0.3-0.1s0.2-0.1,0.4-0.2s0.4-0.3,0.6-0.5c0.2-0.1,0.3-0.2,0.4-0.3s0.1-0.2,0.2-0.3
		s0-0.2,0-0.3c0-0.1,0-0.2-0.1-0.2s-0.1-0.1-0.3-0.1l0.1-0.4h2.1l0.1,0.4c-0.2,0.3-0.6,0.6-1,0.9l-1.3,1l0.8,2.2
		c0.1,0.3,0.2,0.5,0.2,0.6s0.1,0.2,0.2,0.3s0.2,0.1,0.4,0.2l-0.1,0.4h-2.1l-0.8-2.5c0-0.1-0.1-0.2-0.1-0.3s-0.1-0.1-0.1-0.1
		s-0.1,0-0.2,0h-0.1l-0.6,2.9H178l1.2-4.8c0.1-0.4,0.1-0.7,0.1-0.8c0-0.1,0-0.2,0-0.2s0-0.1-0.1-0.1s-0.1-0.1-0.1-0.1
		s-0.2,0-0.3-0.1l0.1-0.4l1.8-0.1h0.7L180.4,196.2z"/>
</g>
</svg>
