<?xml version="1.0" encoding="utf-8"?>
<!-- Generator: Adobe Illustrator 25.0.1, SVG Export Plug-In . SVG Version: 6.00 Build 0)  -->
<svg version="1.1" id="Layer_1" xmlns="http://www.w3.org/2000/svg" xmlns:xlink="http://www.w3.org/1999/xlink" x="0px" y="0px"
	 viewBox="0 0 311.8 290.5" style="enable-background:new 0 0 311.8 290.5;" xml:space="preserve">
<style type="text/css">
	.st0{fill:#182744;}
	.st1{fill:#43AEC5;}
</style>
<path class="st0" d="M153.9,160.1c-0.1-2.7,0.3-3.4,3.4-3.6c22.7-1.4,41.4-10.9,55.6-28.8c9.9-12.5,15-26.9,15.7-42.7
	c0.2-3.5,3-3.1,5.2-3.1c3.1,0,2.5,1.9,2.4,3.6c-1.8,36.7-27.3,67.6-63,76.3c-5.1,1.2-10.3,1.9-15.5,2.2
	C154,164.4,153.9,164.3,153.9,160.1z"/>
<path class="st0" d="M221,85.5c0.2-1.9,0.3-3.5-2.5-3.5c-2.1,0-4.8-0.7-4.9,3c-0.1,6.3-1.4,12.4-3.8,18.2
	c-9.9,23.5-27.6,36.7-53,38.4c-3.6,0.2-2.8,3.2-2.7,5.1c0.1,2.7,1.4,2.6,3.2,2.4c3-0.2,6.1-0.5,9.1-1c29.4-5.2,52.5-30.8,54.6-60.5
	C220.9,86.9,221,86.2,221,85.5z"/>
<path class="st0" d="M280.9,88.9v-7.6c0-0.2-0.2-0.3-0.3-0.3H250c-0.2,0-0.3,0.2-0.3,0.3v7.6c0,0.2,0.2,0.3,0.3,0.3h30.5
	C280.7,89.3,280.9,89.1,280.9,88.9z"/>
<path class="st0" d="M280.9,103.9v-7.6c0-0.2-0.2-0.3-0.3-0.3H250c-0.2,0-0.3,0.2-0.3,0.3v7.6c0,0.2,0.2,0.3,0.3,0.3h30.5
	C280.7,104.2,280.9,104.1,280.9,103.9z"/>
<path class="st0" d="M280.9,118.9v-7.6c0-0.2-0.2-0.3-0.3-0.3H250c-0.2,0-0.3,0.2-0.3,0.3v7.6c0,0.2,0.2,0.3,0.3,0.3h30.5
	C280.7,119.2,280.9,119.1,280.9,118.9z"/>
<path class="st0" d="M280.9,133.8v-7.6c0-0.2-0.2-0.3-0.3-0.3H250c-0.2,0-0.3,0.2-0.3,0.3v7.6c0,0.2,0.2,0.3,0.3,0.3h30.5
	C280.7,134.2,280.9,134,280.9,133.8z"/>
<path class="st0" d="M280.9,148.8v-7.6c0-0.2-0.2-0.3-0.3-0.3H250c-0.2,0-0.3,0.2-0.3,0.3v7.6c0,0.2,0.2,0.3,0.3,0.3h30.5
	C280.7,149.1,280.9,149,280.9,148.8z"/>
<path class="st0" d="M280.9,163.8v-7.6c0-0.2-0.2-0.3-0.3-0.3H250c-0.2,0-0.3,0.2-0.3,0.3v7.6c0,0.2,0.2,0.3,0.3,0.3h30.5
	C280.7,164.1,280.9,164,280.9,163.8z"/>
<path class="st0" d="M280.9,178.7v-7.6c0-0.2-0.2-0.3-0.3-0.3H250c-0.2,0-0.3,0.2-0.3,0.3v7.6c0,0.2,0.2,0.3,0.3,0.3l30.5,0
	C280.7,179.1,280.9,178.9,280.9,178.7z"/>
<path class="st0" d="M280.9,193.7v-7.6c0-0.2-0.2-0.3-0.3-0.3H250c-0.2,0-0.3,0.2-0.3,0.3v7.6c0,0.2,0.2,0.3,0.3,0.3h30.5
	C280.7,194.1,280.9,193.9,280.9,193.7z"/>
<path class="st0" d="M280.9,208.7v-7.6c0-0.2-0.2-0.3-0.3-0.3H250c-0.2,0-0.3,0.2-0.3,0.3v7.6c0,0.2,0.2,0.3,0.3,0.3h30.5
	C280.7,209,280.9,208.9,280.9,208.7z"/>
<path class="st0" d="M235,178.7v-7.6c0-0.2-0.2-0.3-0.3-0.3H122c-0.2,0-0.3,0.2-0.3,0.3v7.6c0,0.2,0.2,0.3,0.3,0.3h112.6
	C234.8,179.1,235,178.9,235,178.7z"/>
<path class="st1" d="M235,193.7v-7.6c0-0.2-0.2-0.3-0.3-0.3h-78.3c-0.2,0-0.3,0.2-0.3,0.3v7.6c0,0.2,0.2,0.3,0.3,0.3h78.3
	C234.8,194.1,235,193.9,235,193.7z"/>
<path class="st0" d="M235,208.7v-7.6c0-0.2-0.2-0.3-0.3-0.3H122c-0.2,0-0.3,0.2-0.3,0.3v7.6c0,0.2,0.2,0.3,0.3,0.3h112.6
	C234.8,209,235,208.9,235,208.7z"/>
</svg>
