<?xml version="1.0" encoding="utf-8"?>
<!-- Generator: Adobe Illustrator 25.0.1, SVG Export Plug-In . SVG Version: 6.00 Build 0)  -->
<svg version="1.1" id="Layer_1" xmlns="http://www.w3.org/2000/svg" xmlns:xlink="http://www.w3.org/1999/xlink" x="0px" y="0px"
	 viewBox="0 0 595.3 290.5" style="enable-background:new 0 0 595.3 290.5;" xml:space="preserve">
<style type="text/css">
	.st0{fill:#182744;}
	.st1{fill:#43AEC5;}
</style>
<path id="sze_logo_2_" class="st0" d="M68.8,162.7c-0.1-2.7,0.3-3.3,3.3-3.5c22.3-1.4,40.6-10.7,54.5-28.2
	c9.7-12.2,14.7-26.4,15.4-41.9c0.2-3.5,3-3,5.1-3c3,0,2.4,1.8,2.3,3.6c-1.7,36-26.8,66.4-61.8,74.9c-5,1.2-10.1,1.9-15.2,2.2
	C68.8,166.8,68.8,166.7,68.8,162.7z M134.6,89.4c0.2-1.9,0.3-3.4-2.5-3.5c-2.1,0-4.7-0.6-4.8,3c-0.1,6.1-1.4,12.2-3.7,17.8
	c-9.7,23-27.1,36-52,37.7c-3.5,0.2-2.8,3.1-2.7,5c0.1,2.6,1.4,2.5,3.2,2.4c3-0.2,6-0.5,8.9-1c28.8-5.1,51.5-30.2,53.5-59.4
	C134.5,90.8,134.6,90.1,134.6,89.4z M257.9,97.6c3.6,0,7.1,1.3,10.5,3.9l4.4-6.4c-1.9-1.6-4.2-2.9-6.8-3.8c-2.6-0.9-5.2-1.3-7.9-1.3
	c-4,0-7.3,1-10,3c-2.7,2-4,4.9-4,8.6c0,3.7,1.1,6.5,3.2,8.2c2.1,1.7,5.5,3.2,10,4.2c2.9,0.7,4.8,1.4,5.8,2.1c1,0.7,1.5,1.6,1.5,2.8
	c0,1.2-0.5,2.1-1.4,2.8c-0.9,0.7-2.2,1-3.8,1c-3.6,0-7.5-1.9-11.7-5.6l-5.2,6.4c5,4.6,10.6,6.9,16.8,6.9c4.3,0,7.8-1.1,10.4-3.3
	c2.6-2.2,4-5,4-8.6c0-3.5-1-6.2-3.1-8c-2.1-1.8-4.9-3.2-8.7-4.1c-3.7-0.9-6.1-1.7-7.1-2.4c-1-0.7-1.5-1.6-1.5-2.7
	c0-1.1,0.4-2.1,1.3-2.7C255.3,97.9,256.5,97.6,257.9,97.6z M311.7,130v-7.6h-20.8l20.5-25.5v-6.1h-31.8v7.6h19.9L278.9,124v6H311.7z
	 M319.3,90.8V130h28.9v-7.7h-20.1v-8.1h17.6v-7.5h-17.6v-8.1h19.5v-7.8H319.3z M344.5,80.5l-8.7-3.6l-7.1,9.9h8L344.5,80.5z
	 M366,119c-2.2-2.2-3.3-5.1-3.3-8.8c0-3.6,1.2-6.5,3.5-8.7c2.3-2.2,5.2-3.2,8.4-3.2c4.1,0,7.6,1.7,10.3,5.2l5.4-6.2
	c-4.3-4.9-9.7-7.4-16.2-7.4c-5.8,0-10.6,1.9-14.6,5.8c-4,3.9-6,8.7-6,14.6c0,5.8,2,10.6,5.9,14.4c3.9,3.8,8.9,5.7,14.9,5.7
	s11.3-2.5,15.7-7.5l-5.6-5.8c-2.7,3.4-6.2,5.1-10.5,5.1C370.9,122.3,368.2,121.2,366,119z M421.4,107.2h-15.6V90.8h-8.8V130h8.8
	v-15.4h15.6V130h8.8V90.8h-8.8V107.2z M439.8,90.8V130h28.9v-7.7h-20.1v-8.1h17.6v-7.5h-17.6v-8.1h19.5v-7.8H439.8z M504,116.1
	l-19.2-25.2h-8.2V130h8.8v-24.6L504,130h8.8V90.8H504V116.1z M539.3,114.5l13.6-23.7h-9.5l-8.5,14.6l-8.5-14.6h-9.5l13.6,23.7V130
	h8.8V114.5z M557,130h8.8V90.8H557V130z M245.3,138.9v39.2h28.9v-7.7h-20.1v-8.1h17.6v-7.5h-17.6v-8.1h19.5v-7.8H245.3z
	 M308.1,168.9c-2,1.2-4.5,1.7-7.6,1.7c-3,0-5.6-1.1-7.8-3.3c-2.2-2.2-3.3-5.2-3.3-8.9s1.1-6.7,3.4-8.9c2.3-2.3,5.1-3.4,8.4-3.4
	c1.7,0,3.3,0.3,4.8,0.9c1.5,0.6,3.1,1.6,4.9,3.2l4.5-6.6c-4.2-3.7-9-5.6-14.7-5.6c-5.6,0-10.4,1.9-14.4,5.8c-4,3.9-6,8.7-6,14.6
	c0,5.8,2,10.6,5.9,14.4c3.9,3.8,8.7,5.7,14.5,5.7c6.9,0,12.3-2.2,16.2-6.5v-13.9h-8.8V168.9z M341.5,162.6l13.6-23.7h-9.5l-8.5,14.6
	l-8.5-14.6h-9.5l13.6,23.7v15.5h8.8V162.6z M359.9,138.9v39.2h28.9v-7.7h-20.1v-8.1h17.6v-7.5h-17.6v-8.1h19.5v-7.8H359.9z
	 M425,146.4v-7.6h-31v7.6h11.1v31.6h8.8v-31.6H425z M432,138.9v39.2h28.9v-7.7h-20.1v-8.1h17.6v-7.5h-17.6v-8.1h19.5v-7.8H432z
	 M504.4,178.1h8.8v-39.2h-11.8l-10.2,21.5l-10.1-21.5h-11.8v39.2h8.8v-24.7l10.5,21.4h5.2l10.6-21.4V178.1z M244.4,203v-9.4h-2.9
	v9.6c0,2.5,0.7,4.3,2,5.7c1.3,1.3,3.1,2,5.2,2c2.1,0,3.8-0.7,5.2-2c1.3-1.3,2-3.2,2-5.7v-9.6h-2.9v9.4c0,1.6-0.4,2.8-1.2,3.7
	c-0.8,0.9-1.8,1.4-3.2,1.4c-1.3,0-2.4-0.5-3.2-1.4C244.8,205.8,244.4,204.6,244.4,203z M273.2,206.3l-9.9-12.7h-2.9v17h2.9v-12.4
	l9.6,12.4h3.1v-17h-2.9V206.3z M280.8,210.6h2.9v-17h-2.9V210.6z M303,193.6h-3.2l-5.2,12.7l-5.2-12.7h-3.2l6.8,17h3.2L303,193.6z
	 M305.5,193.6v17h12.3v-2.7h-9.4v-4.6h8.2v-2.6h-8.2v-4.5h9.1v-2.7H305.5z M333.3,194.9c-1.1-0.9-3-1.3-5.6-1.3h-6.3v17h2.9v-5.7
	h3.8l4.1,5.7h3.7l-4.5-6.2c2.5-0.7,3.7-2.5,3.7-5.3C335,197.2,334.4,195.8,333.3,194.9z M327.9,202.3h-3.6v-6.1h3.7
	c1.5,0,2.6,0.2,3.2,0.6c0.6,0.4,0.9,1.2,0.9,2.3c0,1.1-0.3,1.9-0.9,2.4C330.6,202,329.5,202.3,327.9,202.3z M346.8,196.3
	c0.9,0.3,1.5,0.7,2,1.1l1.5-2.2c-0.8-0.6-1.7-1.2-2.8-1.5c-1.1-0.4-2.2-0.5-3.2-0.5c-1.7,0-3.1,0.4-4.3,1.3
	c-1.1,0.9-1.7,2.1-1.7,3.6s0.5,2.7,1.5,3.5c0.5,0.4,1.1,0.7,1.7,1c0.6,0.3,1.6,0.5,2.9,0.8c1.3,0.3,2.1,0.6,2.6,1
	c0.5,0.4,0.8,0.9,0.8,1.5s-0.3,1.2-0.8,1.6c-0.5,0.4-1.3,0.6-2.2,0.6c-1.9,0-3.6-0.7-5.4-2.2l-1.8,2.2c2.1,1.8,4.4,2.8,7.1,2.8
	c1.8,0,3.3-0.5,4.4-1.4c1.1-0.9,1.7-2.1,1.7-3.6c0-1.5-0.4-2.6-1.3-3.4c-0.9-0.8-2.2-1.4-3.9-1.8c-1.7-0.4-2.9-0.8-3.4-1.2
	s-0.8-0.9-0.8-1.6s0.3-1.2,0.8-1.5s1.2-0.5,2.1-0.5C345.1,195.8,346,196,346.8,196.3z M354.5,210.6h2.9v-17h-2.9V210.6z
	 M373.7,196.2v-2.6h-13.2v2.6h5.2v14.4h2.9v-14.4H373.7z M383.5,203.9l6.3-10.3h-3.1l-4.7,7.7l-4.7-7.7h-3.1l6.3,10.3v6.7h2.9V203.9
	z M415.5,202c0-2.5-0.9-4.6-2.6-6.3c-1.7-1.7-3.8-2.5-6.4-2.5c-2.5,0-4.7,0.8-6.4,2.5c-1.7,1.7-2.6,3.8-2.6,6.3s0.9,4.6,2.6,6.3
	c1.7,1.7,3.8,2.5,6.4,2.5c2.5,0,4.7-0.8,6.4-2.5C414.7,206.6,415.5,204.5,415.5,202z M412.6,202c0,1.7-0.6,3.2-1.7,4.4
	c-1.2,1.2-2.6,1.8-4.3,1.8c-1.7,0-3.1-0.6-4.3-1.8c-1.2-1.2-1.7-2.7-1.7-4.4c0-1.7,0.6-3.2,1.7-4.4c1.2-1.2,2.6-1.8,4.3-1.8
	c1.7,0,3.1,0.6,4.3,1.8C412,198.8,412.6,200.3,412.6,202z M430.5,196.3l0-2.7h-11.4v17h2.9v-7h7.6V201H422v-4.7H430.5z M452.3,207
	c-1.1,0.7-2.4,1-4.1,1c-1.6,0-3-0.5-4.1-1.6c-1.1-1.1-1.7-2.6-1.7-4.4c0-1.8,0.6-3.3,1.8-4.4c1.2-1.1,2.6-1.7,4.3-1.7
	c0.9,0,1.7,0.1,2.4,0.3c0.7,0.2,1.3,0.6,2,1.2l1.5-2.2c-1.6-1.4-3.7-2.1-6.1-2.1s-4.5,0.8-6.3,2.5c-1.7,1.7-2.6,3.8-2.6,6.3
	c0,2.5,0.8,4.6,2.5,6.3c1.7,1.7,3.8,2.5,6.3,2.5c3,0,5.3-0.9,6.9-2.7v-5.8h-2.9V207z M465.4,203.9l6.3-10.3h-3.1l-4.7,7.7l-4.7-7.7
	h-3.1l6.3,10.3v6.7h2.9V203.9z M490.8,202c0-2.5-0.9-4.6-2.6-6.3c-1.7-1.7-3.8-2.5-6.4-2.5c-2.5,0-4.7,0.8-6.4,2.5
	c-1.7,1.7-2.6,3.8-2.6,6.3s0.9,4.6,2.6,6.3c1.7,1.7,3.8,2.5,6.4,2.5c2.5,0,4.7-0.8,6.4-2.5C489.9,206.6,490.8,204.5,490.8,202z
	 M487.8,202c0,1.7-0.6,3.2-1.7,4.4c-1.2,1.2-2.6,1.8-4.3,1.8s-3.1-0.6-4.3-1.8c-1.2-1.2-1.7-2.7-1.7-4.4c0-1.7,0.6-3.2,1.7-4.4
	c1.2-1.2,2.6-1.8,4.3-1.8s3.1,0.6,4.3,1.8C487.2,198.8,487.8,200.3,487.8,202z M506.3,194.9c-1.1-0.9-3-1.3-5.6-1.3h-6.3v17h2.9
	v-5.7h3.8l4.1,5.7h3.7l-4.5-6.2c2.5-0.7,3.7-2.5,3.7-5.3C508,197.2,507.4,195.8,506.3,194.9z M500.8,202.3h-3.6v-6.1h3.7
	c1.5,0,2.6,0.2,3.2,0.6c0.6,0.4,0.9,1.2,0.9,2.3c0,1.1-0.3,1.9-0.9,2.4C503.6,202,502.5,202.3,500.8,202.3z M193.4,92.8v-7.4
	c0-0.2-0.2-0.3-0.3-0.3h-29.9c-0.2,0-0.3,0.2-0.3,0.3v7.4c0,0.2,0.2,0.3,0.3,0.3H193C193.2,93.1,193.4,93,193.4,92.8z M193.4,107.5
	V100c0-0.2-0.2-0.3-0.3-0.3h-29.9c-0.2,0-0.3,0.2-0.3,0.3v7.4c0,0.2,0.2,0.3,0.3,0.3H193C193.2,107.8,193.4,107.7,193.4,107.5z
	 M193.4,122.2v-7.4c0-0.2-0.2-0.3-0.3-0.3h-29.9c-0.2,0-0.3,0.2-0.3,0.3v7.4c0,0.2,0.2,0.3,0.3,0.3H193
	C193.2,122.5,193.4,122.3,193.4,122.2z M193.4,136.8v-7.4c0-0.2-0.2-0.3-0.3-0.3h-29.9c-0.2,0-0.3,0.2-0.3,0.3v7.4
	c0,0.2,0.2,0.3,0.3,0.3H193C193.2,137.2,193.4,137,193.4,136.8z M193.4,151.5v-7.4c0-0.2-0.2-0.3-0.3-0.3h-29.9
	c-0.2,0-0.3,0.2-0.3,0.3v7.4c0,0.2,0.2,0.3,0.3,0.3H193C193.2,151.9,193.4,151.7,193.4,151.5z M193.4,166.2v-7.4
	c0-0.2-0.2-0.3-0.3-0.3h-29.9c-0.2,0-0.3,0.2-0.3,0.3v7.4c0,0.2,0.2,0.3,0.3,0.3H193C193.2,166.6,193.4,166.4,193.4,166.2z
	 M193.4,180.9v-7.4c0-0.2-0.2-0.3-0.3-0.3h-29.9c-0.2,0-0.3,0.2-0.3,0.3v7.4c0,0.2,0.2,0.3,0.3,0.3H193
	C193.2,181.3,193.4,181.1,193.4,180.9z M193.4,195.6v-7.4c0-0.2-0.2-0.3-0.3-0.3h-29.9c-0.2,0-0.3,0.2-0.3,0.3v7.4
	c0,0.2,0.2,0.3,0.3,0.3H193C193.2,195.9,193.4,195.8,193.4,195.6z M193.4,210.3v-7.4c0-0.2-0.2-0.3-0.3-0.3h-29.9
	c-0.2,0-0.3,0.2-0.3,0.3v7.4c0,0.2,0.2,0.3,0.3,0.3H193C193.2,210.6,193.4,210.5,193.4,210.3z M148.3,180.9v-7.4
	c0-0.2-0.2-0.3-0.3-0.3H37.5c-0.2,0-0.3,0.2-0.3,0.3v7.4c0,0.2,0.2,0.3,0.3,0.3H148C148.1,181.3,148.3,181.1,148.3,180.9z
	 M148.3,210.3v-7.4c0-0.2-0.2-0.3-0.3-0.3H37.5c-0.2,0-0.3,0.2-0.3,0.3v7.4c0,0.2,0.2,0.3,0.3,0.3H148
	C148.1,210.6,148.3,210.5,148.3,210.3z M561.7,210.3v-7.4c0-0.2-0.2-0.3-0.3-0.3h-40.1c-0.2,0-0.3,0.2-0.3,0.3v7.4
	c0,0.2,0.2,0.3,0.3,0.3h40.1C561.6,210.6,561.7,210.5,561.7,210.3z M485.9,188.6l-2-1l-2.1,4.1h2.1L485.9,188.6z M482.2,188.4
	l-2-0.8l-2.1,4.1h2.1L482.2,188.4z"/>
<path class="st1" d="M147.9,195.6v-7.4c0-0.2-0.2-0.3-0.3-0.3H70.8c-0.2,0-0.3,0.2-0.3,0.3v7.4c0,0.2,0.2,0.3,0.3,0.3h76.8
	C147.8,195.9,147.9,195.8,147.9,195.6z"/>
</svg>
